<?xml version="1.0" encoding="UTF-8"?>
<svg version="1.1" xmlns="http://www.w3.org/2000/svg" width="512" height="512">
<path d="M0 0 C6.39539029 2.48866142 10.24555184 7.1701246 14.20703125 12.58203125 C34.56758334 40.03994355 68.50860288 56.26582116 101.7109375 61.421875 C104.7522017 61.85452346 107.79575295 62.20264411 110.8515625 62.515625 C111.65907959 62.59844727 112.46659668 62.68126953 113.29858398 62.76660156 C114.84370331 62.91756059 116.39014086 63.05580266 117.93774414 63.17871094 C125.42354627 63.86647061 130.06337721 66.39626602 135 72 C139.30668161 77.99859224 139.14650155 84.30169323 139.09765625 91.4609375 C139.09553383 92.6467894 139.09553383 92.6467894 139.09336853 93.8565979 C139.08780504 96.36277166 139.07525944 98.86885358 139.0625 101.375 C139.05748028 103.08202995 139.0529182 104.78906132 139.04882812 106.49609375 C139.03784759 110.66409748 139.02060839 114.83203321 139 119 C140.50431328 118.98667633 140.50431328 118.98667633 142.03901672 118.9730835 C151.52743914 118.89171265 161.01579001 118.83189848 170.50448322 118.79275131 C175.38179979 118.77194816 180.25883287 118.74376461 185.13598633 118.69824219 C189.8498275 118.65452347 194.56339737 118.63080831 199.27742577 118.62049103 C201.06862847 118.61314609 202.85981768 118.59880404 204.6509037 118.57707977 C218.0602599 118.4210238 229.76585952 119.25961191 240 129 C248.35589688 138.15350522 249.44347573 146.8023002 249.38768005 158.84042358 C249.39185687 160.24676234 249.3973363 161.65309773 249.40399987 163.0594269 C249.41842774 166.91005024 249.41421812 170.76045905 249.40683305 174.611094 C249.40209706 178.76934971 249.41461507 182.9275593 249.42485046 187.08580017 C249.44203556 195.22688018 249.44287905 203.367883 249.43763756 211.50897644 C249.43359396 218.12722461 249.43504168 224.74544998 249.44038582 231.36369705 C249.44113424 232.30612409 249.44188266 233.24855112 249.44265376 234.21953655 C249.44418526 236.13416397 249.44572361 238.04879139 249.44726873 239.9634188 C249.46099282 257.91354779 249.4555568 275.86363319 249.44408352 293.81376119 C249.43415203 310.22828425 249.44709053 326.64269457 249.47101771 343.05720024 C249.49541215 359.91955857 249.50501568 376.7818644 249.49836498 393.64424002 C249.49487343 403.10799731 249.49710058 412.5716679 249.51461601 422.03541183 C249.52934232 430.0919883 249.52996785 438.14841703 249.5125451 446.20499061 C249.50403611 450.31361822 249.50188295 454.42198197 249.51719666 458.53059578 C249.53105699 462.29596628 249.52626374 466.0608472 249.50695742 469.82618947 C249.50142948 471.82461768 249.51545775 473.82307089 249.53031152 475.82145154 C249.44283522 486.54232786 247.16440071 494.48945875 239.7109375 502.3203125 C229.36250725 512.47973033 218.14617686 512.58060043 204.40136719 512.50793457 C202.50245053 512.51254705 200.60353745 512.51890229 198.70463181 512.52684355 C193.50170978 512.54351227 188.29908195 512.53530158 183.09615898 512.52289867 C177.47916566 512.5138405 171.86222257 512.52782174 166.24523926 512.53881836 C155.24755126 512.55659992 144.2499725 512.55276517 133.25228024 512.5411678 C124.31380759 512.53213234 115.37536555 512.53090997 106.43688965 512.53526306 C105.16446561 512.53587599 103.89204156 512.53648893 102.58105922 512.53712043 C99.99611186 512.53839934 97.41116451 512.53969619 94.82621717 512.5410108 C71.28096074 512.55209046 47.73577747 512.54060263 24.19053334 512.51964041 C2.70641742 512.50065863 -18.77760366 512.50235717 -40.26171875 512.52148438 C-64.41138391 512.54291295 -88.56098164 512.55131691 -112.71065903 512.53903532 C-115.28606923 512.53776113 -117.86147943 512.53650365 -120.43688965 512.53526306 C-121.70402337 512.53464596 -122.9711571 512.53402886 -124.27668881 512.53339306 C-133.20388135 512.52994012 -142.13104022 512.5357673 -151.05822754 512.54518127 C-161.93826863 512.55640244 -172.81819429 512.55335862 -183.69822216 512.5320583 C-189.24882548 512.52154959 -194.79923638 512.51742319 -200.34983826 512.53065491 C-205.43259212 512.54258806 -210.51497549 512.53600073 -215.59769583 512.5147447 C-217.43470567 512.51028259 -219.27174692 512.51253608 -221.10873652 512.52224785 C-233.76920173 512.58403806 -243.77498571 511.79624854 -253.3203125 502.7109375 C-262.24038895 493.62490614 -263.59361051 484.3137067 -263.50793457 471.91906738 C-263.51255071 470.51100029 -263.51890839 469.10293803 -263.52684355 467.69488573 C-263.5434624 463.84871586 -263.53532477 460.00294561 -263.52289867 456.15677476 C-263.5138198 451.99991103 -263.52783193 447.8431143 -263.53881836 443.68626404 C-263.55657797 435.55211634 -263.55277502 427.41811651 -263.5411678 419.28396308 C-263.53212366 412.67147923 -263.53091371 406.05903673 -263.53526306 399.44654846 C-263.53587599 398.50439241 -263.53648893 397.56223635 -263.53712043 396.59153011 C-263.53839937 394.67738576 -263.53969622 392.76324141 -263.5410108 390.84909707 C-263.5524091 372.91229535 -263.53931466 354.97557548 -263.51780933 337.03878719 C-263.49993903 321.65781584 -263.50304335 306.27696526 -263.52148438 290.89599609 C-263.54290433 273.02211695 -263.55131054 255.1483095 -263.53903532 237.27441931 C-263.53776116 235.36743006 -263.53650368 233.46044081 -263.53526306 231.55345154 C-263.53464596 230.61524694 -263.53402886 229.67704233 -263.53339306 228.71040729 C-263.52994353 222.10807319 -263.53575992 215.50578468 -263.54518127 208.90345764 C-263.55641513 200.8542415 -263.55333208 192.80518133 -263.5320583 184.755983 C-263.52156652 180.65139728 -263.51739394 176.54707135 -263.53065491 172.44248772 C-263.54262372 168.68088909 -263.53594314 164.91978967 -263.5147447 161.15823597 C-263.5082 159.16189807 -263.52117451 157.16552519 -263.53497362 155.16922426 C-263.44043792 144.27933339 -260.96788707 136.04678253 -253.421875 128.046875 C-245.52572027 121.37335068 -237.11142909 118.8382454 -227.01855469 118.88647461 C-226.2181778 118.88632858 -225.4178009 118.88618256 -224.59317017 118.8860321 C-221.95271069 118.8867277 -219.31232212 118.8945036 -216.671875 118.90234375 C-214.83913207 118.90420918 -213.00638863 118.90563249 -211.17364502 118.90663147 C-206.35350158 118.91044678 -201.53338835 118.92026867 -196.71325684 118.93133545 C-191.79321705 118.94157075 -186.87317237 118.94613363 -181.953125 118.95117188 C-172.30207007 118.96189181 -162.65103755 118.97895641 -153 119 C-153.01571045 117.9262915 -153.0314209 116.85258301 -153.04760742 115.74633789 C-153.10229954 111.72639601 -153.13649158 107.70648638 -153.16479492 103.6862793 C-153.17979269 101.95314994 -153.20019772 100.22005796 -153.22631836 98.48706055 C-153.26310203 95.98216475 -153.27981651 93.4777748 -153.29296875 90.97265625 C-153.30845261 90.20977798 -153.32393646 89.44689972 -153.33988953 88.66090393 C-153.34200121 81.76381254 -152.093586 75.46935785 -147.5625 70.125 C-146.716875 69.42375 -145.87125 68.7225 -145 68 C-144.37738281 67.48179688 -143.75476563 66.96359375 -143.11328125 66.4296875 C-140.81633908 64.8757488 -139.34677626 64.43403741 -136.625 64 C-135.66335937 63.84273437 -134.70171875 63.68546875 -133.7109375 63.5234375 C-130.78032736 63.11006723 -127.85011743 62.72273837 -124.9140625 62.3515625 C-113.98255339 60.96022729 -103.52298778 59.38817079 -93 56 C-92.3802832 55.80067871 -91.76056641 55.60135742 -91.12207031 55.39599609 C-74.21047056 49.82879688 -58.53983063 41.58526191 -45 30 C-43.99710938 29.15953125 -42.99421875 28.3190625 -41.9609375 27.453125 C-35.5716719 21.94194643 -30.25538975 15.94044063 -25.27124023 9.1262207 C-18.61427009 0.27412904 -10.91862658 -1.59875463 0 0 Z M-9 18 C-10.93898356 19.86052069 -10.93898356 19.86052069 -12.6875 22.375 C-19.91223935 31.82581217 -27.52028256 39.78501924 -37 47 C-37.5165918 47.39687012 -38.03318359 47.79374023 -38.56542969 48.20263672 C-67.33727726 70.14269351 -98.57204245 78.26349123 -134 82 C-135.24008569 85.72025708 -135.13952056 89.16714809 -135.12939453 93.04125977 C-135.13114685 93.86134521 -135.13289917 94.68143066 -135.13470459 95.52636719 C-135.13911734 98.24806822 -135.13618307 100.96970451 -135.1328125 103.69140625 C-135.13348667 105.59455884 -135.13445764 107.49771135 -135.13571167 109.40086365 C-135.13718865 113.40323704 -135.13503763 117.40558817 -135.13037109 121.40795898 C-135.12473172 126.48762362 -135.12791553 131.56723474 -135.13394356 136.64689732 C-135.13759904 140.58766566 -135.136387 144.52842184 -135.13381577 148.4691906 C-135.13315715 150.33829696 -135.1339368 152.20740449 -135.13629532 154.07650948 C-135.17874607 197.2535934 -127.86659552 238.38929042 -100 273 C-99.31236572 273.86262451 -99.31236572 273.86262451 -98.61083984 274.74267578 C-77.44832311 301.03289539 -49.14854206 320.0706028 -16.875 330.0625 C-16.20090088 330.27874023 -15.52680176 330.49498047 -14.83227539 330.71777344 C1.86784126 335.53962349 23.80654227 322.69346364 38 315 C47.33171166 309.58072234 55.87194348 303.08386824 64 296 C64.97582031 295.15824219 65.95164062 294.31648438 66.95703125 293.44921875 C99.78708566 264.60208647 117.45848686 223.2004908 120.58105469 180.1159668 C121.58077561 163.48603436 121.25257419 146.78046365 121.19561768 130.12835693 C121.18467366 126.07931906 121.18515281 122.03031424 121.18575573 117.98126411 C121.18548465 114.07116745 121.18001758 110.16109267 121.17275429 106.25100327 C121.16957842 104.38903849 121.16760275 102.52707125 121.16686058 100.66510391 C121.16470011 98.08675071 121.15596986 95.5085058 121.14526367 92.93017578 C121.14571686 92.16672348 121.14617004 91.40327118 121.14663696 90.61668396 C121.12749657 87.47510648 121.00114389 85.00343167 120 82 C118.83150513 81.85751831 118.83150513 81.85751831 117.6394043 81.7121582 C102.14081763 79.78895925 86.91976136 77.78844885 72 73 C71.3385498 72.79181641 70.67709961 72.58363281 69.99560547 72.36914062 C40.71994962 62.92772346 14.63010271 44.44205782 -4 20 C-4.33 19.34 -4.66 18.68 -5 18 C-6.32 18 -7.64 18 -9 18 Z M-240 141 C-244.21831217 145.54279772 -245.12533386 148.07705986 -245.11352539 154.19384766 C-245.11344986 155.49504547 -245.11337433 156.79624329 -245.11329651 158.13687134 C-245.10818947 159.56260211 -245.10297347 160.9883325 -245.09765625 162.4140625 C-245.09579147 163.86851961 -245.09436785 165.32297734 -245.09336853 166.7774353 C-245.08954805 170.60792776 -245.07972176 174.43838237 -245.06866455 178.26885986 C-245.05664314 182.86353778 -245.05204595 187.45822834 -245.04621124 192.05291748 C-245.03650977 199.03530465 -245.01734995 206.01760877 -245 213 C-231.47 213 -217.94 213 -204 213 C-204 187.92 -204 162.84 -204 137 C-229.31671843 134.91300322 -229.31671843 134.91300322 -240 141 Z M-186 137 C-186 162.08 -186 187.16 -186 213 C-173.46 213 -160.92 213 -148 213 C-148.93602047 206.43452426 -148.93602047 206.43452426 -149.88452148 199.87084961 C-151.93473326 185.16497539 -152.22712876 170.38317114 -152.5625 155.5625 C-152.60582866 153.75194613 -152.64944672 151.94139917 -152.69335938 150.13085938 C-152.79942912 145.75398131 -152.89959969 141.37702621 -153 137 C-163.89 137 -174.78 137 -186 137 Z M139 137 C138.95101563 139.54847656 138.90203125 142.09695312 138.8515625 144.72265625 C138.37775404 167.72972491 137.26007652 190.17946438 134 213 C146.54 213 159.08 213 172 213 C172 187.92 172 162.84 172 137 C161.11 137 150.22 137 139 137 Z M190 137 C190 162.08 190 187.16 190 213 C203.53 213 217.06 213 231 213 C231.11641474 201.59378942 231.11641474 201.59378942 231.1953125 190.1875 C231.21919035 185.53269123 231.24738577 180.87819829 231.30175781 176.22363281 C231.34533619 172.46941805 231.36916219 168.71554214 231.37950897 164.9610939 C231.38687898 163.53138014 231.40127114 162.10168417 231.42292023 160.67211533 C231.4521076 158.66424519 231.4536352 156.65603143 231.45410156 154.64794922 C231.46742523 152.9358577 231.46742523 152.9358577 231.48101807 151.18917847 C230.68239708 145.89427372 228.13458257 142.85672562 223.9375 139.6875 C212.86007101 133.32387058 206.65247573 137 190 137 Z M-245 231 C-245 256.08 -245 281.16 -245 307 C-194.84 307 -144.68 307 -93 307 C-95.475 304.525 -95.475 304.525 -98 302 C-118.39240057 281.02328996 -131.1961629 257.55863348 -143 231 C-176.66 231 -210.32 231 -245 231 Z M129 231 C127.68 233.97 126.36 236.94 125 240 C113.40736961 265.75336663 98.98194057 287.01805943 79 307 C129.16 307 179.32 307 231 307 C231 281.92 231 256.84 231 231 C197.34 231 163.68 231 129 231 Z M-245 325 C-245 350.08 -245 375.16 -245 401 C-231.47 401 -217.94 401 -204 401 C-204 375.92 -204 350.84 -204 325 C-217.53 325 -231.06 325 -245 325 Z M-186 325 C-186 350.08 -186 375.16 -186 401 C-129.9 401 -73.8 401 -16 401 C-16 383.51 -16 366.02 -16 348 C-23.92 345.36 -31.84 342.72 -40 340 C-59.31244517 331.28840789 -59.31244517 331.28840789 -62.58023834 328.7935257 C-68.49080949 324.49166924 -73.49588011 324.31167446 -80.6484375 324.43237305 C-81.79077347 324.43164291 -82.93310944 324.43091278 -84.11006165 324.43016052 C-87.86553319 324.43362889 -91.61974655 324.47245776 -95.375 324.51171875 C-97.98672814 324.52104946 -100.59846505 324.52816435 -103.21020508 324.53315735 C-109.36899008 324.54865246 -115.52732742 324.58962112 -121.68591595 324.6399048 C-129.39078489 324.7014381 -137.09572765 324.72867997 -144.80078125 324.75585938 C-158.53420223 324.80445415 -172.26664743 324.9046295 -186 325 Z M39 334 C27.28206967 340.29331551 14.65243326 344.00449476 2 348 C2 365.49 2 382.98 2 401 C58.1 401 114.2 401 172 401 C172 375.92 172 350.84 172 325 C150.59107145 324.72921787 150.59107145 324.72921787 129.18190193 324.54771519 C121.51902608 324.49802261 113.85704096 324.43514441 106.19482422 324.32104492 C99.47086436 324.22096585 92.74806719 324.16931665 86.02333069 324.14610481 C83.46860105 324.12958162 80.91391917 324.0973167 78.35960388 324.04842949 C62.64049578 323.75977325 51.88207372 324.71798551 39 334 Z M190 325 C190 350.08 190 375.16 190 401 C203.53 401 217.06 401 231 401 C231 375.92 231 350.84 231 325 C217.47 325 203.94 325 190 325 Z M-245 419 C-249.4820594 455.96260967 -249.4820594 455.96260967 -241 489 C-236.83743218 492.66702403 -234.55624098 494.12581438 -229.05197144 494.12025452 C-227.48281479 494.12231651 -227.48281479 494.12231651 -225.88195801 494.12442017 C-224.72965698 494.12082489 -223.57735596 494.11722961 -222.39013672 494.11352539 C-221.18040192 494.11367142 -219.97066711 494.11381744 -218.72427368 494.1139679 C-215.40215979 494.11338956 -212.08010763 494.10836555 -208.75800467 494.10139394 C-205.28798192 494.09515338 -201.8179584 494.09455604 -198.34793091 494.09336853 C-191.77478602 494.09025729 -185.20165771 494.08204669 -178.62852013 494.07201904 C-170.41250618 494.0597565 -162.19648956 494.05427379 -153.98046875 494.04882812 C-139.32029957 494.03908116 -124.6601666 494.01905017 -110 494 C-110 469.25 -110 444.5 -110 419 C-154.55 419 -199.1 419 -245 419 Z M-92 419 C-92 443.75 -92 468.5 -92 494 C-35.9 494 20.2 494 78 494 C78 469.25 78 444.5 78 419 C21.9 419 -34.2 419 -92 419 Z M96 419 C96 443.75 96 468.5 96 494 C118.96523249 494.120156 118.96523249 494.120156 141.93050957 494.20101547 C150.14338295 494.22318484 158.35609392 494.25133426 166.56884766 494.30175781 C173.07102713 494.34165994 179.57308408 494.36744091 186.07538259 494.37635398 C189.5175178 494.38156311 192.95930249 494.39378255 196.40132523 494.42292023 C200.24629475 494.45520415 204.09092314 494.45595723 207.93603516 494.45410156 C209.64291504 494.47567322 209.64291504 494.47567322 211.38427734 494.49768066 C217.58154985 494.46527616 221.30880048 494.1910756 226 490 C243.2741684 470.39148452 231 454.20997117 231 419 C186.45 419 141.9 419 96 419 Z " fill="#F96D41" transform="translate(263,0)"/>
<path d="M0 0 C1.24716797 -0.03867187 1.24716797 -0.03867187 2.51953125 -0.078125 C8.36196324 0.64041715 12.3380538 4.02417733 16.625 7.8125 C38.46566955 26.49278924 64.33941103 37.87046882 92.18041992 44.20996094 C100.49308518 46.13661409 104.99827598 48.47517976 110.1875 55.25 C111.69049717 58.25599434 111.35227009 61.35720514 111.36450195 64.65527344 C111.37107315 65.42001984 111.37764435 66.18476624 111.38441467 66.97268677 C111.40420322 69.51825059 111.41583745 72.06375454 111.42578125 74.609375 C111.42985678 75.48475166 111.4339323 76.36012833 111.43813133 77.26203156 C111.45903942 81.91687281 111.47330702 86.57168439 111.48266602 91.2265625 C111.49144281 95.03988031 111.51210909 98.85282377 111.54418945 102.66601562 C111.9398809 150.7265488 103.56229971 191.86731308 69.08520508 227.70629883 C52.03981961 244.95357152 25.99188329 264.87595656 0.8125 265.625 C-25.48655167 265.35331558 -53.12593207 243.41033567 -70.68701172 225.66943359 C-98.54075397 196.88238825 -111.11501781 159.744165 -111.1484375 120.25390625 C-111.15487924 118.44839883 -111.16160858 116.64289242 -111.16860962 114.83738708 C-111.1804996 111.07979915 -111.18429828 107.32230265 -111.18310547 103.56469727 C-111.18290098 98.75744017 -111.21037328 93.95076561 -111.24464989 89.14364719 C-111.26689222 85.42639982 -111.27094408 81.70929434 -111.26988602 77.99198723 C-111.27223942 76.21900331 -111.28104825 74.44601532 -111.29655075 72.67309761 C-111.31618823 70.19904437 -111.31038582 67.72627193 -111.29833984 65.25219727 C-111.30957886 64.52743195 -111.32081787 63.80266663 -111.33239746 63.05593872 C-111.25600508 56.86893504 -108.89264907 53.39132992 -104.6875 49.0625 C-99.47638318 45.7772307 -93.57655115 44.67709786 -87.640625 43.234375 C-61.91597857 36.88645143 -38.72780899 25.95561458 -18.13671875 9.14453125 C-15.90946731 7.32904058 -13.65913302 5.55576363 -11.375 3.8125 C-10.75753906 3.33941406 -10.14007813 2.86632813 -9.50390625 2.37890625 C-6.42157546 0.32164621 -3.60475191 0.06644704 0 0 Z M-0.8125 18.25 C-1.2765625 18.69988281 -1.740625 19.14976563 -2.21875 19.61328125 C-20.43886837 36.57566756 -43.3299756 48.44446573 -66.75 56.4375 C-67.40403809 56.66332764 -68.05807617 56.88915527 -68.73193359 57.12182617 C-73.95965624 58.83715316 -79.27257084 60.09704616 -84.62719727 61.34106445 C-85.41530037 61.52527199 -86.20340347 61.70947952 -87.01538849 61.8992691 C-88.94748413 62.35069075 -90.8799548 62.80050679 -92.8125 63.25 C-92.90611722 72.55291928 -92.97672163 81.85567083 -93.01974869 91.15896225 C-93.04042313 95.48114681 -93.06836051 99.80300386 -93.11425781 104.125 C-93.56546503 130.95342266 -93.56546503 130.95342266 -88.8125 157.25 C-88.61780121 157.93976929 -88.42310242 158.62953857 -88.22250366 159.34020996 C-78.8796457 192.15533234 -55.78302697 220.93070849 -26.07983398 237.60424805 C-10.01470288 246.48542937 -10.01470288 246.48542937 7.6875 246.25390625 C41.78366182 232.21207175 69.27778517 207.54880396 83.94140625 173.27734375 C89.49787002 159.52081976 93.32643985 144.52981171 93.30102539 129.66235352 C93.30124443 128.5781739 93.30124443 128.5781739 93.3014679 127.47209167 C93.30077699 125.10766489 93.29302352 122.7433191 93.28515625 120.37890625 C93.28328914 118.72981306 93.28186662 117.08071931 93.28086853 115.43162537 C93.2770664 111.10965419 93.26725597 106.78771708 93.25616455 102.46575928 C93.24590071 98.04814108 93.24136029 93.63051733 93.23632812 89.21289062 C93.22563147 80.55857819 93.20858296 71.90429334 93.1875 63.25 C92.63433609 63.11555481 92.08117218 62.98110962 91.51124573 62.84259033 C70.9465637 57.82563275 70.9465637 57.82563275 63.125 55 C62.31321289 54.70971924 61.50142578 54.41943848 60.66503906 54.12036133 C40.99047829 46.8915371 23.38520911 36.8427522 7.17578125 23.59765625 C4.59246311 21.56814749 2.04601897 19.85692254 -0.8125 18.25 Z " fill="#FC733B" transform="translate(255.8125,48.75)"/>
<path d="M0 0 C3.34265205 1.20706879 3.94704566 1.92056849 6 5 C6.69999022 10.10227246 6.41592196 12.92339161 3.5 17.19921875 C2.35264438 18.71017298 1.18456317 20.20553586 0 21.6875 C-0.62648438 22.50347656 -1.25296875 23.31945312 -1.8984375 24.16015625 C-3.23425273 25.89724404 -4.57824214 27.62807177 -5.9296875 29.35302734 C-8.65152022 32.83299319 -11.32422974 36.34917506 -13.99755859 39.86645508 C-15.33647438 41.62735298 -16.6779636 43.38629701 -18.02197266 45.14331055 C-22.53777479 51.04905274 -26.97898573 57.00466698 -31.375 63 C-35.46330694 68.56982821 -39.56192467 74.12960156 -43.75 79.625 C-44.52859375 80.64851563 -45.3071875 81.67203125 -46.109375 82.7265625 C-48.68614668 85.82507721 -49.55792977 85.9390248 -53.625 86.5 C-59.40409147 86.36560252 -62.14119381 82.94824872 -66 79 C-67.1179633 77.90178149 -68.2379111 76.80558107 -69.359375 75.7109375 C-79.8693574 65.38481156 -79.8693574 65.38481156 -80.3125 60.6875 C-79.94344069 56.3326001 -79.27921697 54.85880454 -76 52 C-72.3634069 50.94208201 -70.125897 50.56696269 -66.5625 51.9375 C-63.38841509 54.49225127 -60.58626569 57.31720637 -57.76953125 60.2578125 C-56.10461189 62.07637387 -56.10461189 62.07637387 -54 63 C-53.58838623 62.12782837 -53.58838623 62.12782837 -53.16845703 61.23803711 C-52.02708488 59.05187779 -50.7694546 57.17254979 -49.3046875 55.19140625 C-48.76183105 54.45510986 -48.21897461 53.71881348 -47.65966797 52.96020508 C-47.07072754 52.1689624 -46.48178711 51.37771973 -45.875 50.5625 C-45.25898926 49.73065186 -44.64297852 48.89880371 -44.00830078 48.04174805 C-38.68278472 40.87134493 -33.28099638 33.75951408 -27.85009766 26.66870117 C-24.69006723 22.54166901 -21.5468725 18.40548344 -18.4609375 14.22265625 C-17.9158252 13.4855542 -17.37071289 12.74845215 -16.80908203 11.98901367 C-15.8025828 10.62426628 -14.80061209 9.25616204 -13.80419922 7.8840332 C-9.68207745 2.30270715 -7.18860856 -0.74881339 0 0 Z " fill="#FD733B" transform="translate(293,136)"/>
</svg>
