<?xml version="1.0" encoding="UTF-8"?>
<svg version="1.1" xmlns="http://www.w3.org/2000/svg" width="512" height="512">
<path d="M0 0 C36.96 0 73.92 0 112 0 C112 21.12 112 42.24 112 64 C138.4 64 164.8 64 192 64 C192 42.88 192 21.76 192 0 C228.96 0 265.92 0 304 0 C304 21.12 304 42.24 304 64 C330.4 64 356.8 64 384 64 C384 42.88 384 21.76 384 0 C420.96 0 457.92 0 496 0 C496 47.52 496 95.04 496 144 C476.2 144 456.4 144 436 144 C436 146.64 436 149.28 436 152 C435.34561559 154.00405227 434.67939174 156.00428677 434 158 C433.68323926 161.61107242 433.7171576 164.20804128 434.9375 167.625 C437.52127319 170.60025397 440.31939691 171.95081265 443.78515625 173.75390625 C449.60327139 177.02723735 453.90417254 182.71251763 456 189 C456.28197401 192.55753965 456.27759316 196.12002073 456.3125 199.6875 C456.34150391 200.65623047 456.37050781 201.62496094 456.40039062 202.62304688 C456.47044753 210.59336754 454.80841726 215.84053058 449.5 221.8125 C446.37107021 224.55031356 443.74837217 226.66399617 439.9375 228.375 C436.53328075 230.25818512 435.46489703 231.41914059 434 235 C433.66757637 238.65665996 433.74248187 241.29182515 435 244.75 C437.21069662 251.934764 436.801017 259.08801242 433.39453125 265.8046875 C428.59622532 273.35832317 422.34724711 279.44790479 414.25 283.3125 C407.47609576 284.74544128 401.2917543 284.62604725 394.75 282.3125 C391.37820079 281.17605893 389.41296242 280.74198231 386.0625 282.0625 C382.0247941 284.616967 380.62627592 286.66204691 378.625 290.9375 C375.3140416 297.17738314 369.70345447 301.76551518 363 304 C356.73 304 350.46 304 344 304 C344 340.96 344 377.92 344 416 C346.31 416 348.62 416 351 416 C357.58594643 417.78761403 362.21276784 422.50339548 366 428 C369.96408905 435.50534193 368.91929731 446.37217378 367.3125 454.4609375 C362.22021677 470.62893675 353.1114674 482.56222672 338.08984375 490.546875 C329.00918143 494.79367718 321.65576257 496.29674963 311.68501282 496.26742554 C310.55227108 496.27195665 309.41952934 496.27648776 308.25246209 496.28115618 C304.46034005 496.29380695 300.6683615 496.29217934 296.8762207 496.29052734 C294.15577148 496.29542628 291.4353323 496.30326123 288.71488953 496.31088257 C282.09369452 496.32747223 275.47253513 496.33299122 268.85132108 496.33410732 C263.46638347 496.33505889 258.08145757 496.33917461 252.69652367 496.34550858 C237.41482982 496.36311647 222.13316402 496.37234831 206.85145996 496.37084763 C205.61654856 496.37072776 205.61654856 496.37072776 204.35668945 496.37060547 C203.12026245 496.37048283 203.12026245 496.37048283 201.85885712 496.37035771 C188.50751674 496.36954523 175.15628929 496.38867438 161.80498157 496.4168822 C148.08182338 496.4456458 134.35872021 496.45942054 120.63553113 496.45769465 C112.93672903 496.45703188 105.23804527 496.46247414 97.5392704 496.48405075 C90.9828685 496.50230851 84.42663857 496.50657247 77.87022219 496.4930319 C74.52882707 496.48652474 71.18802914 496.48849773 67.84662247 496.5037384 C64.21409206 496.51922976 60.58241806 496.50985567 56.9499054 496.49447632 C55.9079507 496.50476344 54.86599601 496.51505057 53.79246694 496.52564943 C40.43903954 496.40133325 26.57244766 490.91878274 16.68359375 481.8125 C6.36835144 470.70745956 -0.34922976 457.33136872 -0.375 442.0625 C-0.41173828 440.92264648 -0.41173828 440.92264648 -0.44921875 439.75976562 C-0.48407239 432.9574977 1.47315792 427.88351363 5.96484375 422.7578125 C12.18703607 417.60756222 15.79003398 415.91378099 24 416 C23.99631283 415.01546939 23.99262566 414.03093878 23.98882675 413.01657391 C23.89994366 389.03698823 23.83425672 365.05742398 23.79275131 341.07770824 C23.772145 329.48118922 23.74406124 317.88477916 23.69824219 306.28833008 C23.6583154 296.17833056 23.63255316 286.06840997 23.62364602 275.95833379 C23.6184412 270.60740434 23.60624807 265.25670067 23.57707977 259.90584373 C23.54981844 254.86369988 23.54157664 249.82187364 23.54756927 244.77966309 C23.54647382 242.93466271 23.53858409 241.08965111 23.5231781 239.24471474 C23.41032328 225.02578154 24.72761922 213.76057313 35 203 C46.5786515 191.94665594 58.8164234 191.41939664 73.96557617 191.54589844 C75.8686521 191.54702837 77.77172977 191.54639021 79.67480469 191.54412842 C84.81257412 191.54298604 89.94996604 191.566418 95.08764815 191.59442425 C100.46745472 191.61951757 105.84727101 191.62178614 111.22712708 191.62652588 C121.40185114 191.6389324 131.57640222 191.6717225 141.75105029 191.71192384 C153.33993589 191.75671398 164.92882998 191.77864679 176.51778066 191.79870558 C200.34528281 191.84045722 224.17263169 191.91076397 248 192 C248.21039917 190.58968506 248.21039917 190.58968506 248.42504883 189.15087891 C249.53087033 183.09069534 253.23851798 178.3945066 258 174.625 C261 173 261 173 264.1875 171.5625 C267.51208977 169.71550569 268.56576157 168.50591615 270 165 C270.3382573 161.27916967 270.20546603 158.60355647 269 155.0625 C268 152 268 152 268 144 C242.92 144 217.84 144 192 144 C192 122.88 192 101.76 192 80 C165.6 80 139.2 80 112 80 C112 101.12 112 122.24 112 144 C75.04 144 38.08 144 0 144 C0 96.48 0 48.96 0 0 Z M16 16 C16 52.96 16 89.92 16 128 C42.4 128 68.8 128 96 128 C96 91.04 96 54.08 96 16 C69.6 16 43.2 16 16 16 Z M208 16 C208 52.96 208 89.92 208 128 C219.055 128.144375 230.11 128.28875 241.5 128.4375 C244.97724609 128.50122803 248.45449219 128.56495605 252.03710938 128.63061523 C255.18240996 128.65404114 255.18240996 128.65404114 258.32775879 128.66810608 C259.71756729 128.67878316 261.10731508 128.70325435 262.4967041 128.73902893 C272.31251348 129.13222759 272.31251348 129.13222759 280.72851562 124.64477539 C281.82825405 123.43821111 282.91917742 122.2235377 284 121 C285.07716278 120.44495285 285.07716278 120.44495285 286.17608643 119.87869263 C288.8210775 117.15426243 288.47410966 114.85038365 288.49768066 111.15368652 C288.48329956 110.21069702 288.46891846 109.26770752 288.45410156 108.29614258 C288.45468567 107.3008403 288.45526978 106.30553802 288.45587158 105.28007507 C288.45308099 101.98454115 288.42194216 98.6899075 288.390625 95.39453125 C288.3831661 93.11195876 288.37747151 90.82937988 288.37347412 88.54679871 C288.35819027 82.53458015 288.31888435 76.52274719 288.2746582 70.51068115 C288.22657721 63.29960346 288.20818464 56.08839695 288.18484497 48.8772049 C288.14603546 37.91786829 288.06939976 26.95937799 288 16 C261.6 16 235.2 16 208 16 Z M401 16 C401 49 401 82 401 116 C405.29 116.66 409.58 117.32 414 118 C419.76450286 120.60332387 423.00567645 123.71915125 428 128 C445.16 128 462.32 128 480 128 C480 91.04 480 54.08 480 16 C453.93 16 427.86 16 401 16 Z M304 80 C304 92.21 304 104.42 304 117 C311.92950786 119.65393097 311.92950786 119.65393097 319.75 117.75 C323.01607625 115.20971847 324.62389035 112.80350698 326.375 109.0625 C329.66342583 102.86508208 334.49617965 99.31154633 341 97 C344.68445698 96.45041373 348.28068931 96.43919383 352 96.5 C352.94617188 96.48453125 353.89234375 96.4690625 354.8671875 96.453125 C362.54188285 96.49564409 367.7505476 98.35509688 373.6875 103.1875 C376.23287349 106.28322451 377.99950994 109.43861884 379.7890625 113.01171875 C380.98974023 115.29800692 380.98974023 115.29800692 384 117 C384 104.79 384 92.58 384 80 C357.6 80 331.2 80 304 80 Z M343 114 C341.08136505 116.50003949 339.51675888 119.02740097 338.0390625 121.80859375 C334.64896554 128.11417409 330.29650316 131.46622592 323.8046875 134.2421875 C316.4069831 136.24101014 308.01269519 136.0627369 301 133 C295.86477855 132.80621806 293.28765153 134.2440909 289.625 137.625 C286.2440909 141.28765153 284.80621806 143.86477855 285 149 C285.60648579 150.68949614 286.27840576 152.35636866 287 154 C288.85632847 163.12694831 287.22778541 171.05336847 282.41015625 179.03125 C278.82361881 184.03849341 274.11997517 186.65105873 268.63671875 189.10546875 C266.81200195 189.90068088 266.81200195 189.90068088 266 192 C275.9 192 285.8 192 296 192 C296.70125 189.751875 297.4025 187.50375 298.125 185.1875 C300.60542311 177.56757372 303.40943519 169.57771842 309.18359375 163.82421875 C311.23519592 162.19284524 311.23519592 162.19284524 311 160 C311.58265625 159.72929687 312.1653125 159.45859375 312.765625 159.1796875 C314.98916993 158.00571797 316.78741587 156.69020139 318.75 155.125 C328.67846465 147.59621961 339.46292504 144.4252778 351.875 144.5625 C352.84026611 144.57007324 353.80553223 144.57764648 354.80004883 144.58544922 C362.12808084 144.75453392 368.35485923 145.76211282 375 149 C375.97324219 149.47050781 376.94648438 149.94101563 377.94921875 150.42578125 C392.65930961 158.02632219 400.70135639 169.75492015 406.109375 185.16015625 C408.91096421 197.2389378 408.45547086 211.8036952 403 223 C402.52949219 223.97324219 402.05898438 224.94648438 401.57421875 225.94921875 C393.99709357 240.61399073 382.2318614 248.82835421 366.79296875 254.09375 C362.1845522 255.19483408 357.78179518 255.45213805 353.0625 255.625 C350.071875 255.74875 347.08125 255.8725 344 256 C344 265.9 344 275.8 344 286 C349.1213508 288.5606754 353.29364882 288.61507981 358.75 287.375 C362.36542945 285.16557089 364.00592947 281.87095389 365.9609375 278.19140625 C369.35103446 271.88582591 373.70349684 268.53377408 380.1953125 265.7578125 C387.5930169 263.75898986 395.98730481 263.9372631 403 267 C408.13522145 267.19378194 410.71234847 265.7559091 414.375 262.375 C417.7559091 258.71234847 419.19378194 256.13522145 419 251 C418.39351421 249.31050386 417.72159424 247.64363134 417 246 C415.16739744 236.98970408 416.71231828 228.94786978 421.44921875 221.0390625 C425.47163217 215.75014612 431.09951258 212.80975591 437 210 C440.14078469 206.85921531 439.97672315 204.48881377 440.1875 200.0625 C440.11681657 196.59901217 439.84486483 194.01886972 438 191 C435.49996051 189.08136505 432.97259903 187.51675888 430.19140625 186.0390625 C422.87973066 182.10805412 419.63937827 176.66795679 417 169 C415.36358154 162.06582395 416.58193125 156.67505247 418.60546875 150.00390625 C419.37689957 146.62147882 419.5239405 144.83860591 417.640625 141.82421875 C414.77813375 138.47852919 411.75701769 135.33269377 408 133 C404.54442646 132.8174414 401.10733011 133.44633494 398 135 C387.59707645 136.05093473 379.80838509 135.09596175 371 129 C367.09998245 125.68765633 364.98510619 121.3247438 362.89453125 116.734375 C361.7751881 114.56412017 360.68420903 113.26315732 358.375 112.375 C353.09606952 111.54148466 347.67466714 111.14325897 343 114 Z M320.1875 176.25 C316.60626771 181.07217092 314.71952871 186.28603812 313 192 C316.20970449 193.63542086 319.46807572 195.14031997 322.75 196.625 C324.22726562 197.29402344 324.22726562 197.29402344 325.734375 197.9765625 C326.48203125 198.31429687 327.2296875 198.65203125 328 199 C328.09796875 198.41992188 328.1959375 197.83984375 328.296875 197.2421875 C329.88204981 188.96101563 333.24336376 183.96405928 340 179 C346.47442895 175.80743676 354.56264632 175.83301092 361.48046875 177.65234375 C367.20101559 180.23046254 371.36869192 184.71503715 374.140625 190.296875 C376.20986775 196.80558401 376.27246784 205.20953487 373.4375 211.5 C370.10041717 217.01447021 365.1769417 221.13656507 359 223 C356.18156537 223.13802324 353.49667223 223.18976313 350.6875 223.125 C346.8821875 223.063125 346.8821875 223.063125 343 223 C343.495 230.92 343.495 230.92 344 239 C357.29732008 239.45460923 367.32602019 238.91034345 377.93359375 229.97265625 C386.16803512 222.11180012 390.95401544 213.6098474 391.47070312 202.08056641 C391.63993166 190.0625202 388.34229661 180.73876219 380 172 C371.26123781 163.65770339 361.9374798 160.36006834 349.91943359 160.52929688 C337.41748228 161.08957503 328.13290447 166.82010382 320.1875 176.25 Z M346.625 194.625 C344.51293494 197.71186432 344.38804855 199.3282913 345 203 C346.5 205.5 346.5 205.5 349 207 C352.6717087 207.61195145 354.28813568 207.48706506 357.375 205.375 C359.48706506 202.28813568 359.61195145 200.6717087 359 197 C357.5 194.5 357.5 194.5 355 193 C351.3282913 192.38804855 349.71186432 192.51293494 346.625 194.625 Z M45.75 217.4375 C40.30903902 224.11439729 39.84476157 231.32015111 39.87974548 239.70687866 C39.87888947 240.46156433 39.87803345 241.21625 39.87715149 241.99380493 C39.8755019 244.51982008 39.88101081 247.0457683 39.88647461 249.57177734 C39.88678106 251.41477265 39.88664726 253.25776807 39.88610935 255.10076332 C39.88588381 260.03146474 39.89167526 264.96214184 39.89871979 269.89283752 C39.90441915 274.52141394 39.90468315 279.14998447 39.90539551 283.77856445 C39.91064064 297.31071285 39.92460181 310.84285673 39.9375 324.375 C39.958125 354.61125 39.97875 384.8475 40 416 C135.04 416 230.08 416 328 416 C328.04125 385.825625 328.0825 355.65125 328.125 324.5625 C328.14320801 315.03834229 328.16141602 305.51418457 328.18017578 295.70141602 C328.18686506 287.15667034 328.18686506 287.15667034 328.19088745 278.61192322 C328.19274913 274.80896161 328.20023774 271.00605595 328.21115112 267.20310974 C328.22490039 262.3474024 328.22897652 257.49177607 328.22614455 252.63605106 C328.22673647 250.85701509 328.2306839 249.0779762 328.23843026 247.29895699 C328.72856811 231.17418735 328.72856811 231.17418735 322 217 C313.69807266 208.75737214 305.55259384 207.84701946 294.22770691 207.86628723 C292.75946337 207.8628889 292.75946337 207.8628889 291.26155835 207.85942191 C287.98450018 207.85309619 284.70748352 207.85391036 281.43041992 207.85473633 C279.07963508 207.85174395 276.72885072 207.84834124 274.37806702 207.84455872 C267.99372148 207.83572256 261.60938935 207.83338076 255.22503829 207.83274293 C250.56648911 207.83191295 245.90794291 207.82901336 241.24939478 207.82590645 C228.71879528 207.81760401 216.18820288 207.81386389 203.65760072 207.81457619 C202.59091771 207.81463612 202.59091771 207.81463612 201.50268555 207.81469727 C200.7906918 207.81473815 200.07869806 207.81477903 199.34512875 207.81482115 C187.80882653 207.81522751 176.27255697 207.80565952 164.73626419 207.7915589 C152.88106836 207.77718323 141.02588845 207.77028937 129.17068368 207.77115268 C122.51884357 207.77148424 115.86703355 207.76855973 109.21520042 207.75797462 C102.95829547 207.74828983 96.70146279 207.74821715 90.44455528 207.75549126 C88.15043533 207.75653662 85.85631086 207.75417711 83.56219864 207.7481308 C80.42579569 207.74040111 77.28964169 207.7450623 74.15324402 207.75276184 C73.24972472 207.74761828 72.34620542 207.74247471 71.41530675 207.73717529 C60.9967291 207.79352789 52.97462104 209.42948632 45.75 217.4375 Z M18 435 C15.22851373 440.54297254 16.70089614 447.98449943 18.5625 453.625 C22.61843833 463.58048499 29.95851989 471.69522546 39.73828125 476.28515625 C48.63093086 479.71675963 57.17525491 480.14884372 66.60003662 480.13371277 C68.16567364 480.1371111 68.16567364 480.1371111 69.76293969 480.14057809 C73.24789564 480.14689006 76.73281242 480.14609053 80.21777344 480.14526367 C82.72161916 480.14825691 85.22546442 480.15165983 87.72930908 480.15544128 C93.81762691 480.16335246 99.90592944 480.16649522 105.99425098 480.16705366 C110.94628519 480.16752979 115.89831622 480.16958937 120.85034943 480.17275429 C134.90870517 480.18155552 148.9670533 480.18617452 163.02541181 480.18542381 C163.78240678 480.18538386 164.53940174 480.1853439 165.31933594 480.18530273 C166.07726158 480.18526185 166.83518723 480.18522097 167.61608031 480.18517885 C179.89387839 480.18477257 192.17164577 480.19433901 204.44943497 480.2084411 C217.0742469 480.22282666 229.69904389 480.22971008 242.32386422 480.22884732 C249.40445773 480.2285161 256.48501906 480.23123042 263.56560516 480.24202538 C270.22718914 480.25211692 276.88869407 480.25177279 283.55028534 480.24450874 C285.98988952 480.2434652 288.42949796 480.24581206 290.86909485 480.2518692 C294.21015182 480.25962473 297.55097658 480.25492073 300.89202881 480.24723816 C301.84770052 480.25238172 302.80337223 480.25752529 303.78800368 480.26282471 C318.30939754 480.18949615 330.17197636 477.35914164 340.95703125 467.2421875 C348.3070734 459.17541084 351.51774391 450.31713942 351.32421875 439.46484375 C351.1660919 436.81384621 351.1660919 436.81384621 349.1875 434.375 C345.96311804 432.34824562 343.41554112 431.87525266 339.69099426 431.87974548 C338.81179825 431.87837082 337.93260223 431.87699615 337.02676392 431.87557983 C336.06507294 431.87917511 335.10338196 431.88277039 334.11254883 431.88647461 C333.09773941 431.88632858 332.08292999 431.88618256 331.03736877 431.8860321 C327.67723465 431.88672974 324.31715571 431.89451522 320.95703125 431.90234375 C318.62961355 431.90420846 316.30219546 431.90563211 313.97477722 431.90663147 C307.84435953 431.91045249 301.71396547 431.92027926 295.58355713 431.93133545 C289.32979655 431.94155848 283.07603215 431.94613101 276.82226562 431.95117188 C264.54816669 431.96190187 252.27408531 431.97897334 240 432 C239.94666504 433.02988037 239.89333008 434.05976074 239.83837891 435.12084961 C239.75979369 436.48553473 239.68083519 437.85019839 239.6015625 439.21484375 C239.56748291 439.89204468 239.53340332 440.56924561 239.49829102 441.26696777 C239.04593279 448.77657119 237.08064609 453.3377381 231.5625 458.375 C226.57211482 462.52014593 221.75340626 463.2987689 215.39916992 463.29052734 C214.27618248 463.30060318 214.27618248 463.30060318 213.13050842 463.31088257 C210.66376037 463.32982768 208.19728496 463.33378512 205.73046875 463.3359375 C204.00799957 463.3423684 202.28553148 463.34909698 200.56306458 463.35610962 C196.95437082 463.36807405 193.34577273 463.37179136 189.73706055 463.37060547 C185.12705295 463.37040245 180.51766301 463.39769022 175.90780163 463.43214989 C172.35001341 463.45445764 168.79237285 463.45844181 165.23452187 463.45738602 C163.53575833 463.45973669 161.83699039 463.46853003 160.13829613 463.48405075 C142.36681635 463.63121024 142.36681635 463.63121024 134.9765625 457.25390625 C134.30753906 456.41666016 134.30753906 456.41666016 133.625 455.5625 C132.93277344 454.72912109 132.93277344 454.72912109 132.2265625 453.87890625 C129.17892128 449.21038578 128.62620475 444.6564367 128.375 439.1875 C128.33632812 438.49462891 128.29765625 437.80175781 128.2578125 437.08789062 C128.16426432 435.39232985 128.08107636 433.69620288 128 432 C114.54374159 431.93048726 101.0875259 431.87718209 87.6311245 431.84456348 C81.38276197 431.82890814 75.13452229 431.80767192 68.88623047 431.77368164 C62.85620542 431.74108402 56.82629853 431.723146 50.79619217 431.71536827 C48.49569463 431.70982553 46.19520355 431.69900197 43.89475632 431.68280983 C40.67237118 431.66103065 37.45047425 431.65803334 34.22802734 431.65942383 C33.27712219 431.648638 32.32621704 431.63785217 31.34649658 431.6267395 C26.15587663 431.65097317 22.46942091 432.04212199 18 435 Z M144 432 C143.74686755 439.80717911 143.74686755 439.80717911 147 446 C150.83171091 447.98260343 154.07062852 448.25687011 158.34741211 448.2746582 C159.60899643 448.28419022 160.87058075 448.29372223 162.1703949 448.30354309 C163.53937813 448.30328164 164.90836138 448.3023445 166.27734375 448.30078125 C167.69072088 448.30467166 169.10409684 448.30900704 170.51747131 448.31376648 C173.47547196 448.32121479 176.43335321 448.3209475 179.39135742 448.31567383 C183.17195568 448.3098802 186.95206387 448.32681384 190.73258114 448.3500185 C193.65034313 448.36478824 196.56798796 448.36562318 199.48578072 448.36250877 C200.87916599 448.36302033 202.2725581 448.36822698 203.66590691 448.37832069 C205.61829732 448.39072966 207.57078719 448.38193 209.52319336 448.37231445 C210.63174179 448.37294388 211.74029022 448.3735733 212.88243103 448.3742218 C216.49050167 447.94112194 218.89805836 446.86667999 222 445 C224.78060181 440.5763153 224 437.63875369 224 432 C197.6 432 171.2 432 144 432 Z " fill="#FC703E" transform="translate(8,8)"/>
<path d="M0 0 C0.96461151 -0.00623996 1.92922302 -0.01247993 2.92306519 -0.01890898 C6.1520845 -0.03485099 9.38035022 -0.02222963 12.609375 -0.00964355 C14.92562297 -0.01506411 17.24186749 -0.0221864 19.55810547 -0.03088379 C25.84729455 -0.04912772 32.13622133 -0.042045 38.42541504 -0.02936745 C45.00497142 -0.01924544 51.58450524 -0.02863091 58.1640625 -0.03491211 C69.92148203 -0.04345692 81.67879115 -0.03022092 93.43619156 -0.00987476 C104.09293685 0.00799589 114.74950785 0.00489166 125.40625 -0.0135498 C137.78656125 -0.03496393 150.16676138 -0.04291967 162.54708862 -0.03110075 C169.0988178 -0.02486231 175.65042695 -0.02403996 182.20214844 -0.0372467 C188.36147014 -0.04879504 194.52046245 -0.04079758 200.67974854 -0.01766968 C202.94125827 -0.01237722 205.20279569 -0.01390548 207.46429443 -0.02272034 C210.54948815 -0.03363775 213.63362385 -0.01995733 216.71875 0 C218.06379105 -0.01338433 218.06379105 -0.01338433 219.43600464 -0.02703905 C224.88480651 0.04141153 228.12430264 0.75949376 232.359375 4.50793457 C235.8696192 8.75824045 236.86004873 11.63694981 236.86730957 17.1114502 C236.88422852 19.07972778 236.88422852 19.07972778 236.90148926 21.08776855 C236.8937131 22.52990945 236.88552049 23.97204815 236.87695312 25.41418457 C236.8823769 26.94226752 236.889501 28.47034523 236.89819336 29.99841309 C236.91639944 34.13895536 236.90937057 38.27909813 236.89667702 42.41964722 C236.88653521 46.75702983 236.89594597 51.09437871 236.90222168 55.4317627 C236.90949465 62.71502816 236.89991961 69.99813127 236.88085938 77.28137207 C236.85909124 85.69641379 236.86614287 94.11106783 236.888165 102.52610016 C236.90632901 109.75686201 236.90887244 116.9875073 236.89841032 124.21828461 C236.89218087 128.53438164 236.89132459 132.85029657 236.90455627 137.16638184 C236.9161288 141.22457995 236.90806385 145.28227924 236.88497925 149.34042358 C236.87969959 150.82790296 236.88119327 152.31542447 236.89002991 153.80288696 C236.9009965 155.83671549 236.88479159 157.87063599 236.86730957 159.90441895 C236.86504742 161.61002991 236.86504742 161.61002991 236.86273956 163.35009766 C236.03656088 168.53309572 233.57686317 171.43034204 229.71191406 174.85118866 C225.24475046 177.05875579 221.63645556 177.0648046 216.71875 177.01586914 C215.75413849 177.0221091 214.78952698 177.02834907 213.79568481 177.03477812 C210.5666655 177.05072013 207.33839978 177.03809877 204.109375 177.0255127 C201.79312703 177.03093325 199.47688251 177.03805554 197.16064453 177.04675293 C190.87145545 177.06499686 184.58252867 177.05791414 178.29333496 177.04523659 C171.71377858 177.03511458 165.13424476 177.04450005 158.5546875 177.05078125 C146.79726797 177.05932606 135.03995885 177.04609006 123.28255844 177.0257439 C112.62581315 177.00787325 101.96924215 177.01097748 91.3125 177.02941895 C78.93218875 177.05083307 66.55198862 177.05878881 54.17166138 177.04696989 C47.6199322 177.04073145 41.06832305 177.0399091 34.51660156 177.05311584 C28.35727986 177.06466418 22.19828755 177.05666672 16.03900146 177.03353882 C13.77749173 177.02824636 11.51595431 177.02977462 9.25445557 177.03858948 C6.16926185 177.04950689 3.08512615 177.03582647 0 177.01586914 C-0.89669403 177.02479203 -1.79338806 177.03371491 -2.71725464 177.04290819 C-8.16605651 176.97445761 -11.40555264 176.25637538 -15.640625 172.50793457 C-19.1508692 168.25762869 -20.14129873 165.37891933 -20.14855957 159.90441895 C-20.15983887 158.59223389 -20.17111816 157.28004883 -20.18273926 155.92810059 C-20.1749631 154.48595969 -20.16677049 153.04382099 -20.15820312 151.60168457 C-20.1636269 150.07360162 -20.170751 148.54552391 -20.17944336 147.01745605 C-20.19764944 142.87691378 -20.19062057 138.73677102 -20.17792702 134.59622192 C-20.16778521 130.25883931 -20.17719597 125.92149043 -20.18347168 121.58410645 C-20.19074465 114.30084098 -20.18116961 107.01773787 -20.16210938 99.73449707 C-20.14034124 91.31945535 -20.14739287 82.90480131 -20.169415 74.48976898 C-20.18757901 67.25900713 -20.19012244 60.02836184 -20.17966032 52.79758453 C-20.17343087 48.4814875 -20.17257459 44.16557257 -20.18580627 39.8494873 C-20.1973788 35.79128919 -20.18931385 31.7335899 -20.16622925 27.67544556 C-20.16094959 26.18796618 -20.16244327 24.70044468 -20.17127991 23.21298218 C-20.1822465 21.17915365 -20.16604159 19.14523316 -20.14855957 17.1114502 C-20.14629742 15.40583923 -20.14629742 15.40583923 -20.14398956 13.66577148 C-19.31781088 8.48277343 -16.85811317 5.5855271 -12.99316406 2.16468048 C-8.52600046 -0.04288665 -4.91770556 -0.04893545 0 0 Z M-3.640625 16.50793457 C-3.640625 64.02793457 -3.640625 111.54793457 -3.640625 160.50793457 C70.279375 160.50793457 144.199375 160.50793457 220.359375 160.50793457 C220.359375 112.98793457 220.359375 65.46793457 220.359375 16.50793457 C146.439375 16.50793457 72.519375 16.50793457 -3.640625 16.50793457 Z " fill="#FC7B36" transform="translate(83.640625,231.4920654296875)"/>
<path d="M0 0 C7.59221433 5.61972727 13.68727481 12.22104411 18 20.6875 C18 21.3475 18 22.0075 18 22.6875 C18.94359375 22.62949219 19.8871875 22.57148438 20.859375 22.51171875 C32.646815 22.09750148 41.20020179 24.12513516 50.4375 32 C54.42934505 35.87029849 57.58268283 39.67598879 60 44.6875 C60.31710937 45.30367188 60.63421875 45.91984375 60.9609375 46.5546875 C64.82680594 55.66962502 64.48019932 68.45140597 61.4375 77.75 C57.25022325 87.31046055 50.0289557 95.28466238 40.58718872 99.85558319 C33.26936502 102.69834172 26.79694851 103.25961418 18.9921875 103.20507812 C17.74028625 103.2120874 16.48838501 103.21909668 15.19854736 103.22631836 C11.79739435 103.24080665 8.39722754 103.23755339 4.9961319 103.22480202 C1.41651707 103.21458865 -2.16305909 103.2240906 -5.74267578 103.23034668 C-11.7510524 103.23759907 -17.75923157 103.22809911 -23.76757812 103.20898438 C-30.68814737 103.18722009 -37.60824504 103.19427319 -44.52880287 103.21629 C-50.49861464 103.23451314 -56.46828545 103.23696876 -62.43811607 103.22653532 C-65.99139496 103.22033813 -69.54445308 103.21935939 -73.09771729 103.23268127 C-77.06272334 103.24651177 -81.0272123 103.22727765 -84.9921875 103.20507812 C-86.73033722 103.21722351 -86.73033722 103.21722351 -88.50360107 103.22961426 C-100.1813783 103.10911166 -109.49667782 99.80503819 -118 91.6875 C-126.80850953 82.46036823 -129.62574301 72.83705676 -129.47070312 60.32275391 C-128.97749031 47.8638834 -123.71158279 38.96759643 -114.8125 30.4375 C-105.28511097 22.87473886 -95.66082601 21.97064594 -84 22.6875 C-83.61328125 21.61435547 -83.61328125 21.61435547 -83.21875 20.51953125 C-77.37858981 6.94864618 -65.38042164 -1.93979873 -52 -7.3125 C-34.41809048 -12.70379154 -15.21130673 -10.28672001 0 0 Z M-64 21.6875 C-68.92235809 28.12923289 -71.29429903 34.81733588 -73 42.6875 C-73.57105469 42.4709375 -74.14210937 42.254375 -74.73046875 42.03125 C-82.25765607 39.44639712 -90.69368272 37.73983052 -98.39453125 40.56640625 C-104.70481686 44.22226961 -109.73744318 49.72499559 -112 56.6875 C-112.8701808 64.02332654 -112.62238721 70.70028537 -108 76.6875 C-101.74178562 83.28540869 -95.87605114 86.40292558 -86.69222069 86.78301048 C-83.85455337 86.82462261 -81.01839595 86.83403509 -78.18041992 86.83276367 C-76.56219078 86.83780159 -76.56219078 86.83780159 -74.91127014 86.84294128 C-71.35099124 86.85242668 -67.79075949 86.85439321 -64.23046875 86.85546875 C-61.74953695 86.85868306 -59.26860535 86.86204726 -56.78767395 86.86555481 C-51.58850668 86.87154008 -46.38935602 86.87339533 -41.19018555 86.87280273 C-34.53915877 86.87270116 -27.88827629 86.88635132 -21.2372694 86.90357494 C-16.1130576 86.91471203 -10.98887149 86.91672141 -5.86464882 86.91619301 C-3.41313623 86.91737062 -0.96162293 86.92178009 1.4898777 86.92952538 C4.92407264 86.93935936 8.35803741 86.93643361 11.79223633 86.93041992 C12.79773529 86.93603943 13.80323425 86.94165894 14.83920288 86.94744873 C24.33860807 86.90533297 32.63459879 86.09150122 39.62890625 79.046875 C45.14175587 72.9362465 46.48585467 67.90041157 46.3046875 59.6875 C45.53943062 52.15266305 41.7009316 47.92288884 36.09765625 43.1328125 C30.08308424 38.98869398 24.07405034 39.08415084 17 39.6875 C13.57051493 40.45902265 10.29352749 41.46335704 7 42.6875 C6.85304688 42.00945312 6.70609375 41.33140625 6.5546875 40.6328125 C4.10558127 30.47042918 -0.46725241 21.09487456 -9 14.6875 C-28.2177776 3.6559965 -48.65985725 4.54263457 -64 21.6875 Z " fill="#FC7B36" transform="translate(225,273.3125)"/>
<path d="M0 0 C15.84 0 31.68 0 48 0 C48 5.28 48 10.56 48 16 C32.16 16 16.32 16 0 16 C0 10.72 0 5.44 0 0 Z " fill="#FD495B" transform="translate(424,104)"/>
<path d="M0 0 C15.84 0 31.68 0 48 0 C48 5.28 48 10.56 48 16 C32.16 16 16.32 16 0 16 C0 10.72 0 5.44 0 0 Z " fill="#FD7838" transform="translate(232,104)"/>
<path d="M0 0 C15.84 0 31.68 0 48 0 C48 5.28 48 10.56 48 16 C32.16 16 16.32 16 0 16 C0 10.72 0 5.44 0 0 Z " fill="#FA9E1E" transform="translate(40,104)"/>
<path d="M0 0 C15.84 0 31.68 0 48 0 C48 5.28 48 10.56 48 16 C32.16 16 16.32 16 0 16 C0 10.72 0 5.44 0 0 Z " fill="#FD4A5A" transform="translate(424,72)"/>
<path d="M0 0 C15.84 0 31.68 0 48 0 C48 5.28 48 10.56 48 16 C32.16 16 16.32 16 0 16 C0 10.72 0 5.44 0 0 Z " fill="#FD7A37" transform="translate(232,72)"/>
<path d="M0 0 C15.84 0 31.68 0 48 0 C48 5.28 48 10.56 48 16 C32.16 16 16.32 16 0 16 C0 10.72 0 5.44 0 0 Z " fill="#FA9E1E" transform="translate(40,72)"/>
<path d="M0 0 C15.84 0 31.68 0 48 0 C48 5.28 48 10.56 48 16 C32.16 16 16.32 16 0 16 C0 10.72 0 5.44 0 0 Z " fill="#FD4B58" transform="translate(424,40)"/>
<path d="M0 0 C15.84 0 31.68 0 48 0 C48 5.28 48 10.56 48 16 C32.16 16 16.32 16 0 16 C0 10.72 0 5.44 0 0 Z " fill="#FD7C35" transform="translate(232,40)"/>
<path d="M0 0 C15.84 0 31.68 0 48 0 C48 5.28 48 10.56 48 16 C32.16 16 16.32 16 0 16 C0 10.72 0 5.44 0 0 Z " fill="#FA9F1E" transform="translate(40,40)"/>
</svg>
