<?xml version="1.0" encoding="UTF-8"?>
<svg version="1.1" xmlns="http://www.w3.org/2000/svg" width="512" height="512">
<path d="M0 0 C2.09607934 -0.00543154 4.19215486 -0.01255994 6.28822327 -0.02124023 C11.93908505 -0.03935375 17.58965215 -0.03245578 23.24051857 -0.01972389 C29.17919278 -0.00953383 35.11784326 -0.01900615 41.05651855 -0.02526855 C51.02584318 -0.03252755 60.99504893 -0.02300322 70.96435547 -0.00390625 C82.45870031 0.01785901 93.95276124 0.01080641 105.44709921 -0.01121187 C115.34991416 -0.02941577 125.25264408 -0.03189985 135.15547037 -0.0214572 C141.05510512 -0.01524965 146.95460681 -0.01431078 152.85423279 -0.02760315 C158.40305685 -0.03923386 163.95151804 -0.03100489 169.50030327 -0.00802612 C171.52583148 -0.0027774 173.5513907 -0.00418621 175.5769062 -0.01307678 C198.81456008 -0.1056002 217.91429205 5.23141536 235.13085938 21.75585938 C254.97893239 42.41543793 256.13763942 67.35761481 255.93979645 94.47307587 C255.90430529 99.85065679 255.88230862 105.22832071 255.85693359 110.60595703 C255.8458963 112.87692281 255.83482152 115.1478884 255.82369995 117.41885376 C255.81891066 118.40065928 255.81412136 119.38246479 255.80918694 120.39402199 C255.80576853 121.09479551 255.80235012 121.79556904 255.79882812 122.51757812 C257.08318756 122.5131369 258.367547 122.50869568 259.69082642 122.50411987 C271.84199054 122.46343573 283.9931407 122.43352773 296.14435768 122.41395378 C302.39021283 122.40355209 308.63601263 122.3894594 314.88183594 122.36669922 C320.91837477 122.34484135 326.95486063 122.33298236 332.991436 122.32782364 C335.28531095 122.324151 337.57918326 122.31697979 339.87303543 122.30611801 C367.03605011 122.18270505 390.50342884 125.24130957 410.74804688 145.21289062 C423.75751589 158.80317577 430.10685551 176.70779046 430.08935547 195.30712891 C430.0994313 196.86766747 430.0994313 196.86766747 430.10971069 198.45973206 C430.12860862 201.87750105 430.13261109 205.29507272 430.13476562 208.71289062 C430.14120038 211.10790078 430.14792924 213.50291016 430.15493774 215.8979187 C430.16689087 220.91275859 430.1706207 225.9275297 430.16943359 230.94238281 C430.16923079 237.33390964 430.19650275 243.72498995 430.23097801 250.11641121 C430.25333874 255.06330343 430.25726829 260.01008987 430.25621414 264.95702744 C430.25855746 267.31148691 430.26730848 269.66594988 430.28287888 272.02035904 C430.41942969 294.80527832 427.25177269 314.51559989 410.85595703 331.51342773 C409.51503458 332.85965118 408.15741429 334.18918277 406.79882812 335.51757812 C406.16589844 336.18273437 405.53296875 336.84789062 404.88085938 337.53320312 C394.43617046 347.77038167 377.29910066 354.26929582 362.83398438 354.61132812 C361.83238281 354.58039063 360.83078125 354.54945313 359.79882812 354.51757812 C359.85941406 355.11070801 359.92 355.70383789 359.98242188 356.31494141 C363.27512061 389.03296899 363.27512061 389.03296899 358.79882812 396.51757812 C354.22959234 401.58488227 349.68475712 404.14520019 342.92382812 405.01757812 C326.83403346 404.58923085 311.63737435 392.1775651 300.79882812 381.51757812 C300.02667969 380.75832031 299.25453125 379.9990625 298.45898438 379.21679688 C291.71913124 372.17739471 287.13207152 364.18406492 282.79882812 355.51757812 C281.29237732 355.51210968 281.29237732 355.51210968 279.75549316 355.50653076 C270.22422751 355.46935839 260.69327833 355.41134689 251.16225433 355.33367538 C246.26391897 355.29440685 241.36575784 355.26211837 236.46728516 355.24658203 C231.72728191 355.23127813 226.98775836 355.19659449 222.24797058 355.1492691 C220.45261336 355.13459533 218.65718761 355.1265453 216.86177063 355.12569427 C193.6009384 355.10360961 173.66239197 349.23387877 156.28320312 333.12304688 C141.143963 317.24588781 135.23040397 297.82220398 135.50585938 276.24414062 C135.50888062 275.09840576 135.51190186 273.9526709 135.51501465 272.7722168 C135.53050789 268.56224334 135.57238871 264.35240001 135.61132812 260.14257812 C135.67320312 250.69632813 135.73507813 241.25007812 135.79882812 231.51757812 C100.65382812 232.01257813 100.65382812 232.01257813 64.79882812 232.51757812 C62.48882812 236.80757812 60.17882812 241.09757813 57.79882812 245.51757812 C55.50766118 248.63830552 53.28268441 251.57962476 50.79882812 254.51757812 C50.03441406 255.48050781 49.27 256.4434375 48.48242188 257.43554688 C45.78378312 260.6618496 42.78742469 263.29788128 39.48632812 265.89257812 C38.88892822 266.36300537 38.29152832 266.83343262 37.67602539 267.31811523 C30.92228207 272.44810291 23.51911175 276.07579805 15.79882812 279.51757812 C14.93 279.91074219 14.06117187 280.30390625 13.16601562 280.70898438 C7.45466465 282.65989139 0.94179654 282.39471122 -4.57617188 279.95507812 C-9.52371421 277.11049526 -12.42060866 272.85926778 -14.20117188 267.51757812 C-14.95176536 255.82228437 -13.45099188 244.12827299 -12.20117188 232.51757812 C-13.27753906 232.35902344 -14.35390625 232.20046875 -15.46289062 232.03710938 C-36.15793703 228.80730167 -55.29187005 220.56324289 -68.25585938 203.40039062 C-80.82059195 184.78036524 -82.82086975 167.75054884 -82.73242188 145.73632812 C-82.73512289 143.3498926 -82.73901036 140.96345816 -82.74401855 138.57702637 C-82.74988487 133.59795559 -82.7414434 128.61917366 -82.72265625 123.64013672 C-82.69986898 117.29581451 -82.71300748 110.95216945 -82.73694611 104.60787201 C-82.75148177 99.68669644 -82.74676259 94.7656783 -82.73643494 89.84449768 C-82.73378908 87.50679949 -82.73696091 85.16908646 -82.74635315 82.83140564 C-82.82128339 58.94698789 -78.78603922 38.71752262 -61.68359375 20.96777344 C-44.04473992 3.71237295 -23.55005802 -0.10336796 0 0 Z M-48.20117188 38.51757812 C-48.68328125 39.00613281 -49.16539063 39.4946875 -49.66210938 39.99804688 C-63.20743526 54.47160575 -62.36158709 74.14358997 -62.36914062 92.59570312 C-62.37236086 94.45359319 -62.37572549 96.311483 -62.37922668 98.16937256 C-62.38519085 102.0525369 -62.3870694 105.93567907 -62.38647461 109.81884766 C-62.38637317 114.75862092 -62.40001929 119.69824989 -62.41724682 124.63798904 C-62.42844599 128.4730696 -62.4303914 132.30811614 -62.42986488 136.14321136 C-62.43103334 137.96259813 -62.43539013 139.78198612 -62.44319725 141.60135651 C-62.52635487 162.98129257 -60.68588952 180.51235291 -45.38867188 196.76757812 C-34.43184622 207.17866151 -21.3657186 210.87684117 -6.55664062 211.19067383 C-1.76406683 211.30760494 2.29147178 211.8092843 6.79882812 213.51757812 C11.52464037 222.96920261 8.6132262 236.63162369 7.79882812 246.76757812 C7.7034375 248.00121094 7.60804687 249.23484375 7.50976562 250.50585938 C7.27687794 253.51011046 7.03983472 256.51396936 6.79882812 259.51757812 C24.2942772 253.83087695 36.49652098 241.63856288 44.79882812 225.51757812 C45.90759979 222.87898227 46.92856161 220.26196813 47.81445312 217.54101562 C49.04980281 215.00168571 50.41693023 213.99507118 52.79882812 212.51757812 C56.40581118 211.31525044 59.72640382 211.34158262 63.4831543 211.31225586 C64.26387802 211.30235626 65.04460175 211.29245667 65.84898376 211.28225708 C68.42989061 211.25066635 71.01081585 211.22589425 73.59179688 211.20117188 C75.38113382 211.18060025 77.17046592 211.15960372 78.95979309 211.13819885 C83.66974979 211.0829997 88.37975018 211.03358089 93.08978271 210.98535156 C97.89583222 210.93512082 102.70181824 210.87944296 107.5078125 210.82421875 C116.93809682 210.71666354 126.36843625 210.61521268 135.79882812 210.51757812 C135.82257507 209.86109787 135.84632202 209.20461761 135.87078857 208.52824402 C135.98248698 205.51797187 136.10154098 202.50803244 136.22070312 199.49804688 C136.2579248 198.46546753 136.29514648 197.43288818 136.33349609 196.36901855 C136.87771721 182.95290087 139.15601819 169.44801371 147.11132812 158.26757812 C150.9935646 155.73961019 153.20386358 156.00702651 157.79882812 156.51757812 C160.79664866 157.38536828 161.50582239 158.02923524 163.11132812 160.70507812 C164.84884305 167.81309371 161.61662747 173.91703438 158.95507812 180.43164062 C156.73420362 186.35897461 156.64546949 191.83254224 156.63769531 198.09033203 C156.63273041 199.04875 156.6277655 200.00716797 156.62265015 200.99462891 C156.60806259 204.16114017 156.6012312 207.32760129 156.59570312 210.49414062 C156.58994766 212.70266724 156.58418998 214.91119385 156.57843018 217.11972046 C156.56792903 221.75152824 156.56208096 226.38331871 156.55859375 231.01513672 C156.55311933 236.92954272 156.52910988 242.84371731 156.5006218 248.75805092 C156.48192889 253.3221807 156.47678622 257.88625556 156.47525787 262.45042038 C156.47224444 264.62955359 156.46426052 266.80868614 156.45107269 268.98778152 C156.12186729 284.53896015 156.12186729 284.53896015 159.79882812 299.51757812 C160.24742187 300.64550781 160.69601563 301.7734375 161.15820312 302.93554688 C168.19467939 316.94920327 178.22258028 325.65174263 192.79882812 331.51757812 C198.92629558 333.2544047 204.74939353 333.80880012 211.09472656 333.78881836 C211.97558426 333.7940451 212.85644196 333.79927185 213.76399231 333.80465698 C215.65944405 333.81482909 217.55492319 333.82066541 219.45040131 333.82253838 C222.45186726 333.82622551 225.45300972 333.84301274 228.45440674 333.86329651 C236.98175047 333.91850779 245.50913927 333.94946454 254.03662109 333.97387695 C259.26664165 333.98974663 264.49642716 334.01994764 269.72632599 334.05864143 C271.71500405 334.07028406 273.70372408 334.07622172 275.69243622 334.07632256 C278.46871065 334.07651452 281.24433443 334.09477121 284.02050781 334.11694336 C284.83930923 334.11236618 285.65811066 334.107789 286.50172424 334.10307312 C291.08839815 334.16133282 294.05996465 334.57020544 297.79882812 337.51757812 C299.16992187 339.61132812 299.16992187 339.61132812 300.23632812 342.01757812 C300.86087891 343.34789062 300.86087891 343.34789062 301.49804688 344.70507812 C301.92730469 345.63320313 302.3565625 346.56132812 302.79882812 347.51757812 C306.74967608 355.67416745 311.39143803 362.09917876 317.79882812 368.51757812 C318.73855469 369.47470703 318.73855469 369.47470703 319.69726562 370.45117188 C324.57107497 375.06792376 333.80760059 382.51757812 340.79882812 382.51757812 C340.73824219 381.76250977 340.67765625 381.00744141 340.61523438 380.22949219 C340.33823962 376.74255435 340.06849986 373.25508966 339.79882812 369.76757812 C339.65574219 367.98673828 339.65574219 367.98673828 339.50976562 366.16992188 C337.73448495 342.9644673 337.73448495 342.9644673 341.79882812 336.51757812 C346.10583838 334.12569251 350.49924981 334.24156974 355.29882812 334.14257812 C372.01247482 333.4861458 385.21815762 327.61119144 396.79882812 315.51757812 C409.65638876 299.30108302 409.95869994 282.21898659 409.96679688 262.43945312 C409.97001711 260.58156306 409.97338174 258.72367325 409.97688293 256.86578369 C409.9828471 252.98261935 409.98472565 249.09947718 409.98413086 245.21630859 C409.98402942 240.27653533 409.99767554 235.33690636 410.01490307 230.39716721 C410.02610224 226.56208665 410.02804765 222.72704011 410.02752113 218.89194489 C410.02868959 217.07255812 410.03304638 215.25317013 410.0408535 213.43379974 C410.10811491 196.14079959 409.83389938 178.89661037 398.79882812 164.51757812 C398.36957031 163.95683594 397.9403125 163.39609375 397.49804688 162.81835938 C388.26641269 151.3472452 375.22125197 145.38703402 360.79882812 143.51757812 C356.00061886 143.25316986 351.215176 143.25701396 346.41064453 143.27807617 C344.99843241 143.2769607 343.58622076 143.27489886 342.17401123 143.27197266 C339.15611794 143.26728452 336.13830272 143.26833426 333.12041092 143.2737484 C328.34619871 143.2814085 323.57213432 143.27064897 318.79794312 143.25654602 C305.2303602 143.21894097 291.66284767 143.20064844 278.09521484 143.2121582 C270.58425702 143.21837257 263.0735408 143.20681408 255.56264246 143.17571288 C250.81785441 143.15707049 246.07375158 143.16036248 241.32897496 143.1798805 C238.38081816 143.18676068 235.43303364 143.1728107 232.4849472 143.15293121 C230.46901175 143.14547942 228.45303235 143.16283216 226.43716431 143.18092346 C216.59045293 143.07941862 216.59045293 143.07941862 213.48080444 140.12532043 C211.70482301 137.37183224 211.21308329 136.12030162 211.42382812 132.89257812 C211.47410156 131.75949219 211.47410156 131.75949219 211.52539062 130.60351562 C211.79882812 128.51757813 211.79882812 128.51757813 212.79882812 125.51757812 C217.76824942 123.65641907 222.42328947 123.17468637 227.73632812 122.89257812 C228.42017578 122.85390625 229.10402344 122.81523437 229.80859375 122.77539062 C231.47162325 122.68235401 233.1351866 122.59894026 234.79882812 122.51757812 C234.87557873 115.22598092 234.92771881 107.93448981 234.96362305 100.64257812 C234.97860824 98.16760363 234.99900337 95.69265522 235.02514648 93.21777344 C235.24432111 71.91915667 235.15109265 52.63424201 219.59960938 36.22070312 C203.47206767 20.96775696 184.31857932 20.36555933 163.35253906 20.37231445 C161.49202915 20.3693183 159.63151985 20.36591472 157.77101135 20.36213684 C152.73982888 20.3533391 147.70866344 20.35096051 142.67747402 20.35032105 C139.52779147 20.34960815 136.37811319 20.34746928 133.2284317 20.34482384 C122.22210924 20.33558439 111.21579886 20.33148719 100.20947266 20.33227539 C89.97916997 20.3328758 79.74892008 20.32232756 69.51863074 20.30653173 C60.71063737 20.29342063 51.90266118 20.28809299 43.09465814 20.2887308 C37.84502569 20.28898474 32.59544021 20.28619135 27.34581757 20.27555275 C22.4045416 20.2658115 17.46335691 20.26583357 12.52207756 20.27306938 C10.71865898 20.27410777 8.91523454 20.27179719 7.11182594 20.26570892 C-14.13722969 20.19867406 -32.95705395 22.06997721 -48.20117188 38.51757812 Z " fill="#F96D41" transform="translate(82.201171875,54.482421875)"/>
<path d="M0 0 C2.93087207 2.25451698 3.82814288 3.48442865 5 7 C5.07973476 8.33525717 5.10771338 9.67412083 5.09765625 11.01171875 C5.09282227 12.14770508 5.09282227 12.14770508 5.08789062 13.30664062 C5.07532227 14.48516602 5.07532227 14.48516602 5.0625 15.6875 C5.05798828 16.48478516 5.05347656 17.28207031 5.04882812 18.10351562 C5.0370585 20.06904257 5.01912348 22.03453085 5 24 C6.18029785 23.98428955 7.3605957 23.9685791 8.57666016 23.95239258 C12.97112152 23.89794106 17.36555326 23.86359462 21.76025391 23.83520508 C23.65939353 23.82015309 25.55849859 23.79970684 27.45751953 23.77368164 C30.19312081 23.73714008 32.928261 23.72023762 35.6640625 23.70703125 C36.50804596 23.69154739 37.35202942 23.67606354 38.22158813 23.66011047 C43.2390736 23.65868998 46.64235607 24.22938873 51 27 C52.93549813 29.46336125 53.03037929 31.23435451 53.4375 34.375 C52.85406422 39.20918218 51.44960332 40.63062001 48 44 C44.71480525 45.09506492 42.26336585 45.09960608 38.8125 45.0625 C37.18248047 45.04896484 37.18248047 45.04896484 35.51953125 45.03515625 C34.68808594 45.02355469 33.85664063 45.01195312 33 45 C32.89816406 46.13179687 32.79632813 47.26359375 32.69140625 48.4296875 C32.08150787 53.25583987 30.64248966 57.58504532 28.9375 62.125 C28.62876953 62.95249756 28.32003906 63.77999512 28.00195312 64.63256836 C23.59284553 76.06731057 17.2656218 86.14600044 10 96 C16.63906555 104.95797361 26.75384768 110.99188539 36.09228516 116.87036133 C50.48551206 125.94204824 50.48551206 125.94204824 51.8125 131.25 C52.03192466 135.63849318 51.57750553 137.4559299 49 141 C45.16180484 143.36196626 43.15157473 144.24258024 38.69921875 143.3046875 C34.86471676 141.95228659 31.50736415 140.24617347 28.0625 138.125 C27.42425293 137.73642822 26.78600586 137.34785645 26.12841797 136.94750977 C15.01541959 130.03668993 4.51343854 121.98491417 -5 113 C-6.17004774 113.84952934 -7.3357773 114.70500521 -8.5 115.5625 C-9.1496875 116.03816406 -9.799375 116.51382813 -10.46875 117.00390625 C-12.6369898 118.71373733 -14.66723704 120.48709424 -16.71875 122.33203125 C-20.89779081 126.01400768 -25.33647372 129.0929121 -30 132.125 C-31.13308594 132.87330078 -31.13308594 132.87330078 -32.2890625 133.63671875 C-34.51820924 135.10366583 -36.7563416 136.555361 -39 138 C-39.73790771 138.47663086 -40.47581543 138.95326172 -41.23608398 139.44433594 C-42.29291382 140.11770996 -42.29291382 140.11770996 -43.37109375 140.8046875 C-43.99685303 141.20413574 -44.6226123 141.60358398 -45.26733398 142.01513672 C-47.92164838 143.52387341 -49.95025915 144 -53 144 C-57.17564643 142.79684764 -59.36507546 141.80808577 -62.0625 138.375 C-63.11640537 134.58094065 -63.46159736 132.15167313 -62.42578125 128.3515625 C-59.45888384 123.4582139 -53.79664685 120.97314456 -48.95654297 118.17236328 C-45.79278973 116.27663792 -42.80308637 114.1555012 -39.8125 112 C-39.23765869 111.58693604 -38.66281738 111.17387207 -38.07055664 110.74829102 C-28.29183715 104.42081931 -28.29183715 104.42081931 -21 96 C-21.65226562 95.05640625 -22.30453125 94.1128125 -22.9765625 93.140625 C-38.42583454 70.55500724 -38.42583454 70.55500724 -37 62 C-36.10338057 58.77217006 -35.13147712 58.08867061 -32.3125 56.1875 C-28.25633825 54.73340428 -26.1291489 54.79879305 -22 56 C-17.72488141 59.67618894 -15.11345006 63.79021921 -12.375 68.625 C-9.20896711 74.20162992 -9.20896711 74.20162992 -5 79 C1.66012444 68.89736968 8.22796444 57.9036383 11 46 C9.76091385 45.99120064 9.76091385 45.99120064 8.49679565 45.98222351 C0.69891904 45.92423739 -7.09867296 45.85212685 -14.89627266 45.76428509 C-18.90478619 45.71962285 -22.91319905 45.68035782 -26.921875 45.65356445 C-30.79297374 45.62748975 -34.66368427 45.5870585 -38.53454208 45.53681374 C-40.00880975 45.52017306 -41.48314452 45.50864136 -42.95749283 45.50238609 C-45.02822485 45.492714 -47.09797 45.4646206 -49.16845703 45.43237305 C-50.34538116 45.42126999 -51.5223053 45.41016693 -52.7348938 45.39872742 C-56.97109558 44.88141199 -60.671831 43.69039691 -63.375 40.25 C-64.57595911 35.92654721 -64.56231636 32.3318019 -62.8125 28.1875 C-60.58047264 25.49367388 -59.36000311 24.99242 -56 24 C-52.91758685 23.73666855 -49.85339789 23.76710371 -46.76171875 23.8046875 C-45.44056816 23.80893234 -45.44056816 23.80893234 -44.09272766 23.81326294 C-41.29084455 23.82442167 -38.48928584 23.84951829 -35.6875 23.875 C-33.78320775 23.88503537 -31.87891048 23.89416025 -29.97460938 23.90234375 C-25.31628203 23.92434691 -20.65819594 23.95884706 -16 24 C-16.05220703 22.24623047 -16.05220703 22.24623047 -16.10546875 20.45703125 C-16.13361716 18.90886859 -16.16091619 17.36069032 -16.1875 15.8125 C-16.21263672 15.04357422 -16.23777344 14.27464844 -16.26367188 13.48242188 C-16.32405608 8.79258227 -16.01100809 5.82890211 -13 2 C-8.84891205 -1.55807539 -5.04409471 -1.57232241 0 0 Z " fill="#FC892C" transform="translate(165,93)"/>
<path d="M0 0 C2.28699221 3.35628136 3.66456417 6.58446294 4.83422852 10.45996094 C5.32649429 12.07306152 5.32649429 12.07306152 5.82870483 13.71875 C6.1752713 14.87890625 6.52183777 16.0390625 6.87890625 17.234375 C7.24770905 18.44899414 7.61651184 19.66361328 7.99649048 20.91503906 C8.98886891 24.18386267 9.9729602 27.45512149 10.9548912 30.72709656 C11.96742474 34.09811026 12.98550024 37.46744923 14.00317383 40.83691406 C15.21390187 44.84623224 16.42412456 48.85569667 17.63108826 52.8661499 C19.85751385 60.25861661 22.12182985 67.6374601 24.4453125 75 C25.14660155 77.2392692 25.8470515 79.47879926 26.54733276 81.71838379 C26.96977973 83.05904925 27.39703198 84.39821123 27.82937622 85.73571777 C31.82379096 98.1033485 31.82379096 98.1033485 30 104 C26.02689121 108.32367722 21.44682095 109.68506205 15.69140625 110.2109375 C13.15093047 110.18590818 11.34508811 109.9881245 9 109 C6.81830184 106.27759278 5.95628413 103.32284588 5 100 C4.55527344 98.5459375 4.55527344 98.5459375 4.1015625 97.0625 C2 89.81307339 2 89.81307339 2 86 C-8.56 86 -19.12 86 -30 86 C-30.33 88.64 -30.66 91.28 -31 94 C-31.54060814 96.28679781 -32.14193958 98.56037875 -32.8125 100.8125 C-33.12832031 101.91207031 -33.44414062 103.01164062 -33.76953125 104.14453125 C-35.11043742 107.25628493 -36.06661685 108.37467196 -39 110 C-45.24641862 110.87449861 -50.55931942 108.94379681 -56 106 C-58.25 103.875 -58.25 103.875 -59 101 C-58.12816843 93.4907121 -55.66542109 86.22598243 -53.40234375 79.046875 C-53.05185974 77.92004807 -52.70137573 76.79322113 -52.340271 75.63224792 C-51.21069319 72.00335367 -50.07431893 68.37663167 -48.9375 64.75 C-47.3883114 59.78848024 -45.84215029 54.82602106 -44.296875 49.86328125 C-43.91983932 48.65382339 -43.54280365 47.44436554 -43.15434265 46.19825745 C-41.05628961 39.45278623 -38.99639385 32.69880855 -37.015625 25.91796875 C-36.80704361 25.20651703 -36.59846222 24.49506531 -36.38356018 23.76205444 C-35.47184416 20.64615835 -34.57172403 17.52762644 -33.68920898 14.40332031 C-31.801867 7.91511648 -30.17959934 2.42653633 -24.625 -1.8125 C-16.95367366 -5.28286191 -7.0158296 -4.79129826 0 0 Z M-14 30 C-16.79079619 36.96410988 -18.75853545 44.06780852 -20.6875 51.3125 C-21.00783203 52.49134766 -21.32816406 53.67019531 -21.65820312 54.88476562 C-23.37782264 60.86270943 -23.37782264 60.86270943 -24 67 C-17.4 67 -10.8 67 -4 67 C-4.71422899 62.00039709 -5.5427884 57.57984608 -6.84765625 52.75390625 C-7.02380966 52.09792953 -7.19996307 51.44195282 -7.38145447 50.76609802 C-7.93796929 48.69717542 -8.50012827 46.62983735 -9.0625 44.5625 C-9.44373564 43.14918998 -9.82459849 41.73577935 -10.20507812 40.32226562 C-11.13241597 36.88033775 -12.06481767 33.4398059 -13 30 C-13.33 30 -13.66 30 -14 30 Z " fill="#FD5055" transform="translate(378,238)"/>
<path d="M0 0 C2.3181362 1.89111111 3.66914015 3.33828031 5 6 C5.70153846 13.13230769 5.70153846 13.13230769 2.625 16.9375 C-1.45070456 20.1398393 -3.78282032 20.52171797 -9 20 C-13.00535091 17.55228556 -14.66804391 16.07397557 -16.0625 11.5625 C-15.98961886 7.40827516 -15.39074278 5.39331233 -13 2 C-8.47136416 -1.1906298 -5.30857332 -1.4746037 0 0 Z " fill="#FD6E3F" transform="translate(268,185)"/>
</svg>
