<?xml version="1.0" encoding="UTF-8"?>
<svg version="1.1" xmlns="http://www.w3.org/2000/svg" width="512" height="512">
<path d="M0 0 C9.41443581 6.71978513 16.55647872 16.47699636 19.0390625 27.90625 C19.88203851 35.32443891 19.87843053 43.012374 18.3125 50.3125 C18.91787503 50.31488835 19.52325006 50.31727671 20.1469698 50.31973743 C34.86906732 50.37884308 49.59101708 50.45436454 64.31293201 50.54821491 C71.43232049 50.59320319 78.55165861 50.63261073 85.67114258 50.65893555 C92.53768283 50.68434069 99.40399023 50.72522476 106.27039146 50.77568626 C108.8942964 50.79241293 111.51824006 50.80389092 114.14219093 50.81011391 C117.80833178 50.81969187 121.47389305 50.84767611 125.13989258 50.88012695 C126.2324939 50.87869186 127.32509521 50.87725677 128.45080566 50.8757782 C129.44779984 50.88831635 130.44479401 50.90085449 131.47200012 50.91377258 C132.33940732 50.91838155 133.20681452 50.92299051 134.10050678 50.92773914 C136.79429183 51.39630434 137.64997329 52.18429106 139.3125 54.3125 C140.52413451 57.05887157 140.5440181 58.68118967 139.51171875 61.49609375 C138.80866545 63.05303725 138.07898638 64.59829495 137.3203125 66.12890625 C133.98837268 73.3481092 134.19681803 82.16888654 136.875 89.5625 C140.52399782 97.53908121 146.37871859 103.5583927 154.3125 107.3125 C163.00037553 110.49139698 170.88820646 109.71313226 179.3125 106.3125 C187.965785 101.97194547 193.11561819 95.39615097 196.3125 86.3125 C197.92495828 78.45826772 197.40460848 71.33578554 193.6875 64.1875 C191.97829233 60.61370215 191.79547477 58.22711963 192.3125 54.3125 C194.77202821 51.59284835 196.30854373 51.31291778 199.98852539 50.92431641 C201.46227372 50.90454727 202.93632311 50.90219508 204.41015625 50.9140625 C205.19966171 50.91119232 205.98916718 50.90832214 206.80259705 50.90536499 C208.47444373 50.90332556 210.14631434 50.90884701 211.81811523 50.92138672 C214.34219779 50.93729328 216.86464232 50.92161304 219.38867188 50.90234375 C233.40406101 50.88308839 245.88168883 52.4495673 256.57421875 62.421875 C266.78429803 73.36798587 268.66659093 84.25723613 268.4375 98.875 C268.42847656 99.97908203 268.41945313 101.08316406 268.41015625 102.22070312 C268.38680128 104.9182017 268.35405054 107.61523077 268.3125 110.3125 C269.25609375 110.14492187 270.1996875 109.97734375 271.171875 109.8046875 C284.92219082 107.6234125 296.69649283 108.81370662 308.375 117 C317.38369805 124.17824546 323.83210225 132.91271885 326.3125 144.3125 C327.59725491 159.00123577 325.94055764 171.62588215 316.3125 183.3125 C308.03956333 192.0935633 297.85753411 197.96558622 285.65625 198.4609375 C280.08754509 198.54433586 274.77437039 198.48411123 269.3125 197.3125 C269.30891747 198.95936908 269.30891747 198.95936908 269.30526257 200.63950825 C269.24642786 227.3731095 269.17052039 254.10662091 269.07678509 280.84012318 C269.031849 293.76832577 268.99242922 306.69650095 268.96606445 319.62475586 C268.94306675 330.89503626 268.90964875 342.16522975 268.86379844 353.4354412 C268.8398903 359.40108917 268.82114567 365.3666512 268.81488609 371.33234596 C268.80882444 376.95233281 268.7887852 382.5720998 268.75822449 388.19200516 C268.74946164 390.24982996 268.74571803 392.30768351 268.74749184 394.3655262 C268.7565474 409.72455053 268.26669683 423.71161117 257.203125 435.57421875 C246.25701413 445.78429803 235.36776387 447.66659093 220.75 447.4375 C219.64591797 447.42847656 218.54183594 447.41945313 217.40429688 447.41015625 C214.7067983 447.38680128 212.00976923 447.35405054 209.3125 447.3125 C209.48007812 448.25609375 209.64765625 449.1996875 209.8203125 450.171875 C212.0015875 463.92219082 210.81129338 475.69649283 202.625 487.375 C195.44675454 496.38369805 186.71228115 502.83210225 175.3125 505.3125 C160.62376423 506.59725491 147.99911785 504.94055764 136.3125 495.3125 C127.5314367 487.03956333 121.65941378 476.85753411 121.1640625 464.65625 C121.08066414 459.08754509 121.14088877 453.77437039 122.3125 448.3125 C121.70712497 448.31011165 121.10174994 448.30772329 120.4780302 448.30526257 C105.75593268 448.24615692 91.03398292 448.17063546 76.31206799 448.07678509 C69.19267951 448.03179681 62.07334139 447.99238927 54.95385742 447.96606445 C48.08731717 447.94065931 41.22100977 447.89977524 34.35460854 447.84931374 C31.7307036 447.83258707 29.10675994 447.82110908 26.48280907 447.81488609 C22.81666822 447.80530813 19.15110695 447.77732389 15.48510742 447.74487305 C14.3925061 447.74630814 13.29990479 447.74774323 12.17419434 447.7492218 C11.17720016 447.73668365 10.18020599 447.72414551 9.15299988 447.71122742 C8.28559268 447.70661845 7.41818548 447.70200949 6.52449322 447.69726086 C3.83070817 447.22869566 2.97502671 446.44070894 1.3125 444.3125 C0.10086549 441.56612843 0.0809819 439.94381033 1.11328125 437.12890625 C1.81633455 435.57196275 2.54601362 434.02670505 3.3046875 432.49609375 C6.63662732 425.2768908 6.42818197 416.45611346 3.75 409.0625 C0.10100218 401.08591879 -5.75371859 395.0666073 -13.6875 391.3125 C-22.37537553 388.13360302 -30.26320646 388.91186774 -38.6875 392.3125 C-47.3575851 396.66148159 -52.46147301 403.22868715 -55.6875 412.3125 C-57.46153858 420.00889295 -56.24287142 426.91655717 -53.6875 434.3125 C-52.6975 435.7975 -52.6975 435.7975 -51.6875 437.3125 C-51.3125 440.8125 -51.3125 440.8125 -51.6875 444.3125 C-54.1355275 447.04531011 -55.68456044 447.31218959 -59.36352539 447.70068359 C-60.83727372 447.72045273 -62.31132311 447.72280492 -63.78515625 447.7109375 C-64.57466171 447.71380768 -65.36416718 447.71667786 -66.17759705 447.71963501 C-67.84944373 447.72167444 -69.52131434 447.71615299 -71.19311523 447.70361328 C-73.71719779 447.68770672 -76.23964232 447.70338696 -78.76367188 447.72265625 C-92.77906101 447.74191161 -105.25668883 446.1754327 -115.94921875 436.203125 C-126.15929803 425.25701413 -128.04159093 414.36776387 -127.8125 399.75 C-127.80347656 398.64591797 -127.79445312 397.54183594 -127.78515625 396.40429688 C-127.76180128 393.7067983 -127.72905054 391.00976923 -127.6875 388.3125 C-128.63109375 388.48007812 -129.5746875 388.64765625 -130.546875 388.8203125 C-144.29719082 391.0015875 -156.07149283 389.81129338 -167.75 381.625 C-176.75869805 374.44675454 -183.20710225 365.71228115 -185.6875 354.3125 C-186.97225491 339.62376423 -185.31555764 326.99911785 -175.6875 315.3125 C-167.41456333 306.5314367 -157.23253411 300.65941378 -145.03125 300.1640625 C-139.46254509 300.08066414 -134.14937039 300.14088877 -128.6875 301.3125 C-128.68511165 300.20851175 -128.68272329 299.10452351 -128.68026257 297.96708107 C-128.62144138 271.09196245 -128.54554225 244.21693329 -128.45178509 217.34191322 C-128.40683911 204.34530066 -128.36742159 191.34871543 -128.34106445 178.35205078 C-128.31807477 167.02281653 -128.28466572 155.69366885 -128.23879844 144.36450326 C-128.21487949 138.36702912 -128.19614194 132.36964064 -128.18988609 126.3721199 C-128.18382934 120.72340935 -128.16380772 115.07491796 -128.13322449 109.4262886 C-128.1244538 107.35675581 -128.12071966 105.28719436 -128.12249184 103.21764374 C-128.12415214 100.38325821 -128.10738084 97.54953486 -128.08622742 94.71524048 C-128.09107499 93.90392406 -128.09592257 93.09260764 -128.10091704 92.25670588 C-127.96677126 81.30090297 -124.07159854 71.09542066 -116.578125 63.046875 C-105.62151967 52.84589762 -94.74828377 50.95832256 -80.125 51.1875 C-78.46887695 51.20103516 -78.46887695 51.20103516 -76.77929688 51.21484375 C-74.0817983 51.23819872 -71.38476923 51.27094946 -68.6875 51.3125 C-68.85507813 50.36890625 -69.02265625 49.4253125 -69.1953125 48.453125 C-71.35196612 34.85801739 -69.82905088 24.31021404 -62.9375 12.25 C-47.67301189 -7.67863725 -21.69606743 -13.17916786 0 0 Z M-48.2421875 14.7265625 C-54.69448757 21.80665393 -57.56409555 29.76548322 -57.6875 39.3125 C-56.96821559 44.25542245 -55.87242472 48.98920117 -53.59375 53.45703125 C-52.2794606 56.1479255 -52.43140905 58.36745408 -52.6875 61.3125 C-55.62056657 64.24556657 -58.7299392 63.61018154 -62.66015625 63.62109375 C-64.29883128 63.64628025 -65.93750307 63.67167783 -67.57617188 63.69726562 C-70.15420483 63.72585342 -72.7321807 63.74986916 -75.31030273 63.76879883 C-93.0004104 63.86325092 -93.0004104 63.86325092 -107.73828125 73.12109375 C-113.1816535 79.24079682 -114.81421476 85.67934435 -114.80775452 93.71588135 C-114.80912918 95.03398804 -114.81050385 96.35209473 -114.81192017 97.71014404 C-114.80838121 99.16906761 -114.80474641 100.62799095 -114.80102539 102.08691406 C-114.80074329 103.62443032 -114.80090169 105.16194671 -114.8014679 106.69946289 C-114.80175499 110.87265844 -114.79587243 115.04582529 -114.78889394 119.21901417 C-114.7826458 123.58055794 -114.78205544 127.94210235 -114.78086853 132.3036499 C-114.77775953 140.56252662 -114.76955194 148.8213901 -114.75951904 157.08026099 C-114.74834454 166.48283326 -114.74284408 175.88540616 -114.73782361 185.28798342 C-114.72736898 204.62949797 -114.70902884 223.97099439 -114.6875 243.3125 C-95.2175 243.3125 -75.7475 243.3125 -55.6875 243.3125 C-55.3575 236.7125 -55.0275 230.1125 -54.6875 223.3125 C-51.93310484 220.55810484 -50.22146797 221.00260724 -46.3671875 220.8984375 C-45.11035156 220.85976562 -43.85351562 220.82109375 -42.55859375 220.78125 C-40.58052734 220.73484375 -40.58052734 220.73484375 -38.5625 220.6875 C-37.22263082 220.64931971 -35.88278617 220.61026794 -34.54296875 220.5703125 C-31.25795381 220.4757797 -27.97294862 220.39022844 -24.6875 220.3125 C-23.89308928 218.43866097 -23.10210026 216.56337114 -22.3125 214.6875 C-21.87164062 213.64335937 -21.43078125 212.59921875 -20.9765625 211.5234375 C-19.75613678 208.48346798 -18.6893609 205.43044095 -17.6875 202.3125 C-18.23277344 201.79864746 -18.77804688 201.28479492 -19.33984375 200.75537109 C-21.80473505 198.41530441 -24.24603211 196.05198466 -26.6875 193.6875 C-27.54601562 192.87925781 -28.40453125 192.07101563 -29.2890625 191.23828125 C-30.10117188 190.44550781 -30.91328125 189.65273437 -31.75 188.8359375 C-32.50410156 188.11325684 -33.25820312 187.39057617 -34.03515625 186.64599609 C-36.17189451 183.62842158 -36.19698095 181.93852199 -35.6875 178.3125 C-34.62426758 176.44897461 -34.62426758 176.44897461 -33.01953125 174.77734375 C-32.37967285 174.1004248 -31.73981445 173.42350586 -31.08056641 172.72607422 C-30.29085449 171.92959473 -29.50114258 171.13311523 -28.6875 170.3125 C-27.69289765 169.29342321 -26.69861666 168.27403272 -25.70458984 167.25439453 C-22.87624026 164.3682965 -20.02337819 161.50772318 -17.16088867 158.65551758 C-15.35802659 156.85807764 -13.56065015 155.05527339 -11.76367188 153.25195312 C-10.61750853 152.10644953 -9.47103558 150.96125561 -8.32421875 149.81640625 C-7.78778244 149.27794571 -7.25134613 148.73948517 -6.69865417 148.18470764 C-1.93130092 143.44754246 -1.93130092 143.44754246 2.15478516 143.00390625 C6.09088563 143.38856923 7.13153634 144.42801618 9.8359375 147.25 C11.02509766 148.46816406 11.02509766 148.46816406 12.23828125 149.7109375 C13.04652344 150.56945312 13.85476562 151.42796875 14.6875 152.3125 C15.93466797 153.60027344 15.93466797 153.60027344 17.20703125 154.9140625 C19.25632838 157.03402505 21.29034025 159.16668984 23.3125 161.3125 C29.51727864 159.37625702 35.42075719 157.05640859 41.3125 154.3125 C41.33231934 153.47477051 41.35213867 152.63704102 41.37255859 151.77392578 C41.45060612 148.66884166 41.53729635 145.56415461 41.62988281 142.45947266 C41.68704036 140.45363029 41.73418596 138.44751082 41.78125 136.44140625 C41.83925781 134.55615234 41.83925781 134.55615234 41.8984375 132.6328125 C41.9298584 131.47023926 41.9612793 130.30766602 41.99365234 129.10986328 C42.3125 126.3125 42.3125 126.3125 44.3125 124.3125 C54.2125 123.8175 54.2125 123.8175 64.3125 123.3125 C64.3125 103.8425 64.3125 84.3725 64.3125 64.3125 C33.6225 63.8175 33.6225 63.8175 2.3125 63.3125 C1.20773231 55.57912618 1.20773231 55.57912618 3.75 50.6875 C7.38835786 42.55709139 7.74015458 34.60108229 4.875 26.125 C0.68988973 17.14018285 -5.85380704 10.75517558 -15.0625 7.1484375 C-26.7185878 3.43652859 -39.13044862 6.51106023 -48.2421875 14.7265625 Z M76.3125 64.3125 C76.3125 83.7825 76.3125 103.2525 76.3125 123.3125 C82.9125 123.6425 89.5125 123.9725 96.3125 124.3125 C99.06689516 127.06689516 98.62239276 128.77853203 98.7265625 132.6328125 C98.76523437 133.88964844 98.80390625 135.14648438 98.84375 136.44140625 C98.8746875 137.76011719 98.905625 139.07882813 98.9375 140.4375 C98.97568029 141.77736918 99.01473206 143.11721383 99.0546875 144.45703125 C99.1492203 147.74204619 99.23477156 151.02705138 99.3125 154.3125 C101.18633903 155.10691072 103.06162886 155.89789974 104.9375 156.6875 C106.50371094 157.34878906 106.50371094 157.34878906 108.1015625 158.0234375 C111.14153202 159.24386322 114.19455905 160.3106391 117.3125 161.3125 C117.82635254 160.76722656 118.34020508 160.22195312 118.86962891 159.66015625 C121.20969559 157.19526495 123.57301534 154.75396789 125.9375 152.3125 C126.74574219 151.45398438 127.55398438 150.59546875 128.38671875 149.7109375 C129.17949219 148.89882812 129.97226562 148.08671875 130.7890625 147.25 C131.8730835 146.11884766 131.8730835 146.11884766 132.97900391 144.96484375 C135.99657842 142.82810549 137.68647801 142.80301905 141.3125 143.3125 C143.17602539 144.37573242 143.17602539 144.37573242 144.84765625 145.98046875 C145.5245752 146.62032715 146.20149414 147.26018555 146.89892578 147.91943359 C147.69540527 148.70914551 148.49188477 149.49885742 149.3125 150.3125 C150.33157679 151.30710235 151.35096728 152.30138334 152.37060547 153.29541016 C155.2567035 156.12375974 158.11727682 158.97662181 160.96948242 161.83911133 C162.76692236 163.64197341 164.56972661 165.43934985 166.37304688 167.23632812 C167.51855047 168.38249147 168.66374439 169.52896442 169.80859375 170.67578125 C170.34705429 171.21221756 170.88551483 171.74865387 171.44029236 172.30134583 C176.17745754 177.06869908 176.17745754 177.06869908 176.62109375 181.15478516 C176.23643077 185.09088563 175.19698382 186.13153634 172.375 188.8359375 C171.56289063 189.62871094 170.75078125 190.42148438 169.9140625 191.23828125 C169.05554688 192.04652344 168.19703125 192.85476562 167.3125 193.6875 C166.02472656 194.93466797 166.02472656 194.93466797 164.7109375 196.20703125 C162.59097495 198.25632838 160.45831016 200.29034025 158.3125 202.3125 C160.24874298 208.51727864 162.56859141 214.42075719 165.3125 220.3125 C166.15022949 220.33231934 166.98795898 220.35213867 167.85107422 220.37255859 C170.95615834 220.45060612 174.06084539 220.53729635 177.16552734 220.62988281 C179.17136971 220.68704036 181.17748918 220.73418596 183.18359375 220.78125 C185.06884766 220.83925781 185.06884766 220.83925781 186.9921875 220.8984375 C188.15476074 220.9298584 189.31733398 220.9612793 190.51513672 220.99365234 C193.3125 221.3125 193.3125 221.3125 195.3125 223.3125 C195.6425 229.9125 195.9725 236.5125 196.3125 243.3125 C215.7825 243.3125 235.2525 243.3125 255.3125 243.3125 C255.8075 212.6225 255.8075 212.6225 256.3125 181.3125 C262.39316109 180.29905649 263.2247812 180.3474327 268.375 182.75 C276.80879478 186.18883659 284.78810547 186.8152644 293.5 183.875 C302.12986187 179.85522721 309.02276578 173.30597248 312.53515625 164.40625 C314.62863609 156.07441064 314.72135085 146.97919671 310.5625 139.296875 C309.94375 138.31460938 309.94375 138.31460938 309.3125 137.3125 C308.69375 136.26835937 308.69375 136.26835937 308.0625 135.203125 C303.66272117 128.55345927 297.81975549 124.64149001 290.19921875 122.39453125 C281.76969757 120.72881748 273.89717299 121.46421505 266.16796875 125.40625 C263.4770745 126.7205394 261.25754592 126.56859095 258.3125 126.3125 C255.37943343 123.37943343 256.01481846 120.2700608 256.00390625 116.33984375 C255.97871975 114.70116872 255.95332217 113.06249693 255.92773438 111.42382812 C255.89914658 108.84579517 255.87513084 106.2678193 255.85620117 103.68969727 C255.76174908 85.9995896 255.76174908 85.9995896 246.50390625 71.26171875 C240.75647508 66.14947605 234.48859062 64.17263283 226.890625 64.21484375 C225.86582031 64.21806641 224.84101563 64.22128906 223.78515625 64.22460938 C222.18994141 64.23717773 222.18994141 64.23717773 220.5625 64.25 C219.48355469 64.25451172 218.40460938 64.25902344 217.29296875 64.26367188 C214.63275617 64.27544273 211.97265635 64.29188601 209.3125 64.3125 C209.45558594 65.71048828 209.45558594 65.71048828 209.6015625 67.13671875 C210.90901703 82.17244586 209.3656184 95.11048486 200.0625 107.625 C189.24606843 118.19560358 177.34542116 122.41799418 162.3125 122.3125 C151.36114582 121.69230409 139.33405315 115.71529682 131.9921875 107.6171875 C125.57568107 98.81314379 121.92779172 89.15873159 122.125 78.25 C122.12564453 77.56873047 122.12628906 76.88746094 122.12695312 76.18554688 C122.16266773 72.0545573 122.6254526 68.43478437 123.3125 64.3125 C107.8025 64.3125 92.2925 64.3125 76.3125 64.3125 Z M54.3125 136.3125 C54.1422213 144.35951252 54.1422213 144.35951252 54.01464844 152.40722656 C53.9840332 153.41237305 53.95341797 154.41751953 53.921875 155.453125 C53.90092773 156.47954102 53.87998047 157.50595703 53.85839844 158.56347656 C53.17445415 162.00766826 52.03693996 163.15605712 49.3125 165.3125 C46.72175259 166.43403568 44.2245688 167.40946823 41.5625 168.3125 C37.10755081 169.888489 32.79225794 171.43190165 28.625 173.6875 C25.24797575 175.3441534 23.95536073 175.80626124 20.3125 175.3125 C17.91796875 173.625 17.91796875 173.625 15.5 171.3125 C14.64019531 170.49910156 13.78039062 169.68570313 12.89453125 168.84765625 C12.04246094 168.01105469 11.19039062 167.17445313 10.3125 166.3125 C9.11173828 165.13494141 9.11173828 165.13494141 7.88671875 163.93359375 C6.01367317 162.07385578 4.15556013 160.20189404 2.3125 158.3125 C-3.12483055 162.84241796 -8.15208931 167.65544216 -13.125 172.6875 C-13.85654297 173.42355469 -14.58808594 174.15960938 -15.34179688 174.91796875 C-17.12602723 176.71386074 -18.90786124 178.51205985 -20.6875 180.3125 C-17.25354142 184.40221878 -13.76997309 188.3357503 -9.9375 192.0625 C-7.49599101 194.43757337 -5.58499253 196.4662612 -3.6875 199.3125 C-3.96077873 204.68698174 -5.67043565 208.95191307 -8.0625 213.6875 C-10.15275027 217.94865838 -12.04796802 222.05081714 -13.375 226.625 C-14.6875 230.3125 -14.6875 230.3125 -16.41699219 231.51708984 C-19.13613444 232.46966678 -21.44813147 232.63464781 -24.328125 232.7265625 C-25.77493652 232.77997803 -25.77493652 232.77997803 -27.25097656 232.83447266 C-28.4675293 232.86847168 -29.68408203 232.9024707 -30.9375 232.9375 C-36.75375 233.123125 -36.75375 233.123125 -42.6875 233.3125 C-42.6875 243.8725 -42.6875 254.4325 -42.6875 265.3125 C-34.64048748 265.4827787 -34.64048748 265.4827787 -26.59277344 265.61035156 C-25.08505371 265.65627441 -25.08505371 265.65627441 -23.546875 265.703125 C-22.52045898 265.72407227 -21.49404297 265.74501953 -20.43652344 265.76660156 C-17.00433982 266.44816129 -15.84192936 267.60528337 -13.6875 270.3125 C-12.37890625 273.4140625 -12.37890625 273.4140625 -11.25 276.9375 C-9.44852804 282.31394272 -7.38603422 287.1923331 -4.60546875 292.12890625 C-3.47577607 294.81613267 -3.24458181 296.42234696 -3.6875 299.3125 C-5.375 301.70703125 -5.375 301.70703125 -7.6875 304.125 C-8.50089844 304.98480469 -9.31429687 305.84460938 -10.15234375 306.73046875 C-10.98894531 307.58253906 -11.82554687 308.43460938 -12.6875 309.3125 C-13.86505859 310.51326172 -13.86505859 310.51326172 -15.06640625 311.73828125 C-16.92614422 313.61132683 -18.79810596 315.46943987 -20.6875 317.3125 C-16.15758204 322.74983055 -11.34455784 327.77708931 -6.3125 332.75 C-5.20841797 333.84731445 -5.20841797 333.84731445 -4.08203125 334.96679688 C-2.28613926 336.75102723 -0.48794015 338.53286124 1.3125 340.3125 C5.40221878 336.87854142 9.3357503 333.39497309 13.0625 329.5625 C15.43757337 327.12099101 17.4662612 325.20999253 20.3125 323.3125 C25.30909785 323.61442712 29.1074654 324.91427303 33.5625 327.125 C38.67844396 329.59721338 43.75986841 331.62139265 49.16796875 333.35546875 C51.3125 334.3125 51.3125 334.3125 53.3125 337.3125 C53.63134766 339.94799805 53.63134766 339.94799805 53.7265625 343.07421875 C53.76217285 344.08186279 53.7977832 345.08950684 53.83447266 346.12768555 C53.86847168 347.40554932 53.9024707 348.68341309 53.9375 350 C54.06125 354.063125 54.185 358.12625 54.3125 362.3125 C64.8725 362.3125 75.4325 362.3125 86.3125 362.3125 C86.4827787 354.26548748 86.4827787 354.26548748 86.61035156 346.21777344 C86.6409668 345.21262695 86.67158203 344.20748047 86.703125 343.171875 C86.72407227 342.14545898 86.74501953 341.11904297 86.76660156 340.06152344 C87.44816129 336.62933982 88.60528337 335.46692936 91.3125 333.3125 C94.4140625 332.00390625 94.4140625 332.00390625 97.9375 330.875 C103.31394272 329.07352804 108.1923331 327.01103422 113.12890625 324.23046875 C115.81613267 323.10077607 117.42234696 322.86958181 120.3125 323.3125 C122.70703125 325 122.70703125 325 125.125 327.3125 C125.98480469 328.12589844 126.84460938 328.93929687 127.73046875 329.77734375 C128.58253906 330.61394531 129.43460938 331.45054687 130.3125 332.3125 C131.51326172 333.49005859 131.51326172 333.49005859 132.73828125 334.69140625 C134.61132683 336.55114422 136.46943987 338.42310596 138.3125 340.3125 C143.74983055 335.78258204 148.77708931 330.96955784 153.75 325.9375 C154.84731445 324.83341797 154.84731445 324.83341797 155.96679688 323.70703125 C157.75102723 321.91113926 159.53286124 320.11294015 161.3125 318.3125 C157.87854142 314.22278122 154.39497309 310.2892497 150.5625 306.5625 C148.12099101 304.18742663 146.20999253 302.1587388 144.3125 299.3125 C144.61442712 294.31590215 145.91427303 290.5175346 148.125 286.0625 C150.59721338 280.94655604 152.62139265 275.86513159 154.35546875 270.45703125 C155.3125 268.3125 155.3125 268.3125 158.3125 266.3125 C160.94799805 265.99365234 160.94799805 265.99365234 164.07421875 265.8984375 C165.08186279 265.86282715 166.08950684 265.8272168 167.12768555 265.79052734 C169.0444812 265.73952881 169.0444812 265.73952881 171 265.6875 C175.063125 265.56375 179.12625 265.44 183.3125 265.3125 C183.3125 254.7525 183.3125 244.1925 183.3125 233.3125 C175.59454356 233.0632868 175.59454356 233.0632868 167.87597656 232.83447266 C166.91143555 232.7988623 165.94689453 232.76325195 164.953125 232.7265625 C163.96860352 232.6951416 162.98408203 232.6637207 161.96972656 232.63134766 C159.22300521 232.30176128 157.58355405 231.8811792 155.3125 230.3125 C154.27929688 228.56005859 154.27929688 228.56005859 153.53125 226.4609375 C153.24636719 225.69136719 152.96148437 224.92179687 152.66796875 224.12890625 C152.38566406 223.32324219 152.10335937 222.51757812 151.8125 221.6875 C151.24354845 220.11054295 150.67064712 218.5350052 150.09375 216.9609375 C149.66835938 215.79643066 149.66835938 215.79643066 149.234375 214.60839844 C148.31810385 212.3264562 147.2507005 210.20732625 146.09375 208.0390625 C144.53086449 204.96719727 143.55329503 202.80602912 144.3125 199.3125 C146 196.91796875 146 196.91796875 148.3125 194.5 C149.12589844 193.64019531 149.93929687 192.78039062 150.77734375 191.89453125 C152.03224609 190.61642578 152.03224609 190.61642578 153.3125 189.3125 C154.49005859 188.11173828 154.49005859 188.11173828 155.69140625 186.88671875 C157.55114422 185.01367317 159.42310596 183.15556013 161.3125 181.3125 C156.78258204 175.87516945 151.96955784 170.84791069 146.9375 165.875 C146.20144531 165.14345703 145.46539062 164.41191406 144.70703125 163.65820312 C142.91113926 161.87397277 141.11294015 160.09213876 139.3125 158.3125 C135.22278122 161.74645858 131.2892497 165.23002691 127.5625 169.0625 C125.18742663 171.50400899 123.1587388 173.41500747 120.3125 175.3125 C114.93778973 175.03920965 110.67342681 173.32912153 105.9375 170.9375 C101.67951762 168.85354871 97.55291838 166.93501672 93 165.5625 C89.3125 164.3125 89.3125 164.3125 87.3125 161.3125 C86.99365234 158.67700195 86.99365234 158.67700195 86.8984375 155.55078125 C86.84502197 154.03931519 86.84502197 154.03931519 86.79052734 152.49731445 C86.75652832 151.21945068 86.7225293 149.94158691 86.6875 148.625 C86.56375 144.561875 86.44 140.49875 86.3125 136.3125 C75.7525 136.3125 65.1925 136.3125 54.3125 136.3125 Z M-114.6875 255.3125 C-115.0175 275.7725 -115.3475 296.2325 -115.6875 317.3125 C-121.76816109 318.32594351 -122.5997812 318.2775673 -127.75 315.875 C-136.18379478 312.43616341 -144.16310547 311.8097356 -152.875 314.75 C-161.50486187 318.76977279 -168.39776578 325.31902752 -171.91015625 334.21875 C-174.00363609 342.55058936 -174.09635085 351.64580329 -169.9375 359.328125 C-169.525 359.98296875 -169.1125 360.6378125 -168.6875 361.3125 C-168.275 362.00859375 -167.8625 362.7046875 -167.4375 363.421875 C-163.03772117 370.07154073 -157.19475549 373.98350999 -149.57421875 376.23046875 C-140.8382553 377.95673698 -132.2428035 377.349369 -124.6875 372.3125 C-121.125 372.0625 -121.125 372.0625 -117.6875 372.3125 C-114.75443343 375.24556657 -115.38981846 378.3549392 -115.37890625 382.28515625 C-115.35371975 383.92383128 -115.32832217 385.56250307 -115.30273438 387.20117188 C-115.27414658 389.77920483 -115.25013084 392.3571807 -115.23120117 394.93530273 C-115.13674908 412.6254104 -115.13674908 412.6254104 -105.87890625 427.36328125 C-100.13147508 432.47552395 -93.86359062 434.45236717 -86.265625 434.41015625 C-85.24082031 434.40693359 -84.21601562 434.40371094 -83.16015625 434.40039062 C-82.09667969 434.39201172 -81.03320312 434.38363281 -79.9375 434.375 C-78.85855469 434.37048828 -77.77960938 434.36597656 -76.66796875 434.36132812 C-74.00775617 434.34955727 -71.34765635 434.33311399 -68.6875 434.3125 C-68.78289062 433.38050781 -68.87828125 432.44851563 -68.9765625 431.48828125 C-70.30599296 416.199831 -68.66471695 403.07813887 -59 390.5 C-50.34403305 381.23222387 -38.36095749 376.74617287 -25.9375 376.125 C-12.95794065 376.34750673 -2.22454636 381.32388737 7.19140625 390.0546875 C15.16252054 398.35291015 18.49961125 408.90395554 18.4375 420.1875 C18.44136719 420.88230469 18.44523438 421.57710937 18.44921875 422.29296875 C18.44131438 426.49018915 18.01106666 430.12110002 17.3125 434.3125 C32.8225 434.3125 48.3325 434.3125 64.3125 434.3125 C64.3125 414.8425 64.3125 395.3725 64.3125 375.3125 C57.7125 374.9825 51.1125 374.6525 44.3125 374.3125 C41.55810484 371.55810484 42.00260724 369.84646797 41.8984375 365.9921875 C41.85976562 364.73535156 41.82109375 363.47851562 41.78125 362.18359375 C41.73484375 360.20552734 41.73484375 360.20552734 41.6875 358.1875 C41.64931971 356.84763082 41.61026794 355.50778617 41.5703125 354.16796875 C41.4757797 350.88295381 41.39022844 347.59794862 41.3125 344.3125 C39.43866097 343.51808928 37.56337114 342.72710026 35.6875 341.9375 C34.64335937 341.49664062 33.59921875 341.05578125 32.5234375 340.6015625 C29.48346798 339.38113678 26.43044095 338.3143609 23.3125 337.3125 C22.79864746 337.85777344 22.28479492 338.40304687 21.75537109 338.96484375 C19.41530441 341.42973505 17.05198466 343.87103211 14.6875 346.3125 C13.87925781 347.17101562 13.07101563 348.02953125 12.23828125 348.9140625 C11.44550781 349.72617187 10.65273437 350.53828125 9.8359375 351.375 C9.11325684 352.12910156 8.39057617 352.88320313 7.64599609 353.66015625 C4.62842158 355.79689451 2.93852199 355.82198095 -0.6875 355.3125 C-2.55102539 354.24926758 -2.55102539 354.24926758 -4.22265625 352.64453125 C-4.8995752 352.00467285 -5.57649414 351.36481445 -6.27392578 350.70556641 C-7.07040527 349.91585449 -7.86688477 349.12614258 -8.6875 348.3125 C-9.70657679 347.31789765 -10.72596728 346.32361666 -11.74560547 345.32958984 C-14.6317035 342.50124026 -17.49227682 339.64837819 -20.34448242 336.78588867 C-22.14192236 334.98302659 -23.94472661 333.18565015 -25.74804688 331.38867188 C-26.89355047 330.24250853 -28.03874439 329.09603558 -29.18359375 327.94921875 C-29.72205429 327.41278244 -30.26051483 326.87634613 -30.81529236 326.32365417 C-35.55245754 321.55630092 -35.55245754 321.55630092 -35.99609375 317.47021484 C-35.61143077 313.53411437 -34.57198382 312.49346366 -31.75 309.7890625 C-30.53183594 308.59990234 -30.53183594 308.59990234 -29.2890625 307.38671875 C-28.43054688 306.57847656 -27.57203125 305.77023437 -26.6875 304.9375 C-25.82898438 304.10605469 -24.97046875 303.27460938 -24.0859375 302.41796875 C-21.96597495 300.36867162 -19.83331016 298.33465975 -17.6875 296.3125 C-19.62374298 290.10772136 -21.94359141 284.20424281 -24.6875 278.3125 C-25.52522949 278.29268066 -26.36295898 278.27286133 -27.22607422 278.25244141 C-30.33115834 278.17439388 -33.43584539 278.08770365 -36.54052734 277.99511719 C-38.54636971 277.93795964 -40.55248918 277.89081404 -42.55859375 277.84375 C-43.81542969 277.80507813 -45.07226562 277.76640625 -46.3671875 277.7265625 C-48.11104736 277.67943115 -48.11104736 277.67943115 -49.89013672 277.63134766 C-52.6875 277.3125 -52.6875 277.3125 -54.6875 275.3125 C-55.0175 268.7125 -55.3475 262.1125 -55.6875 255.3125 C-75.1575 255.3125 -94.6275 255.3125 -114.6875 255.3125 Z M196.3125 255.3125 C195.9825 261.9125 195.6525 268.5125 195.3125 275.3125 C192.55810484 278.06689516 190.84646797 277.62239276 186.9921875 277.7265625 C185.10693359 277.78457031 185.10693359 277.78457031 183.18359375 277.84375 C181.20552734 277.89015625 181.20552734 277.89015625 179.1875 277.9375 C177.84763082 277.97568029 176.50778617 278.01473206 175.16796875 278.0546875 C171.88295381 278.1492203 168.59794862 278.23477156 165.3125 278.3125 C164.51808928 280.18633903 163.72710026 282.06162886 162.9375 283.9375 C162.27621094 285.50371094 162.27621094 285.50371094 161.6015625 287.1015625 C160.38113678 290.14153202 159.3143609 293.19455905 158.3125 296.3125 C158.85777344 296.82635254 159.40304687 297.34020508 159.96484375 297.86962891 C162.42973505 300.20969559 164.87103211 302.57301534 167.3125 304.9375 C168.17101562 305.74574219 169.02953125 306.55398438 169.9140625 307.38671875 C170.72617187 308.17949219 171.53828125 308.97226562 172.375 309.7890625 C173.50615234 310.8730835 173.50615234 310.8730835 174.66015625 311.97900391 C176.79689451 314.99657842 176.82198095 316.68647801 176.3125 320.3125 C175.24926758 322.17602539 175.24926758 322.17602539 173.64453125 323.84765625 C173.00467285 324.5245752 172.36481445 325.20149414 171.70556641 325.89892578 C170.91585449 326.69540527 170.12614258 327.49188477 169.3125 328.3125 C168.31789765 329.33157679 167.32361666 330.35096728 166.32958984 331.37060547 C163.50124026 334.2567035 160.64837819 337.11727682 157.78588867 339.96948242 C155.98302659 341.76692236 154.18565015 343.56972661 152.38867188 345.37304688 C151.24250853 346.51855047 150.09603558 347.66374439 148.94921875 348.80859375 C148.41278244 349.34705429 147.87634613 349.88551483 147.32365417 350.44029236 C142.55630092 355.17745754 142.55630092 355.17745754 138.47021484 355.62109375 C134.53411437 355.23643077 133.49346366 354.19698382 130.7890625 351.375 C129.99628906 350.56289063 129.20351563 349.75078125 128.38671875 348.9140625 C127.57847656 348.05554688 126.77023437 347.19703125 125.9375 346.3125 C125.10605469 345.45398438 124.27460938 344.59546875 123.41796875 343.7109375 C121.36867162 341.59097495 119.33465975 339.45831016 117.3125 337.3125 C111.10772136 339.24874298 105.20424281 341.56859141 99.3125 344.3125 C99.29268066 345.15022949 99.27286133 345.98795898 99.25244141 346.85107422 C99.17439388 349.95615834 99.08770365 353.06084539 98.99511719 356.16552734 C98.93795964 358.17136971 98.89081404 360.17748918 98.84375 362.18359375 C98.80507813 363.44042969 98.76640625 364.69726562 98.7265625 365.9921875 C98.6951416 367.15476074 98.6637207 368.31733398 98.63134766 369.51513672 C98.3125 372.3125 98.3125 372.3125 96.3125 374.3125 C89.7125 374.6425 83.1125 374.9725 76.3125 375.3125 C76.3125 394.7825 76.3125 414.2525 76.3125 434.3125 C96.7725 434.6425 117.2325 434.9725 138.3125 435.3125 C139.32594351 441.39316109 139.2775673 442.2247812 136.875 447.375 C133.43616341 455.80879478 132.8097356 463.78810547 135.75 472.5 C139.76977279 481.12986187 146.31902752 488.02276578 155.21875 491.53515625 C163.6238943 493.64705488 172.65468902 493.68212864 180.39453125 489.5 C181.02746094 489.108125 181.66039062 488.71625 182.3125 488.3125 C182.93511719 487.961875 183.55773437 487.61125 184.19921875 487.25 C191.17943419 482.88925803 194.99656345 476.26041898 197.3125 468.5 C198.96893337 460.86091904 197.93195544 453.53474627 194.6875 446.4375 C193.21085262 443.08148322 192.89113095 440.93627386 193.3125 437.3125 C196.24556657 434.37943343 199.3549392 435.01481846 203.28515625 435.00390625 C204.92383128 434.97871975 206.56250307 434.95332217 208.20117188 434.92773438 C210.77920483 434.89914658 213.3571807 434.87513084 215.93530273 434.85620117 C233.6254104 434.76174908 233.6254104 434.76174908 248.36328125 425.50390625 C253.8066535 419.38420318 255.43921476 412.94565565 255.43275452 404.90911865 C255.43412918 403.59101196 255.43550385 402.27290527 255.43692017 400.91485596 C255.43338121 399.45593239 255.42974641 397.99700905 255.42602539 396.53808594 C255.42574329 395.00056968 255.42590169 393.46305329 255.4264679 391.92553711 C255.42675499 387.75234156 255.42087243 383.57917471 255.41389394 379.40598583 C255.4076458 375.04444206 255.40705544 370.68289765 255.40586853 366.3213501 C255.40275953 358.06247338 255.39455194 349.8036099 255.38451904 341.54473901 C255.37334454 332.14216674 255.36784408 322.73959384 255.36282361 313.33701658 C255.35236898 293.99550203 255.33402884 274.65400561 255.3125 255.3125 C235.8425 255.3125 216.3725 255.3125 196.3125 255.3125 Z " fill="#FC6F3F" transform="translate(185.6875,6.6875)"/>
<path d="M0 0 C13.84601864 11.29696082 23.99254673 25.71665552 26.32910156 43.74707031 C27.669347 61.06655153 25.04679207 78.19756758 13.74316406 92.05175781 C2.06645827 105.529977 -12.59343748 115.50293699 -30.79101562 116.91113281 C-48.28891047 117.8236697 -64.97628458 114.55659454 -78.56469727 102.78442383 C-91.95399381 90.53437155 -100.98859131 75.85609069 -101.95214844 57.37988281 C-102.49208427 39.78432686 -98.40989596 23.55015914 -86.29589844 10.30957031 C-64.01716388 -12.9754715 -27.15121278 -20.35944243 0 0 Z M-74.67089844 16.74707031 C-85.57519475 30.0579789 -89.84424275 42.54432867 -88.67089844 59.74707031 C-86.92460483 72.52676444 -80.19561317 84.65239183 -70.10839844 92.74707031 C-56.86990778 102.23881833 -43.66230546 105.52229363 -27.52636719 103.31738281 C-12.92988076 100.21825987 -1.82954147 91.42212355 6.27441406 79.17675781 C13.50868983 67.1012937 15.21589043 53.35526204 12.26660156 39.62207031 C8.3136554 25.6087825 -0.65786912 15.48035466 -12.67089844 7.74707031 C-32.49236584 -3.07042394 -58.84170004 -0.11267485 -74.67089844 16.74707031 Z " fill="#FD6F3E" transform="translate(293.6708984375,203.2529296875)"/>
</svg>
