<?xml version="1.0" encoding="UTF-8"?>
<svg version="1.1" xmlns="http://www.w3.org/2000/svg" width="512" height="512">
<path d="M0 0 C1.70929688 0.01546875 1.70929688 0.01546875 3.453125 0.03125 C10.52742025 1.03707397 14.85753214 4.77645687 19.13671875 10.28515625 C22.98445013 15.83074045 24.30309712 20.91599813 23.4921875 27.63671875 C21.97628819 34.87169273 17.69395944 39.82515992 12.5 44.9375 C12.01474854 45.41558105 11.52949707 45.89366211 11.02954102 46.38623047 C7.70770555 49.634028 4.29814306 52.7500608 0.765625 55.765625 C-1.55114621 57.75912581 -3.80419984 59.81554388 -6.0625 61.875 C-10.38611938 65.77680286 -14.83742452 69.48148498 -19.3671875 73.140625 C-21.82474267 75.15195742 -24.23515341 77.20676359 -26.63525391 79.28588867 C-35.79392888 87.18701044 -45.51039568 94.33696744 -55.25 101.5 C-55.89614258 101.97856445 -56.54228516 102.45712891 -57.20800781 102.95019531 C-81.54159737 120.94173392 -108.98347601 139.13359504 -139.25 144.5 C-139.98347656 144.63019531 -140.71695313 144.76039063 -141.47265625 144.89453125 C-149.94624702 146.15798912 -158.38726777 145.58099213 -166.8125 144.3125 C-167.71178223 144.18230469 -168.61106445 144.05210937 -169.53759766 143.91796875 C-175.42923462 143.0294271 -181.24048452 141.90374895 -187.06469727 140.65185547 C-211.20703673 135.50945049 -235.02820116 134.19235602 -259.64788818 133.97329712 C-262.16951535 133.94947753 -264.69107367 133.91661352 -267.21246338 133.87460327 C-270.78158997 133.8210855 -274.34848805 133.80878433 -277.91796875 133.80859375 C-279.54406822 133.77647797 -279.54406822 133.77647797 -281.20301819 133.74371338 C-284.01457546 133.76920529 -286.51673015 133.84014128 -289.25 134.5 C-291.89770683 137.24594187 -291.89770683 137.24594187 -293.25 140.5 C-299.47314758 145.98229668 -303.81078961 145.77026999 -311.875 145.875 C-312.94363281 145.91238281 -314.01226562 145.94976562 -315.11328125 145.98828125 C-322.09839232 146.0656072 -326.92145457 145.21447836 -332.25 140.5 C-336.35861139 135.06603009 -336.40173628 129.79825417 -336.41113281 123.18652344 C-336.41609772 122.35022903 -336.42106262 121.51393463 -336.42617798 120.65229797 C-336.44077191 117.88798191 -336.44759747 115.12372325 -336.453125 112.359375 C-336.45887932 110.43369547 -336.46463702 108.50801594 -336.47039795 106.58233643 C-336.48090047 102.54398329 -336.48674784 98.50565002 -336.49023438 94.46728516 C-336.49571339 89.30473321 -336.51973197 84.14244577 -336.54820633 78.97997665 C-336.5668757 75.00100958 -336.57204063 71.02210562 -336.57357025 67.04309845 C-336.57658828 65.14059251 -336.58458799 63.23808746 -336.59775543 61.33562469 C-336.61490375 58.66723303 -336.61291422 55.99947984 -336.60644531 53.33105469 C-336.6156601 52.55258682 -336.62487488 51.77411896 -336.6343689 50.97206116 C-336.59126895 45.26646282 -335.7934629 39.47251821 -331.93962479 34.96857834 C-326.0707079 29.7191146 -319.86372532 29.15624489 -312.375 29.1875 C-311.22837891 29.16333008 -311.22837891 29.16333008 -310.05859375 29.13867188 C-304.48306307 29.13393883 -300.31253412 30.12055376 -295.25 32.5 C-293.9675293 34.05834961 -293.9675293 34.05834961 -292.8125 35.75 C-291.5440625 37.11125 -291.5440625 37.11125 -290.25 38.5 C-270.14151349 37.69886508 -251.18847717 29.14438888 -233.4375 20.390625 C-211.81488063 9.946067 -193.24158033 15.26008643 -171.37207031 22.20800781 C-167.22116895 23.52023461 -163.04801083 24.74799902 -158.8671875 25.9609375 C-156.8353835 26.55389233 -154.8037487 27.14742422 -152.77212524 27.74099731 C-150.86392802 28.29750159 -148.95480303 28.85082155 -147.0456543 29.40405273 C-127.38064131 35.25055449 -127.38064131 35.25055449 -122.8359375 42.87109375 C-119.25 49.77252095 -119.25 49.77252095 -119.25 53.5 C-92.47186165 47.22448286 -68.10791356 33.81285301 -44.25 20.5 C-38.01197514 17.02399751 -38.01197514 17.02399751 -35.39450073 15.56706238 C-32.46452516 13.93615158 -29.53616539 12.30258288 -26.61083984 10.66333008 C-23.49926758 8.92577467 -20.37798282 7.20780671 -17.25 5.5 C-15.88246582 4.74082275 -15.88246582 4.74082275 -14.48730469 3.96630859 C-9.51855191 1.31649511 -5.76082671 -0.15783087 0 0 Z M-12.125 18.9375 C-12.96796631 19.39415039 -13.81093262 19.85080078 -14.67944336 20.32128906 C-20.39079267 23.42864208 -26.05534872 26.62106027 -31.7121582 29.82641602 C-88.57166571 61.97462521 -88.57166571 61.97462521 -113.3125 66.375 C-120.82058213 67.6824281 -120.82058213 67.6824281 -126.5 72.5625 C-126.974375 73.25601563 -127.44875 73.94953125 -127.9375 74.6640625 C-130.54489928 78.31131745 -134.23418082 79.09517834 -138.44677734 79.94116211 C-146.49293334 81.01705615 -153.63391064 79.46364372 -161.4152832 77.64047241 C-173.88467266 74.73167149 -185.80449186 72.71389683 -198.65625 72.66796875 C-202.25 72.5 -202.25 72.5 -204.25 70.5 C-204.55078125 68.625 -204.55078125 68.625 -204.5625 66.5 C-204.57925781 65.79875 -204.59601563 65.0975 -204.61328125 64.375 C-204.49339844 63.75625 -204.37351562 63.1375 -204.25 62.5 C-196.55326196 57.36884131 -182.75222453 59.60974052 -174.06396484 61.22802734 C-168.18488965 62.41157952 -162.34279776 63.73958071 -156.52294922 65.18530273 C-146.79362249 67.64844281 -146.79362249 67.64844281 -137.25 65.5 C-134.72078061 62.90909233 -133.37311506 61.1415341 -133.09765625 57.46875 C-133.44464256 52.69991246 -134.5787303 50.68623853 -138.25 47.5 C-140.97343335 46.26884853 -140.97343335 46.26884853 -144.05664062 45.40942383 C-145.2246521 45.05258011 -146.39266357 44.69573639 -147.59606934 44.32807922 C-148.85342896 43.95813339 -150.11078857 43.58818756 -151.40625 43.20703125 C-152.71407302 42.81266517 -154.02156388 42.41719603 -155.32873535 42.02067566 C-158.76304784 40.98225725 -162.20179629 39.95935896 -165.6416626 38.93951416 C-169.1377502 37.89978663 -172.62913516 36.84450884 -176.12109375 35.79101562 C-200.09031425 28.57364993 -214.24811783 26.47587083 -237.25 37.875 C-247.98389617 43.17757098 -258.63164963 46.71232591 -270.25 49.5 C-271.0848291 49.70206055 -271.9196582 49.90412109 -272.77978516 50.11230469 C-276.53868186 51.01609119 -280.30139691 51.89464284 -284.07421875 52.73828125 C-287.12555472 53.34350001 -287.12555472 53.34350001 -289.25 54.5 C-289.25 75.95 -289.25 97.4 -289.25 119.5 C-280.319375 119.603125 -271.38875 119.70625 -262.1875 119.8125 C-233.93872659 120.26538771 -207.11386154 121.96232966 -179.42276001 127.66693115 C-141.6791797 135.37985659 -114.30784553 123.84258465 -82.66650391 103.10546875 C-57.7978803 86.58333612 -34.57594326 67.55952833 -12.4765625 47.51171875 C-10.41895609 45.65265331 -8.34153237 43.82071642 -6.25 42 C-3.09217723 39.24255558 0.05486167 36.47354855 3.1875 33.6875 C4.03183594 32.93855469 4.87617188 32.18960937 5.74609375 31.41796875 C8.43323406 28.84606643 8.70780372 27.94728054 9.0625 24.1875 C8.70124058 19.92463889 7.73007946 18.48007946 4.75 15.5 C-1.44676022 12.40161989 -6.70290125 15.91832061 -12.125 18.9375 Z M-321.25 44.5 C-321.27312269 55.69573244 -321.29091471 66.89145924 -321.30181217 78.08721066 C-321.30704116 83.28528115 -321.3141391 88.48333536 -321.32543945 93.68139648 C-321.33626776 98.69342268 -321.34227671 103.70543318 -321.34487724 108.71747017 C-321.34673159 110.63412282 -321.3503524 112.55077457 -321.35573006 114.46742058 C-321.36293975 117.14228072 -321.36399097 119.81707514 -321.36352539 122.49194336 C-321.36712067 123.2925116 -321.37071594 124.09307983 -321.37442017 124.91790771 C-321.70423821 128.50509902 -321.70423821 128.50509902 -320.25 131.5 C-317.5726862 131.59981214 -314.92695825 131.63879875 -312.25 131.625 C-311.49976563 131.62886719 -310.74953125 131.63273437 -309.9765625 131.63671875 C-306.31393883 131.97675541 -306.31393883 131.97675541 -303.25 130.5 C-303.13893006 127.86348867 -303.09260832 125.2529258 -303.08886719 122.61547852 C-303.08390228 121.78949158 -303.07893738 120.96350464 -303.07382202 120.11248779 C-303.05916347 117.36795228 -303.05239267 114.62347455 -303.046875 111.87890625 C-303.04112707 109.97940569 -303.0353693 108.07990516 -303.02960205 106.18040466 C-303.01908187 102.1931023 -303.01324571 98.20582016 -303.00976562 94.21850586 C-303.00427542 89.09899505 -302.98024049 83.97974949 -302.95179367 78.860322 C-302.93320904 74.93563546 -302.92796395 71.01101338 -302.92642975 67.08628654 C-302.92339377 65.19835902 -302.91533369 63.31043288 -302.90224457 61.42254829 C-302.88526911 58.78612966 -302.88704311 56.15036648 -302.89355469 53.51391602 C-302.8843399 52.72786484 -302.87512512 51.94181366 -302.8656311 51.13194275 C-302.848802 48.74055851 -302.848802 48.74055851 -303.25 45.5 C-306.72792817 43.18138122 -308.15299252 43.25727073 -312.25 43.3125 C-313.8278125 43.32216797 -313.8278125 43.32216797 -315.4375 43.33203125 C-318.33062122 43.38292451 -318.33062122 43.38292451 -321.25 44.5 Z " fill="#FC6C41" transform="translate(412.25,328.5)"/>
<path d="M0 0 C2.22756497 1.03162791 4.38939099 2.14929937 6.55609131 3.30326843 C7.36818558 3.7234726 8.18027985 4.14367676 9.01698303 4.57661438 C11.61553977 5.92467228 14.20490509 7.28940945 16.79437256 8.65483093 C18.48455125 9.53484534 20.17530223 10.41376152 21.86663818 11.29154968 C26.10917571 13.49742257 30.34340521 15.71869167 34.57440186 17.9466095 C37.09321703 19.27264197 39.61353137 20.59578447 42.13421631 21.91825867 C51.94565359 27.06910075 61.72525881 32.27490209 71.47894287 37.53440857 C78.05706655 41.07911207 84.65111393 44.57994896 91.31781006 47.95561218 C92.46040283 48.53722107 93.60299561 49.11882996 94.7802124 49.71806335 C96.94471726 50.81556549 99.11410756 51.90350267 101.28900146 52.98027039 C102.26014893 53.47357849 103.23129639 53.9668866 104.23187256 54.47514343 C105.50417725 55.10960388 105.50417725 55.10960388 106.80218506 55.75688171 C109.79216529 57.73267585 111.21300798 59.18428108 113.10687256 62.27983093 C113.69625772 65.89659142 113.63259576 69.47690105 113.5927124 73.13432312 C113.59650909 74.22940689 113.60030579 75.32449066 113.60421753 76.45275879 C113.61163247 80.07769834 113.59020998 83.70183732 113.56781006 87.32670593 C113.56542405 89.85716152 113.56452064 92.3876189 113.56503296 94.91807556 C113.56190228 100.23100162 113.54581855 105.54365226 113.51849365 110.85649109 C113.48723724 116.955332 113.4764909 123.05392127 113.47796476 129.15283656 C113.47919756 135.05548647 113.46864412 140.95805359 113.45238113 146.86067963 C113.44606799 149.3530199 113.44208726 151.84536733 113.44059372 154.33771515 C113.39726694 188.88736859 113.39726694 188.88736859 108.54437256 204.27983093 C108.28752686 205.10813416 108.03068115 205.93643738 107.76605225 206.7898407 C95.99870742 242.81787219 66.67655965 261.76753217 36.93499756 282.32035828 C33.34304274 284.80905211 29.76388517 287.3156529 26.18719482 289.82621765 C23.72471443 291.55351167 21.25776744 293.27427678 18.79046631 294.99467468 C15.678668 297.1677182 12.59094716 299.3699771 9.51702881 301.59623718 C8.08865188 302.61578033 6.6602669 303.63531218 5.23187256 304.65483093 C4.59580078 305.12574158 3.959729 305.59665222 3.30438232 306.08183289 C0.59678578 307.99751299 -1.62192814 309.22756857 -4.89312744 309.85795593 C-8.95899435 309.0744295 -11.75685413 307.06947124 -15.01812744 304.65483093 C-16.4386824 303.64048287 -17.85925621 302.6261612 -19.27984619 301.61186218 C-20.02798584 301.06997253 -20.77612549 300.52808289 -21.54693604 299.96977234 C-24.77190251 297.64685684 -28.03395242 295.3787754 -31.29571533 293.10795593 C-39.79954804 287.18483948 -48.26643855 281.20854517 -56.72515869 275.22123718 C-59.58901614 273.19574709 -62.46242431 271.18475274 -65.34234619 269.18217468 C-94.1000344 249.142952 -114.75506709 226.5917027 -121.47140503 191.235672 C-123.46016852 178.35139262 -123.2214416 165.40481944 -123.22906494 152.39701843 C-123.23550147 149.8072655 -123.24223045 147.21751329 -123.24923706 144.62776184 C-123.26114795 139.23018896 -123.26501003 133.83268774 -123.26373291 128.43510437 C-123.26252489 122.20508336 -123.28378592 115.97540501 -123.31522024 109.74547088 C-123.34452094 103.72208993 -123.35170968 97.69889585 -123.35051346 91.67543411 C-123.35287363 89.12291678 -123.36172045 86.57039688 -123.37717819 84.01792526 C-123.39672597 80.46154056 -123.39104682 76.90605363 -123.37896729 73.34965515 C-123.3902063 72.2971608 -123.40144531 71.24466644 -123.4130249 70.16027832 C-123.35146199 63.04444031 -123.35146199 63.04444031 -121.05015564 59.20532227 C-118.34734426 56.79263249 -115.62910152 55.26880602 -112.38922119 53.64311218 C-111.75861786 53.32234711 -111.12801453 53.00158203 -110.478302 52.6710968 C-108.43428815 51.63413841 -106.38259664 50.61344175 -104.33062744 49.59233093 C-102.90638424 48.87236072 -101.48280343 48.15107875 -100.05987549 47.42851257 C-97.25823275 46.00680047 -94.45424805 44.58991129 -91.64801025 43.17729187 C-87.14179707 40.90522565 -82.66657047 38.57694703 -78.20562744 36.21733093 C-77.1210022 35.64571228 -77.1210022 35.64571228 -76.01446533 35.06254578 C-71.5578423 32.70779324 -67.11607276 30.32612341 -62.67828369 27.93608093 C-55.42702962 24.03087806 -48.16448743 20.14741734 -40.89312744 16.27983093 C-40.18116211 15.90056458 -39.46919678 15.52129822 -38.73565674 15.13053894 C-34.23971902 12.73719009 -29.73615713 10.35915622 -25.22277832 7.99885559 C-23.76262345 7.23288166 -22.30469468 6.46264787 -20.84912109 5.68800354 C-18.80984973 4.60391844 -16.76292601 3.53585522 -14.71343994 2.47123718 C-14.1114679 2.14700775 -13.50949585 1.82277832 -12.88928223 1.48872375 C-8.39659474 -0.81309505 -4.84859726 -1.8444663 0 0 Z M-11.52203369 16.89311218 C-13.18286987 17.7679425 -13.18286987 17.7679425 -14.8772583 18.66044617 C-16.07017048 19.30418087 -17.26295728 19.94814795 -18.45562744 20.59233093 C-19.68883471 21.24718567 -20.92264589 21.90090432 -22.15704346 22.55351257 C-24.61830738 23.8568484 -27.07607432 25.16641413 -29.53082275 26.48197937 C-33.06096581 28.36957547 -36.60510544 30.22836636 -40.15411377 32.0801239 C-46.21304604 35.24585654 -52.2433399 38.46427176 -58.26422119 41.70170593 C-59.99877563 42.63381897 -59.99877563 42.63381897 -61.76837158 43.58476257 C-63.96539577 44.76657307 -66.16136102 45.95035651 -68.35577393 47.13700867 C-81.77571146 54.3598702 -95.3479737 61.29564027 -108.89312744 68.27983093 C-108.93971468 81.6592428 -108.97512962 95.03863498 -108.99675179 108.4181118 C-109.00713559 114.63246424 -109.02119472 120.8467607 -109.04400635 127.06108093 C-109.06592914 133.07170274 -109.07773656 139.0822711 -109.08288193 145.09292984 C-109.08654312 147.37233444 -109.0936911 149.65173652 -109.10458755 151.93111801 C-109.24171695 181.83884283 -106.48339464 209.9471919 -85.89312744 233.27983093 C-85.13000244 234.29045593 -84.36687744 235.30108093 -83.58062744 236.34233093 C-75.46883526 245.20870843 -65.06196047 251.82535603 -55.24371338 258.64555359 C-52.01674729 260.88914634 -48.79933299 263.14627389 -45.58111572 265.40238953 C-41.35410272 268.36484797 -37.12337184 271.32198951 -32.89312744 274.27983093 C-29.28866404 276.80024033 -25.68455376 279.32115365 -22.08062744 281.84233093 C-21.26295898 282.41386902 -20.44529053 282.9854071 -19.60284424 283.57426453 C-18.82594238 284.1177655 -18.04904053 284.66126648 -17.24859619 285.22123718 C-16.50786865 285.73315613 -15.76714111 286.24507507 -15.00396729 286.77250671 C-13.61977083 287.76094402 -12.26364628 288.79019125 -10.94244385 289.8613739 C-8.96736764 291.50052722 -8.96736764 291.50052722 -5.89312744 293.27983093 C-0.97916572 292.63680848 3.49653613 288.2567132 7.41937256 285.34233093 C9.03807116 284.15594229 10.65788384 282.97107234 12.27874756 281.78764343 C13.49594482 280.89867371 13.49594482 280.89867371 14.73773193 279.991745 C18.17514226 277.5079114 21.66515681 275.10559077 25.16937256 272.71733093 C32.16806663 267.93888219 39.10902577 263.08461834 46.01312256 258.17045593 C48.57292413 256.35127111 51.15065412 254.56930224 53.76312256 252.82670593 C76.12819017 237.7472049 91.58007532 217.15901689 97.28424072 190.4959259 C99.20975556 179.83656259 98.58943312 168.81094046 98.49749756 158.02592468 C98.49002167 155.42705728 98.48433513 152.82818418 98.48034668 150.22930908 C98.46673731 144.13463182 98.43535116 138.04029417 98.39494872 131.94574362 C98.34989316 124.99510035 98.32816001 118.04444135 98.30816698 111.09368789 C98.2666057 96.8222455 98.19646728 82.55104875 98.10687256 68.27983093 C94.61299243 66.36861477 91.11818978 64.45909147 87.62322998 62.54985046 C86.15312092 61.74563408 86.15312092 61.74563408 84.65331268 60.9251709 C77.24981218 56.88230176 69.79827559 52.9482497 62.28720093 49.1096344 C58.98432761 47.42125931 55.68673261 45.72260922 52.38812256 44.02592468 C51.74724197 43.69659439 51.10636139 43.3672641 50.44606018 43.0279541 C45.42514321 40.44708906 40.41503977 37.84671785 35.41937256 35.21733093 C34.7158667 34.84728943 34.01236084 34.47724792 33.28753662 34.09599304 C29.11006939 31.88977396 24.94742188 29.6570364 20.79139709 27.41067505 C18.22403113 26.02310885 15.6551572 24.63834308 13.0864563 23.25325012 C11.20437158 22.23624307 9.32513962 21.21410231 7.44598389 20.19169617 C6.29380371 19.56980408 5.14162354 18.94791199 3.95452881 18.30717468 C2.92335938 17.74764099 1.89218994 17.1881073 0.82977295 16.61161804 C-4.47101267 14.01897162 -6.20678147 14.05562718 -11.52203369 16.89311218 Z " fill="#FC743B" transform="translate(260.89312744140625,38.72016906738281)"/>
<path d="M0 0 C5.13160796 3.08864706 8.5207531 6.6614495 10.8203125 12.24609375 C11.93116543 18.40627815 11.72719198 24.30867164 8.7578125 29.93359375 C5.72715651 34.14283818 2.3506275 37.12146775 -2.4921875 39.05859375 C-3.4821875 39.05859375 -4.4721875 39.05859375 -5.4921875 39.05859375 C-5.69521484 39.91517578 -5.69521484 39.91517578 -5.90234375 40.7890625 C-9.50759347 54.36811682 -16.69940269 64.36345779 -26.4921875 74.05859375 C-27.21148437 74.79980469 -27.93078125 75.54101562 -28.671875 76.3046875 C-44.0735656 91.21236161 -65.02358281 95.62609194 -85.76953125 95.328125 C-103.93771106 94.71901839 -121.53108962 86.76596704 -134.4921875 74.05859375 C-141.4762567 66.44071722 -149.86654149 56.91485954 -149.4921875 46.05859375 C-147.9921875 43.55859375 -147.9921875 43.55859375 -145.4921875 42.05859375 C-141.9921875 41.49609375 -141.9921875 41.49609375 -138.4921875 42.05859375 C-135.45413831 45.3316951 -133.40411236 48.88966735 -131.3046875 52.80859375 C-123.56825209 66.1270142 -111.74900209 74.14599581 -97.1796875 78.55859375 C-78.84977506 82.84128357 -61.62553253 79.58932426 -45.4921875 70.05859375 C-33.25776621 61.90231289 -26.5078405 51.1050412 -20.4921875 38.05859375 C-21.08966797 37.40503906 -21.08966797 37.40503906 -21.69921875 36.73828125 C-27.64772124 30.05164342 -30.10685326 25.14079234 -29.8359375 16.03125 C-29.23672968 10.84946423 -27.66256346 7.0316628 -23.7734375 3.49609375 C-16.97515209 -1.57381401 -8.0987726 -3.05925423 0 0 Z M-14.3671875 14.74609375 C-15.69826433 17.48219611 -15.95452467 19.05340217 -15.4921875 22.05859375 C-14.47248432 23.99514323 -14.47248432 23.99514323 -12.4921875 25.05859375 C-9.34294202 25.45224943 -7.37309634 25.58713906 -4.6171875 23.93359375 C-2.96364219 21.17768491 -3.09853182 19.20783923 -3.4921875 16.05859375 C-4.4921875 14.05859375 -4.4921875 14.05859375 -6.4921875 13.05859375 C-9.9853273 12.54917753 -11.6881812 12.33498808 -14.3671875 14.74609375 Z " fill="#FD6A42" transform="translate(336.4921875,175.94140625)"/>
<path d="M0 0 C2.5625 1.5625 2.5625 1.5625 4 4 C4 7.5625 4 7.5625 3 11 C0.06979368 13.75225009 -2.82390044 14.72601231 -6.6640625 15.76171875 C-7.77773193 16.07181885 -8.89140137 16.38191895 -10.03881836 16.70141602 C-11.2222583 17.02682373 -12.40569824 17.35223145 -13.625 17.6875 C-24.9167144 20.91616948 -35.5406274 24.65665464 -46 30 C-47.14855469 30.58652344 -48.29710937 31.17304688 -49.48046875 31.77734375 C-56.89578405 35.83964692 -64.65184338 40.88715896 -68 49 C-68.64111167 54.66315312 -67.49513492 58.56690515 -64 63 C-54.64067211 72.85532913 -42.28727696 77.84727095 -30 83 C-30.18691406 82.06800781 -30.37382813 81.13601562 -30.56640625 80.17578125 C-31 77 -31 77 -29.9375 74.1875 C-28 72 -28 72 -25.125 71 C-20.47882837 71 -18.00620831 73.09616155 -14.61230469 76.14477539 C-13.40429199 77.35895142 -13.40429199 77.35895142 -12.171875 78.59765625 C-11.29015625 79.48130859 -10.4084375 80.36496094 -9.5 81.27539062 C-8.5925 82.19513672 -7.685 83.11488281 -6.75 84.0625 C-5.82703125 84.98611328 -4.9040625 85.90972656 -3.953125 86.86132812 C3.82989376 94.69585216 3.82989376 94.69585216 4.375 98.875 C4 102 4 102 1.82910156 104.07519531 C-1.03412579 106.02321779 -3.32358166 106.98476312 -6.640625 107.921875 C-8.24744141 108.37626953 -8.24744141 108.37626953 -9.88671875 108.83984375 C-10.99660156 109.14019531 -12.10648437 109.44054687 -13.25 109.75 C-14.34441406 110.06582031 -15.43882813 110.38164062 -16.56640625 110.70703125 C-22.89676213 112.45830336 -28.4300447 113.52238177 -35 113 C-37.72632201 110.85198872 -37.9221528 109.45735228 -38.5 106.0625 C-37.84166646 102.03020708 -35.92206372 100.73249946 -33 98 C-33.86782104 97.64603149 -33.86782104 97.64603149 -34.75317383 97.28491211 C-52.84126809 89.85783371 -73.01736889 81.37958564 -82.12890625 62.68359375 C-84.40902172 55.65920213 -84.11896314 47.3874949 -81 40.6875 C-74.80760624 30.18959146 -66.36041723 23.9646604 -56 18 C-54.98808594 17.40445313 -53.97617188 16.80890625 -52.93359375 16.1953125 C-38.64824284 8.43581025 -16.55265511 -1.62813001 0 0 Z " fill="#FA9C1F" transform="translate(128,159)"/>
<path d="M0 0 C1.69089731 2.72422344 1.50957172 4.67183099 1.125 7.8125 C-0.65484405 10.9484157 -1.39808207 11.65352736 -4.875 12.8125 C-3.72644531 13.30878906 -2.57789063 13.80507812 -1.39453125 14.31640625 C17.12977248 22.38576587 34.18367279 30.10257459 45.0625 48 C47.17664724 55.58605775 47.5038306 63.75868876 44.25 71.0625 C38.57883154 80.76402133 29.78458901 87.42684679 20.125 92.8125 C19.03445313 93.43640625 17.94390625 94.0603125 16.8203125 94.703125 C2.85362029 102.34749302 -20.66557438 114.02287622 -36.875 111.8125 C-39.25 110.1875 -39.25 110.1875 -40.875 107.8125 C-41.375 104.8125 -41.375 104.8125 -40.875 101.8125 C-37.92831066 98.13176149 -35.18016627 96.97634464 -30.703125 95.69921875 C-28.88143799 95.16325073 -28.88143799 95.16325073 -27.02294922 94.61645508 C-26.38580994 94.43434479 -25.74867065 94.2522345 -25.09222412 94.06460571 C-13.63536861 90.77641602 -2.56948199 87.12748984 8.125 81.8125 C9.14207031 81.32265625 10.15914063 80.8328125 11.20703125 80.328125 C18.72694765 76.50130024 25.42494477 71.82167292 30.1875 64.75 C31.72720081 59.92560414 31.94091951 56.47981378 29.6875 51.875 C20.05468212 40.3626079 7.08674882 33.79098636 -6.875 28.8125 C-6.5346875 29.8953125 -6.5346875 29.8953125 -6.1875 31 C-5.78874281 34.58881468 -6.80082403 35.94056404 -8.875 38.8125 C-9.875 39.8125 -9.875 39.8125 -13.06665039 40.18994141 C-17.71920555 39.7288317 -19.69671688 37.99548547 -22.80859375 34.7734375 C-23.3313942 34.25496246 -23.85419464 33.73648743 -24.39283752 33.20230103 C-25.48943627 32.10608242 -26.57738054 31.00114532 -27.65698242 29.88818359 C-29.30962898 28.19044935 -30.99423123 26.53021025 -32.68554688 24.87109375 C-33.74948108 23.79894024 -34.81140249 22.72478482 -35.87109375 21.6484375 C-36.62561073 20.90743301 -36.62561073 20.90743301 -37.39537048 20.15145874 C-39.73889011 17.69462489 -40.82932572 16.0653037 -41.43774414 12.69775391 C-40.72909845 9.064446 -39.85170442 7.98964145 -36.875 5.8125 C-33.85400391 4.6081543 -33.85400391 4.6081543 -30.3515625 3.63671875 C-29.083125 3.28416016 -27.8146875 2.93160156 -26.5078125 2.56835938 C-25.52022949 2.30575317 -25.52022949 2.30575317 -24.51269531 2.0378418 C-22.50784348 1.50209597 -20.51205383 0.9392754 -18.515625 0.37304688 C-5.15542323 -3.26510138 -5.15542323 -3.26510138 0 0 Z " fill="#FA465E" transform="translate(420.875,153.1875)"/>
<path d="M0 0 C4.86411014 4.26015521 4.86411014 4.26015521 5.5625 8.0625 C5 11 5 11 3.4375 13.4375 C1 15 1 15 -2.171875 14.83984375 C-6.52974054 13.88378141 -9.80975602 12.25135165 -13.6875 10.125 C-29.58051613 1.89579541 -46.30035218 0.41378084 -63.4765625 5.6875 C-78.92907954 11.44364826 -91.38307018 21.19048186 -99 36 C-100.47705385 39.2892005 -101.81129427 42.59631465 -103 46 C-102.2575 46.495 -101.515 46.99 -100.75 47.5 C-96.44499696 51.41363912 -94.33652816 55.15072821 -93.6484375 60.9765625 C-93.49383951 66.64047074 -93.51674076 71.3193704 -97 76 C-102.33075619 81.33075619 -105.97325652 84.12482954 -113.6875 84.3125 C-119.33957845 84.23068463 -123.57144368 83.65923028 -128 80 C-132.57252634 75.08728571 -134.88662144 70.13904348 -135.16796875 63.41796875 C-134.6976694 56.64784549 -131.72005489 51.72005489 -127 47 C-123.70069605 45.02041763 -121.84926685 44 -118 44 C-117.76216797 43.09121094 -117.76216797 43.09121094 -117.51953125 42.1640625 C-114.58246685 31.61659366 -109.98721461 23.38780492 -103 15 C-102.32710937 14.10861328 -102.32710937 14.10861328 -101.640625 13.19921875 C-78.22709414 -16.75632809 -30.43723625 -19.81203571 0 0 Z M-118.875 59.125 C-120.52854531 61.88090884 -120.39365568 63.85075452 -120 67 C-119.08333333 69.08333333 -119.08333333 69.08333333 -117 70 C-113.42243314 70.00082535 -113.42243314 70.00082535 -110 69 C-107.84497469 65.76746204 -107.53143865 64.74849077 -108 61 C-109.01970318 59.06345052 -109.01970318 59.06345052 -111 58 C-114.14924548 57.60634432 -116.11909116 57.47145469 -118.875 59.125 Z " fill="#FD8231" transform="translate(299,127)"/>
<path d="M0 0 C3.81613924 0.06155063 3.81613924 0.06155063 6.125 1.9375 C7.43241427 5.04260888 7.49619107 6.94757224 7.125 10.3125 C5.62016998 12.70600917 4.18569288 14.67983156 2.375 16.8125 C1.88346436 17.41416992 1.39192871 18.01583984 0.88549805 18.63574219 C-0.68337617 20.54386594 -2.27468642 22.43069015 -3.875 24.3125 C-4.39304199 24.92287109 -4.91108398 25.53324219 -5.44482422 26.16210938 C-7.98130739 29.14169867 -10.53351685 32.10721908 -13.09375 35.06640625 C-16.1405389 38.60138321 -19.05841558 42.23037259 -21.953125 45.890625 C-25.53876736 50.40911741 -29.21623694 54.85318708 -32.875 59.3125 C-34.37528317 61.14560162 -35.87528408 62.97893427 -37.375 64.8125 C-55.375 86.8125 -55.375 86.8125 -57.59765625 89.52734375 C-59.19104459 91.4760331 -60.78199023 93.42672117 -62.37109375 95.37890625 C-63.17675781 96.36761719 -63.98242188 97.35632813 -64.8125 98.375 C-65.54339844 99.27347656 -66.27429688 100.17195313 -67.02734375 101.09765625 C-70.48484518 105.24227213 -70.48484518 105.24227213 -74 105.875 C-83.05791034 104.56014205 -90.78248159 93.55915394 -97.10473633 87.21313477 C-98.82974713 85.48269863 -100.56012428 83.7577551 -102.29101562 82.03320312 C-103.39094633 80.93261271 -104.49056738 79.83171272 -105.58984375 78.73046875 C-106.36472389 77.95862495 -106.36472389 77.95862495 -107.15525818 77.17118835 C-111.73981725 72.55618132 -111.73981725 72.55618132 -112.1875 68.4375 C-111.875 65.3125 -111.875 65.3125 -110.25 62.9375 C-107.875 61.3125 -107.875 61.3125 -105.125 60.625 C-96.93375047 62.35776432 -90.08084816 71.98374791 -84.375 77.75 C-83.55257812 78.57693359 -82.73015625 79.40386719 -81.8828125 80.25585938 C-79.87787887 82.27244959 -77.87533747 84.29135236 -75.875 86.3125 C-72.45411629 83.72324492 -69.74211426 81.14441956 -67.125 77.75 C-64.26630034 74.09215165 -61.38322394 70.46333387 -58.4375 66.875 C-57.68597656 65.95847656 -56.93445313 65.04195313 -56.16015625 64.09765625 C-55.40605469 63.17855469 -54.65195312 62.25945312 -53.875 61.3125 C-52.37471683 59.47939838 -50.87471592 57.64606573 -49.375 55.8125 C-47.17271834 53.12040053 -44.97011364 50.42857386 -42.765625 47.73828125 C-38.28918955 42.27343579 -33.827936 36.79649355 -29.375 31.3125 C-24.93257467 25.84145081 -20.48244257 20.37695307 -16.015625 14.92578125 C-14.46175188 13.02880841 -12.90993751 11.1301486 -11.359375 9.23046875 C-10.53953125 8.22628906 -9.7196875 7.22210938 -8.875 6.1875 C-8.1325 5.27742187 -7.39 4.36734375 -6.625 3.4296875 C-4.06081814 0.32748533 -4.06081814 0.32748533 0 0 Z " fill="#FD6E3F" transform="translate(329.875,123.6875)"/>
</svg>
