<?xml version="1.0" encoding="UTF-8"?>
<svg version="1.1" xmlns="http://www.w3.org/2000/svg" width="512" height="512">
<path d="M0 0 C1.21783706 -0.00322445 2.43567411 -0.00644889 3.69041532 -0.00977105 C5.0541214 -0.00829969 6.41782737 -0.00673195 7.78153324 -0.00507832 C9.22067721 -0.006945 10.65982067 -0.00924513 12.09896332 -0.01194364 C16.0678078 -0.01808567 20.0366313 -0.01792523 24.00547945 -0.01674926 C28.28025524 -0.01654586 32.55502417 -0.02205818 36.82979679 -0.02680683 C45.20996474 -0.03512698 53.59012566 -0.03786228 61.97029739 -0.03841921 C68.7789597 -0.0388937 75.58761967 -0.0409451 82.39628124 -0.04411983 C101.68206655 -0.05292995 120.96784628 -0.05753863 140.25363361 -0.05678936 C141.29417609 -0.0567494 142.33471857 -0.05670945 143.40679264 -0.05666828 C144.44859926 -0.0566274 145.49040588 -0.05658652 146.5637824 -0.0565444 C163.45543849 -0.05613778 180.34707231 -0.06571052 197.23872196 -0.07980665 C214.56528149 -0.09415212 231.89183014 -0.10107785 249.21839577 -0.10021287 C258.95306848 -0.09988028 268.68771784 -0.10265454 278.42238522 -0.11339092 C286.70946763 -0.12247189 294.99651611 -0.12469105 303.28360134 -0.1178815 C307.5147924 -0.11460414 311.74591827 -0.11460313 315.97710323 -0.12323475 C319.84645486 -0.13104732 323.71568902 -0.12972257 327.5850376 -0.12095062 C328.98879092 -0.11940398 330.39255279 -0.1212751 331.79629605 -0.12681069 C333.69678664 -0.13381193 335.59731274 -0.12741581 337.49780273 -0.12025452 C338.55575859 -0.12047188 339.61371445 -0.12068925 340.70372957 -0.12091321 C343.31182194 0.12863445 343.31182194 0.12863445 346.31182194 2.12863445 C346.69277287 4.06405926 346.69277287 4.06405926 346.70000553 6.45480633 C346.70946201 7.34913372 346.7189185 8.24346111 346.72866154 9.16488934 C346.7195525 10.61647442 346.7195525 10.61647442 346.71025944 12.09738445 C346.71312962 13.08863323 346.71599979 14.07988201 346.71895695 15.10116863 C346.72100072 17.19935966 346.71544906 19.2975696 346.70293522 21.3957243 C346.68688631 24.61571962 346.70277368 27.83445963 346.72197819 31.0544157 C346.71999581 33.08957474 346.71615225 35.12473299 346.71025944 37.15988445 C346.71633213 38.12760784 346.72240482 39.09533123 346.72866154 40.09237957 C346.71920506 40.98670696 346.70974857 41.88103436 346.70000553 42.80246258 C346.69761875 43.59140911 346.69523197 44.38035564 346.69277287 45.19320965 C346.56705906 45.83189983 346.44134525 46.47059002 346.31182194 47.12863445 C343.10802177 49.26450123 342.29242227 49.3599562 338.62432194 49.25363445 C337.81607975 49.23558758 337.00783756 49.2175407 336.17510319 49.19894695 C335.25277897 49.16414227 335.25277897 49.16414227 334.31182194 49.12863445 C334.31458732 50.5623777 334.31458732 50.5623777 334.31740856 52.02508545 C334.36176481 75.25916887 334.39465307 98.4932468 334.41544628 121.72736359 C334.42576842 132.96310523 334.43984664 144.19881894 334.46270084 155.43454266 C334.48260605 165.22510839 334.49553155 175.0156539 334.49999893 184.80623931 C334.50261118 189.99251921 334.50877052 195.17874124 334.52328205 200.36500263 C334.53682065 205.24290436 334.54105214 210.12072419 334.5380373 214.99864292 C334.53858914 216.7921636 334.54258868 218.58568692 334.55023289 220.3791914 C334.56013597 222.82175993 334.55780791 225.26401634 334.55233097 227.70659161 C334.5610695 228.77905839 334.5610695 228.77905839 334.56998456 229.87319118 C334.54774225 233.5255141 334.39847286 234.99865806 332.31182194 238.12863445 C330.47683048 238.489398 330.47683048 238.489398 328.22930241 238.46921062 C327.38858189 238.46898403 326.54786137 238.46875744 325.68166447 238.46852398 C324.77328831 238.45304012 323.86491215 238.43755627 322.92900944 238.4216032 C321.99960545 238.41735836 321.07020145 238.41311352 320.11263371 238.40874004 C317.13707138 238.39191457 314.16218038 238.35425548 311.18682194 238.31613445 C309.17250879 238.30109261 307.15818504 238.28740334 305.14385319 238.27511883 C300.19958315 238.2419984 295.25581645 238.19018974 290.31182194 238.12863445 C290.63489323 239.03710125 290.95796452 239.94556805 291.29082584 240.88156414 C293.9583208 249.36498903 293.61485339 260.8755594 289.69463444 268.9216032 C284.93551574 276.51737175 279.13829785 282.66101753 270.31182194 285.12863445 C259.54496048 286.41697685 252.00268062 284.92254024 243.12432194 279.00363445 C236.71198432 273.2164551 232.63031269 264.57759587 232.13213444 256.0544157 C232.00644452 249.93052349 232.55427634 245.01737214 234.31182194 239.12863445 C229.59834456 238.85528411 224.88952755 238.65653961 220.16997623 238.52438641 C218.56792181 238.46928801 216.96641529 238.39437341 215.3662653 238.29880047 C210.16284345 237.99595581 205.40547412 237.91573364 200.31182194 239.12863445 C197.60792705 241.70231117 196.24498018 243.95667597 194.72441959 247.34982586 C191.89214267 252.92137373 186.07628956 256.01761025 180.42510319 258.2887907 C172.20935047 260.50508535 163.28323691 260.06815131 155.55791569 256.4528532 C148.8161755 252.47815768 143.70372394 247.22227565 140.31182194 240.12863445 C140.31182194 239.46863445 140.31182194 238.80863445 140.31182194 238.12863445 C128.43182194 238.12863445 116.55182194 238.12863445 104.31182194 238.12863445 C104.64182194 239.44863445 104.97182194 240.76863445 105.31182194 242.12863445 C106.12159255 252.74908746 104.86705377 261.92632546 97.97197819 270.3122282 C92.03023024 276.81319948 86.52898395 280.39131363 77.64385319 281.4450407 C69.23870881 281.81254349 62.12223194 279.61402335 55.49932194 274.37863445 C47.65584344 267.05312151 45.27053739 258.53599966 44.36260319 248.12863445 C44.30963598 244.99949452 44.76191849 242.20233057 45.31182194 239.12863445 C44.11057682 239.10881512 42.9093317 239.08899578 41.67168522 239.06857586 C37.22485339 238.99263825 32.77835389 238.90390314 28.33184147 238.81125164 C26.4054758 238.77291277 24.47903734 238.73806863 22.55254459 238.70675945 C19.78714276 238.66121501 17.02224425 238.60320408 14.25713444 238.54269695 C13.39250584 238.53114574 12.52787724 238.51959454 11.63704777 238.50769329 C5.53956535 238.35637787 5.53956535 238.35637787 3.31182194 236.12863445 C3.12397711 233.56871543 3.05992388 231.11793805 3.08477116 228.55783367 C3.0844791 227.77725597 3.08418705 226.99667828 3.08388615 226.19244671 C3.08528226 223.60595968 3.10085652 221.01975881 3.11650944 218.43332195 C3.12023857 216.64256224 3.12308601 214.85180049 3.12508488 213.06103802 C3.13272919 208.34274973 3.15238449 203.62458415 3.17449284 198.90634441 C3.19493411 194.09373923 3.20408291 189.28111426 3.21416569 184.4684782 C3.23562966 175.02180964 3.26977519 165.57523224 3.31182194 156.12863445 C2.66108707 156.31039227 2.01035221 156.49215008 1.33989811 156.6794157 C-1.60586892 157.49980249 -4.55323731 158.31428243 -7.50067806 159.12863445 C-8.52483822 159.41480633 -9.54899837 159.7009782 -10.60419369 159.99582195 C-11.58710384 160.26652508 -12.570014 160.5372282 -13.58270931 160.81613445 C-14.94166317 161.19318523 -14.94166317 161.19318523 -16.32807064 161.5778532 C-18.68817806 162.12863445 -18.68817806 162.12863445 -21.68817806 162.12863445 C-21.6826473 163.23354449 -21.67711655 164.33845453 -21.67141819 165.47684669 C-21.53819018 192.36816975 -21.43960907 219.25944997 -21.37730503 246.1510334 C-21.34637399 259.15564933 -21.30420731 272.16004718 -21.23554134 285.16452312 C-21.17571696 296.49992347 -21.13702346 307.83516586 -21.12364709 319.17071968 C-21.11582862 325.17226024 -21.09746814 331.17334894 -21.05379772 337.17474461 C-21.01300928 342.82598221 -21.00052192 348.47658271 -21.00953197 354.12795353 C-21.00788415 356.19956966 -20.99598677 358.27120755 -20.97294521 360.34269619 C-20.77287481 379.26076559 -20.77287481 379.26076559 -26.16311359 385.70367813 C-32.1085158 391.25881277 -39.64549755 393.36674013 -47.68817806 393.12863445 C-52.29949679 392.56917299 -55.7783784 391.1095665 -59.75067806 388.75363445 C-61.68812792 387.63950771 -61.68812792 387.63950771 -63.68817806 387.12863445 C-66.97962442 388.53377766 -66.97962442 388.53377766 -68.91864681 389.9606657 C-74.08737232 393.37225274 -80.12802482 393.5364862 -86.10224056 392.7184782 C-94.1520315 390.88234764 -98.91915347 387.64211069 -103.3917799 380.76002979 C-105.64071509 376.19519953 -105.47569823 371.83015758 -105.36933041 366.82565594 C-105.37020657 365.7319418 -105.37108273 364.63822765 -105.37198544 363.51137066 C-105.36783045 359.9234108 -105.32127336 356.3373584 -105.27411556 352.7497282 C-105.2629161 350.25153404 -105.25437946 347.75332664 -105.24838924 345.25511456 C-105.22788045 339.36895388 -105.18067345 333.48348901 -105.12029231 327.59761244 C-105.04639111 320.2324228 -105.01436761 312.86714734 -104.98114681 305.50168133 C-104.91692179 292.37698986 -104.8157648 279.25285515 -104.68817806 266.12863445 C-105.95202328 266.46000408 -107.21586849 266.79137371 -108.51801205 267.13278484 C-114.33651597 268.65834783 -119.31336703 267.72925912 -124.73895931 265.1559782 C-129.465651 262.17016654 -131.87328096 258.35502134 -133.68817806 253.12863445 C-134.23168133 249.50384339 -134.23587252 245.94183735 -134.20575619 242.28146648 C-134.2162701 240.69446941 -134.2162701 240.69446941 -134.22699642 239.0754118 C-134.24452865 235.59548583 -134.23296824 232.11638048 -134.21942806 228.63644695 C-134.22212473 226.20560838 -134.22600861 223.77477086 -134.23102474 221.34393597 C-134.23691371 216.25497425 -134.22837731 211.16629387 -134.20966244 206.07736492 C-134.18689811 199.57205081 -134.19998459 193.0673978 -134.22395229 186.56210804 C-134.23844701 181.5433284 -134.23378693 176.52470392 -134.22344112 171.50591946 C-134.22078275 169.10826698 -134.22401212 166.71060017 -134.23335934 164.31296444 C-134.24358236 160.9531306 -134.22794121 157.5943476 -134.20575619 154.23459148 C-134.21385311 153.25453136 -134.22195004 152.27447124 -134.23029232 151.26471233 C-134.10758819 141.1720781 -130.8337424 133.42021175 -123.91083431 126.1091032 C-116.82447968 119.79489969 -110.10938962 117.98778585 -100.82465267 117.95505047 C-100.0352882 117.94836346 -99.24592373 117.94167645 -98.43263912 117.9347868 C-96.71828845 117.92074837 -95.00391921 117.90885048 -93.28954029 117.898839 C-90.55773408 117.88234271 -87.8260607 117.85909179 -85.09432125 117.83394146 C-77.32644039 117.76347408 -69.55849985 117.70366791 -61.79047298 117.65182781 C-57.03302034 117.61960296 -52.27571284 117.57820884 -47.51838017 117.53163242 C-45.7226959 117.51584576 -43.92697822 117.50342002 -42.13124561 117.49472523 C-29.85883298 117.43453808 -17.87054725 116.59719014 -5.68817806 115.12863445 C-1.23317806 114.63363445 -1.23317806 114.63363445 3.31182194 114.12863445 C3.31182194 92.67863445 3.31182194 71.22863445 3.31182194 49.12863445 C0.34182194 49.12863445 -2.62817806 49.12863445 -5.68817806 49.12863445 C-8.68817806 47.12863445 -8.68817806 47.12863445 -9.68817806 44.12863445 C-9.79749372 41.22598217 -9.8522312 38.34806874 -9.85614681 35.4450407 C-9.86113941 34.16716938 -9.86113941 34.16716938 -9.86623287 32.86348248 C-9.87129412 31.06214214 -9.87364144 29.26079244 -9.8734808 27.459445 C-9.87566695 24.70513739 -9.89383006 21.95123056 -9.91278744 19.19699383 C-9.91572159 17.44634416 -9.91770624 15.69569258 -9.91864681 13.9450407 C-9.92583233 13.12201962 -9.93301785 12.29899853 -9.9404211 11.45103741 C-9.91129689 4.15420682 -9.91129689 4.15420682 -7.68817806 1.12863445 C-5.0183148 -0.20629718 -2.99134405 0.00199205 0 0 Z M2.31182194 12.12863445 C2.31182194 20.37863445 2.31182194 28.62863445 2.31182194 37.12863445 C112.20182194 37.12863445 222.09182194 37.12863445 335.31182194 37.12863445 C335.31182194 28.87863445 335.31182194 20.62863445 335.31182194 12.12863445 C225.42182194 12.12863445 115.53182194 12.12863445 2.31182194 12.12863445 Z M15.31182194 49.12863445 C15.31182194 69.58863445 15.31182194 90.04863445 15.31182194 111.12863445 C36.99369112 105.08940967 36.99369112 105.08940967 58.53521061 98.58932781 C68.06385133 95.60021124 78.0638477 92.77382516 87.74932194 96.62863445 C92.88915772 99.616164 95.48098806 104.63613281 97.31182194 110.12863445 C98.1000884 116.68029178 97.09035115 121.69327382 93.31182194 127.12863445 C85.64055281 135.78339962 70.87241157 137.12929047 60.13604069 140.01925945 C58.98929874 140.32976238 57.8425568 140.64026531 56.6610651 140.96017742 C52.44114511 142.10210882 48.22017416 143.24015363 43.99932194 144.37863445 C34.53244694 146.93613445 25.06557194 149.49363445 15.31182194 152.12863445 C15.31182194 176.54863445 15.31182194 200.96863445 15.31182194 226.12863445 C49.1663303 230.14184792 49.1663303 230.14184792 59.31182194 220.12863445 C66.11902323 215.59857523 73.33460357 215.17988761 81.31182194 216.12863445 C86.69187578 217.44408718 90.26463254 218.87971311 93.87310123 223.18332195 C96.41200696 225.74375057 98.06400376 226.57130164 101.66484928 226.8097868 C103.32612227 226.80884616 104.98760336 226.77548693 106.64775944 226.71457195 C107.52711155 226.70608227 108.40646366 226.69759258 109.31246281 226.68884563 C112.10519289 226.65541222 114.89497344 226.58015642 117.68682194 226.50363445 C119.58651965 226.47352164 121.48626288 226.44614814 123.38604069 226.4216032 C128.02909422 226.35565441 132.66995906 226.25220623 137.31182194 226.12863445 C137.42646793 225.19196941 137.54111393 224.25530437 137.65923405 223.29025555 C137.82173649 222.04840496 137.98423893 220.80655437 138.15166569 219.52707195 C138.30756168 218.30165691 138.46345768 217.07624187 138.6240778 215.81369305 C140.53315821 205.58449184 145.87633713 198.04983895 154.31182194 192.12863445 C161.83956833 187.80715042 170.05586997 187.3990622 178.43682194 189.12863445 C186.54097001 191.46959951 192.0730559 195.7824029 196.68682194 202.81613445 C200.70043558 210.09845284 201.97169028 218.01623977 203.31182194 226.12863445 C208.96766664 226.25311972 214.62269732 226.3433882 220.27959538 226.40329266 C222.19998426 226.42828932 224.12027944 226.46229857 226.04033756 226.50583172 C239.85453795 227.16121827 239.85453795 227.16121827 252.47637272 222.30905437 C256.64696204 219.62685175 261.49229583 219.65984096 266.31182194 220.12863445 C271.85022015 221.33444187 275.72899958 222.69151768 280.31182194 226.12863445 C294.17182194 226.12863445 308.03182194 226.12863445 322.31182194 226.12863445 C322.31182194 167.71863445 322.31182194 109.30863445 322.31182194 49.12863445 C221.00182194 49.12863445 119.69182194 49.12863445 15.31182194 49.12863445 Z M63.12822819 108.98019695 C62.16314838 109.27508007 61.19806858 109.56996319 60.20374393 109.87378216 C58.15001953 110.50165286 56.09767162 111.13404117 54.04662418 111.77060223 C48.74095953 113.41472026 43.4233597 115.0190226 38.10479069 116.62082195 C36.55166172 117.08905376 36.55166172 117.08905376 34.96715641 117.5667448 C27.25262015 119.87889406 19.52587495 122.02352871 11.68682194 123.87863445 C10.33632755 124.20081951 10.33632755 124.20081951 8.95855045 124.52951336 C6.41649955 125.10873937 3.87005069 125.62578478 1.31182194 126.12863445 C0.44640781 126.30175152 -0.41900631 126.47486858 -1.3106451 126.65323162 C-10.64148216 128.30710886 -19.81630046 128.43765657 -29.27001858 128.46415997 C-32.1720857 128.47256409 -35.07385505 128.49316836 -37.97583675 128.51669598 C-45.17413619 128.57263755 -52.37250791 128.60827719 -59.57092953 128.64432049 C-65.67947106 128.67567324 -71.78786401 128.71492421 -77.89628506 128.764575 C-80.74171175 128.78449355 -83.58702031 128.79292881 -86.43250179 128.80087566 C-88.18928099 128.81385618 -89.94605631 128.82737767 -91.7028265 128.84152508 C-92.48226116 128.84054317 -93.26169582 128.83956127 -94.06474972 128.83854961 C-102.27702328 128.93006011 -109.49372441 130.07265637 -115.96161556 135.35519695 C-122.76846192 142.34684456 -122.83824777 151.33522604 -122.83344173 160.54294109 C-122.83680035 161.47212856 -122.84015896 162.40131603 -122.84361935 163.3586607 C-122.85308979 166.41871776 -122.85507021 169.47871992 -122.85614681 172.5387907 C-122.85936109 174.67058109 -122.8627253 176.80237126 -122.86623287 178.93416119 C-122.87221362 183.39685865 -122.87407375 187.85953678 -122.8734808 192.32223797 C-122.873379 198.0409808 -122.88705387 203.75959996 -122.90425301 209.47831345 C-122.91536684 213.87835034 -122.91740023 218.27835722 -122.91687107 222.67840672 C-122.91805124 224.78713121 -122.9224751 226.89585648 -122.93020344 229.00456715 C-122.93999478 231.95104084 -122.93712906 234.89724435 -122.93109798 237.84372234 C-122.93671749 238.71399059 -122.942337 239.58425884 -122.94812679 240.48089886 C-122.92136741 245.62265207 -122.56194199 249.63028255 -119.37567806 253.87863445 C-117.08398525 255.57618469 -115.54072256 255.992799 -112.68817806 256.12863445 C-109.00177499 254.46097592 -106.65868635 252.65328963 -104.68817806 249.12863445 C-104.2268529 246.04321524 -104.25074369 242.97725177 -104.25580502 239.86203289 C-104.24561337 238.92510601 -104.23542171 237.98817913 -104.22492123 237.02286053 C-104.19474152 233.92784973 -104.18551758 230.83314819 -104.17645931 227.73800945 C-104.15961634 225.59137216 -104.14146662 223.44474475 -104.12206173 221.29812908 C-104.07451431 215.64945852 -104.04473551 210.00082803 -104.0186224 204.35202312 C-103.98884088 198.58737554 -103.94230227 192.82286611 -103.89716244 187.05832195 C-103.8110753 175.74849832 -103.74375399 164.43864629 -103.68817806 153.12863445 C-102.40942806 153.06675945 -101.13067806 153.00488445 -99.81317806 152.94113445 C-98.73423275 152.88892742 -98.73423275 152.88892742 -97.63349056 152.8356657 C-96.99153744 152.93234539 -96.34958431 153.02902508 -95.68817806 153.12863445 C-93.09328603 157.02097251 -93.41769528 160.25680961 -93.45007992 164.76983929 C-93.44852091 165.6631727 -93.4469619 166.55650611 -93.44535565 167.47691023 C-93.44239058 170.48247881 -93.45359187 173.48783286 -93.46454525 176.49338055 C-93.46506926 178.64331847 -93.4646344 180.79325681 -93.46330929 182.94319439 C-93.46197369 187.57911828 -93.46639788 192.21498934 -93.4749136 196.85090542 C-93.48726845 204.17842961 -93.48036104 211.50585491 -93.4694891 218.83337688 C-93.44098636 239.67205716 -93.42862002 260.51065293 -93.45819759 281.34933758 C-93.47436467 292.8536328 -93.4692817 304.35771305 -93.44040132 315.8619858 C-93.42608148 321.95273688 -93.42314369 328.04304069 -93.4466238 334.13377285 C-93.46870024 339.86144238 -93.46329755 345.58841632 -93.43663883 351.31606007 C-93.4318559 353.41996465 -93.43737627 355.52392124 -93.45386982 357.62776661 C-93.47488422 360.49718404 -93.4591734 363.36413051 -93.43421078 366.23346233 C-93.44916112 367.06896944 -93.46411146 367.90447655 -93.47951484 368.76530206 C-93.42399569 373.08591848 -93.42399569 373.08591848 -91.3749156 376.75699639 C-87.94626537 379.69357342 -85.18935041 381.03119978 -80.78192806 381.3278532 C-76.98501773 380.96658002 -73.60799834 379.58238013 -70.68817806 377.12863445 C-68.25731241 372.58822994 -68.41737272 368.31084073 -68.46112728 363.29928875 C-68.46083523 362.42073727 -68.46054317 361.54218578 -68.46024227 360.63701153 C-68.46163211 357.74219053 -68.47717711 354.84762907 -68.49286556 351.9528532 C-68.49659692 349.94217857 -68.49944331 347.93150211 -68.501441 345.920825 C-68.50906779 340.63540892 -68.52870814 335.3501032 -68.55084896 330.06473064 C-68.57132791 324.66872939 -68.58044711 319.27271026 -68.59052181 313.87668133 C-68.61195488 303.29395062 -68.64607937 292.71130172 -68.68817806 282.12863445 C-70.66817806 281.13863445 -72.64817806 280.14863445 -74.68817806 279.12863445 C-74.68817806 276.48863445 -74.68817806 273.84863445 -74.68817806 271.12863445 C-71.22991464 271.07074439 -67.77177513 271.03507624 -64.31317806 271.00363445 C-63.32833431 270.98687664 -62.34349056 270.97011883 -61.32880306 270.9528532 C-59.91727962 270.94318523 -59.91727962 270.94318523 -58.47724056 270.93332195 C-57.17327328 270.9176115 -57.17327328 270.9176115 -55.84296322 270.90158367 C-53.68817806 271.12863445 -53.68817806 271.12863445 -51.68817806 273.12863445 C-51.81317806 276.62863445 -51.81317806 276.62863445 -52.68817806 280.12863445 C-54.74286556 281.34738445 -54.74286556 281.34738445 -56.68817806 282.12863445 C-56.82717727 294.16782574 -56.93379908 306.20682625 -56.99905109 318.24665642 C-57.03036851 323.83724267 -57.07284983 329.4272801 -57.14081478 335.01755047 C-57.20599118 340.41219573 -57.24188101 345.80631302 -57.25744152 351.2013216 C-57.26853085 353.25988675 -57.29018611 355.31842288 -57.3225584 357.37676334 C-57.36609872 360.25977744 -57.37211316 363.14060833 -57.36933041 366.02389812 C-57.39090206 366.87554043 -57.41247372 367.72718273 -57.43469906 368.60463238 C-57.42361821 373.00975858 -57.42361821 373.00975858 -55.38134289 376.7721529 C-51.06584085 380.47333853 -48.20325096 381.12863445 -42.68817806 381.12863445 C-38.98433162 379.73095655 -36.22263624 378.17055334 -33.68817806 375.12863445 C-33.39621006 372.17589728 -33.28974885 369.43430792 -33.31636715 366.48070049 C-33.31254259 365.58666151 -33.30871802 364.69262254 -33.30477756 363.77149147 C-33.29546162 360.76351051 -33.3075034 357.75598612 -33.31928158 354.74801922 C-33.31681477 352.5964568 -33.31297757 350.44489558 -33.307868 348.29333782 C-33.29951672 343.65411733 -33.30034883 339.01501953 -33.30805302 334.37579823 C-33.31960837 327.04432368 -33.30749679 319.71300793 -33.29143429 312.38154888 C-33.2551934 294.17054487 -33.24901245 275.95954427 -33.25153255 257.7485075 C-33.25324177 243.59934811 -33.24617905 229.45031777 -33.21155399 215.30119461 C-33.19471859 208.00892433 -33.19659038 200.71696817 -33.21237671 193.42469895 C-33.2181587 188.89244068 -33.20746042 184.36033253 -33.19213009 179.82810116 C-33.18839224 177.72216713 -33.19154524 175.61620822 -33.20200062 173.51029682 C-33.21529967 170.64099962 -33.20422324 167.77280406 -33.18697262 164.90355206 C-33.19677939 164.0651321 -33.20658617 163.22671215 -33.21669012 162.36288553 C-33.17179432 158.76570974 -33.0307316 156.59215237 -30.86105537 153.65630817 C-27.9325115 151.59735183 -24.91530948 150.74256729 -21.48993587 149.88962078 C-20.77022106 149.69866833 -20.05050625 149.50771587 -19.3089819 149.31097698 C-16.92293866 148.68127805 -14.53233403 148.07112579 -12.14130306 147.4606657 C-10.45214439 147.01840037 -8.76332753 146.57482774 -7.07483578 146.130023 C-2.60539692 144.95596987 1.86803908 143.79795395 6.34264469 142.64377117 C10.76805378 141.50024332 15.19037841 140.34495217 19.61260319 139.18918133 C20.4769775 138.96330271 21.34135181 138.73742409 22.23191929 138.50470066 C24.83677587 137.82372731 27.44150587 137.14227186 30.04619694 136.4606657 C30.90199848 136.23684341 31.75780003 136.01302113 32.63953495 135.78241634 C43.97192659 132.81680383 55.30068917 129.83743399 66.59265232 126.72083378 C67.98474875 126.33781785 69.37777875 125.958177 70.77177525 125.5821352 C72.67356253 125.06803768 74.57143114 124.53950832 76.4690485 124.01022625 C78.06260166 123.57144398 78.06260166 123.57144398 79.68834782 123.12379742 C82.35126849 122.11367119 83.61335719 121.38331892 85.31182194 119.12863445 C86.48943934 115.8044689 86.48943934 115.8044689 86.31182194 112.12863445 C84.55191879 108.53339109 84.55191879 108.53339109 81.31182194 106.12863445 C74.74565533 105.50362883 69.35516005 107.00936768 63.12822819 108.98019695 Z M156.43291569 204.6716032 C150.90306572 210.72810555 148.6924824 217.38392683 148.95635319 225.5387907 C149.84170205 231.98918955 152.54314953 238.62488829 157.31182194 243.12863445 C162.94552751 247.09843164 168.51266158 248.20804289 175.31182194 247.12863445 C180.94782007 245.24996841 185.17784254 241.08051126 188.31182194 236.12863445 C191.72699875 228.73943372 192.08701916 221.70638481 189.62432194 213.9684782 C186.76808281 207.35067416 181.60913017 202.58705925 175.06182194 199.69113445 C168.2757971 198.30308392 161.77274754 200.2865022 156.43291569 204.6716032 Z M59.93682194 234.94113445 C56.56092862 241.56307904 55.34845656 247.83613448 57.31182194 255.12863445 C59.83307109 260.73589256 63.35560592 264.57308818 68.31182194 268.12863445 C72.84733145 269.64047096 76.96438496 270.05207473 81.43682194 268.29269695 C87.14495474 265.07106139 90.99458619 260.45426667 92.91729069 254.1403532 C94.50061546 246.06696454 92.89055634 239.96096469 88.31182194 233.12863445 C84.53840817 229.00617991 80.71886607 227.0110825 75.12432194 226.75363445 C68.44622612 226.84064547 64.14484004 229.95795512 59.93682194 234.94113445 Z M249.50322819 237.29269695 C244.5980784 244.51514772 243.1530404 250.63945786 244.70244694 259.31613445 C246.49633616 265.20377089 250.4464632 268.56483665 255.31182194 272.12863445 C259.45771049 274.20157873 264.9963568 273.86497011 269.35088444 272.48019695 C274.85911627 269.64115235 278.37211084 264.94776774 280.31182194 259.12863445 C280.95277479 251.4477076 281.1761869 244.44482527 276.31182194 238.12863445 C272.37403203 233.9211329 268.21188124 231.51530903 262.49932194 230.75363445 C257.11183336 231.38745664 253.03502153 233.06674984 249.50322819 237.29269695 Z " fill="#FB753B" transform="translate(149.68817806243896,54.871365547180176)"/>
<path d="M0 0 C1.26031036 -0.01511375 1.26031036 -0.01511375 2.54608154 -0.03053284 C5.30201823 -0.05884467 8.05740382 -0.06488109 10.81347656 -0.06811523 C12.74627906 -0.07776891 14.67907941 -0.08786231 16.61187744 -0.09837341 C20.65666785 -0.11629355 24.70126648 -0.12189878 28.74609375 -0.12011719 C33.90180739 -0.11981279 39.05627722 -0.16074117 44.21169662 -0.21243382 C48.20287604 -0.24596983 52.19376041 -0.25186947 56.18506622 -0.25028801 C58.08429495 -0.25380301 59.98353339 -0.2669301 61.88262177 -0.29028511 C73.88351446 -0.4240473 83.88393769 0.00378422 93.38494873 8.35203552 C98.84011242 13.85254677 103.20410156 21.63569632 103.20410156 29.43579102 C103.98369232 29.42468796 104.76328308 29.4135849 105.5664978 29.40214539 C112.95083164 29.30152719 120.33482825 29.22561697 127.71967125 29.17673016 C131.51539985 29.15075086 135.31055714 29.11557095 139.10595703 29.05859375 C142.77592116 29.00385093 146.44533945 28.97428297 150.11568069 28.9614048 C151.5086284 28.95223986 152.90154973 28.9343444 154.29426193 28.90714073 C163.20902322 28.74010002 169.6404059 29.56963842 177.20410156 34.43579102 C178.11160156 34.99266602 179.01910156 35.54954102 179.95410156 36.12329102 C190.96918641 47.44435044 191.67628302 62.06320136 191.63769531 76.99829102 C191.6422671 78.56339746 191.64757561 80.12850191 191.65357971 81.69360352 C191.66244591 84.94775645 191.66015675 88.201663 191.65014648 91.45581055 C191.63857389 95.62327601 191.65902609 99.78990448 191.68806362 103.95726013 C191.70639378 107.1777686 191.70614116 110.3980743 191.7004261 113.61862183 C191.70027298 115.15600777 191.70630994 116.69340753 191.71871758 118.23074341 C191.73359327 120.37255165 191.72298431 122.51278232 191.70581055 124.65454102 C191.70556129 126.47888672 191.70556129 126.47888672 191.70530701 128.34008789 C191.09268193 132.12397609 190.16028339 133.07179531 187.20410156 135.43579102 C184.74341726 135.93718767 184.74341726 135.93718767 181.92855072 135.93915558 C180.85365088 135.94958657 179.77875104 135.96001756 178.67127848 135.97076464 C176.90106655 135.95738031 176.90106655 135.95738031 175.09509277 135.94372559 C173.84084676 135.94996555 172.58660075 135.95620551 171.29434729 135.96263456 C167.81067883 135.97936125 164.32744763 135.97106675 160.84377742 135.95868969 C157.08774115 135.94965501 153.33178111 135.96360102 149.57575989 135.97460938 C142.21683994 135.99241619 134.85808298 135.98854504 127.49915659 135.97695881 C121.51958096 135.96793324 115.54005107 135.96669668 109.56047058 135.97105408 C108.28496201 135.97197348 108.28496201 135.97197348 106.98368558 135.97291145 C105.25635563 135.97419032 103.52902569 135.97548717 101.80169576 135.97680181 C85.59622063 135.98821394 69.39083593 135.975084 53.18537563 135.95360035 C39.27376632 135.93572878 25.3622905 135.93883271 11.45068359 135.95727539 C-4.69593616 135.97867095 -20.84247661 135.98711525 -36.98910856 135.97482634 C-38.71016151 135.97355211 -40.43121448 135.97229463 -42.15226746 135.97105408 C-43.42252604 135.97012842 -43.42252604 135.97012842 -44.7184464 135.96918407 C-50.69234725 135.96572722 -56.66619788 135.97156672 -62.64009094 135.98097229 C-69.91814865 135.99217907 -77.19603375 135.98918019 -84.47407162 135.96784931 C-88.18903044 135.95732095 -91.90370124 135.95324713 -95.61865807 135.96644592 C-99.64165379 135.9805232 -103.66391935 135.96374015 -107.68688965 135.94372559 C-108.86703093 135.95264847 -110.04717221 135.96157136 -111.26307535 135.97076464 C-112.87542511 135.95511815 -112.87542511 135.95511815 -114.5203476 135.93915558 C-115.44925355 135.93850617 -116.37815951 135.93785676 -117.33521414 135.93718767 C-120.58192833 135.27562713 -121.77880181 134.01768097 -123.79589844 131.43579102 C-124.18086999 128.83259407 -124.32397785 126.65496475 -124.28173828 124.05615234 C-124.28553497 123.31899994 -124.28933167 122.58184753 -124.29324341 121.82235718 C-124.30064754 119.3870781 -124.2792597 116.95299529 -124.25683594 114.51782227 C-124.25445002 112.81874227 -124.2535465 111.1196596 -124.25405884 109.420578 C-124.25093043 105.85704045 -124.23437014 102.29390508 -124.20751953 98.73046875 C-124.17366896 94.18232967 -124.16588743 89.63463505 -124.1674099 85.08638477 C-124.16686336 81.57486291 -124.15584883 78.06343654 -124.14140701 74.55194664 C-124.13507856 72.87636728 -124.13110946 71.20077718 -124.1296196 69.52518654 C-124.10283157 55.13469962 -123.30448658 42.32409673 -112.89450073 31.38090515 C-104.65578878 23.74475841 -95.35838639 23.75541436 -84.72558594 23.94750977 C-83.19289309 23.9568545 -81.66018515 23.96396275 -80.12747192 23.96894836 C-76.12570757 23.98788815 -72.12487464 24.03687239 -68.12347412 24.09246826 C-64.02743117 24.1439453 -59.93123527 24.16652262 -55.83496094 24.19165039 C-47.82151632 24.24500736 -39.80882378 24.33015734 -31.79589844 24.43579102 C-31.65418213 23.6563916 -31.51246582 22.87699219 -31.36645508 22.07397461 C-29.72416351 14.48022078 -23.16820176 7.5767154 -16.79589844 3.43579102 C-10.97596683 0.89917325 -6.31147686 -0.01106845 0 0 Z M-18.73339844 22.24829102 C-22.79573007 28.8441198 -23.09144761 37.00513888 -23.02294922 44.53564453 C-23.02324127 45.39527298 -23.02353333 46.25490143 -23.02383423 47.14057922 C-23.02245396 49.94872552 -23.0069549 52.756598 -22.99121094 55.56469727 C-22.98747616 57.5248144 -22.98463139 59.48493342 -22.9826355 61.4450531 C-22.97503561 66.57916508 -22.95541875 71.71316212 -22.93322754 76.847229 C-22.91269024 82.0961349 -22.90361698 87.34505956 -22.89355469 92.59399414 C-22.87216916 102.87464332 -22.83807764 113.15520757 -22.79589844 123.43579102 C-18.17589844 123.43579102 -13.55589844 123.43579102 -8.79589844 123.43579102 C-8.7760791 121.41663574 -8.75625977 119.39748047 -8.73583984 117.31713867 C-8.66901565 110.65540204 -8.59137524 103.99382338 -8.50837135 97.33226967 C-8.45836637 93.29226763 -8.41203696 89.25229228 -8.37402344 85.2121582 C-8.33722335 81.31521564 -8.29087831 77.41849411 -8.23783493 73.52173996 C-8.21926278 72.03299196 -8.20416529 70.54419653 -8.19255447 69.05537796 C-8.17573975 66.97443115 -8.14671786 64.89399369 -8.11474609 62.81323242 C-8.10142242 61.62742584 -8.08809875 60.44161926 -8.07437134 59.21987915 C-7.79589844 56.43579102 -7.79589844 56.43579102 -5.79589844 54.43579102 C-2.17089844 54.31079102 -2.17089844 54.31079102 1.20410156 54.43579102 C2.6154066 57.25840108 2.36804483 59.65660586 2.40942383 62.81323242 C2.41932343 63.4670137 2.42922302 64.12079498 2.43942261 64.79438782 C2.47104867 66.95867269 2.49579928 69.12297952 2.52050781 71.28735352 C2.5410764 72.78665747 2.56207284 74.2859556 2.58348083 75.7852478 C2.63871144 79.73404233 2.68811632 83.68288927 2.73632812 87.6317749 C2.79536131 92.36835472 2.86159471 97.10483861 2.92662811 101.84133911 C3.0246501 109.03943123 3.11349746 116.23758448 3.20410156 123.43579102 C23.33410156 123.43579102 43.46410156 123.43579102 64.20410156 123.43579102 C64.53410156 102.31579102 64.86410156 81.19579102 65.20410156 59.43579102 C67.84410156 59.43579102 70.48410156 59.43579102 73.20410156 59.43579102 C75.5128537 62.89891922 75.47236185 64.28683075 75.52294922 68.37597656 C75.54281891 69.59701584 75.5626886 70.81805511 75.5831604 72.07609558 C75.59471161 73.39491226 75.60626282 74.71372894 75.61816406 76.07250977 C75.63687503 77.43586908 75.6564484 78.79921681 75.67684937 80.16255188 C75.72818441 83.74798756 75.76780255 87.3334608 75.80499268 90.91906738 C75.84502387 94.5790334 75.89612021 98.23884303 75.94628906 101.89868164 C76.04306462 109.07761897 76.12644109 116.25661679 76.20410156 123.43579102 C81.48410156 123.43579102 86.76410156 123.43579102 92.20410156 123.43579102 C92.29700247 111.61325572 92.36796846 99.79080805 92.41135025 87.96798134 C92.43217703 82.47746461 92.46040487 76.98719862 92.50585938 71.49682617 C92.54949231 66.19296192 92.57327556 60.88933804 92.58361053 55.58530807 C92.59097064 53.56720575 92.60534294 51.54911579 92.62702179 49.53111649 C93.06455344 32.13577192 93.06455344 32.13577192 84.70410156 17.43579102 C79.83355287 12.83090862 75.79305005 12.13305226 69.18188477 12.11352539 C67.97374367 12.09863068 67.97374367 12.09863068 66.74119568 12.08343506 C64.07905642 12.05425 61.41715572 12.0405961 58.75488281 12.02954102 C56.89885963 12.01803085 55.04283648 12.00651547 53.18681335 11.99499512 C49.29388321 11.97399002 45.40103546 11.96229583 41.50805664 11.95532227 C36.53580779 11.94437219 31.56465973 11.89635586 26.59275532 11.83937836 C22.75698238 11.80199921 18.92147087 11.79170769 15.08553123 11.78865051 C13.25358264 11.78262189 11.4216373 11.76664732 9.58986855 11.74028015 C-2.42406348 11.57973038 -11.14531942 11.79360046 -18.73339844 22.24829102 Z M-105.79589844 41.43579102 C-107.58982815 43.88354372 -107.58982815 43.88354372 -108.67089844 46.49829102 C-109.06019531 47.33489258 -109.44949219 48.17149414 -109.85058594 49.03344727 C-111.61596948 53.51985585 -111.91838647 57.29225479 -111.90942383 62.13208008 C-111.90956985 62.79590698 -111.90971588 63.45973389 -111.90986633 64.14367676 C-111.90917176 66.32962352 -111.90140075 68.51548421 -111.89355469 70.70141602 C-111.89168889 72.22027541 -111.89026575 73.7391354 -111.88926697 75.25799561 C-111.88545453 79.2495694 -111.87563514 83.24110663 -111.86456299 87.23266602 C-111.85432147 91.30818182 -111.84976348 95.38370355 -111.84472656 99.45922852 C-111.83401171 107.45143464 -111.81642523 115.44360406 -111.79589844 123.43579102 C-107.17589844 123.43579102 -102.55589844 123.43579102 -97.79589844 123.43579102 C-97.7760791 121.62868652 -97.75625977 119.82158203 -97.73583984 117.9597168 C-97.66813444 111.99646378 -97.59136449 106.03338558 -97.50837135 100.07032967 C-97.45837414 96.45407083 -97.41204473 92.8378417 -97.37402344 89.22143555 C-97.33721341 85.73296012 -97.2908658 82.24473115 -97.23783493 78.75646591 C-97.21021733 76.77450329 -97.19254065 74.79241029 -97.17495728 72.81033325 C-97.15508759 71.6092392 -97.1352179 70.40814514 -97.11474609 69.1706543 C-97.10142242 68.10920197 -97.08809875 67.04774963 -97.07437134 65.95413208 C-96.79589844 63.43579102 -96.79589844 63.43579102 -94.79589844 61.43579102 C-91.79589844 61.18579102 -91.79589844 61.18579102 -88.79589844 61.43579102 C-86.1259742 64.10571525 -86.52390178 65.43819124 -86.47705078 69.1706543 C-86.45718109 70.37174835 -86.4373114 71.57284241 -86.4168396 72.81033325 C-86.40528839 74.11243744 -86.39373718 75.41454163 -86.38183594 76.75610352 C-86.36313074 78.09847209 -86.34355782 79.44082883 -86.32315063 80.78317261 C-86.27175453 84.31765779 -86.23216917 87.85218113 -86.19500732 91.38684082 C-86.1550143 94.9930975 -86.10400826 98.59919701 -86.05371094 102.20532227 C-85.9558191 109.28208614 -85.87636781 116.35872147 -85.79589844 123.43579102 C-68.96589844 123.43579102 -52.13589844 123.43579102 -34.79589844 123.43579102 C-34.79589844 94.72579102 -34.79589844 66.01579102 -34.79589844 36.43579102 C-45.21152344 36.33266602 -55.62714844 36.22954102 -66.35839844 36.12329102 C-69.63592041 36.077771 -72.91344238 36.03225098 -76.2902832 35.98535156 C-78.89761329 35.97074401 -81.5049548 35.95800398 -84.11230469 35.94750977 C-84.78237045 35.9344429 -85.45243622 35.92137604 -86.14280701 35.90791321 C-97.03952625 35.67312383 -97.03952625 35.67312383 -105.79589844 41.43579102 Z M104.20410156 41.43579102 C104.20410156 68.49579102 104.20410156 95.55579102 104.20410156 123.43579102 C120.37410156 123.43579102 136.54410156 123.43579102 153.20410156 123.43579102 C153.25308594 119.48868164 153.30207031 115.54157227 153.35253906 111.47485352 C153.40649889 107.66556905 153.46382605 103.8563492 153.52148438 100.04711914 C153.55984338 97.39319644 153.59468382 94.73922051 153.62597656 92.08520508 C153.67147692 88.27739392 153.72949605 84.46995144 153.79003906 80.66235352 C153.80159027 79.46961823 153.81314148 78.27688293 153.82504272 77.04800415 C153.84491241 75.94701385 153.8647821 74.84602356 153.88525391 73.71166992 C153.89857758 72.73904205 153.91190125 71.76641418 153.92562866 70.76431274 C154.20410156 68.43579102 154.20410156 68.43579102 156.20410156 66.43579102 C159.76660156 66.68579102 159.76660156 66.68579102 163.20410156 67.43579102 C164.47003595 69.96765979 164.36328351 71.78553893 164.40942383 74.61987305 C164.43934166 76.24132736 164.43934166 76.24132736 164.46986389 77.89553833 C164.48657639 79.06639984 164.50328888 80.23726135 164.52050781 81.44360352 C164.54128891 82.63936005 164.56207001 83.83511658 164.58348083 85.06710815 C164.64902445 88.89827566 164.70788375 92.7295134 164.76660156 96.56079102 C164.8097822 99.15324628 164.85339633 101.74569437 164.89746094 104.33813477 C165.00471079 110.70394765 165.10596468 117.06983138 165.20410156 123.43579102 C169.82410156 123.43579102 174.44410156 123.43579102 179.20410156 123.43579102 C179.27217426 115.52469654 179.32708739 107.61383397 179.35953808 99.70252419 C179.37512135 96.02805224 179.39622321 92.35379296 179.43041992 88.67944336 C179.46327822 85.12622393 179.4810096 81.57320764 179.48873329 78.01984787 C179.49688473 76.02037601 179.52026081 74.02098462 179.54399109 72.02163696 C179.54561884 63.11014519 179.24528914 53.74634901 172.76660156 46.93579102 C172.19039063 46.30672852 171.61417969 45.67766602 171.02050781 45.02954102 C167.20598631 41.68260602 164.18265064 41.18794577 159.15039062 41.20874023 C157.91240723 41.20898193 156.67442383 41.20922363 155.39892578 41.20947266 C154.10229004 41.21970459 152.8056543 41.22993652 151.46972656 41.24047852 C150.27460449 41.24249268 149.07948242 41.24450684 147.84814453 41.24658203 C143.3834245 41.25704666 138.91875918 41.28496922 134.45410156 41.31079102 C124.47160156 41.35204102 114.48910156 41.39329102 104.20410156 41.43579102 Z " fill="#F95751" transform="translate(284.7958984375,321.564208984375)"/>
<path d="M0 0 C3.31841288 2.32288902 4.16077071 4.15891208 5 8 C7.08218362 8.10832169 9.16599129 8.18573541 11.25 8.25 C12.41015625 8.29640625 13.5703125 8.3428125 14.765625 8.390625 C18.62208753 7.92486866 19.57063047 6.91970099 22 4 C24.9375843 2.53120785 26.70342616 2.6598773 30 3 C33.193943 4.30285088 36.1379281 5.96981184 39.125 7.6875 C39.92292969 8.12255859 40.72085938 8.55761719 41.54296875 9.00585938 C45.85252879 11.43403385 49.48777524 13.58267147 52 18 C51.9609375 20.4296875 51.9609375 20.4296875 51.375 22.875 C50.76747828 26.68562362 50.76747828 26.68562362 52.25390625 30.1328125 C53.89701882 32.00420721 53.89701882 32.00420721 55.65234375 33.625 C57 35 57 35 57 37 C57.67546875 36.95359375 58.3509375 36.9071875 59.046875 36.859375 C60.38492188 36.80523437 60.38492188 36.80523437 61.75 36.75 C62.63171875 36.70359375 63.5134375 36.6571875 64.421875 36.609375 C67 37 67 37 69.12109375 38.3671875 C71.97112965 42.36079289 73.02913712 46.67898544 74.3125 51.375 C74.58900391 52.30828125 74.86550781 53.2415625 75.15039062 54.203125 C76.52391123 59.08829147 77.58115799 63.00479939 76 68 C73.72158051 70.81005071 72.45303547 71.84898818 69 73 C68.35661289 77.35082567 67.84949728 81.59779547 68 86 C70.31273442 88.8971941 70.31273442 88.8971941 73 91 C73.96676285 97.52564927 71.47906466 101.73921215 68.3125 107.1875 C67.87744141 107.98091797 67.44238281 108.77433594 66.99414062 109.59179688 C64.53581209 113.929381 62.33208724 117.30320397 58 120 C55.03065503 120.30299438 52.8566485 120.3077779 50.04296875 119.296875 C47.92242577 118.75817301 47.92242577 118.75817301 46.1484375 120.21484375 C45.56320312 120.78332031 44.97796875 121.35179687 44.375 121.9375 C41.17995444 125 41.17995444 125 39 125 C39.226875 126.051875 39.45375 127.10375 39.6875 128.1875 C40.03938009 132.48043713 39.71394035 133.74327158 37 137 C29.44278704 142.16789874 19.14018366 144.85180062 10 144.4609375 C8 144 8 144 5.375 141.6875 C4 139 4 139 4 136 C-5.10419927 134.98861197 -5.10419927 134.98861197 -12.9375 138.5 C-13.9584375 139.7375 -13.9584375 139.7375 -15 141 C-21.72132778 142.06949976 -26.10587585 139.21031508 -31.75 135.8125 C-32.59949219 135.32974609 -33.44898438 134.84699219 -34.32421875 134.34960938 C-42.29911684 129.65664012 -42.29911684 129.65664012 -44 125 C-43.86328125 122.82421875 -43.86328125 122.82421875 -43.3125 120.6875 C-42.74342711 116.82685776 -43.18501067 114.79169877 -45.3125 111.5 C-47.32696132 109.09868662 -48.40472774 108.12989458 -51.48828125 107.45703125 C-53.23296917 107.3613965 -54.97958822 107.29581885 -56.7265625 107.26171875 C-59 107 -59 107 -61.5 104.625 C-61.995 103.75875 -62.49 102.8925 -63 102 C-63.66 101.01 -64.32 100.02 -65 99 C-76.00428784 100.49629465 -76.00428784 100.49629465 -84.65234375 106.3125 C-85.29304784 108.86925203 -85.29304784 108.86925203 -85.59375 111.49609375 C-86.28134281 115.73404557 -88.80832349 118.28367957 -92 121 C-97.74797718 124.49386848 -103.44797892 124.72359688 -110 124 C-113.97463312 122.60151798 -115.61531777 121.48085279 -118.25 118.1875 C-120.67863245 115.76235875 -120.67863245 115.76235875 -123.01879883 116.09643555 C-129.91258138 117.66420256 -136.6717263 119.5765319 -143.4375 121.625 C-145.56007731 122.26673903 -147.68373035 122.90493399 -149.80859375 123.5390625 C-151.19776001 123.95986084 -151.19776001 123.95986084 -152.61499023 124.38916016 C-155 125 -155 125 -158 125 C-158.03867188 125.87011719 -158.03867188 125.87011719 -158.078125 126.7578125 C-158.47495836 132.22329013 -159.249046 135.76815446 -163 140 C-168.39505295 144.59763172 -173.91882743 146.39402391 -181 146 C-186.73420535 144.76909728 -191.65744289 142.17205274 -195.19140625 137.38671875 C-198.65659313 131.55506278 -198.8741382 125.6273947 -198 119 C-196.25774362 113.05870998 -193.05472167 109.43721074 -188 106 C-183.47111568 103.93246586 -178.92433819 103.14170866 -174 104 C-168.3687231 106.12869051 -164.19171491 108.69362482 -160 113 C-155.19878685 111.78911337 -150.41437558 110.52891893 -145.63842773 109.22192383 C-144.01346953 108.78472768 -142.38481154 108.36104315 -140.75268555 107.95141602 C-131.53358366 106.05681276 -131.53358366 106.05681276 -124.31347656 100.75830078 C-123.55916747 98.45273864 -123.24229168 96.40410626 -123 94 C-120.08671341 88.17342683 -116.04802891 85.16659572 -110 83 C-102.9123988 81.84222424 -96.90051874 82.83902098 -91 87 C-89.28125 88.51171875 -89.28125 88.51171875 -88 90 C-88 90.66 -88 91.32 -88 92 C-86.81921875 91.6390625 -85.6384375 91.278125 -84.421875 90.90625 C-82.86466995 90.43721233 -81.30737346 89.96847819 -79.75 89.5 C-78.97269531 89.26152344 -78.19539063 89.02304688 -77.39453125 88.77734375 C-76.64042969 88.55175781 -75.88632812 88.32617188 -75.109375 88.09375 C-74.41811523 87.88427734 -73.72685547 87.67480469 -73.01464844 87.45898438 C-71 87 -71 87 -67 87 C-67.33 86.34 -67.66 85.68 -68 85 C-68.51571681 80.62063431 -68.83341277 77.14953485 -66.1875 73.5 C-64 72 -64 72 -61 71 C-59.99972332 67.00526446 -59.16231972 63.122921 -59 59 C-61.20864421 56.12448478 -61.20864421 56.12448478 -64 54 C-65.44851211 49.4120596 -65.07070003 46.54280883 -63.0859375 42.30078125 C-62.2012745 40.6278439 -61.29699485 38.9651565 -60.375 37.3125 C-59.93542969 36.47138672 -59.49585938 35.63027344 -59.04296875 34.76367188 C-56.61060141 30.26628886 -54.47817235 26.73294764 -50 24 C-47.05845036 23.69984187 -44.87543003 23.69573469 -42.078125 24.66796875 C-39.20411132 25.12716267 -38.15666963 24.28746927 -35.8125 22.625 C-33.43548003 20.75047506 -32.18448569 19.731537 -31.4375 16.76953125 C-31.27283112 14.46101302 -31.27283112 14.46101302 -31.42578125 12.24609375 C-30.73766103 8.61610174 -28.83820409 7.27204343 -26 5 C-23.3219654 3.75606189 -20.59874525 2.94860558 -17.75 2.1875 C-16.99436768 1.97810791 -16.23873535 1.76871582 -15.46020508 1.55297852 C-10.15126725 0.14933489 -5.49456006 -0.83815323 0 0 Z M-12.5625 13.5 C-13.57441406 13.7784375 -14.58632813 14.056875 -15.62890625 14.34375 C-16.41136719 14.5603125 -17.19382812 14.776875 -18 15 C-17.9175 16.2375 -17.835 17.475 -17.75 18.75 C-17.77050314 21.67169711 -17.7786121 22.68636715 -19.5 25.125 C-20.325 25.74375 -21.15 26.3625 -22 27 C-22.59425781 27.44859375 -23.18851563 27.8971875 -23.80078125 28.359375 C-25.16379683 29.38626829 -26.53660013 30.40027487 -27.91796875 31.40234375 C-29.9600083 32.96931218 -31.76580647 34.66075407 -33.625 36.4375 C-36.23333851 38.72426253 -36.59750553 39.00774028 -40.25 38.9375 C-41.1575 38.628125 -42.065 38.31875 -43 38 C-43.99 37.67 -44.98 37.34 -46 37 C-46.84114171 38.43294498 -47.67265687 39.87154405 -48.5 41.3125 C-48.9640625 42.11300781 -49.428125 42.91351563 -49.90625 43.73828125 C-51.21767886 46.0314118 -51.21767886 46.0314118 -51 49 C-50.15824219 49.62648437 -49.31648437 50.25296875 -48.44921875 50.8984375 C-45.07853289 55.16689774 -45.73928383 57.92906713 -46.33398438 63.1796875 C-46.49189453 64.31664062 -46.64980469 65.45359375 -46.8125 66.625 C-46.92787109 67.7696875 -47.04324219 68.914375 -47.16210938 70.09375 C-47.55568098 73.2057115 -47.98659142 76.03079948 -49 79 C-52.13671875 81.2734375 -52.13671875 81.2734375 -55 82 C-54.87625 83.2375 -54.7525 84.475 -54.625 85.75 C-54.52058594 86.79414063 -54.52058594 86.79414063 -54.4140625 87.859375 C-53.94535665 90.28249579 -53.42309621 91.97220156 -52 94 C-50.02849193 94.32713292 -50.02849193 94.32713292 -47.8125 94.125 C-44.46440347 94.32921777 -43.36091082 94.61550491 -41.02734375 97.1015625 C-39.83805718 98.87373018 -38.68423238 100.67019282 -37.56640625 102.48828125 C-35.68450615 105.50589163 -33.57296422 107.57406231 -31 110 C-28.1087607 114.33685895 -29.26437502 116.92418762 -30 122 C-26.7 123.98 -23.4 125.96 -20 128 C-19.525625 127.175 -19.05125 126.35 -18.5625 125.5 C-16 123 -16 123 -14.11279297 122.72509766 C-13.03215576 122.75676025 -13.03215576 122.75676025 -11.9296875 122.7890625 C-11.13022705 122.81194336 -10.3307666 122.83482422 -9.50708008 122.85839844 C-5.50985688 123.08416428 -1.54114109 123.43108834 2.4375 123.875 C3.23865234 123.95363281 4.03980469 124.03226562 4.86523438 124.11328125 C10.7587364 124.7587364 10.7587364 124.7587364 13 127 C13.70710678 128.64991582 14.37943989 130.31562256 15 132 C16.81495662 131.55149342 18.62693134 131.09090429 20.4375 130.625 C21.44683594 130.36976563 22.45617187 130.11453125 23.49609375 129.8515625 C26.15570324 129.27426046 26.15570324 129.27426046 27 127 C27.06950541 125.45976004 27.08452357 123.91665012 27.0625 122.375 C27.05347656 121.55773437 27.04445313 120.74046875 27.03515625 119.8984375 C27.02355469 119.27195312 27.01195312 118.64546875 27 118 C27.7321875 117.73960937 28.464375 117.47921875 29.21875 117.2109375 C32.06068812 115.9735768 34.09420236 114.56488612 36.5 112.625 C37.28375 112.00882812 38.0675 111.39265625 38.875 110.7578125 C41.12903269 108.94942344 41.12903269 108.94942344 43.5 106.5 C47.4441958 104.13348252 50.55376379 105.20365919 55 106 C56.65 102.7 58.3 99.4 60 96 C59.175 95.505 58.35 95.01 57.5 94.5 C55 92 55 92 54.79296875 88.42578125 C54.94239329 83.82914789 55.33137634 79.26006898 55.8125 74.6875 C55.91788086 73.49157227 55.91788086 73.49157227 56.02539062 72.27148438 C56.14624023 71.12196289 56.14624023 71.12196289 56.26953125 69.94921875 C56.33760986 69.26174561 56.40568848 68.57427246 56.47583008 67.8659668 C57.15076264 65.46330747 58.03265643 64.51869567 60 63 C61.32 62.67 62.64 62.34 64 62 C63.01 58.04 62.02 54.08 61 50 C59.9275 50.020625 58.855 50.04125 57.75 50.0625 C52.00796813 49.96679947 52.00796813 49.96679947 50 49 C49.55720703 47.87658203 49.55720703 47.87658203 49.10546875 46.73046875 C47.94353136 43.86052445 46.56233355 41.902632 44.625 39.5 C44.00882812 38.72140625 43.39265625 37.9428125 42.7578125 37.140625 C41.38610872 35.47019462 39.95395527 33.8493508 38.5 32.25 C37 30 37 30 37.1875 27.375 C37.455625 26.59125 37.72375 25.8075 38 25 C38.33 24.01 38.66 23.02 39 22 C37.56705502 21.15885829 36.12845595 20.32734313 34.6875 19.5 C33.88699219 19.0359375 33.08648437 18.571875 32.26171875 18.09375 C29.9685882 16.78232114 29.9685882 16.78232114 27 17 C26.67 18.32 26.34 19.64 26 21 C16.23958934 21.32001346 6.67967405 20.11306313 -3 19 C-3.99 16.69 -4.98 14.38 -6 12 C-8.19848934 12 -10.46622194 12.9217164 -12.5625 13.5 Z M-112 99 C-113.15396814 102.00031716 -113.12583833 103.51952637 -112.3125 106.625 C-110.80135382 109.35945499 -109.76391436 110.54126742 -107 112 C-103.40549872 112.5241981 -101.71889495 112.48573983 -98.6875 110.4375 C-96.47471766 107.24125885 -96.13793682 104.86223091 -96 101 C-97.10208008 97.60191974 -97.92097876 97.05268083 -101 95 C-106.0528696 94.34093005 -108.50003399 95.30003594 -112 99 Z M-184.859375 119.3359375 C-187.11176965 122.62196531 -186.6146759 125.12754182 -186 129 C-184.07451763 131.78125232 -182.69737619 132.73177839 -179.5625 133.9375 C-176.18120249 134.01997067 -174.66913256 133.0198841 -172 131 C-169.65831236 127.48746854 -169.50376323 126.13530644 -170 122 C-171.94754255 118.62925328 -173.24116636 117.2969349 -176.875 115.875 C-180.40070956 116.01602838 -182.27985424 116.90575741 -184.859375 119.3359375 Z " fill="#FC5A4E" transform="translate(387,112)"/>
<path d="M0 0 C8.24695755 7.5142411 13.21622876 17.6437928 14.25390625 28.70703125 C14.75452257 41.02865235 11.01909307 51.65571783 3 61 C-5.30314899 69.89063594 -16.03314209 73.35751146 -27.875 74.3125 C-39.60376236 73.93338849 -50.64361498 69.17068757 -59 61 C-67.02197123 50.8870889 -70.66808637 40.13501242 -69.81640625 27.21484375 C-68.36716531 16.83110714 -63.37800203 6.03125259 -55.0390625 -0.546875 C-37.61657088 -12.89544801 -17.05025721 -13.41394643 0 0 Z M-50.7578125 12.9921875 C-56.13717718 19.87881379 -57.3089323 25.36165374 -58 34 C-54.7 33.34 -51.4 32.68 -48 32 C-47.54625 30.453125 -47.0925 28.90625 -46.625 27.3125 C-43.61934089 17.42877446 -43.61934089 17.42877446 -41.375 15.875 C-40.199375 15.441875 -40.199375 15.441875 -39 15 C-37.80375 14.443125 -36.6075 13.88625 -35.375 13.3125 C-29.82061866 11.28520253 -24.53051181 11.79579442 -18.984375 13.6875 C-14.03222681 16.09898086 -10.84679725 19.82733336 -9 25 C-8.0217465 31.87351803 -8.16640788 38.3606798 -11.80078125 44.41796875 C-15.08178997 48.74633531 -18.78117662 50.74748239 -24 52 C-29.56634558 52.51540237 -34.10240927 51.62370932 -39 49 C-41.875 46.375 -41.875 46.375 -44 44 C-45.94350596 42.7462882 -45.94350596 42.7462882 -47.9453125 43.55859375 C-48.66460937 43.84863281 -49.38390625 44.13867188 -50.125 44.4375 C-50.84945313 44.72496094 -51.57390625 45.01242188 -52.3203125 45.30859375 C-53.15175781 45.65083984 -53.15175781 45.65083984 -54 46 C-49.07125451 54.28029243 -42.81971208 59.12457918 -33.5 61.6875 C-24.24756126 62.84405484 -16.29673317 60.55785319 -8.625 55.25 C-2.13723478 49.97204345 1.34164758 42.98594282 2.25390625 34.69140625 C2.67565358 25.97075983 -0.3758091 17.68822702 -6 11 C-12.394029 5.75328669 -19.20390509 2.52321035 -27.4375 1.625 C-36.92539403 2.62372569 -44.38485522 5.76950258 -50.7578125 12.9921875 Z M-34 26 C-36.34168764 29.51253146 -36.49623677 30.86469356 -36 35 C-34.05245745 38.37074672 -32.75883364 39.7030651 -29.125 41.125 C-25.60074231 40.98402969 -23.71859146 40.10112258 -21.1484375 37.66015625 C-19.37608888 35.09808767 -19.17584871 33.00389435 -19.40234375 29.9375 C-20.53002625 26.28174498 -22.8181066 24.99648213 -26 23 C-29.63327194 23 -31.04735927 23.95586411 -34 26 Z " fill="#FD4E56" transform="translate(419,152)"/>
<path d="M0 0 C8.61632913 7.25906666 13.57175997 16.06713714 14.625 27.2578125 C15.02364456 38.5942672 12.68012948 48.24272993 5.21875 56.96875 C-1.88311201 64.30345994 -9.10388721 67.24448813 -19.25 68.3125 C-28.59031186 67.29355689 -36.89358038 63.99834165 -43.44140625 57.0859375 C-51.17213911 47.3595518 -53.51535625 37.18670639 -52.6875 24.9375 C-51.03444939 15.42545451 -46.28476011 6.18809938 -38.61328125 0.18359375 C-26.44686146 -7.68879553 -12.03422656 -8.6777416 0 0 Z M-33.4375 12 C-38.37131903 17.37413698 -40.83365824 23.66662254 -41.1875 30.9375 C-40.83365824 38.20837746 -38.37131903 44.50086302 -33.4375 49.875 C-28.61882147 54.21181068 -23.77385756 56.28364598 -17.25 56 C-10.9825504 54.97166198 -5.78514838 51.82426372 -2.046875 46.6796875 C2.23664186 39.22045986 3.8509799 31.71516094 1.59375 23.23828125 C-0.31115824 18.09963764 -2.35307398 14.44632106 -6.6875 10.9375 C-8.04875 9.82375 -8.04875 9.82375 -9.4375 8.6875 C-18.02822413 4.06172547 -26.29843814 5.57484432 -33.4375 12 Z " fill="#FA9C20" transform="translate(105.6875,97.0625)"/>
<path d="M0 0 C1.25139771 -0.00622879 2.50279541 -0.01245758 3.79211426 -0.01887512 C5.15893959 -0.01018702 6.52576105 -0.00086903 7.89257812 0.0090332 C9.2935791 0.00955188 10.6945808 0.00903388 12.09558105 0.00752258 C15.03111645 0.00761228 17.96637708 0.01803646 20.90185547 0.03613281 C24.66479778 0.05882014 28.42733862 0.05936392 32.19033051 0.05261517 C35.08310515 0.04927377 37.97578825 0.05590844 40.86854553 0.0657444 C42.25602235 0.06959377 43.64350935 0.0707457 45.0309906 0.06915855 C46.96990238 0.06878774 48.90880068 0.08288781 50.84765625 0.09765625 C52.50287292 0.10456734 52.50287292 0.10456734 54.19152832 0.11161804 C56.92382812 0.37231445 56.92382812 0.37231445 59.92382812 2.37231445 C60.32226562 4.24731445 60.32226562 4.24731445 60.29882812 6.37231445 C60.31042969 7.42418945 60.31042969 7.42418945 60.32226562 8.49731445 C59.92382812 10.37231445 59.92382812 10.37231445 56.92382812 12.37231445 C54.19152832 12.63301086 54.19152832 12.63301086 50.84765625 12.64697266 C48.97055969 12.66127068 48.97055969 12.66127068 47.05554199 12.67585754 C45.68872042 12.67559614 44.32189883 12.67465922 42.95507812 12.6730957 C41.55407585 12.67698259 40.15307476 12.68131725 38.7520752 12.68608093 C35.81661151 12.69354135 32.88126811 12.6932529 29.94580078 12.68798828 C26.18278484 12.68218917 22.42026039 12.69913558 18.65732574 12.72233295 C15.76455809 12.73705814 12.87190921 12.73794377 9.97911072 12.73482323 C8.59161911 12.7353369 7.20412094 12.7405834 5.81666565 12.75063515 C3.87781523 12.76295928 1.93886557 12.75427954 0 12.74462891 C-1.65521667 12.74557304 -1.65521667 12.74557304 -3.34387207 12.74653625 C-6.07617188 12.37231445 -6.07617188 12.37231445 -7.93249512 11.0365448 C-9.71828125 8.43794388 -9.45867224 6.4323174 -9.07617188 3.37231445 C-6.62420793 -0.19568042 -4.12887983 -0.00235512 0 0 Z " fill="#FD6E3F" transform="translate(257.076171875,113.627685546875)"/>
<path d="M0 0 C1.27464615 -0.00622879 2.5492923 -0.01245758 3.86256409 -0.01887512 C5.25465282 -0.01018797 6.64673774 -0.00087008 8.03881836 0.0090332 C9.46463521 0.00955182 10.89045278 0.00903406 12.31626892 0.00752258 C15.30307705 0.00761228 18.28961509 0.01803653 21.27636719 0.03613281 C25.108908 0.0588407 28.94105485 0.05936016 32.77364445 0.05261517 C35.71699031 0.04927761 38.66024598 0.05590084 41.60357475 0.0657444 C43.01699794 0.06959886 44.43043116 0.0707436 45.84385872 0.06915855 C47.81650157 0.06878865 49.7891313 0.08286835 51.76171875 0.09765625 C53.44691368 0.10456734 53.44691368 0.10456734 55.16615295 0.11161804 C57.81616211 0.37231445 57.81616211 0.37231445 59.81616211 2.37231445 C60.3769978 8.54150703 60.3769978 8.54150703 58.66966248 11.07070923 C56.02579599 12.92734249 54.06177761 12.75341259 50.84765625 12.76049805 C49.61950699 12.76995453 48.39135773 12.77941101 47.12599182 12.78915405 C45.78443073 12.78378374 44.44287257 12.77763064 43.10131836 12.77075195 C41.72513169 12.77277313 40.34894607 12.77568494 38.97276306 12.77944946 C36.08850914 12.78387229 33.204534 12.77744447 30.3203125 12.76342773 C26.62686194 12.74635148 22.93406613 12.75616669 19.24063969 12.77414513 C16.39842315 12.78499808 13.5563612 12.78152951 10.71413994 12.77376175 C9.35260376 12.77176306 7.99105346 12.7742074 6.62953377 12.78120041 C4.72437949 12.78883699 2.8191759 12.77512945 0.9140625 12.76049805 C-0.71117592 12.75691788 -0.71117592 12.75691788 -2.36924744 12.75326538 C-5.54751332 12.32309149 -6.9396226 11.63972345 -9.18383789 9.37231445 C-9.63440135 6.28273645 -9.84573379 4.33786075 -8.04298401 1.70808411 C-5.34865982 -0.22774893 -3.29660055 -0.00184563 0 0 Z " fill="#FD6C40" transform="translate(257.183837890625,134.627685546875)"/>
</svg>
