<?xml version="1.0" encoding="UTF-8"?>
<svg version="1.1" xmlns="http://www.w3.org/2000/svg" width="512" height="512">
<path d="M0 0 C1.57901913 -0.00489228 3.15803467 -0.01108365 4.73704416 -0.01845789 C9.06477155 -0.03483678 13.39231652 -0.03254372 17.72006404 -0.02708292 C22.39152369 -0.02441032 27.06293497 -0.03894852 31.734375 -0.05117798 C40.880425 -0.07222163 50.02641159 -0.07677355 59.17248293 -0.07499009 C66.60408451 -0.07368239 74.03566631 -0.077487 81.46726418 -0.08491516 C83.60796191 -0.08701434 85.74865965 -0.08911194 87.88935739 -0.09120798 C89.48754295 -0.09277327 89.48754295 -0.09277327 91.11801509 -0.09437019 C111.26217284 -0.11326689 131.40629416 -0.11222356 151.5504571 -0.10540086 C169.98916118 -0.09982085 188.42772653 -0.12067138 206.86639818 -0.15376133 C225.79552529 -0.18746824 244.72458587 -0.20267074 263.65374357 -0.1980443 C274.28269421 -0.19579722 284.91151648 -0.20107827 295.54044151 -0.22593689 C304.58531499 -0.24691081 313.62998964 -0.25058054 322.67487117 -0.2316373 C327.29126184 -0.22245683 331.90728137 -0.22140704 336.52364349 -0.24199295 C340.74710237 -0.26061907 344.96988397 -0.25629444 349.19331638 -0.23344713 C350.72343966 -0.22924022 352.25361404 -0.23353122 353.78368344 -0.24704307 C355.86017509 -0.26413582 357.93428361 -0.25056544 360.01068401 -0.2292099 C361.16487416 -0.22948228 362.31906431 -0.22975467 363.50822991 -0.23003531 C367.54188972 0.59278292 369.04492304 2.20656457 371.56941223 5.39440918 C372.13191223 8.95690918 372.13191223 8.95690918 371.56941223 12.39440918 C369.40888409 15.28112637 368.22944926 16.2815234 364.6406498 16.89531386 C363.48998716 16.89574859 362.33932453 16.89618333 361.15379333 16.89663124 C360.50879434 16.9023358 359.86379535 16.90804036 359.19925094 16.91391778 C357.02880295 16.92822367 354.85947761 16.91395586 352.68904114 16.89993286 C351.12100977 16.90437421 349.55298256 16.91057489 347.98496437 16.91838777 C343.66900992 16.9348166 339.3534045 16.92632529 335.03744984 16.91389656 C330.38570435 16.90485731 325.73402315 16.91885243 321.08229065 16.93016052 C313.01959884 16.94667979 304.95700622 16.94879106 296.89430237 16.94139481 C285.23258008 16.93089226 273.57097949 16.94425138 261.90927339 16.96385936 C242.98413698 16.99521555 224.05902625 17.01020646 205.13386536 17.0135498 C204.00074299 17.01375379 202.86762063 17.01395778 201.70016122 17.01416795 C200.56560675 17.01437132 199.43105229 17.01457469 198.26211739 17.01478422 C182.17639408 17.01770428 166.09067868 17.02450679 150.00495911 17.03601074 C148.87321329 17.03681604 147.74146748 17.03762133 146.57542634 17.03845103 C127.72214443 17.0521941 108.86887671 17.07397487 90.01560783 17.09988058 C78.37952535 17.11534729 66.74348918 17.12252974 55.1073966 17.11908565 C47.13853616 17.11704926 39.16969876 17.12168921 31.20084429 17.13162901 C26.59889545 17.13707519 21.99700623 17.1391136 17.39505768 17.13245583 C13.18587325 17.12639644 8.97679798 17.1293907 4.76762271 17.13969271 C3.24143699 17.14177347 1.71524216 17.14043228 0.18906331 17.13540311 C-1.87908178 17.12905355 -3.94684189 17.13489892 -6.01496887 17.1438694 C-7.1656315 17.14397943 -8.31629414 17.14408946 -9.50182533 17.14420283 C-12.48518123 17.39907314 -14.08301875 17.54342116 -16.43058777 19.39440918 C-21.1845335 33.65624637 -19.04524528 49.36605228 -19.43058777 64.39440918 C139.62941223 64.39440918 298.68941223 64.39440918 462.56941223 64.39440918 C463.25371385 41.51114932 463.25371385 41.51114932 459.56941223 19.39440918 C456.49583764 17.01572415 453.47794678 17.14851302 449.68684387 17.15490723 C447.90963707 17.14931038 447.90963707 17.14931038 446.0965271 17.14360046 C444.82043076 17.14773453 443.54433441 17.15186859 442.22956848 17.15612793 C440.2215996 17.14465716 438.2136304 17.13315734 436.20567226 17.11993885 C431.2576515 17.08975348 426.30974737 17.07907181 421.36164856 17.08898926 C418.58336999 17.09371282 415.80571633 17.08526875 413.02752686 17.06257629 C410.41218062 17.04193918 407.79658763 17.04110564 405.1812439 17.0620575 C395.35578559 16.95298338 395.35578559 16.95298338 392.25520325 13.98791504 C390.53291532 11.33826049 389.95060633 10.34064099 390.44441223 7.26940918 C390.52433411 6.60683105 390.60425598 5.94425293 390.68659973 5.26159668 C392.01107717 2.46026829 393.82775809 1.76039741 396.56941223 0.39440918 C399.46388245 0.00672913 399.46388245 0.00672913 402.68562317 -0.00964355 C403.89748291 -0.02232773 405.10934265 -0.0350119 406.35792542 -0.04808044 C407.66005981 -0.04514481 408.96219421 -0.04220917 410.30378723 -0.03918457 C411.66513834 -0.04375103 413.02648715 -0.04905798 414.38783264 -0.05506897 C417.23914457 -0.06399086 420.09017634 -0.0615901 422.94148254 -0.05163574 C426.573991 -0.0401828 430.20552197 -0.06030404 433.83790207 -0.08955288 C436.65030447 -0.10801516 439.46247735 -0.10760209 442.27492523 -0.10191536 C444.25835314 -0.10168974 446.24175974 -0.11850877 448.22511292 -0.13572693 C457.08867211 -0.06782104 463.69714772 1.36589839 470.88191223 6.64440918 C478.81632107 14.76333916 478.13886959 23.57040519 478.0773468 34.17150879 C478.08195803 35.89688359 478.08831244 37.62225447 478.09625578 39.34761715 C478.11294175 44.08006255 478.10470603 48.81218497 478.09231091 53.54463148 C478.08325977 58.65173491 478.09723047 63.75878284 478.10823059 68.86587524 C478.12601969 78.8672095 478.12217406 88.8684237 478.11058003 98.86976266 C478.10154753 106.99785107 478.10032091 115.12590582 478.10467529 123.2539978 C478.10528823 124.4107051 478.10590116 125.56741239 478.10653266 126.75917143 C478.10781156 129.10897931 478.10910841 131.45878719 478.11042303 133.80859506 C478.12182997 155.84421678 478.10871331 177.87977194 478.08722156 199.91538274 C478.06935049 218.82411499 478.07245457 237.73274902 478.09089661 256.64147949 C478.11230127 278.598099 478.12073133 300.55466016 478.10844755 322.51128864 C478.10717335 324.85246594 478.10591587 327.19364324 478.10467529 329.53482056 C478.10405819 330.68673305 478.10344109 331.83864554 478.10280529 333.02546448 C478.09935118 341.14405558 478.10518205 349.26260969 478.11459351 357.38119507 C478.12581036 367.27466937 478.12277997 377.16801672 478.10147053 387.06147647 C478.09095597 392.10955845 478.08684531 397.15742875 478.10006714 402.20550919 C478.1119883 406.82687969 478.10543294 411.44784232 478.08415693 416.06917584 C478.07968972 417.74066551 478.08195983 419.41218965 478.09166008 421.08365715 C478.14179309 430.44008221 478.12511444 437.75243247 471.96394348 445.38269043 C463.70455581 452.29610382 455.17975092 452.8346917 444.71400452 452.77536011 C442.80278435 452.78238007 442.80278435 452.78238007 440.85295367 452.78954184 C437.33696973 452.80200775 433.82123163 452.79590184 430.30524707 452.78658319 C426.50566658 452.77977511 422.70612737 452.79028242 418.90655518 452.79852295 C411.47247548 452.81184223 404.0384868 452.80899106 396.60440359 452.80028503 C390.56346332 452.79350381 384.52254851 452.79259365 378.48160553 452.79585648 C377.19089405 452.79654602 377.19089405 452.79654602 375.87410758 452.7972495 C374.12600304 452.79820869 372.3778985 452.79918133 370.62979397 452.80016728 C354.25069292 452.80871535 337.87164229 452.79889512 321.49254951 452.78276618 C307.43692776 452.76935396 293.38138031 452.77169965 279.32575989 452.78552246 C262.9981844 452.8015721 246.67065302 452.80790149 230.34307075 452.79868567 C228.60269913 452.79773003 226.8623275 452.79678691 225.12195587 452.79585648 C223.83753611 452.79516224 223.83753611 452.79516224 222.52716847 452.79445397 C216.4910706 452.79186294 210.4550007 452.7962373 204.41890717 452.80329514 C197.06673416 452.81170306 189.71465725 452.80944454 182.36249527 452.7934529 C178.61096585 452.78556209 174.85959675 452.78249244 171.10806847 452.79240036 C167.04420081 452.80297108 162.98073896 452.7903602 158.91688538 452.77536011 C157.72750374 452.78205227 156.53812211 452.78874444 155.3126986 452.7956394 C154.22495763 452.78781615 153.13721665 452.77999291 152.01651382 452.7719326 C151.0785469 452.77144554 150.14057997 452.77095849 149.17418981 452.77045667 C146.03115738 452.3167022 144.13303264 451.23847612 141.56941223 449.39440918 C140.68659973 447.52722168 140.68659973 447.52722168 140.44441223 445.51940918 C140.33870911 444.8619873 140.23300598 444.20456543 140.12409973 443.52722168 C140.67415493 440.89274678 141.77804991 439.32226591 143.71703804 437.47425687 C147.92661012 435.02027284 153.18799771 435.72079522 157.91256714 435.76863098 C159.17991823 435.76168644 160.44726932 435.75474189 161.753025 435.74758691 C165.2687299 435.72895774 168.78374532 435.74139585 172.29943097 435.75885618 C176.09158683 435.77222796 179.88363637 435.75674989 183.67578125 435.74468994 C190.24609845 435.72766012 196.81621403 435.72866823 203.38653755 435.7416935 C212.89045386 435.76033335 222.39416103 435.74955795 231.89806967 435.73121693 C247.32311739 435.70206292 262.74810039 435.69371543 278.173172 435.6998291 C293.14746335 435.70569276 308.12173296 435.70676244 323.09602356 435.69787598 C324.01841696 435.6973334 324.94081036 435.69679083 325.89115507 435.69623182 C335.95787635 435.69006728 346.02459214 435.68133651 356.09130764 435.66887951 C356.97565904 435.66778702 357.86001045 435.66669454 358.77116038 435.66556894 C362.30610964 435.66114997 365.84105877 435.6566762 369.37600749 435.65184333 C379.73206049 435.63770997 390.0880402 435.63170577 400.44410049 435.64037921 C406.93794484 435.6455552 413.43176489 435.64419966 419.92560799 435.63767616 C423.67493408 435.63422261 427.4241847 435.63419863 431.17350388 435.64290428 C435.23346973 435.65230745 439.29327085 435.64649997 443.35324097 435.63923645 C444.54437297 435.64458178 445.73550498 435.64992712 446.9627319 435.65543443 C448.04746523 435.65105243 449.13219855 435.64667043 450.24980259 435.64215565 C451.65601835 435.64280371 451.65601835 435.64280371 453.09064251 435.64346486 C455.85517359 435.36569716 457.34818521 435.07906873 459.56941223 433.39440918 C461.41242215 429.300734 461.82147866 425.69040831 461.83112526 421.23689461 C461.8385915 420.0158289 461.84605774 418.79476318 461.85375023 417.53669548 C461.85197446 416.19093679 461.8500129 414.84517834 461.84788513 413.49942017 C461.85288261 412.06639796 461.85875185 410.63337858 461.86541748 409.20036316 C461.8812209 405.25919502 461.88462478 401.31809801 461.88605645 397.37690201 C461.88983284 393.06282642 461.90516068 388.74878907 461.91902733 384.43473625 C461.9442166 376.05989814 461.95919514 367.68507273 461.97061124 359.31020575 C461.98425598 349.62331987 462.01059222 339.93649589 462.03694153 330.24963379 C462.10023829 304.67291671 462.14626572 279.09615926 462.19441223 253.51940918 C462.31816223 196.38815918 462.44191223 139.25690918 462.56941223 80.39440918 C303.50941223 80.39440918 144.44941223 80.39440918 -19.43058777 80.39440918 C-19.43058777 102.83440918 -19.43058777 125.27440918 -19.43058777 148.39440918 C-23.43058777 152.39440918 -23.43058777 152.39440918 -26.93058777 152.89440918 C-31.02806692 152.30905502 -31.92089131 151.58694715 -34.43058777 148.39440918 C-34.93395233 145.87868881 -34.93395233 145.87868881 -34.93852234 142.99395752 C-34.94980164 141.89776596 -34.96108093 140.8015744 -34.97270203 139.67216492 C-34.9646051 138.47416763 -34.95650818 137.27617035 -34.94816589 136.04187012 C-34.95517517 134.77641861 -34.96218445 133.5109671 -34.96940613 132.20716858 C-34.98764 128.7378148 -34.98057017 125.26893694 -34.96788979 121.79957485 C-34.95775348 118.16379463 -34.96715802 114.5280548 -34.97343445 110.89227295 C-34.98071276 104.78239647 -34.97112236 98.67271333 -34.95207214 92.56286621 C-34.9303418 85.51230554 -34.93732573 78.46220827 -34.95937777 71.411659 C-34.97757326 65.35031682 -34.98006875 59.28911361 -34.96962309 53.22775292 C-34.96340582 49.61130966 -34.96250265 45.99508355 -34.97576904 42.37865448 C-34.98954752 38.34033643 -34.97041053 34.30280665 -34.94816589 30.26452637 C-34.95626282 29.07462601 -34.96435974 27.88472565 -34.97270203 26.6587677 C-34.89364633 18.89659203 -33.85292079 13.54195086 -28.78996277 7.40612793 C-27.99332214 6.75063965 -27.99332214 6.75063965 -27.18058777 6.08190918 C-26.65980652 5.63202637 -26.13902527 5.18214355 -25.60246277 4.71862793 C-17.40334518 -0.28047434 -9.29008472 -0.03560006 0 0 Z " fill="#F76647" transform="translate(34.43058776855469,29.6055908203125)"/>
<path d="M0 0 C1.02049438 -0.0038269 2.04098877 -0.00765381 3.09240723 -0.01159668 C5.24406932 -0.01431145 7.39576465 -0.00698084 9.54736328 0.00976562 C12.83310817 0.03118064 16.11666654 0.0099483 19.40234375 -0.015625 C21.49740064 -0.01298165 23.59245617 -0.00785652 25.6875 0 C27.15491638 -0.01214539 27.15491638 -0.01214539 28.65197754 -0.02453613 C34.53596736 0.05600302 37.83081269 0.67382313 42.34375 4.53125 C46.03846578 8.60817776 46.46948703 12.30895924 46.46400452 17.68182373 C46.46606651 19.24248314 46.46606651 19.24248314 46.46817017 20.83467102 C46.46457489 21.97043076 46.46097961 23.10619049 46.45727539 24.27636719 C46.45742142 25.47664047 46.45756744 26.67691376 46.4577179 27.91355896 C46.45714084 31.20042439 46.45212745 34.48724718 46.44514394 37.77410412 C46.4388903 41.21074933 46.43830501 44.64739539 46.43711853 48.08404541 C46.43401115 54.58983346 46.42580574 61.0956047 46.41576904 67.60138535 C46.4045895 75.00883182 46.39909281 82.41627909 46.39407361 89.8237319 C46.38362265 105.059581 46.36603467 120.29541333 46.34375 135.53125 C47.34535156 135.50804687 48.34695313 135.48484375 49.37890625 135.4609375 C50.72134664 135.44216211 52.06379518 135.42396382 53.40625 135.40625 C54.71722656 135.38304687 56.02820313 135.35984375 57.37890625 135.3359375 C63.03175895 135.61440315 67.00105095 136.31315813 71.23754883 140.15649414 C73.67839612 144.06745184 74.08686707 147.04797484 74.04296875 151.52734375 C74.05370171 152.65499901 74.05370171 152.65499901 74.06465149 153.80543518 C74.07240025 155.38793765 74.06747617 156.97054774 74.05053711 158.55297852 C74.0313205 160.95992001 74.07071041 163.36107038 74.11523438 165.76757812 C74.18479003 178.57999625 74.18479003 178.57999625 70.48828125 183.06640625 C66.59149162 186.12090843 64.21095001 186.6558767 59.41627502 186.66496277 C58.39981903 186.66922775 57.38336304 186.67349274 56.33610535 186.67788696 C55.22173599 186.67743378 54.10736664 186.67698059 52.95922852 186.67651367 C51.78503357 186.67987228 50.61083862 186.6832309 49.40106201 186.68669128 C46.17998937 186.69457001 42.9589554 186.69786922 39.73787427 186.69850707 C37.04897275 186.69945666 34.36007742 186.7031355 31.67117828 186.70667917 C25.32757595 186.71482209 18.98398781 186.71726353 12.64038086 186.71655273 C6.09600649 186.71595181 -0.44828549 186.7265069 -6.99263901 186.7422964 C-12.6114031 186.75536979 -18.23014026 186.76073672 -23.84891945 186.76009732 C-27.20474873 186.7598423 -30.56050477 186.76269603 -33.91631889 186.77327538 C-37.65839408 186.7830409 -41.40025557 186.7802108 -45.14233398 186.77416992 C-46.25467911 186.77978943 -47.36702423 186.78540894 -48.51307678 186.79119873 C-49.5323526 186.78700424 -50.55162842 186.78280975 -51.60179138 186.77848816 C-52.92885935 186.77930531 -52.92885935 186.77930531 -54.28273678 186.78013897 C-56.85996902 186.50988782 -58.46088531 185.88618237 -60.65625 184.53125 C-62.7378402 181.85491974 -62.65212591 180.41371332 -62.53125 176.96875 C-61.65625 173.53125 -61.65625 173.53125 -59.90449142 171.83895397 C-57.2926357 170.31975142 -55.81246298 170.16065105 -52.80938721 170.17048645 C-51.34969765 170.16430046 -51.34969765 170.16430046 -49.86051941 170.1579895 C-48.79956558 170.16877533 -47.73861176 170.17956116 -46.64550781 170.19067383 C-45.52326309 170.19023575 -44.40101837 170.18979767 -43.24476624 170.18934631 C-39.53279261 170.19143749 -35.82126979 170.2147848 -32.109375 170.23828125 C-29.53676602 170.24387602 -26.96415384 170.24814668 -24.39154053 170.25114441 C-18.31066668 170.26143117 -12.22997907 170.28507894 -6.14917541 170.31519288 C0.77458377 170.34873637 7.69835071 170.36522275 14.62217093 170.38027918 C28.86278665 170.41162862 43.10325675 170.46499442 57.34375 170.53125 C57.34375 164.26125 57.34375 157.99125 57.34375 151.53125 C-4.36625 151.53125 -66.07625 151.53125 -129.65625 151.53125 C-129.65625 157.80125 -129.65625 164.07125 -129.65625 170.53125 C-126.52640625 170.48484375 -123.3965625 170.4384375 -120.171875 170.390625 C-117.14031598 170.35942941 -114.10877484 170.33514159 -111.07714844 170.31152344 C-108.97029618 170.29140874 -106.86349975 170.26411333 -104.75683594 170.22949219 C-101.72837553 170.18096832 -98.70065322 170.15827984 -95.671875 170.140625 C-94.25917328 170.10965729 -94.25917328 170.10965729 -92.81793213 170.07806396 C-86.27740265 170.07582001 -86.27740265 170.07582001 -83.06567383 172.43066406 C-81.55576467 174.68101196 -81.08849996 175.84322818 -81.09375 178.53125 C-81.07183594 179.19125 -81.04992187 179.85125 -81.02734375 180.53125 C-82.06935519 183.84497582 -83.69295622 184.73704847 -86.65625 186.53125 C-90.32130514 187.11999732 -93.94709728 187.06786673 -97.65234375 187.02734375 C-98.71864517 187.02879898 -99.78494659 187.03025421 -100.88356018 187.03175354 C-103.13537329 187.03009585 -105.38719787 187.01854923 -107.63891602 186.99780273 C-111.07812878 186.96888136 -114.51579635 186.97719095 -117.95507812 186.99023438 C-120.1458408 186.98399562 -122.33659862 186.97560362 -124.52734375 186.96484375 C-126.06508705 186.96924721 -126.06508705 186.96924721 -127.63389587 186.97373962 C-132.9903103 186.90329177 -137.16737788 186.77852832 -141.65625 183.53125 C-145.45622526 179.11107255 -146.16073902 175.91467674 -146.15234375 170.15625 C-146.15379898 169.46869629 -146.15525421 168.78114258 -146.15675354 168.07275391 C-146.15510251 166.62723529 -146.14363078 165.18169763 -146.12280273 163.73632812 C-146.09382566 161.53699269 -146.10221264 159.34006985 -146.11523438 157.140625 C-146.06197109 145.08927222 -146.06197109 145.08927222 -142.65625 139.53125 C-137.16664651 135.44923715 -132.05181998 135.39243162 -125.40625 135.46875 C-124.66117187 135.47326172 -123.91609375 135.47777344 -123.1484375 135.48242188 C-121.3176736 135.49415754 -119.48695127 135.5120915 -117.65625 135.53125 C-117.66291183 134.57769119 -117.66957367 133.62413239 -117.67643738 132.64167786 C-117.73727399 123.651708 -117.78223488 114.66177995 -117.81168652 105.67165089 C-117.82733697 101.04981209 -117.84856393 96.42813958 -117.88256836 91.80639648 C-117.91518392 87.34546463 -117.93310768 82.88469264 -117.94088173 78.42365074 C-117.94642129 76.72240368 -117.95723876 75.02116528 -117.97344017 73.31998634 C-117.99524391 70.93554456 -117.99821574 68.5517619 -117.99682617 66.16723633 C-118.007612 65.46520584 -118.01839783 64.76317535 -118.0295105 64.03987122 C-118.00209917 59.68779507 -117.28057028 57.01170327 -114.65625 53.53125 C-110.23416359 49.74670207 -105.72563032 50.14003975 -100.19921875 50.23828125 C-99.29625565 50.24252609 -98.39329254 50.24677094 -97.46296692 50.25114441 C-94.5895865 50.26788689 -91.71691709 50.30553084 -88.84375 50.34375 C-86.8912862 50.35880257 -84.93881136 50.37248997 -82.98632812 50.38476562 C-78.20936303 50.41777592 -73.43292691 50.46952765 -68.65625 50.53125 C-68.70265625 49.44585937 -68.7490625 48.36046875 -68.796875 47.2421875 C-68.83441487 45.79690269 -68.87081264 44.35158789 -68.90625 42.90625 C-68.93976563 42.19339844 -68.97328125 41.48054688 -69.0078125 40.74609375 C-69.10335229 35.53917508 -68.17124326 32.60816396 -64.65625 28.53125 C-60.27868532 24.79022524 -55.89510172 25.13840765 -50.41796875 25.23828125 C-49.09681816 25.24464851 -49.09681816 25.24464851 -47.74897766 25.25114441 C-44.9469189 25.26788356 -42.14558991 25.3055267 -39.34375 25.34375 C-37.43946354 25.35880301 -35.53516576 25.37249034 -33.63085938 25.38476562 C-28.97237678 25.41777146 -24.31443695 25.46952071 -19.65625 25.53125 C-19.66930176 24.56848145 -19.68235352 23.60571289 -19.69580078 22.61376953 C-19.70595215 21.35161621 -19.71610352 20.08946289 -19.7265625 18.7890625 C-19.73961426 17.53754395 -19.75266602 16.28602539 -19.76611328 14.99658203 C-19.62433434 10.52455916 -19.09305363 8.26768224 -16.65625 4.53125 C-11.39439053 -0.07654566 -6.81313606 -0.05639038 0 0 Z M-3.65625 16.53125 C-3.65625 55.80125 -3.65625 95.07125 -3.65625 135.53125 C7.56375 135.53125 18.78375 135.53125 30.34375 135.53125 C30.34375 96.26125 30.34375 56.99125 30.34375 16.53125 C19.12375 16.53125 7.90375 16.53125 -3.65625 16.53125 Z M-52.65625 41.53125 C-52.65625 72.55125 -52.65625 103.57125 -52.65625 135.53125 C-41.76625 135.53125 -30.87625 135.53125 -19.65625 135.53125 C-19.65625 104.51125 -19.65625 73.49125 -19.65625 41.53125 C-30.54625 41.53125 -41.43625 41.53125 -52.65625 41.53125 Z M-101.65625 66.53125 C-101.65625 89.30125 -101.65625 112.07125 -101.65625 135.53125 C-90.76625 135.53125 -79.87625 135.53125 -68.65625 135.53125 C-68.65625 112.76125 -68.65625 89.99125 -68.65625 66.53125 C-79.54625 66.53125 -90.43625 66.53125 -101.65625 66.53125 Z " fill="#FC5650" transform="translate(387.65625,128.46875)"/>
<path d="M0 0 C1.09699219 -0.03738281 2.19398438 -0.07476562 3.32421875 -0.11328125 C6.99189786 0.40930309 8.08290433 1.41454778 10.3125 4.3125 C11.6294168 8.26325039 11.49487282 12.05949362 11.515625 16.1796875 C11.52132507 17.05142609 11.52702515 17.92316467 11.53289795 18.82131958 C11.54234183 20.66553536 11.5488795 22.50976797 11.55273438 24.35400391 C11.56243933 27.16989686 11.59346786 29.98505959 11.625 32.80078125 C11.63153043 34.59374567 11.63678075 36.38671531 11.640625 38.1796875 C11.6529718 39.01942108 11.6653186 39.85915466 11.67803955 40.72433472 C11.66022152 45.41926717 11.35195891 48.49215611 8.3125 52.3125 C5.49981632 54.18762245 2.80918733 54.67679077 -0.5 55.1875 C-8.35692595 56.71042838 -12.89413334 59.61568022 -17.4609375 66.24609375 C-21.16393285 72.48457954 -21.15031942 78.41015946 -19.6875 85.3125 C-17.6226437 91.97903605 -13.64262464 95.83036008 -7.6875 99.3125 C-1.59257352 102.1639849 4.59475636 102.45765026 11.0390625 100.47265625 C17.05435483 97.77395259 21.51193997 94.37411484 24.3125 88.3125 C25.19198447 84.70984115 25.86176568 81.15647395 26.37890625 77.484375 C27.58313372 73.39302477 28.65858443 72.50007603 32.3125 70.3125 C35.63879068 69.72891088 38.91477701 69.75171862 42.28515625 69.78125 C43.24522079 69.7774231 44.20528534 69.77359619 45.19444275 69.76965332 C47.21923881 69.76693703 49.24407012 69.77427834 51.26879883 69.79101562 C54.36814466 69.81245258 57.46517863 69.79119211 60.56445312 69.765625 C62.53385928 69.76826787 64.503264 69.77339199 66.47265625 69.78125 C67.86183006 69.76910461 67.86183006 69.76910461 69.27906799 69.75671387 C75.66245637 69.84981788 75.66245637 69.84981788 78.87817383 72.13867188 C83.41435645 79.01359444 80.86823026 88.70258704 79.3125 96.3125 C74.28272253 116.68415102 62.41097772 133.52687398 44.6875 144.875 C24.58037695 156.23989564 3.10473245 159.5365849 -19.25 153.70703125 C-30.0765801 150.52791047 -40.35590831 144.92369091 -48.6875 137.3125 C-49.51765625 136.56226563 -50.3478125 135.81203125 -51.203125 135.0390625 C-66.32971507 120.68238869 -74.53516792 101.95563287 -75.09008789 81.24438477 C-75.30867523 60.53973086 -70.29813192 43.27088661 -56.6875 27.3125 C-56.089375 26.51714844 -55.49125 25.72179687 -54.875 24.90234375 C-41.50639727 9.07487302 -20.29228957 0.67791613 0 0 Z M-41.6875 35.3125 C-42.31398438 35.90417969 -42.94046875 36.49585938 -43.5859375 37.10546875 C-52.17567383 45.9089768 -57.34582801 58.23745207 -58.6875 70.3125 C-51.4275 70.3125 -44.1675 70.3125 -36.6875 70.3125 C-35.98625 68.4975 -35.285 66.6825 -34.5625 64.8125 C-29.90896775 53.70153817 -23.13376658 45.79580105 -11.8984375 41.171875 C-11.16882813 40.88828125 -10.43921875 40.6046875 -9.6875 40.3125 C-8.0375 39.6525 -6.3875 38.9925 -4.6875 38.3125 C-4.6875 31.0525 -4.6875 23.7925 -4.6875 16.3125 C-18.90167662 16.3125 -32.18011657 25.8541237 -41.6875 35.3125 Z M-58.6875 86.3125 C-54.95172499 104.99137504 -46.55538437 120.04196933 -30.625 131 C-22.85678628 135.73698067 -13.82609843 139.3125 -4.6875 139.3125 C-4.6875 132.0525 -4.6875 124.7925 -4.6875 117.3125 C-6.316875 116.77625 -7.94625 116.24 -9.625 115.6875 C-20.51012525 111.6771907 -28.18448337 105.68213752 -33.23046875 95.06640625 C-34.44653608 92.1744142 -35.57485534 89.24583592 -36.6875 86.3125 C-43.9475 86.3125 -51.2075 86.3125 -58.6875 86.3125 Z M42.3125 86.3125 C41.61125 88.1275 40.91 89.9425 40.1875 91.8125 C35.88834395 102.03200223 29.68824441 110.0820383 19.2890625 114.63671875 C16.65572253 115.60137414 13.98627983 116.46636714 11.3125 117.3125 C11.3125 124.5725 11.3125 131.8325 11.3125 139.3125 C27.99647251 137.22700344 41.62041633 129.35449217 52.3125 116.3125 C58.22618399 107.62085769 64.3125 97.08296868 64.3125 86.3125 C57.0525 86.3125 49.7925 86.3125 42.3125 86.3125 Z " fill="#FC8E29" transform="translate(127.6875,158.6875)"/>
<path d="M0 0 C4.70366381 3.27542581 7.86190235 7.39820704 9.6875 12.875 C9.51113121 14.61386178 9.33388851 16.35264533 9.14971924 18.09069824 C8.62503877 24.64523369 9.2149561 29.2727846 13.3182373 34.54751587 C16.0418111 37.65881993 18.92314044 40.54641234 21.9375 43.375 C22.55351074 43.9653302 23.16952148 44.5556604 23.80419922 45.16387939 C33.81866619 54.95186833 33.81866619 54.95186833 46.6875 59.25 C56.6934259 58.65893265 64.60746976 49.92029677 71.4375 43.375 C72.05028809 42.79997742 72.66307617 42.22495483 73.29443359 41.63250732 C79.21530348 35.94250985 84.23683853 30.95139666 84.43707275 22.38916016 C84.3556127 20.36248519 84.16039293 18.34133355 83.95947266 16.32299805 C83.58381585 11.56051954 84.70811371 8.53194143 87.6875 4.875 C92.58189227 -0.24703843 98.14527161 -2.8855647 105.20703125 -3.2578125 C112.72400766 -2.8652208 117.92461972 -0.03329503 123.0625 5.375 C127.33365995 11.94601531 127.30516752 18.22171338 126.6875 25.875 C124.66091936 31.84807979 120.63324516 35.89810223 115.3125 39.1875 C111.21007447 41.16071702 108.28684936 40.65249698 103.8359375 40.12109375 C97.89617095 39.8240323 94.421349 41.18174641 89.93423462 45.06794739 C87.38287352 47.50984202 84.93098423 50.02085374 82.53808594 52.61816406 C80.67073151 54.6431843 78.75328137 56.60801178 76.8203125 58.5703125 C75.60616631 59.83024912 74.3951065 61.09316894 73.1875 62.359375 C72.61692871 62.95119568 72.04635742 63.54301636 71.45849609 64.152771 C69.71120346 66.00284113 69.71120346 66.00284113 67.6875 68.875 C67.98164231 70.93121274 67.98164231 70.93121274 68.6875 72.875 C69.40672727 79.80787929 68.6707245 85.08121891 64.6875 90.875 C60.15964428 96.09944891 56.31141657 98.8500722 49.4375 99.75 C42.54294264 100.1960091 37.24596118 98.97862364 31.875 94.5625 C27.47724857 89.15954824 24.54124484 85.00483956 24.5625 77.9375 C24.55863281 76.65552734 24.55863281 76.65552734 24.5546875 75.34765625 C24.6875 72.875 24.6875 72.875 25.33050537 70.90948486 C25.4483136 70.23810486 25.56612183 69.56672485 25.6875 68.875 C23.98438348 66.48508071 22.32762849 64.47998179 20.328125 62.359375 C19.75028259 61.74354553 19.17244019 61.12771606 18.5770874 60.4932251 C17.34032091 59.19159395 16.09560436 57.89747846 14.84375 56.61035156 C12.96801199 54.65677811 11.16674185 52.64948474 9.359375 50.6328125 C3.13993551 44.01659722 -2.43791402 39.47044515 -11.8125 39.15625 C-21.18708598 39.47044515 -26.76493551 44.01659722 -32.984375 50.6328125 C-33.57154297 51.28797852 -34.15871094 51.94314453 -34.76367188 52.61816406 C-36.58704224 54.65238019 -38.47047842 56.61212869 -40.375 58.5703125 C-41.57158821 59.82965814 -42.7644502 61.09255733 -43.953125 62.359375 C-44.51114807 62.95119568 -45.06917114 63.54301636 -45.644104 64.152771 C-47.34907414 66.003994 -47.34907414 66.003994 -49.3125 68.875 C-49.01322329 70.93059279 -49.01322329 70.93059279 -48.3125 72.875 C-47.59327273 79.80787929 -48.3292755 85.08121891 -52.3125 90.875 C-56.84035572 96.09944891 -60.68858343 98.8500722 -67.5625 99.75 C-74.45705736 100.1960091 -79.75403882 98.97862364 -85.125 94.5625 C-90.97255557 87.3783603 -93.24667235 82.08327036 -92.3125 72.875 C-90.55185395 66.23545525 -87.11344452 61.5533536 -81.3125 57.875 C-76.90543982 55.59331638 -73.7697806 56.02095415 -68.90625 56.53125 C-61.99315622 56.83451514 -57.970855 55.13048296 -52.84375 50.53125 C-51.03526268 48.80205178 -49.28822025 47.03703022 -47.56982422 45.21826172 C-45.81066505 43.37307531 -43.98172094 41.62946956 -42.12890625 39.87890625 C-36.76370595 34.56026237 -32.72985139 30.21758961 -32.5447998 22.38916016 C-32.62864995 20.36233576 -32.82732544 18.34123078 -33.03173828 16.32299805 C-33.41971759 11.55827472 -32.29323237 8.53359363 -29.3125 4.875 C-21.44969182 -3.35352019 -10.07876945 -5.72140672 0 0 Z M-15.5 14 C-17.6009656 15.80820773 -17.6009656 15.80820773 -17.75 18.875 C-17.5294765 21.81415224 -17.5294765 21.81415224 -16.125 23.75 C-13.65742892 25.28159584 -12.16730169 25.30322025 -9.3125 24.875 C-7.37595052 23.85529682 -7.37595052 23.85529682 -6.3125 21.875 C-5.72916667 18.875 -5.72916667 18.875 -6.3125 15.875 C-8.0234211 13.90401574 -8.0234211 13.90401574 -10.3125 12.875 C-13.27782836 12.64632599 -13.27782836 12.64632599 -15.5 14 Z M101.5 14 C99.3990344 15.80820773 99.3990344 15.80820773 99.25 18.875 C99.4705235 21.81415224 99.4705235 21.81415224 100.875 23.75 C103.34257108 25.28159584 104.83269831 25.30322025 107.6875 24.875 C109.62404948 23.85529682 109.62404948 23.85529682 110.6875 21.875 C111.27083333 18.875 111.27083333 18.875 110.6875 15.875 C108.9765789 13.90401574 108.9765789 13.90401574 106.6875 12.875 C103.72217164 12.64632599 103.72217164 12.64632599 101.5 14 Z M-74.625 73.5625 C-76.56425242 75.74286978 -76.56425242 75.74286978 -76.3125 78.4375 C-75.09594185 81.4028605 -74.21673812 82.50355422 -71.3125 83.875 C-68.17490027 83.05324769 -66.60994125 82.17244125 -64.3125 79.875 C-64.40135 76.84155046 -64.40135 76.84155046 -65.3125 73.875 C-68.97857968 71.43094688 -70.95036562 70.88101005 -74.625 73.5625 Z M42.375 73.5625 C40.43574758 75.74286978 40.43574758 75.74286978 40.6875 78.4375 C41.90405815 81.4028605 42.78326188 82.50355422 45.6875 83.875 C48.82509973 83.05324769 50.39005875 82.17244125 52.6875 79.875 C52.59865 76.84155046 52.59865 76.84155046 51.6875 73.875 C48.02142032 71.43094688 46.04963438 70.88101005 42.375 73.5625 Z " fill="#FC5055" transform="translate(334.3125,343.125)"/>
<path d="M0 0 C2.04932547 1.56756183 2.89057735 2.4244228 3.37670618 4.98152286 C3.37752064 5.74264745 3.3783351 6.50377204 3.37917423 7.28796101 C3.38739738 8.16804964 3.39562052 9.04813828 3.40409285 9.95489627 C3.39788103 10.922584 3.39166922 11.89027173 3.38526917 12.88728333 C3.39050486 13.9146684 3.39574056 14.94205347 3.40113491 16.00057143 C3.41515777 19.45989003 3.40777924 22.91883888 3.40063477 26.37817383 C3.40637395 28.85161166 3.41345534 31.3250467 3.42178345 33.79847717 C3.43692664 39.13340578 3.44303271 44.46822976 3.44125557 49.80317116 C3.43887386 57.52315417 3.45485112 65.24301562 3.47570812 72.96296688 C3.50925423 85.4962171 3.53090217 98.02945646 3.54370117 110.56274414 C3.54447066 111.3131087 3.54524015 112.06347325 3.54603296 112.83657613 C3.54913514 115.87679823 3.55221796 118.91702035 3.555273 121.95724251 C3.56379823 130.32021188 3.57470017 138.68317747 3.58666992 147.04614258 C3.58827195 148.16895602 3.58827195 148.16895602 3.58990634 149.31445257 C3.60800077 161.79671049 3.63399557 174.27894259 3.66480106 186.76117533 C3.68335456 194.46099959 3.69427079 202.16076583 3.69532298 209.86061277 C3.69655719 215.76145274 3.70762404 221.66224744 3.72226334 227.5630703 C3.72654846 229.98422256 3.72739937 232.40538366 3.72458839 234.82653809 C3.72119438 238.12837099 3.72995507 241.42995716 3.74171448 244.73176575 C3.73773338 245.69276131 3.73375229 246.65375687 3.72965056 247.64387351 C3.7598377 252.41709387 3.83101976 256.63475528 6 261 C8.96915303 263.25701198 11.73954995 263.25026719 15.3894043 263.2515564 C16.48296234 263.25693924 17.57652039 263.26232208 18.70321655 263.26786804 C19.89814728 263.26374405 21.093078 263.25962006 22.32421875 263.25537109 C24.26155107 263.26092841 26.19888338 263.26649006 28.13621521 263.27221513 C30.21620132 263.27655271 32.29613968 263.27608601 34.37612915 263.27439499 C38.71265316 263.27156059 43.04901442 263.28591786 47.38549805 263.30337524 C59.71563281 263.35039223 72.04575613 263.37434824 84.37597656 263.38085938 C91.18808663 263.38460843 98.00001221 263.40262324 104.81204319 263.43595374 C109.12298801 263.45618312 113.43345755 263.45853112 117.74443054 263.44767356 C121.05498777 263.4444568 124.36527698 263.46715098 127.67578125 263.48583984 C129.46817734 263.47358116 129.46817734 263.47358116 131.29678345 263.46107483 C132.39034149 263.47209732 133.48389954 263.48311981 134.6105957 263.49447632 C136.03526909 263.49611062 136.03526909 263.49611062 137.48872375 263.49777794 C140.77467867 264.1549255 141.96466056 265.3834991 144 268 C144.67781459 272.14220027 144.55448777 274.15290711 142.24298096 277.6842041 C137.25437487 281.24654186 132.53643582 280.68180052 126.54980469 280.61523438 C125.28581345 280.62078339 124.0218222 280.6263324 122.7195282 280.63204956 C119.25829584 280.64628196 115.79785953 280.62924874 112.3367033 280.60576439 C108.70675175 280.58561884 105.0768321 280.59153717 101.44683838 280.59387207 C95.34707568 280.59381851 89.24762283 280.57407582 83.14794922 280.54199219 C76.1127752 280.50516588 69.07800795 280.49630771 62.04275012 280.5032897 C55.26012645 280.50961522 48.47764118 280.49879842 41.69504547 280.47932434 C38.81648015 280.47118522 35.93798594 280.46843436 33.0594101 280.47001648 C29.02865931 280.47106597 24.99843484 280.44678092 20.96777344 280.41992188 C19.7830394 280.42285248 18.59830536 280.42578308 17.37767029 280.42880249 C8.10816542 280.33379895 0.82399494 279.03045503 -6.39453125 272.98828125 C-11.66150524 266.46543512 -12.58332249 260.40602953 -12.5146637 252.1942749 C-12.52160922 251.12853815 -12.52855475 250.0628014 -12.53571075 248.9647696 C-12.55395824 245.40566009 -12.54372237 241.8472188 -12.53344727 238.28808594 C-12.54050661 235.73184715 -12.54925169 233.17561254 -12.55955505 230.61938477 C-12.57971641 224.40534167 -12.58107904 218.19154425 -12.57292951 211.9774811 C-12.56662285 206.92810754 -12.56777261 201.87878737 -12.57420158 196.82941437 C-12.57510324 196.11005926 -12.57600489 195.39070414 -12.57693387 194.64955039 C-12.5787851 193.18812558 -12.58064766 191.72670077 -12.58252143 190.26527599 C-12.5990846 176.57443861 -12.59039172 162.88370443 -12.57353585 149.19287327 C-12.55882417 136.66386575 -12.57349043 124.13509773 -12.60230602 111.60612103 C-12.63168293 98.73724106 -12.64267833 85.86847169 -12.63312382 72.99955964 C-12.63210126 71.54481397 -12.63110666 70.09006828 -12.6301403 68.63532257 C-12.62966391 67.91957665 -12.62918752 67.20383073 -12.6286967 66.46639554 C-12.62653117 61.4206671 -12.63634335 56.3750433 -12.65091133 51.32933807 C-12.67023251 44.54287411 -12.66338427 37.75692794 -12.63871193 30.97045898 C-12.6336857 28.47589595 -12.63724035 25.98129917 -12.64986038 23.486763 C-12.66569017 20.08991776 -12.65093387 16.69456403 -12.62818909 13.29779053 C-12.64002482 12.30325229 -12.65186054 11.30871406 -12.66405493 10.28403831 C-12.57345673 3.65647839 -12.57345673 3.65647839 -9.68730068 0.35248184 C-6.01814697 -1.49415326 -3.90795271 -1.08554242 0 0 Z " fill="#FA9723" transform="translate(12,202)"/>
<path d="M0 0 C20.74747967 4.93987611 38.60912249 16.57189214 49.9375 34.8125 C57.38681404 47.63508975 63.00956496 62.72562219 61.9375 77.8125 C60.28008431 81.32523177 59.20608925 82.6334405 55.9375 84.8125 C53.97793579 85.08665466 53.97793579 85.08665466 51.72900391 85.11889648 C50.88447662 85.13488388 50.03994934 85.15087128 49.16983032 85.16734314 C47.80572525 85.17538719 47.80572525 85.17538719 46.4140625 85.18359375 C45.47573578 85.19262222 44.53740906 85.2016507 43.57064819 85.21095276 C41.58521722 85.22546189 39.59973836 85.23434364 37.61425781 85.23803711 C34.58055804 85.24992921 31.54889513 85.29910415 28.515625 85.34960938 C26.58594742 85.35907418 24.65625736 85.36630894 22.7265625 85.37109375 C21.82120758 85.39062607 20.91585266 85.41015839 19.98306274 85.43028259 C15.46498941 85.39800873 13.55078464 85.28704572 9.87255859 82.44091797 C7.76858656 79.58306244 7.26103461 77.99316272 6.9375 74.5 C5.86081993 67.21772751 3.04411243 62.34367853 -2.5 57.5 C-7.2013571 54.16762044 -12.38507901 53.44123609 -17.98828125 52.55078125 C-21.22957882 51.77237561 -22.08955557 51.38035153 -24.0625 48.8125 C-24.45018005 46.73231506 -24.45018005 46.73231506 -24.46655273 44.31274414 C-24.47923691 43.40492691 -24.49192108 42.49710968 -24.50498962 41.56178284 C-24.50205399 40.58362106 -24.49911835 39.60545929 -24.49609375 38.59765625 C-24.5013356 37.59036972 -24.50657745 36.58308319 -24.51197815 35.54527283 C-24.51840334 33.41438723 -24.51705495 31.28346618 -24.50854492 29.15258789 C-24.50004118 25.89079624 -24.52878026 22.63075888 -24.56054688 19.36914062 C-24.5621591 17.29947969 -24.56158096 15.22981565 -24.55859375 13.16015625 C-24.56982773 12.18401871 -24.58106171 11.20788116 -24.59263611 10.2021637 C-24.52321237 3.46053365 -24.52321237 3.46053365 -22.20288086 0.19677734 C-16.14338881 -3.72215957 -6.67570694 -1.28920423 0 0 Z M-8.0625 15.8125 C-8.0625 23.0725 -8.0625 30.3325 -8.0625 37.8125 C-6.4125 38.34875 -4.7625 38.885 -3.0625 39.4375 C6.23110524 42.83759948 13.77833406 48.72470184 18.3828125 57.59765625 C20.08546563 61.28998118 21.65146566 64.95439699 22.9375 68.8125 C30.1975 68.8125 37.4575 68.8125 44.9375 68.8125 C42.38499457 52.00850591 34.71988921 37.73746484 21.25 27.1875 C12.53388986 20.83966296 2.88057615 15.8125 -8.0625 15.8125 Z " fill="#FD8231" transform="translate(177.0625,130.1875)"/>
<path d="M0 0 C1.21695053 -0.00571014 2.43390106 -0.01142029 3.68772888 -0.01730347 C5.03845205 -0.0185488 6.38917533 -0.0196739 7.73989868 -0.02069092 C9.16078317 -0.02531965 10.58166642 -0.03034438 12.00254822 -0.03573608 C15.86415291 -0.0488559 19.72574022 -0.0553041 23.58736372 -0.05974674 C25.99972868 -0.06267784 28.41208888 -0.0667827 30.82445145 -0.07125092 C38.37163629 -0.08492409 45.91881027 -0.0945919 53.46600664 -0.09845281 C62.17935292 -0.10293475 70.89254243 -0.12048967 79.60584104 -0.1494534 C86.34053443 -0.17106346 93.07518368 -0.18115671 99.80991137 -0.18249393 C103.83258822 -0.18354234 107.85511766 -0.18945802 111.87775803 -0.20731354 C115.66166839 -0.22378285 119.44532035 -0.2259554 123.22925377 -0.21717453 C124.61718754 -0.21640357 126.00513515 -0.22075476 127.39303398 -0.23063278 C129.28940561 -0.24333712 131.18588089 -0.23568925 133.08227539 -0.22705078 C134.14304983 -0.22851734 135.20382427 -0.2299839 136.29674339 -0.2314949 C139.60715407 0.19731091 141.49210761 1.17582487 144.16812134 3.14044189 C145.7139901 6.23217941 145.46171655 8.73473742 145.16812134 12.14044189 C143.05806186 14.96845932 141.86455786 16.01559835 138.36011505 16.64380646 C137.27022026 16.64531456 136.18032547 16.64682266 135.05740356 16.64837646 C133.80397659 16.65965576 132.55054962 16.67093506 131.25914001 16.68255615 C129.87267835 16.67477916 128.48621897 16.6665865 127.09976196 16.65802002 C125.63769331 16.66344094 124.17563011 16.67056344 122.71357727 16.67926025 C118.74452772 16.69750041 114.77589393 16.69042345 110.80683708 16.67774391 C106.65401968 16.66761973 102.50123798 16.67700796 98.34841919 16.68328857 C91.37435512 16.69056669 84.40046047 16.68097303 77.42642212 16.66192627 C69.3624236 16.64015712 61.29882959 16.64720838 53.23484087 16.66923189 C46.31242678 16.68738127 39.39013449 16.68994651 32.4677043 16.67947721 C28.33272642 16.6732397 24.1979387 16.67241362 20.06297302 16.68562317 C16.17552051 16.69717444 12.28858974 16.68916977 8.40119362 16.66604614 C6.97415343 16.66075509 5.54706937 16.66227968 4.12004662 16.6710968 C2.17299335 16.68201828 0.22584418 16.66589711 -1.72116089 16.64837646 C-2.81105568 16.64686836 -3.90095047 16.64536026 -5.02387238 16.64380646 C-8.52618267 16.01598062 -9.71289052 14.95688072 -11.83187866 12.14044189 C-12.30106549 8.38694728 -12.36324247 6.10195736 -10.51937866 2.76544189 C-7.38330796 -0.25447804 -4.13224481 0.01159604 0 0 Z " fill="#FD7A37" transform="translate(119.83187866210938,339.85955810546875)"/>
<path d="M0 0 C1.03779099 -0.00540298 2.07558197 -0.01080597 3.14482117 -0.01637268 C6.57795664 -0.02888798 10.01025811 -0.0123496 13.44335938 0.00561523 C15.82702682 0.00546031 18.21069451 0.00397247 20.59436035 0.00120544 C25.59117766 -0.00017981 30.58770837 0.0124011 35.58447266 0.03515625 C41.99400537 0.06354087 48.40306174 0.06080506 54.8126297 0.04806614 C59.73508787 0.04111585 64.65743568 0.04889088 69.57987976 0.06132317 C71.94341102 0.06584397 74.3069541 0.066169 76.67048645 0.06225777 C79.97197821 0.059352 83.27281028 0.07582296 86.57421875 0.09765625 C87.55408249 0.0931546 88.53394623 0.08865295 89.54350281 0.08401489 C90.89355156 0.09887184 90.89355156 0.09887184 92.27087402 0.11402893 C93.44113255 0.11767377 93.44113255 0.11767377 94.63503265 0.12139225 C97.39750626 0.60957881 98.76148559 1.58250491 100.78710938 3.50170898 C101.78710938 6.87670898 101.78710938 6.87670898 101.78710938 10.50170898 C100.02069765 13.30360344 98.75661116 15.01695809 95.78710938 16.50170898 C94.39214011 16.60172981 92.99256862 16.64107735 91.59403992 16.64888 C90.27552536 16.65961296 90.27552536 16.65961296 88.93037415 16.67056274 C87.96359238 16.67325165 86.99681061 16.67594055 86.00073242 16.67871094 C84.98434692 16.68528214 83.96796143 16.69185333 82.92077637 16.69862366 C79.54679293 16.71838493 76.17285405 16.73002512 72.79882812 16.73999023 C71.64848398 16.74406576 70.49813984 16.74814129 69.31293678 16.75234032 C63.22530928 16.77321239 57.1377044 16.78750962 51.05004883 16.796875 C44.75488731 16.80794623 38.4600786 16.84235147 32.16504192 16.8820467 C27.33093091 16.90816204 22.49690462 16.9165623 17.66272926 16.92015648 C15.34186226 16.925035 13.02099935 16.93668473 10.70020103 16.95519447 C7.45373762 16.97947885 4.2081959 16.97864023 0.96166992 16.97167969 C0.00096085 16.98448975 -0.95974823 16.9972998 -1.9495697 17.01049805 C-6.24370463 16.97689949 -8.58219359 16.88957994 -12.30949402 14.59733582 C-14.36331654 12.33609107 -14.87515389 11.50634372 -14.77539062 8.50170898 C-14.77667969 7.84170898 -14.77796875 7.18170898 -14.77929688 6.50170898 C-12.69481779 -0.85865854 -6.31936986 -0.06235099 0 0 Z " fill="#FD7A36" transform="translate(122.212890625,426.498291015625)"/>
<path d="M0 0 C1.1348156 -0.00810448 1.1348156 -0.00810448 2.29255676 -0.01637268 C4.78910642 -0.02886333 7.28450371 -0.01236928 9.78100586 0.00561523 C11.51688192 0.00546027 13.25275834 0.0039717 14.9886322 0.00120544 C18.62441323 -0.00017864 22.2597998 0.0123821 25.89550781 0.03515625 C30.55867138 0.06356224 35.22118058 0.06079804 39.88439274 0.04806614 C43.46774397 0.04111613 47.05094357 0.04889009 50.63427544 0.06132317 C52.35389055 0.06584279 54.0735219 0.06617001 55.7931385 0.06225777 C58.19446399 0.05935159 60.59488277 0.07582225 62.99609375 0.09765625 C63.70838135 0.0931546 64.42066895 0.08865295 65.15454102 0.08401489 C67.99604018 0.12700598 69.96197186 0.1767022 72.33958435 1.81602478 C74.20452846 4.69023092 74.37500694 7.11783407 74.43334961 10.50170898 C72.84150219 13.21374532 71.7400637 15.02715333 68.71859741 16.12445068 C65.64570207 16.63173715 62.67196564 16.64560992 59.55688477 16.6628418 C58.53170998 16.67028915 58.53170998 16.67028915 57.48582458 16.67788696 C55.23134341 16.69245739 52.97693258 16.69930164 50.72241211 16.70483398 C49.15066527 16.71058921 47.57891845 16.71634689 46.00717163 16.72210693 C42.71368077 16.73260204 39.42021421 16.7384546 36.12670898 16.74194336 C31.91454467 16.74742808 27.7027036 16.77146172 23.49064064 16.79991531 C20.2443448 16.81857309 16.99812639 16.82374894 13.75178146 16.82527924 C12.19929612 16.8282987 10.64681192 16.83630333 9.09437943 16.84946442 C6.91887293 16.86659291 4.74415079 16.86462871 2.56860352 16.8581543 C1.33268463 16.86179993 0.09676575 16.86544556 -1.17660522 16.86920166 C-4.93544122 16.46173078 -7.35570318 15.46852135 -10.56665039 13.50170898 C-12.11251915 10.40997147 -11.8602456 7.90741346 -11.56665039 4.50170898 C-8.42109879 0.03703608 -5.10409427 -0.06947595 0 0 Z " fill="#FD8032" transform="translate(119.566650390625,383.498291015625)"/>
<path d="M0 0 C1.18722656 -0.00064453 2.37445313 -0.00128906 3.59765625 -0.00195312 C4.83386719 0.01802734 6.07007813 0.03800781 7.34375 0.05859375 C8.57996094 0.05150391 9.81617188 0.04441406 11.08984375 0.03710938 C21.47029862 0.11036991 21.47029862 0.11036991 24.84375 3.49609375 C25.84375 6.87109375 25.84375 6.87109375 25.84375 10.49609375 C24.07733828 13.29798821 22.81325178 15.01134286 19.84375 16.49609375 C15.74570531 16.79305351 11.6387876 16.7741538 7.53125 16.80859375 C6.38978516 16.83759766 5.24832031 16.86660156 4.07226562 16.89648438 C-4.30196673 16.96011092 -4.30196673 16.96011092 -8.4140625 14.7265625 C-10.24258465 12.38556216 -10.81600887 11.42530193 -10.71875 8.49609375 C-10.72003906 7.83609375 -10.72132812 7.17609375 -10.72265625 6.49609375 C-9.15300856 0.95361362 -5.2396465 -0.00895067 0 0 Z " fill="#FC9127" transform="translate(63.15625,426.50390625)"/>
<path d="M0 0 C1.0415625 -0.020625 2.083125 -0.04125 3.15625 -0.0625 C12.80755258 -0.11186728 12.80755258 -0.11186728 16.625 3.25 C18.625 6.25 18.625 6.25 18.5 9.75 C17.625 13.25 17.625 13.25 15.95507812 14.94165039 C11.21368244 17.60396592 5.42817244 16.71791444 0.125 16.6875 C-1.72931641 16.7174707 -1.72931641 16.7174707 -3.62109375 16.74804688 C-4.80832031 16.74740234 -5.99554688 16.74675781 -7.21875 16.74609375 C-8.30349609 16.74794678 -9.38824219 16.7497998 -10.50585938 16.75170898 C-14.02538656 16.1362709 -15.19641345 15.02403887 -17.375 12.25 C-18.08382303 9.34215119 -17.71471789 7.307461 -17.375 4.25 C-13.5781204 -1.35491751 -5.98423235 0.02940655 0 0 Z " fill="#FB9524" transform="translate(70.375,339.75)"/>
<path d="M0 0 C1.8552832 -0.0009668 1.8552832 -0.0009668 3.74804688 -0.00195312 C5.03646484 0.01802734 6.32488281 0.03800781 7.65234375 0.05859375 C8.94462891 0.05150391 10.23691406 0.04441406 11.56835938 0.03710938 C21.03985338 0.10133964 21.03985338 0.10133964 23.42358398 1.81225586 C25.39416171 4.65736254 25.53104131 7.08555219 25.58984375 10.49609375 C23.95713536 13.27774508 22.86599231 15.06541684 19.74584961 16.1184082 C15.58048902 16.84808919 11.36969704 16.68071894 7.15234375 16.68359375 C6.21068359 16.69583984 5.26902344 16.70808594 4.29882812 16.72070312 C-4.45122057 16.73922828 -4.45122057 16.73922828 -8.41015625 14.49609375 C-10.9709339 11.9353161 -10.72466989 10.06726772 -10.87109375 6.56640625 C-9.58324121 0.78198382 -5.25140632 -0.00858866 0 0 Z " fill="#FC9326" transform="translate(63.41015625,383.50390625)"/>
<path d="M0 0 C4.0743356 0.84881992 5.54405875 2.30225596 8 5.625 C8.625 8.625 8.625 8.625 8 11.625 C5.54405875 14.94774404 4.0743356 16.40118008 0 17.25 C-4.0743356 16.40118008 -5.54405875 14.94774404 -8 11.625 C-8.625 8.625 -8.625 8.625 -8 5.625 C-5.54405875 2.30225596 -4.0743356 0.84881992 0 0 Z " fill="#FA9F1E" transform="translate(42,61.375)"/>
<path d="M0 0 C2.875 1.5 2.875 1.5 5 4 C5.71730941 6.8229596 5.71730941 9.1770404 5 12 C2.42627616 15.02791041 0.84753406 15.86162709 -3.0625 16.5 C-6.74049726 15.87395791 -7.84918889 15.02706748 -10 12 C-11.17590974 8.31548282 -11.33481338 6.71745725 -9.6875 3.1875 C-6.86805048 -0.46734197 -4.47107266 -0.43834046 0 0 Z " fill="#FB9921" transform="translate(113,62)"/>
<path d="M0 0 C2.875 1.5625 2.875 1.5625 5 4 C5.625 7.4375 5.625 7.4375 5 11 C2.52070473 14.4272611 1.14517131 15.81303325 -3.0625 16.5 C-6.39170557 15.93332671 -7.77834456 15.55078958 -10 13 C-11.10373378 9.02655839 -11.41543583 6.91000228 -9.6875 3.125 C-6.84166592 -0.45864292 -4.43603275 -0.43490517 0 0 Z " fill="#FA9E1E" transform="translate(79,62)"/>
</svg>
