<?xml version="1.0" encoding="UTF-8"?>
<svg version="1.1" xmlns="http://www.w3.org/2000/svg" width="512" height="512">
<path d="M0 0 C1.25490234 -0.02900391 2.50980469 -0.05800781 3.80273438 -0.08789062 C10.80497857 -0.13582595 16.57936055 -0.03248821 22.3125 4.3125 C24.37109375 6.34765625 24.37109375 6.34765625 25.75 8.375 C26.22308594 9.04660156 26.69617188 9.71820313 27.18359375 10.41015625 C29.64385548 14.55599521 29.62558204 18.81830222 29.875 23.5 C29.93977539 24.62438477 29.93977539 24.62438477 30.00585938 25.77148438 C30.11172685 27.61828375 30.2125976 29.46536834 30.3125 31.3125 C31.40949219 31.72242188 32.50648438 32.13234375 33.63671875 32.5546875 C35.09115686 33.09892886 36.54558333 33.64320133 38 34.1875 C38.72123047 34.45691406 39.44246094 34.72632813 40.18554688 35.00390625 C43.91196483 36.39918603 47.62574655 37.81452917 51.3125 39.3125 C51.88097656 38.69761719 52.44945312 38.08273438 53.03515625 37.44921875 C59.33836402 30.85137022 63.90290461 27.27324717 73.25 26.875 C80.62210699 26.72616877 85.95989472 29.85795978 91.26953125 34.73828125 C92.56513576 36.02340565 93.85024833 37.31918839 95.125 38.625 C96.10629883 39.5830957 96.10629883 39.5830957 97.10742188 40.56054688 C102.64572853 46.14411038 105.7390842 51.11773039 105.75 59.25 C105.45679732 68.6676702 101.60503071 73.5020694 94.921875 79.84375 C94.39078125 80.3284375 93.8596875 80.813125 93.3125 81.3125 C93.8075 82.405625 94.3025 83.49875 94.8125 84.625 C96.3125 88.3125 96.3125 88.3125 96.3125 91.3125 C90.0425 91.3125 83.7725 91.3125 77.3125 91.3125 C74.67174181 86.03098363 73.36173548 82.9728655 74.3125 77.3125 C76.79054165 71.38674823 80.72881302 67.77276223 85.484375 63.5234375 C87.4623637 61.45822615 87.4623637 61.45822615 87.90234375 58.90234375 C87.05126724 55.16549788 84.80001428 53.07199704 82.125 50.5 C81.40086914 49.74686523 81.40086914 49.74686523 80.66210938 48.97851562 C78.45043558 46.79652873 76.77892709 45.41873 73.72265625 44.72265625 C70.43376424 45.52755527 69.17983265 47.05303024 66.9375 49.5625 C62.46610377 54.26338842 58.8748925 57.952751 52.140625 58.6328125 C47.37556341 58.23410327 43.94967089 56.68634917 39.6875 54.625 C38.1003787 53.8823735 36.51182274 53.14280571 34.921875 52.40625 C33.75495117 51.86484375 33.75495117 51.86484375 32.56445312 51.3125 C28.44321847 49.48242875 24.18887199 48.04374076 19.9140625 46.61328125 C15.74753052 44.53001526 13.76615956 41.67347868 12.3125 37.3125 C12.16757877 35.90585074 12.06621069 34.4943867 11.99609375 33.08203125 C11.93325195 31.87836914 11.93325195 31.87836914 11.86914062 30.65039062 C11.82982422 29.81701172 11.79050781 28.98363281 11.75 28.125 C11.70681641 27.28001953 11.66363281 26.43503906 11.61914062 25.56445312 C11.51318482 23.48065567 11.4123498 21.39659897 11.3125 19.3125 C7.67461946 17.02063526 4.5506715 17.04454165 0.3125 17.0625 C-0.904375 17.05734375 -2.12125 17.0521875 -3.375 17.046875 C-6.44038791 17.29268441 -8.12412952 17.6975766 -10.6875 19.3125 C-10.72488281 20.54226562 -10.76226562 21.77203125 -10.80078125 23.0390625 C-10.86647028 24.67190401 -10.93291659 26.30471518 -11 27.9375 C-11.02255859 28.74574219 -11.04511719 29.55398437 -11.06835938 30.38671875 C-11.29052517 35.35515376 -11.79174293 39.10161232 -14.6875 43.3125 C-18.89447136 46.71814348 -23.3339375 48.49706165 -28.375 50.25 C-33.30150857 52.01274247 -38.04189548 53.8856151 -42.75 56.1875 C-46.94964461 58.12724617 -50.00129605 59.12357376 -54.6875 58.3125 C-57.34947746 57.21136073 -59.28788007 55.99223395 -61.6875 54.3125 C-62.0175 53.3225 -62.3475 52.3325 -62.6875 51.3125 C-64.01157669 50.62763275 -65.34659241 49.96379797 -66.6875 49.3125 C-67.6465625 48.260625 -67.6465625 48.260625 -68.625 47.1875 C-70.51814139 45.1313432 -70.51814139 45.1313432 -72.98828125 44.90625 C-76.792819 45.47885771 -78.26289552 47.22285653 -80.9375 49.9375 C-81.80890625 50.79601562 -82.6803125 51.65453125 -83.578125 52.5390625 C-85.96162526 55.67292396 -86.76591456 57.37608909 -86.6875 61.3125 C-84.99546321 63.73976792 -84.99546321 63.73976792 -82.5 65.75 C-77.46302793 70.44175903 -73.98632101 73.85783754 -73.3671875 81.015625 C-73.46102169 85.79677885 -75.19164327 89.32329155 -77.375 93.5 C-78.11869072 94.98492918 -78.85824338 96.47193765 -79.59375 97.9609375 C-79.9546875 98.69151367 -80.315625 99.42208984 -80.6875 100.17480469 C-82.58068267 104.22185241 -83.9811752 108.43744337 -85.38671875 112.67578125 C-86.97159297 115.88836413 -88.73324154 117.32938027 -91.6875 119.3125 C-94.34668166 120.19889389 -96.16814641 120.49239025 -98.91796875 120.62890625 C-99.72041016 120.67080078 -100.52285156 120.71269531 -101.34960938 120.75585938 C-102.18298828 120.79517578 -103.01636719 120.83449219 -103.875 120.875 C-104.71998047 120.91818359 -105.56496094 120.96136719 -106.43554688 121.00585938 C-108.51934433 121.11181518 -110.60340103 121.2126502 -112.6875 121.3125 C-114.97936474 124.95038054 -114.95545835 128.0743285 -114.9375 132.3125 C-114.94265625 133.529375 -114.9478125 134.74625 -114.953125 136 C-114.70731559 139.06538791 -114.3024234 140.74912952 -112.6875 143.3125 C-111.45773438 143.34988281 -110.22796875 143.38726562 -108.9609375 143.42578125 C-107.32809599 143.49147028 -105.69528482 143.55791659 -104.0625 143.625 C-102.85013672 143.65883789 -102.85013672 143.65883789 -101.61328125 143.69335938 C-96.64484624 143.91552517 -92.89838768 144.41674293 -88.6875 147.3125 C-85.26256523 151.53719672 -83.50146209 155.99598684 -81.75 161.0625 C-80.04657855 165.84564616 -78.26020828 170.34699254 -75.8125 174.8125 C-73.46811007 179.31221615 -73.00306196 182.26476945 -73.6875 187.3125 C-76.15467444 192.18478161 -79.72462342 195.31371681 -83.7265625 198.93359375 C-86.15946163 201.88505903 -86.76036996 203.48439813 -86.6875 207.3125 C-84.85822196 210.39527022 -84.85822196 210.39527022 -82.125 213.125 C-81.25746094 214.08019531 -80.38992187 215.03539062 -79.49609375 216.01953125 C-76.3731479 218.56914072 -74.70452968 219.3397896 -70.6875 219.3125 C-68.72079724 218.11594591 -68.72079724 218.11594591 -67.25 216.1875 C-62.0194047 210.46474803 -57.96763052 206.98253819 -50.07324219 206.27246094 C-46.12814763 206.33867006 -43.02998609 207.7201753 -39.5 209.375 C-38.02344689 210.02996908 -36.54688423 210.68491664 -35.0703125 211.33984375 C-34.33973633 211.67226074 -33.60916016 212.00467773 -32.85644531 212.34716797 C-30.79393557 213.26512874 -28.71788744 214.1152132 -26.6171875 214.94140625 C-25.98449951 215.19462646 -25.35181152 215.44784668 -24.69995117 215.70874023 C-22.98213366 216.3947182 -21.26260586 217.07640882 -19.54296875 217.7578125 C-15.30771111 220.06373937 -13.20295262 222.76614215 -11.6875 227.3125 C-11.54257877 228.71914926 -11.44121069 230.1306133 -11.37109375 231.54296875 C-11.32919922 232.34541016 -11.28730469 233.14785156 -11.24414062 233.97460938 C-11.20482422 234.80798828 -11.16550781 235.64136719 -11.125 236.5 C-11.06022461 237.7674707 -11.06022461 237.7674707 -10.99414062 239.06054688 C-10.88818482 241.14434433 -10.7873498 243.22840103 -10.6875 245.3125 C-7.04961946 247.60436474 -3.9256715 247.58045835 0.3125 247.5625 C1.529375 247.56765625 2.74625 247.5728125 4 247.578125 C7.06538791 247.33231559 8.74912952 246.9274234 11.3125 245.3125 C11.34988281 244.08273437 11.38726562 242.85296875 11.42578125 241.5859375 C11.49147028 239.95309599 11.55791659 238.32028482 11.625 236.6875 C11.65883789 235.47513672 11.65883789 235.47513672 11.69335938 234.23828125 C11.91552517 229.26984624 12.41674293 225.52338768 15.3125 221.3125 C19.53719672 217.88756523 23.99598684 216.12646209 29.0625 214.375 C33.84564616 212.67157855 38.34699254 210.88520828 42.8125 208.4375 C47.35954173 206.08400604 50.21089371 205.55980399 55.3125 206.3125 C61.27135161 208.8043834 64.80441278 212.7352764 69.00390625 217.58203125 C71.22861509 219.6069 71.22861509 219.6069 74.2890625 219.33203125 C79.63472879 217.52942285 82.88954339 213.66899023 86.3125 209.3125 C88.20888356 205.81276734 88.20888356 205.81276734 87.3125 202.3125 C85.49138849 200.26153946 83.55296322 198.63133146 81.390625 196.9453125 C77.91643071 194.21558842 75.70470963 191.48912888 74.3125 187.3125 C73.75045547 180.61840551 75.19492401 176.31355477 78.1875 170.375 C78.55230469 169.60865234 78.91710937 168.84230469 79.29296875 168.05273438 C82.01750951 162.45999524 82.01750951 162.45999524 84.3125 161.3125 C84.66441406 161.77140625 85.01632813 162.2303125 85.37890625 162.703125 C88.95794715 167.15122805 92.20722477 169.75986238 97.3125 172.3125 C95.9925 175.9425 94.6725 179.5725 93.3125 183.3125 C93.92738281 183.88097656 94.54226562 184.44945312 95.17578125 185.03515625 C101.77362978 191.33836402 105.35175283 195.90290461 105.75 205.25 C105.89883123 212.62210699 102.76704022 217.95989472 97.88671875 223.26953125 C96.60159435 224.56513576 95.30581161 225.85024833 94 227.125 C93.0419043 228.10629883 93.0419043 228.10629883 92.06445312 229.10742188 C86.28655516 234.83848784 81.25985481 237.73039616 72.875 237.8125 C64.36803841 237.58837616 60.19681226 234.26709489 54.3125 228.5 C53.30938757 227.44043797 52.30884751 226.37842584 51.3125 225.3125 C50.13171875 225.80621094 48.9509375 226.29992187 47.734375 226.80859375 C46.17714449 227.45587631 44.61984943 228.10300361 43.0625 228.75 C42.28519531 229.07548828 41.50789062 229.40097656 40.70703125 229.73632812 C39.57587891 230.20522461 39.57587891 230.20522461 38.421875 230.68359375 C37.38498535 231.1156311 37.38498535 231.1156311 36.32714844 231.55639648 C34.34058314 232.30196031 32.37943606 232.84034696 30.3125 233.3125 C30.28671875 234.3746875 30.2609375 235.436875 30.234375 236.53125 C29.6847857 252.18251706 29.6847857 252.18251706 25.3125 257.3125 C17.43989096 264.50260463 10.99657915 264.5463082 0.625 264.625 C-0.62990234 264.65400391 -1.88480469 264.68300781 -3.17773438 264.71289062 C-10.17997857 264.76082595 -15.95436055 264.65748821 -21.6875 260.3125 C-23.74609375 258.27734375 -23.74609375 258.27734375 -25.125 256.25 C-25.59808594 255.57839844 -26.07117188 254.90679687 -26.55859375 254.21484375 C-29.01885548 250.06900479 -29.00058204 245.80669778 -29.25 241.125 C-29.29318359 240.37541016 -29.33636719 239.62582031 -29.38085938 238.85351562 C-29.48672685 237.00671625 -29.5875976 235.15963166 -29.6875 233.3125 C-30.78449219 232.90257812 -31.88148437 232.49265625 -33.01171875 232.0703125 C-34.46615686 231.52607114 -35.92058333 230.98179867 -37.375 230.4375 C-38.09623047 230.16808594 -38.81746094 229.89867187 -39.56054688 229.62109375 C-43.28696483 228.22581397 -47.00074655 226.81047083 -50.6875 225.3125 C-51.26757812 225.92738281 -51.84765625 226.54226563 -52.4453125 227.17578125 C-59.95595888 234.94669756 -64.38922262 237.60997669 -75.2734375 237.80859375 C-83.53533009 236.60806702 -88.83000976 231.80814228 -94.5 226 C-95.15419922 225.36126953 -95.80839844 224.72253906 -96.48242188 224.06445312 C-102.21348784 218.28655516 -105.10539616 213.25985481 -105.1875 204.875 C-104.96337616 196.36803841 -101.64209489 192.19681226 -95.875 186.3125 C-94.81543797 185.30938757 -93.75342584 184.30884751 -92.6875 183.3125 C-93.42806641 181.54132813 -93.42806641 181.54132813 -94.18359375 179.734375 C-94.83087631 178.17714449 -95.47800361 176.61984943 -96.125 175.0625 C-96.45048828 174.28519531 -96.77597656 173.50789062 -97.11132812 172.70703125 C-97.42392578 171.95292969 -97.73652344 171.19882812 -98.05859375 170.421875 C-98.4906311 169.38498535 -98.4906311 169.38498535 -98.93139648 168.32714844 C-99.67696031 166.34058314 -100.21534696 164.37943606 -100.6875 162.3125 C-101.7496875 162.28671875 -102.811875 162.2609375 -103.90625 162.234375 C-119.55751706 161.6847857 -119.55751706 161.6847857 -124.6875 157.3125 C-131.87760463 149.43989096 -131.9213082 142.99657915 -132 132.625 C-132.02900391 131.37009766 -132.05800781 130.11519531 -132.08789062 128.82226562 C-132.13582595 121.82002143 -132.03248821 116.04563945 -127.6875 110.3125 C-125.65234375 108.25390625 -125.65234375 108.25390625 -123.625 106.875 C-122.95339844 106.40191406 -122.28179687 105.92882812 -121.58984375 105.44140625 C-117.44400479 102.98114452 -113.18169778 102.99941796 -108.5 102.75 C-107.75041016 102.70681641 -107.00082031 102.66363281 -106.22851562 102.61914062 C-104.38171625 102.51327315 -102.53463166 102.4124024 -100.6875 102.3125 C-100.27757813 101.21550781 -99.86765625 100.11851562 -99.4453125 98.98828125 C-98.90107114 97.53384314 -98.35679867 96.07941667 -97.8125 94.625 C-97.54308594 93.90376953 -97.27367187 93.18253906 -96.99609375 92.43945312 C-95.60081397 88.71303517 -94.18547083 84.99925345 -92.6875 81.3125 C-93.30238281 80.73242188 -93.91726562 80.15234375 -94.55078125 79.5546875 C-102.32169756 72.04404112 -104.98497669 67.61077738 -105.18359375 56.7265625 C-103.98306702 48.46466991 -99.18314228 43.16999024 -93.375 37.5 C-92.73626953 36.84580078 -92.09753906 36.19160156 -91.43945312 35.51757812 C-85.85588962 29.97927147 -80.88226961 26.8859158 -72.75 26.875 C-63.3323298 27.16820268 -58.4979306 31.01996929 -52.15625 37.703125 C-51.6715625 38.23421875 -51.186875 38.7653125 -50.6875 39.3125 C-48.91632813 38.57193359 -48.91632813 38.57193359 -47.109375 37.81640625 C-45.55214449 37.16912369 -43.99484943 36.52199639 -42.4375 35.875 C-41.66019531 35.54951172 -40.88289063 35.22402344 -40.08203125 34.88867188 C-38.95087891 34.41977539 -38.95087891 34.41977539 -37.796875 33.94140625 C-37.10561523 33.65338135 -36.41435547 33.36535645 -35.70214844 33.06860352 C-33.71558314 32.32303969 -31.75443606 31.78465304 -29.6875 31.3125 C-29.66171875 30.2503125 -29.6359375 29.188125 -29.609375 28.09375 C-29.0597857 12.44248294 -29.0597857 12.44248294 -24.6875 7.3125 C-16.81489096 0.12239537 -10.37157915 0.0786918 0 0 Z " fill="#FC892C" transform="translate(131.6875,123.6875)"/>
<path d="M0 0 C1.25490234 -0.02900391 2.50980469 -0.05800781 3.80273438 -0.08789062 C10.80497857 -0.13582595 16.57936055 -0.03248821 22.3125 4.3125 C24.37109375 6.34765625 24.37109375 6.34765625 25.75 8.375 C26.22308594 9.04660156 26.69617188 9.71820313 27.18359375 10.41015625 C29.64385548 14.55599521 29.62558204 18.81830222 29.875 23.5 C29.93977539 24.62438477 29.93977539 24.62438477 30.00585938 25.77148438 C30.11172685 27.61828375 30.2125976 29.46536834 30.3125 31.3125 C31.40949219 31.72242188 32.50648438 32.13234375 33.63671875 32.5546875 C35.09115686 33.09892886 36.54558333 33.64320133 38 34.1875 C38.72123047 34.45691406 39.44246094 34.72632813 40.18554688 35.00390625 C43.91196483 36.39918603 47.62574655 37.81452917 51.3125 39.3125 C51.88097656 38.69761719 52.44945312 38.08273438 53.03515625 37.44921875 C59.33836402 30.85137022 63.90290461 27.27324717 73.25 26.875 C80.62210699 26.72616877 85.95989472 29.85795978 91.26953125 34.73828125 C92.56513576 36.02340565 93.85024833 37.31918839 95.125 38.625 C96.10629883 39.5830957 96.10629883 39.5830957 97.10742188 40.56054688 C102.64572853 46.14411038 105.7390842 51.11773039 105.75 59.25 C105.45679732 68.6676702 101.60503071 73.5020694 94.921875 79.84375 C94.39078125 80.3284375 93.8596875 80.813125 93.3125 81.3125 C94.05306641 83.08367187 94.05306641 83.08367187 94.80859375 84.890625 C95.45587631 86.44785551 96.10300361 88.00515057 96.75 89.5625 C97.07548828 90.33980469 97.40097656 91.11710937 97.73632812 91.91796875 C98.04892578 92.67207031 98.36152344 93.42617187 98.68359375 94.203125 C98.97161865 94.89438477 99.25964355 95.58564453 99.55639648 96.29785156 C100.30196031 98.28441686 100.84034696 100.24556394 101.3125 102.3125 C102.3746875 102.33828125 103.436875 102.3640625 104.53125 102.390625 C120.18251706 102.9402143 120.18251706 102.9402143 125.3125 107.3125 C132.50260463 115.18510904 132.5463082 121.62842085 132.625 132 C132.65400391 133.25490234 132.68300781 134.50980469 132.71289062 135.80273438 C132.76082595 142.80497857 132.65748821 148.57936055 128.3125 154.3125 C126.27734375 156.37109375 126.27734375 156.37109375 124.25 157.75 C123.57839844 158.22308594 122.90679687 158.69617188 122.21484375 159.18359375 C118.06900479 161.64385548 113.80669778 161.62558204 109.125 161.875 C108.37541016 161.91818359 107.62582031 161.96136719 106.85351562 162.00585938 C105.00671625 162.11172685 103.15963166 162.2125976 101.3125 162.3125 C100.90257812 163.40949219 100.49265625 164.50648438 100.0703125 165.63671875 C99.52607114 167.09115686 98.98179867 168.54558333 98.4375 170 C98.03337891 171.0818457 98.03337891 171.0818457 97.62109375 172.18554688 C96.22581397 175.91196483 94.81047083 179.62574655 93.3125 183.3125 C93.92738281 183.88097656 94.54226563 184.44945312 95.17578125 185.03515625 C101.77362978 191.33836402 105.35175283 195.90290461 105.75 205.25 C105.89883123 212.62210699 102.76704022 217.95989472 97.88671875 223.26953125 C96.60159435 224.56513576 95.30581161 225.85024833 94 227.125 C93.0419043 228.10629883 93.0419043 228.10629883 92.06445312 229.10742188 C86.28655516 234.83848784 81.25985481 237.73039616 72.875 237.8125 C64.36803841 237.58837616 60.19681226 234.26709489 54.3125 228.5 C53.30938757 227.44043797 52.30884751 226.37842584 51.3125 225.3125 C50.13171875 225.80621094 48.9509375 226.29992187 47.734375 226.80859375 C46.17714449 227.45587631 44.61984943 228.10300361 43.0625 228.75 C42.28519531 229.07548828 41.50789062 229.40097656 40.70703125 229.73632812 C39.57587891 230.20522461 39.57587891 230.20522461 38.421875 230.68359375 C37.38498535 231.1156311 37.38498535 231.1156311 36.32714844 231.55639648 C34.34058314 232.30196031 32.37943606 232.84034696 30.3125 233.3125 C30.28671875 234.3746875 30.2609375 235.436875 30.234375 236.53125 C29.6847857 252.18251706 29.6847857 252.18251706 25.3125 257.3125 C17.43989096 264.50260463 10.99657915 264.5463082 0.625 264.625 C-1.25735352 264.66850586 -1.25735352 264.66850586 -3.17773438 264.71289062 C-10.17997857 264.76082595 -15.95436055 264.65748821 -21.6875 260.3125 C-23.74609375 258.27734375 -23.74609375 258.27734375 -25.125 256.25 C-25.59808594 255.57839844 -26.07117188 254.90679687 -26.55859375 254.21484375 C-29.01885548 250.06900479 -29.00058204 245.80669778 -29.25 241.125 C-29.29318359 240.37541016 -29.33636719 239.62582031 -29.38085938 238.85351562 C-29.48672685 237.00671625 -29.5875976 235.15963166 -29.6875 233.3125 C-30.78449219 232.90257812 -31.88148438 232.49265625 -33.01171875 232.0703125 C-34.46615686 231.52607114 -35.92058333 230.98179867 -37.375 230.4375 C-38.09623047 230.16808594 -38.81746094 229.89867187 -39.56054688 229.62109375 C-43.28696483 228.22581397 -47.00074655 226.81047083 -50.6875 225.3125 C-51.26757812 225.92738281 -51.84765625 226.54226563 -52.4453125 227.17578125 C-59.95595888 234.94669756 -64.38922262 237.60997669 -75.2734375 237.80859375 C-83.53533009 236.60806702 -88.83000976 231.80814228 -94.5 226 C-95.15419922 225.36126953 -95.80839844 224.72253906 -96.48242188 224.06445312 C-101.41134293 219.09525488 -104.25602128 215.01814076 -105.0859375 207.890625 C-105.07820313 206.79234375 -105.07046875 205.6940625 -105.0625 204.5625 C-105.07023437 203.45390625 -105.07796875 202.3453125 -105.0859375 201.203125 C-104.6875 198.3125 -104.6875 198.3125 -103.1640625 196.421875 C-102.67679687 196.05578125 -102.18953125 195.6896875 -101.6875 195.3125 C-100.73875 195.786875 -99.79 196.26125 -98.8125 196.75 C-94.2409533 198.74007782 -89.61861373 199.02476902 -84.6875 199.3125 C-85.2134375 200.116875 -85.2134375 200.116875 -85.75 200.9375 C-87.03060678 204.18170384 -86.65563147 205.98161595 -85.6875 209.3125 C-83.88066632 211.90530567 -83.88066632 211.90530567 -81.5 214.125 C-80.74332031 214.89457031 -79.98664063 215.66414062 -79.20703125 216.45703125 C-76.20234751 218.66978284 -74.42195161 219.34190513 -70.6875 219.3125 C-68.26023208 217.62046321 -68.26023208 217.62046321 -66.25 215.125 C-61.55824097 210.08802793 -58.14216246 206.61132101 -50.984375 205.9921875 C-46.20322115 206.08602169 -42.67670845 207.81664327 -38.5 210 C-37.01507082 210.74369072 -35.52806235 211.48324338 -34.0390625 212.21875 C-32.94319824 212.76015625 -32.94319824 212.76015625 -31.82519531 213.3125 C-27.77814759 215.20568267 -23.56255663 216.6061752 -19.32421875 218.01171875 C-16.11163587 219.59659297 -14.67061973 221.35824154 -12.6875 224.3125 C-11.80110611 226.97168166 -11.50760975 228.79314641 -11.37109375 231.54296875 C-11.32919922 232.34541016 -11.28730469 233.14785156 -11.24414062 233.97460938 C-11.20482422 234.80798828 -11.16550781 235.64136719 -11.125 236.5 C-11.06022461 237.7674707 -11.06022461 237.7674707 -10.99414062 239.06054688 C-10.88818482 241.14434433 -10.7873498 243.22840103 -10.6875 245.3125 C-7.04961946 247.60436474 -3.9256715 247.58045835 0.3125 247.5625 C2.1378125 247.57023437 2.1378125 247.57023437 4 247.578125 C7.06538791 247.33231559 8.74912952 246.9274234 11.3125 245.3125 C11.34988281 244.08273437 11.38726562 242.85296875 11.42578125 241.5859375 C11.49147028 239.95309599 11.55791659 238.32028482 11.625 236.6875 C11.64755859 235.87925781 11.67011719 235.07101562 11.69335938 234.23828125 C11.91552517 229.26984624 12.41674293 225.52338768 15.3125 221.3125 C19.53719672 217.88756523 23.99598684 216.12646209 29.0625 214.375 C33.84564616 212.67157855 38.34699254 210.88520828 42.8125 208.4375 C47.35954173 206.08400604 50.21089371 205.55980399 55.3125 206.3125 C61.27135161 208.8043834 64.80441278 212.7352764 69.00390625 217.58203125 C71.22861509 219.6069 71.22861509 219.6069 74.2890625 219.33203125 C79.63472879 217.52942285 82.88954339 213.66899023 86.3125 209.3125 C88.20888356 205.81276734 88.20888356 205.81276734 87.3125 202.3125 C85.49138849 200.26153946 83.55296322 198.63133146 81.390625 196.9453125 C77.91643071 194.21558842 75.70470963 191.48912888 74.3125 187.3125 C73.79457521 180.81427031 75.01333112 176.83842512 78 171.125 C78.74369072 169.64007082 79.48324338 168.15306235 80.21875 166.6640625 C80.5796875 165.93348633 80.940625 165.20291016 81.3125 164.45019531 C83.20568267 160.40314759 84.6061752 156.18755663 86.01171875 151.94921875 C87.59659297 148.73663587 89.35824154 147.29561973 92.3125 145.3125 C94.97168166 144.42610611 96.79314641 144.13260975 99.54296875 143.99609375 C100.74663086 143.93325195 100.74663086 143.93325195 101.97460938 143.86914062 C102.80798828 143.82982422 103.64136719 143.79050781 104.5 143.75 C105.7674707 143.68522461 105.7674707 143.68522461 107.06054688 143.61914062 C109.14434433 143.51318482 111.22840103 143.4123498 113.3125 143.3125 C115.60436474 139.67461946 115.58045835 136.5506715 115.5625 132.3125 C115.56765625 131.095625 115.5728125 129.87875 115.578125 128.625 C115.33231559 125.55961209 114.9274234 123.87587048 113.3125 121.3125 C112.08273437 121.27511719 110.85296875 121.23773438 109.5859375 121.19921875 C107.95309599 121.13352972 106.32028482 121.06708341 104.6875 121 C103.87925781 120.97744141 103.07101562 120.95488281 102.23828125 120.93164062 C97.26984624 120.70947483 93.52338768 120.20825707 89.3125 117.3125 C85.88756523 113.08780328 84.12646209 108.62901316 82.375 103.5625 C80.67157855 98.77935384 78.88520828 94.27800746 76.4375 89.8125 C74.08400604 85.26545827 73.55980399 82.41410629 74.3125 77.3125 C76.79054165 71.38674823 80.72881302 67.77276223 85.484375 63.5234375 C87.4623637 61.45822615 87.4623637 61.45822615 87.90234375 58.90234375 C87.05126724 55.16549788 84.80001428 53.07199704 82.125 50.5 C81.40086914 49.74686523 81.40086914 49.74686523 80.66210938 48.97851562 C78.45043558 46.79652873 76.77892709 45.41873 73.72265625 44.72265625 C70.43376424 45.52755527 69.17983265 47.05303024 66.9375 49.5625 C62.46610377 54.26338842 58.8748925 57.952751 52.140625 58.6328125 C47.37556341 58.23410327 43.94967089 56.68634917 39.6875 54.625 C38.1003787 53.8823735 36.51182274 53.14280571 34.921875 52.40625 C33.75495117 51.86484375 33.75495117 51.86484375 32.56445312 51.3125 C28.44321847 49.48242875 24.18887199 48.04374076 19.9140625 46.61328125 C15.74753052 44.53001526 13.76615956 41.67347868 12.3125 37.3125 C12.16757877 35.90585074 12.06621069 34.4943867 11.99609375 33.08203125 C11.95419922 32.27958984 11.91230469 31.47714844 11.86914062 30.65039062 C11.82982422 29.81701172 11.79050781 28.98363281 11.75 28.125 C11.70681641 27.28001953 11.66363281 26.43503906 11.61914062 25.56445312 C11.51318482 23.48065567 11.4123498 21.39659897 11.3125 19.3125 C7.67461946 17.02063526 4.5506715 17.04454165 0.3125 17.0625 C-1.5128125 17.05476563 -1.5128125 17.05476563 -3.375 17.046875 C-6.44038791 17.29268441 -8.12412952 17.6975766 -10.6875 19.3125 C-10.72488281 20.54226562 -10.76226562 21.77203125 -10.80078125 23.0390625 C-10.86647028 24.67190401 -10.93291659 26.30471518 -11 27.9375 C-11.02255859 28.74574219 -11.04511719 29.55398437 -11.06835938 30.38671875 C-11.29052517 35.35515376 -11.79174293 39.10161232 -14.6875 43.3125 C-18.89447136 46.71814348 -23.3339375 48.49706165 -28.375 50.25 C-33.30150857 52.01274247 -38.04189548 53.8856151 -42.75 56.1875 C-46.94964461 58.12724617 -50.00129605 59.12357376 -54.6875 58.3125 C-57.34947746 57.21136073 -59.28788007 55.99223395 -61.6875 54.3125 C-62.0175 53.3225 -62.3475 52.3325 -62.6875 51.3125 C-64.01157669 50.62763275 -65.34659241 49.96379797 -66.6875 49.3125 C-67.6465625 48.260625 -67.6465625 48.260625 -68.625 47.1875 C-70.51814139 45.1313432 -70.51814139 45.1313432 -72.98828125 44.90625 C-76.792819 45.47885771 -78.26289552 47.22285653 -80.9375 49.9375 C-81.80890625 50.79601562 -82.6803125 51.65453125 -83.578125 52.5390625 C-85.94296926 55.64839477 -86.58342142 57.43036911 -86.6875 61.3125 C-85.86407468 63.63230946 -85.86407468 63.63230946 -84.6875 65.3125 C-86.00814453 65.49425781 -86.00814453 65.49425781 -87.35546875 65.6796875 C-88.51691406 65.84726563 -89.67835938 66.01484375 -90.875 66.1875 C-92.02355469 66.34992188 -93.17210937 66.51234375 -94.35546875 66.6796875 C-97.37474625 67.25310245 -99.89325848 68.06009043 -102.6875 69.3125 C-105.01066215 65.82775678 -105.01412494 64.25139269 -105.0625 60.125 C-105.09085937 59.03832031 -105.11921875 57.95164063 -105.1484375 56.83203125 C-104.05714755 48.49938508 -99.21353105 43.19965618 -93.375 37.5 C-92.73626953 36.84580078 -92.09753906 36.19160156 -91.43945312 35.51757812 C-85.85588962 29.97927147 -80.88226961 26.8859158 -72.75 26.875 C-63.3323298 27.16820268 -58.4979306 31.01996929 -52.15625 37.703125 C-51.6715625 38.23421875 -51.186875 38.7653125 -50.6875 39.3125 C-49.50671875 38.81878906 -48.3259375 38.32507813 -47.109375 37.81640625 C-45.55214449 37.16912369 -43.99484943 36.52199639 -42.4375 35.875 C-41.66019531 35.54951172 -40.88289063 35.22402344 -40.08203125 34.88867188 C-38.95087891 34.41977539 -38.95087891 34.41977539 -37.796875 33.94140625 C-37.10561523 33.65338135 -36.41435547 33.36535645 -35.70214844 33.06860352 C-33.71558314 32.32303969 -31.75443606 31.78465304 -29.6875 31.3125 C-29.66171875 30.2503125 -29.6359375 29.188125 -29.609375 28.09375 C-29.0597857 12.44248294 -29.0597857 12.44248294 -24.6875 7.3125 C-16.81489096 0.12239537 -10.37157915 0.0786918 0 0 Z " fill="#F7495C" transform="translate(379.6875,123.6875)"/>
<path d="M0 0 C3.10546875 1.625 3.10546875 1.625 6.1875 4 C6.76862549 4.43860352 7.34975098 4.87720703 7.94848633 5.32910156 C9.25347208 6.31822125 10.55154019 7.31651248 11.84375 8.32226562 C14.18488643 10.14385638 16.54376393 11.94056785 18.90625 13.734375 C21.5666724 15.75569873 24.22540387 17.77901768 26.87841797 19.81005859 C34.4502775 25.60673014 42.10868597 31.27838864 49.80078125 36.9140625 C50.49381348 37.42356445 51.1868457 37.93306641 51.90087891 38.45800781 C53.3586843 39.52889626 54.8195214 40.59566497 56.28271484 41.65917969 C57.00797363 42.19188477 57.73323242 42.72458984 58.48046875 43.2734375 C59.13297607 43.74958496 59.7854834 44.22573242 60.45776367 44.71630859 C63.11777786 46.93039037 63.02624657 48.26684017 63.375 51.8125 C63.60526668 54.94533875 63.13189564 55.84236862 61.078125 58.296875 C57.09328734 61.9743752 52.70247499 65.18018459 48.375 68.4375 C47.44856689 69.13907227 46.52213379 69.84064453 45.56762695 70.56347656 C38.69984142 75.75187255 31.79202133 80.88552621 24.84228516 85.96362305 C21.02615871 88.75387876 17.23945395 91.57122734 13.50390625 94.46875 C12.42749878 95.29777832 12.42749878 95.29777832 11.3293457 96.14355469 C9.99159947 97.17706064 8.66012763 98.21876677 7.33666992 99.27050781 C3.39830377 102.3012387 -0.00511777 104.08966175 -5 105 C-10.52272727 102.95454545 -10.52272727 102.95454545 -12 100 C-12.08426094 98.3325394 -12.10725143 96.66174813 -12.09765625 94.9921875 C-12.09282227 93.51298828 -12.09282227 93.51298828 -12.08789062 92.00390625 C-12.07532227 90.45509766 -12.07532227 90.45509766 -12.0625 88.875 C-12.05798828 87.83472656 -12.05347656 86.79445313 -12.04882812 85.72265625 C-12.03701952 83.14838038 -12.02055075 80.57421854 -12 78 C-12.63004944 78.00888245 -13.26009888 78.01776489 -13.90924072 78.0269165 C-20.46267633 78.11536271 -27.0159426 78.17572306 -33.56982422 78.21972656 C-36.01618333 78.23985052 -38.46249429 78.2671526 -40.90869141 78.30175781 C-44.42362341 78.35023963 -47.93791984 78.37296128 -51.453125 78.390625 C-52.5480426 78.41127014 -53.64296021 78.43191528 -54.77105713 78.45318604 C-55.79181335 78.45348816 -56.81256958 78.45379028 -57.86425781 78.45410156 C-58.76138489 78.46298401 -59.65851196 78.47186646 -60.58282471 78.48101807 C-63.80905831 77.83899734 -64.9752201 76.54209829 -67 74 C-68 70.5625 -68 70.5625 -68 67 C-66.23358828 64.19810554 -64.96950178 62.48475089 -62 61 C-60.08657362 60.88837141 -58.16928334 60.84072828 -56.25268555 60.82299805 C-55.0477092 60.81016281 -53.84273285 60.79732758 -52.60124207 60.78410339 C-50.63880302 60.77302299 -50.63880302 60.77302299 -48.63671875 60.76171875 C-47.63935164 60.75560546 -47.63935164 60.75560546 -46.62183571 60.74936867 C-43.10181616 60.7285092 -39.58183557 60.71420759 -36.06176758 60.70483398 C-32.42999143 60.69377572 -28.79882905 60.6593834 -25.16726971 60.61966228 C-22.37137227 60.59348626 -19.57562078 60.5851413 -16.77961159 60.58155251 C-14.79151812 60.57432705 -12.80352446 60.54789122 -10.81559753 60.52116394 C-9.6011647 60.52408951 -8.38673187 60.52701508 -7.13549805 60.5300293 C-5.53571358 60.52122993 -5.53571358 60.52122993 -3.90361023 60.51225281 C-0.26021333 61.12426905 1.4002173 62.41849775 4 65 C4.92578125 68.015625 4.92578125 68.015625 5.3125 71.25 C5.45300781 72.32765625 5.59351563 73.4053125 5.73828125 74.515625 C5.86783203 75.74539063 5.86783203 75.74539063 6 77 C6.50225098 76.6282666 7.00450195 76.2565332 7.52197266 75.87353516 C9.88877833 74.12284347 12.25681593 72.37382665 14.625 70.625 C15.9095105 69.67512207 15.9095105 69.67512207 17.2199707 68.70605469 C21.24622599 65.73598323 25.28013584 62.78348702 29.37890625 59.9140625 C30.02714355 59.45950684 30.67538086 59.00495117 31.34326172 58.53662109 C32.5530929 57.69259007 33.76685619 56.85416169 34.98486328 56.02197266 C36.35838244 55.06311641 37.68529774 54.03803572 39 53 C39 52.34 39 51.68 39 51 C37.53710827 49.66611307 37.53710827 49.66611307 35.58984375 48.34765625 C34.85362793 47.82324951 34.11741211 47.29884277 33.35888672 46.75854492 C32.5598291 46.1988501 31.76077148 45.63915527 30.9375 45.0625 C29.29258023 43.8937758 27.64805584 42.72449493 26.00390625 41.5546875 C25.17004395 40.96397461 24.33618164 40.37326172 23.47705078 39.76464844 C19.74928191 37.10898971 16.06057667 34.40126468 12.375 31.6875 C11.73038818 31.2138501 11.08577637 30.7402002 10.42163086 30.25219727 C8.94726179 29.16880091 7.47354748 28.08451356 6 27 C5.87044922 28.22976562 5.87044922 28.22976562 5.73828125 29.484375 C5.59777344 30.56203125 5.45726562 31.6396875 5.3125 32.75 C5.18488281 33.81734375 5.05726563 34.8846875 4.92578125 35.984375 C3.71787381 39.91899334 2.50102252 40.85264364 -1 43 C-4.01142204 43.57542019 -6.96666517 43.54692945 -10.02539062 43.51757812 C-11.37506172 43.52809204 -11.37506172 43.52809204 -12.7519989 43.53881836 C-15.72039836 43.55639511 -18.68784117 43.54477664 -21.65625 43.53125 C-23.72221052 43.533945 -25.7881698 43.53782749 -27.85412598 43.54284668 C-32.18168222 43.5487413 -36.50890798 43.54017976 -40.83642578 43.52148438 C-46.38165849 43.49869505 -51.9261168 43.5118183 -57.47132111 43.53577423 C-61.73673327 43.55023305 -66.00196205 43.54562578 -70.26737976 43.53526306 C-72.31190584 43.53259602 -74.35644861 43.53586473 -76.4009552 43.54518127 C-79.25928813 43.55534807 -82.11636958 43.53984377 -84.97460938 43.51757812 C-85.81839645 43.52567505 -86.66218353 43.53377197 -87.53153992 43.54211426 C-91.5469247 43.48420987 -93.53875278 43.28897573 -97.02258301 41.10632324 C-99.27329885 38.70888501 -99.68054208 37.74365767 -99.625 34.5 C-99.63789063 33.7471875 -99.65078125 32.994375 -99.6640625 32.21875 C-98.65520365 28.84797455 -96.9398895 27.87406474 -94 26 C-91.16539997 25.63290788 -88.73104918 25.49162207 -85.9050293 25.54589844 C-85.10450638 25.54531433 -84.30398346 25.54473022 -83.47920227 25.54412842 C-80.8437605 25.54690626 -78.20946195 25.57798299 -75.57421875 25.609375 C-73.74291095 25.61683848 -71.91159514 25.62253091 -70.08027649 25.62652588 C-65.26815613 25.64177379 -60.45652127 25.68104831 -55.64459229 25.7253418 C-50.73122729 25.7663127 -45.81778358 25.78454078 -40.90429688 25.8046875 C-31.26931833 25.8475434 -21.63469959 25.91578452 -12 26 C-12.0314209 25.03175293 -12.0314209 25.03175293 -12.06347656 24.04394531 C-12.14674205 21.11278932 -12.19869206 18.18188223 -12.25 15.25 C-12.28351563 14.23421875 -12.31703125 13.2184375 -12.3515625 12.171875 C-12.45016684 4.67794495 -12.45016684 4.67794495 -10.22583008 1.328125 C-6.86551459 -0.67693327 -3.74288691 -0.70896916 0 0 Z " fill="#FD6048" transform="translate(295,204)"/>
<path d="M0 0 C11.00171874 8.3528298 17.4593679 19.39060514 20.43359375 32.84765625 C21.92487066 50.4035851 19.14291911 64.91571425 7.8125 78.83984375 C-1.17238213 88.53575971 -13.2217949 94.40512548 -26.3828125 95.2265625 C-42.97001743 95.81930048 -56.87234018 92.12915747 -69.31640625 80.59765625 C-80.94364262 68.07816194 -84.50791119 54.5903575 -83.9453125 37.921875 C-83.16139813 24.63956407 -77.35307493 12.54496923 -67.55859375 3.46875 C-47.92581178 -12.50694513 -21.11294613 -14.43279772 0 0 Z M-56.87890625 17.53515625 C-64.87152175 26.04551203 -67.06433523 35.45508675 -66.83203125 46.765625 C-66.34903241 57.09564433 -60.9752503 63.97586185 -53.56640625 70.84765625 C-44.35028692 77.98973057 -34.82826264 78.69948625 -23.56640625 77.84765625 C-14.49637022 76.03608069 -7.46405531 69.87717529 -1.8984375 62.6953125 C4.18896586 53.39461704 5.00179472 42.69918592 2.8515625 31.93359375 C-0.50848776 22.26769575 -8.45073874 14.28862247 -17.56640625 9.84765625 C-31.22597496 4.03507382 -46.13843784 7.5604248 -56.87890625 17.53515625 Z " fill="#FC872D" transform="translate(163.56640625,213.15234375)"/>
<path d="M0 0 C11.56417668 8.81338661 18.93330852 20.76585739 20.9609375 35.21484375 C22.35043816 49.45332242 19.89153045 62.95793634 11.24609375 74.65234375 C2.16565876 85.45122665 -9.38480833 93.74838872 -23.80639648 95.12158203 C-39.6282207 95.8919632 -52.59337478 93.73072831 -65.50390625 83.90234375 C-66.8634315 82.59572726 -68.20550307 81.26971522 -69.50390625 79.90234375 C-68.01197871 76.1222352 -65.91831432 74.40804676 -62.62890625 72.08984375 C-61.33339844 71.15205078 -61.33339844 71.15205078 -60.01171875 70.1953125 C-57.50390625 68.90234375 -57.50390625 68.90234375 -55.42578125 69.05078125 C-52.62926916 70.2898862 -50.22406886 71.93624157 -47.69921875 73.6484375 C-39.67987735 78.22887983 -29.47468901 78.09489956 -20.58984375 76.3203125 C-11.81073643 73.26852757 -4.63156738 66.76317769 -0.44140625 58.52734375 C3.47414161 49.74871331 4.29430861 38.7491311 1.05859375 29.52734375 C-3.50871954 20.02412697 -10.77549834 13.67780891 -20.50390625 9.90234375 C-28.90802803 7.10096982 -39.58446542 8.03639644 -47.52734375 11.7421875 C-49.73221485 12.96693525 -49.73221485 12.96693525 -52.31640625 15.21484375 C-54.50390625 16.90234375 -54.50390625 16.90234375 -56.80859375 16.76171875 C-60.13545146 15.70098151 -62.14921244 14.08028655 -64.81640625 11.83984375 C-65.69941406 11.10636719 -66.58242188 10.37289062 -67.4921875 9.6171875 C-68.15605469 9.05128906 -68.81992187 8.48539063 -69.50390625 7.90234375 C-66.16978156 0.15050384 -56.99778356 -4.09139151 -49.50390625 -7.09765625 C-32.66553122 -12.17223503 -14.53953821 -9.98142463 0 0 Z " fill="#FC495B" transform="translate(411.50390625,213.09765625)"/>
</svg>
