<?xml version="1.0" encoding="utf-8"?>
<!-- Generator: Adobe Illustrator 19.2.1, SVG Export Plug-In . SVG Version: 6.00 Build 0)  -->
<svg version="1.1" id="layer" xmlns="http://www.w3.org/2000/svg" xmlns:xlink="http://www.w3.org/1999/xlink" x="0px" y="0px"
	 viewBox="0 0 652 652" style="enable-background:new 0 0 652 652;" xml:space="preserve">
<style type="text/css">
	.st0{fill:#C70026;}
</style>
<g>
	<path d="M520.7,370h-15.4v-49.8c-3.3,4.5-6.6,9-10.1,13.3c-5.5,6.8-11,13.9-16.5,21.1l-2.4,3.1l-2.4-3.1
		c-5.1-6.6-10.1-13.2-15.2-19.8c-3.8-5-7.6-9.9-11.5-14.9V370h-15.4v-86.2h6.6l0.9,1.2c6.2,8.1,12.5,16.1,18.6,24.2
		c6.1,7.9,12.2,15.8,18.3,23.8c6.1-8,12.2-15.9,18.3-23.8c6.2-8,12.4-16.1,18.6-24.2l0.9-1.2h6.6V370z"/>
	<path d="M621,370h-15.4v-49.8c-3.3,4.5-6.7,9-10.1,13.3c-5.5,6.8-11,13.9-16.5,21.1l-2.4,3.1l-2.4-3.1
		c-5.1-6.6-10.1-13.2-15.2-19.8c-3.8-5-7.6-9.9-11.5-14.9V370h-15.4v-86.2h6.6l0.9,1.2c6.2,8.1,12.5,16.1,18.6,24.2
		c6.1,7.9,12.2,15.8,18.3,23.8c6.1-8,12.2-15.9,18.3-23.8c6.2-8,12.4-16.1,18.6-24.2l0.9-1.2h6.6V370z"/>
	<path class="st0" d="M371.9,323c-2.3,2.3-2.3,5.9,0,8.2c2.3,2.3,5.9,2.3,8.2,0c2.2-2.3,2.2-5.9,0-8.2
		C377.9,320.7,374.2,320.7,371.9,323"/>
	<path d="M89.2,296.7c-3.9-3.9-8.6-7.1-13.9-9.4c-10.7-4.6-23.4-4.6-33.8,0c-5.2,2.3-9.9,5.5-13.8,9.4c-3.9,4-7,8.6-9.3,13.9
		c-2.3,5.3-3.4,11-3.4,16.9c0,6,1.1,11.7,3.4,16.9c2.3,5.2,5.4,9.9,9.3,13.8c3.9,3.9,8.6,7,13.8,9.3c5.3,2.3,11,3.4,16.9,3.4
		c5.9,0,11.6-1.1,16.9-3.4c5.3-2.3,9.9-5.4,13.9-9.3c4-3.9,7.1-8.5,9.4-13.8c2.3-5.3,3.5-11,3.5-16.9c0-5.9-1.2-11.6-3.5-16.9
		C96.3,305.3,93.2,300.6,89.2,296.7 M84.5,338.6c-1.5,3.4-3.5,6.5-6,9c-2.6,2.6-5.6,4.6-9,6.1c-6.7,3-15.1,3-21.8,0
		c-3.4-1.5-6.4-3.6-9-6.1c-2.5-2.5-4.6-5.6-6-9c-1.4-3.4-2.2-7.2-2.2-11.1s0.7-7.7,2.2-11.1c1.5-3.4,3.5-6.5,6.1-9.1
		c2.5-2.6,5.6-4.7,9-6.1c3.4-1.5,7-2.2,10.9-2.2s7.5,0.8,10.9,2.2c3.4,1.5,6.4,3.6,9,6.1c2.5,2.6,4.6,5.6,6,9.1
		c1.5,3.4,2.2,7.2,2.2,11.1S85.9,335.1,84.5,338.6"/>
	<path d="M171.4,325.2c3.2-4.3,4.8-9.7,4.8-16c0-4.4-1.1-8.3-3.2-11.5c-2-3.1-4.6-5.6-7.7-7.5c-3-1.9-6.2-3.3-9.7-4.2
		c-3.4-0.8-6.5-1.3-9.3-1.3h-33.8V370h15.4v-35.3h16.8l16.7,35.3h16.9l-17.5-37.1C165.3,331.3,168.8,328.7,171.4,325.2 M160.2,312.8
		c-0.4,1.1-1,2.2-2,3.1c-1,1-2.4,1.9-4.2,2.6c-1.8,0.7-4.2,1.1-7.1,1.1h-18.9v-20h19c2,0,3.9,0.3,5.7,0.9c1.7,0.6,3.2,1.3,4.4,2.3
		c1.2,0.9,2.1,2,2.8,3.2c0.6,1.1,0.9,2.2,0.9,3.3C160.8,310.3,160.6,311.5,160.2,312.8"/>
	<path d="M247.3,331.4c-1.7-1.9-3.7-3.5-5.9-4.7c2-1.4,3.7-3.2,5-5.3c2.5-4,3.8-8.7,3.8-13.9c0-3.9-0.7-7.4-2.1-10.3
		c-1.4-3-3.4-5.4-6-7.3c-2.5-1.8-5.4-3.2-8.9-4c-3.3-0.8-6.9-1.2-10.8-1.2h-32.8V370h34.8c3.5,0,7-0.5,10.3-1.4
		c3.4-1,6.5-2.4,9.2-4.3c2.7-1.9,4.9-4.4,6.6-7.3c1.7-3,2.5-6.5,2.5-10.4c0-3.1-0.5-6-1.6-8.5C250.3,335.6,248.9,333.4,247.3,331.4
		 M204.9,299.7h18c3.7,0,6.7,0.8,8.9,2.3c1.9,1.3,2.8,3.6,2.8,7c0,3.2-1,5.8-3,7.7c-2,1.9-4.8,2.9-8.5,2.9h-18.3V299.7z
		 M236.5,349.3c-0.7,1.2-1.6,2.2-2.8,3.1c-1.2,0.9-2.7,1.5-4.4,2c-1.8,0.5-3.7,0.7-5.8,0.7h-18.6v-20.5h17c2.1,0,4.2,0.2,6.2,0.7
		c1.9,0.5,3.6,1.1,5,2c1.3,0.9,2.4,1.9,3.2,3.3c0.8,1.3,1.1,2.7,1.1,4.5C237.5,346.8,237.2,348.1,236.5,349.3"/>
	<path d="M286.3,307.2c2.6-2.6,5.5-4.7,8.9-6.2c3.3-1.5,7-2.2,10.8-2.2c2.6,0,5,0.3,7.3,1c2.3,0.7,4.6,1.7,6.7,2.9l2.5,1.4l1.6-2.4
		c0.8-1.2,1.6-2.5,2.5-3.7c0.9-1.3,1.8-2.6,2.7-3.9l1.7-2.6l-2.7-1.6c-3.3-1.9-6.8-3.4-10.5-4.5c-3.7-1.1-7.7-1.6-11.8-1.6
		c-6,0-11.7,1.2-16.9,3.5c-5.2,2.3-9.9,5.4-13.8,9.3c-3.9,3.9-7.1,8.6-9.3,13.9c-2.3,5.3-3.4,11-3.4,17c0,6,1.1,11.7,3.4,16.9
		c2.3,5.2,5.4,9.9,9.3,13.8c3.9,3.9,8.6,7,13.8,9.3c5.3,2.3,11,3.4,16.9,3.4c4.1,0,8.1-0.6,11.8-1.7c3.6-1.1,7.1-2.6,10.3-4.4
		l2.8-1.6l-8.5-12.5l-2.4,1.4c-4.3,2.5-9,3.8-14,3.8c-3.9,0-7.5-0.8-10.8-2.2c-3.4-1.5-6.4-3.6-8.9-6.1c-2.5-2.5-4.6-5.6-6-9.1
		c-1.5-3.5-2.2-7.2-2.2-11.1s0.7-7.6,2.2-11.1C281.7,312.9,283.7,309.8,286.3,307.2"/>
	<path class="st0" d="M406.6,296.7c-3.9-3.9-8.6-7.1-13.9-9.4c-5.2-2.3-10.9-3.4-16.6-3.4v15.1c3.8,0,7.4,0.8,10.7,2.2
		c3.4,1.5,6.4,3.6,9,6.1c2.5,2.6,4.6,5.6,6,9.1c1.5,3.4,2.2,7.2,2.2,11.1h15.4c0-5.9-1.2-11.6-3.5-16.9
		C413.7,305.3,410.6,300.6,406.6,296.7"/>
	<path class="st0" d="M376.1,304.7V316c2.8,0,5.6,1.1,7.7,3.2c2.3,2.3,3.3,5.2,3.2,8.2h11.8C398.9,314.9,388.7,304.7,376.1,304.7"/>
	<path d="M376.1,283.8C376.1,283.8,376.1,283.8,376.1,283.8l-0.1,15.1c0,0,0,0,0.1,0V283.8z"/>
	<path d="M403.4,333.7c-0.4,1.7-0.9,3.3-1.5,4.9c-1.5,3.4-3.5,6.5-6,9c-2.6,2.6-5.6,4.6-9,6.1c-6.7,3-15.1,3-21.8,0
		c-3.4-1.5-6.4-3.6-9-6.1c-2.6-2.5-4.6-5.6-6-9c-1.5-3.4-2.2-7.2-2.2-11.1c0-3.9,0.7-7.7,2.2-11.1c1.5-3.4,3.5-6.5,6.1-9.1
		c2.5-2.6,5.6-4.7,9-6.1c1.5-0.7,3.1-1.2,4.7-1.5v-15.3c-3.8,0.5-7.5,1.5-10.9,3c-5.2,2.3-9.9,5.5-13.8,9.4c-3.9,4-7,8.6-9.3,13.9
		c-2.3,5.3-3.4,11-3.4,16.9c0,6,1.2,11.7,3.4,16.9c2.3,5.2,5.4,9.9,9.3,13.8c3.9,3.9,8.6,7,13.8,9.3c5.3,2.3,11,3.4,16.9,3.4
		c5.9,0,11.6-1.1,16.9-3.4c5.3-2.3,9.9-5.4,13.9-9.3c4-3.9,7.1-8.6,9.4-13.8c1.5-3.4,2.4-7,3-10.7H403.4z"/>
	<path d="M629,284.6v5.2h-1v-5.2h-1.9v-0.8h4.7v0.8H629z M637.6,289.8v-5h0l-2,5H635l-2-5h0v5h-1v-6h1.5l1.8,4.5l1.8-4.5h1.5v6
		H637.6z"/>
</g>
</svg>
