<?xml version="1.0" encoding="UTF-8"?>
<svg version="1.1" xmlns="http://www.w3.org/2000/svg" width="512" height="512">
<path d="M0 0 C9.03439568 4.90757296 13.8673114 11.88801614 17.53125 21.375 C19.72320933 30.38341821 18.58585205 38.62679433 14.2421875 46.80078125 C9.76538559 53.92296611 4.3579214 59.09871895 -3.46875 62.375 C-4.12875 62.375 -4.78875 62.375 -5.46875 62.375 C-5.46875 86.795 -5.46875 111.215 -5.46875 136.375 C3.77125 136.375 13.01125 136.375 22.53125 136.375 C22.20125 135.385 21.87125 134.395 21.53125 133.375 C20.09870895 121.52622577 19.38330013 109.4328952 19.15625 97.5 C19.12789063 96.20320313 19.09953125 94.90640625 19.0703125 93.5703125 C19.53125 90.375 19.53125 90.375 21.1796875 87.9921875 C25.90982993 84.7392324 30.23965252 85.31401878 35.65625 86.3125 C68.66231669 91.39497145 102.27245835 85.1077033 129.91796875 66.11328125 C139.86851539 58.81281617 148.6734605 50.36592108 157.28125 41.5625 C159.84719915 39.06782721 160.7531771 38.46341738 164.28125 38.0625 C170.67431388 38.67721768 174.63207782 43.32045601 178.84375 47.8125 C190.38960288 59.6848091 203.82242382 68.87428169 218.53125 76.375 C219.47097656 76.86484375 220.41070312 77.3546875 221.37890625 77.859375 C244.78205673 89.29620872 270.18338885 90.35754042 295.4855957 86.17895508 C301.07133462 85.33390783 304.71465335 84.8670928 309.53125 88.375 C314.85691566 96.36349848 310.93992359 111.27602949 310.03125 120.625 C309.88620808 122.16010809 309.74167352 123.6952642 309.59765625 125.23046875 C309.24894811 128.94601413 308.88990597 132.66034886 308.53125 136.375 C318.43125 136.375 328.33125 136.375 338.53125 136.375 C338.53125 111.955 338.53125 87.535 338.53125 62.375 C336.55125 61.715 334.57125 61.055 332.53125 60.375 C324.02555096 55.25740441 318.11726223 47.99356132 315.53125 38.375 C314.74158771 29.51425455 314.58292816 21.09128937 319.53125 13.375 C319.94375 12.68019531 320.35625 11.98539063 320.78125 11.26953125 C325.65327562 3.89228792 333.10706526 -0.31019892 341.53125 -2.625 C353.33243726 -3.69028889 362.26331955 -2.25160595 371.453125 5.34765625 C377.91671584 11.6533022 381.70564202 18.96959432 381.91186523 28.08398438 C381.88220222 38.86584371 379.99990874 46.62523086 372.4609375 54.6171875 C367.86019643 58.80814596 363.63780714 61.2359043 357.53125 62.375 C357.54235306 63.45383957 357.55345612 64.53267914 357.56489563 65.64421082 C357.66625548 75.81141564 357.74120769 85.97851795 357.79031086 96.1461134 C357.81640415 101.37342067 357.85179768 106.60032006 357.90844727 111.82739258 C357.96277605 116.87189555 357.99267255 121.91600623 358.00563622 126.96077919 C358.01487451 128.88535043 358.03291495 130.80990021 358.05990028 132.73430443 C358.09620246 135.43035643 358.10119492 138.12478782 358.09887695 140.82104492 C358.11685333 141.61658279 358.13482971 142.41212067 358.15335083 143.23176575 C358.11642414 147.20150718 357.69272884 149.15841666 355.29516602 152.37414551 C352.39212273 154.47571703 351.25005085 154.99096144 347.7409668 154.94262695 C346.36010139 154.94206047 346.36010139 154.94206047 344.95133972 154.94148254 C343.9709523 154.91567612 342.99056488 154.88986969 341.98046875 154.86328125 C340.96652542 154.85620651 339.95258209 154.84913177 338.90791321 154.84184265 C335.6774337 154.81391012 332.44870339 154.75117162 329.21875 154.6875 C327.0254157 154.66241575 324.83205416 154.63960281 322.63867188 154.61914062 C317.26893698 154.56408755 311.90021846 154.48047273 306.53125 154.375 C306.416604 155.56601318 306.30195801 156.75702637 306.18383789 157.98413086 C305.15347589 168.38904157 303.80955384 178.6410156 301.96875 188.9375 C301.63713867 190.85852539 301.63713867 190.85852539 301.29882812 192.81835938 C299.67179847 202.09390306 299.67179847 202.09390306 298.53125 204.375 C317.67125 204.375 336.81125 204.375 356.53125 204.375 C358.01625 199.92 358.01625 199.92 359.53125 195.375 C364.0470428 188.38675957 370.44319167 183.43536908 378.3203125 180.76953125 C387.71756291 179.09263674 398.2736649 179.26795695 406.53125 184.375 C413.80488642 189.55541951 419.91648045 196.32589541 421.53125 205.375 C422.30549986 216.87451438 421.83298465 226.20727684 414.46875 235.625 C408.7108849 241.76921536 400.83355523 245.96764406 392.4296875 246.61328125 C381.78887113 246.83742261 373.76420964 244.90480766 365.35546875 238.21875 C360.9460488 233.76211998 358.0417468 228.41698721 356.53125 222.375 C325.84125 222.87 325.84125 222.87 294.53125 223.375 C291.58970521 232.43374861 291.58970521 232.43374861 288.66992188 241.49951172 C285.28777481 251.77722992 281.06586089 261.55617347 276.53125 271.375 C277.90521187 271.36500725 277.90521187 271.36500725 279.30693054 271.35481262 C287.94372167 271.29467432 296.58044237 271.24901172 305.21739483 271.21956348 C309.65763476 271.20391483 314.09770152 271.18269123 318.5378418 271.14868164 C322.82371025 271.11605956 327.10941224 271.09814096 331.39539528 271.09036827 C333.02965731 271.08482987 334.66391035 271.07401465 336.29810143 271.05780983 C338.58915186 271.03599728 340.87951654 271.03303461 343.1706543 271.03442383 C344.47415329 271.02776199 345.77765228 271.02110016 347.12065125 271.01423645 C350.79049074 271.40242176 352.62804166 272.14061222 355.53125 274.375 C358.133951 278.2790515 357.79703882 281.54300799 357.75830078 286.0690918 C357.75859283 286.9571048 357.75888489 287.8451178 357.75918579 288.76004028 C357.75779132 291.69819882 357.74222457 294.63610446 357.7265625 297.57421875 C357.72283279 299.61017213 357.71998562 301.64612731 357.71798706 303.68208313 C357.71034733 309.04315132 357.69069587 314.40411131 357.6685791 319.76513672 C357.64812803 325.23468563 357.63898692 330.70425201 357.62890625 336.17382812 C357.60745034 346.90759965 357.57331025 357.64129083 357.53125 368.375 C358.15247742 368.57366165 358.77370483 368.7723233 359.41375732 368.977005 C360.63352264 369.37377693 360.63352264 369.37377693 361.87792969 369.77856445 C362.6847821 370.0391011 363.49163452 370.29963776 364.32293701 370.56806946 C371.42597587 373.16356159 376.27510967 379.80998831 379.53125 386.375 C383.01521393 394.67015222 382.97979611 405.90404507 379.62890625 414.2890625 C374.98907286 423.10639712 368.43839082 428.82682161 359.34375 432.75 C348.12925063 434.58844252 338.75914973 433.95035319 329.09375 427.83203125 C321.96867327 422.71088235 317.86481769 416.83290908 315.53125 408.375 C314.74224705 399.52165298 314.5742413 391.08075496 319.53125 383.375 C319.95535156 382.68019531 320.37945312 381.98539062 320.81640625 381.26953125 C325.16317394 374.81597365 330.94815939 370.27077265 338.53125 368.375 C338.53125 342.635 338.53125 316.895 338.53125 290.375 C326.6925 290.271875 314.85375 290.16875 302.65625 290.0625 C298.93617676 289.99635498 295.21610352 289.93020996 291.38330078 289.86206055 C288.01044091 289.86520979 288.01044091 289.86520979 284.63766479 289.88557434 C283.1504255 289.88636191 281.66302733 289.86183312 280.17648315 289.81636047 C271.56846295 289.38646203 271.56846295 289.38646203 263.88940048 292.65686989 C260.48926149 296.1812513 258.04390783 300.19556124 255.53125 304.375 C254.4547684 305.74952982 253.35650088 307.10827246 252.2109375 308.42578125 C251.74292725 308.97468018 251.27491699 309.5235791 250.79272461 310.08911133 C250.33518799 310.61657959 249.87765137 311.14404785 249.40625 311.6875 C248.90037354 312.27233154 248.39449707 312.85716309 247.87329102 313.4597168 C228.56445974 335.60907667 203.3634813 351.78115866 176.53125 363.375 C175.88559082 363.67937988 175.23993164 363.98375977 174.57470703 364.29736328 C167.5927157 367.34433258 161.79716364 366.36343446 154.796875 363.73046875 C153.11776897 363.02477687 151.44608628 362.30122743 149.78125 361.5625 C148.87729492 361.16579102 147.97333984 360.76908203 147.04199219 360.36035156 C116.66332953 346.68942797 90.17816798 326.08007948 70.34375 299.25 C69.86147949 298.59797607 69.37920898 297.94595215 68.88232422 297.27416992 C65.53125 292.63218867 65.53125 292.63218867 65.53125 290.375 C42.10125 290.375 18.67125 290.375 -5.46875 290.375 C-5.46875 316.115 -5.46875 341.855 -5.46875 368.375 C-3.15875 369.035 -0.84875 369.695 1.53125 370.375 C9.54740792 374.67188606 14.46801258 381.97844743 17.53125 390.375 C19.84562758 400.7896991 18.46984577 410.07496128 12.78125 419.125 C7.17948847 426.8907672 0.96262496 431.23801757 -8.46875 433.375 C-19.00891343 434.67131895 -28.21824049 433.06548218 -36.81640625 426.61328125 C-43.75028509 420.2237443 -47.81656045 412.23902777 -48.70703125 402.8671875 C-48.98161053 393.18465515 -46.38673748 384.74338049 -40.2421875 377.1640625 C-35.63004159 372.51128094 -30.90010695 369.545487 -24.46875 368.375 C-24.47874275 366.7003643 -24.47874275 366.7003643 -24.48893738 364.99189758 C-24.54974844 354.47144257 -24.59472267 343.95102321 -24.62418652 333.43043232 C-24.63984339 328.02166227 -24.66108226 322.6130341 -24.69506836 317.2043457 C-24.72766073 311.98480522 -24.74560285 306.76540122 -24.75338173 301.54576683 C-24.75892543 299.55425048 -24.76975088 297.56274161 -24.78594017 295.57128334 C-24.80771267 292.78213983 -24.81071698 289.99356051 -24.80932617 287.2043457 C-24.820112 286.38075562 -24.83089783 285.55716553 -24.8420105 284.70861816 C-24.81742763 280.15358418 -24.57689197 276.97238924 -21.46875 273.375 C-17.56174691 271.13092962 -13.91892627 271.10419109 -9.4753418 271.05615234 C-8.79186172 271.04610672 -8.10838165 271.0360611 -7.40419006 271.02571106 C-5.15879103 270.99497095 -2.91351074 270.97786986 -0.66796875 270.9609375 C0.89431269 270.94221843 2.45658411 270.92264446 4.0188446 270.9022522 C8.12047401 270.85100291 12.22213616 270.81133879 16.32391357 270.77410889 C20.51355036 270.73402395 24.70305174 270.68295213 28.89257812 270.6328125 C37.10537613 270.53613856 45.31824135 270.45170665 53.53125 270.375 C53.28250626 269.80758087 53.03376251 269.24016174 52.77748108 268.6555481 C48.10788302 257.97154448 43.53032004 247.36209853 39.96875 236.25 C39.62779297 235.22519531 39.28683594 234.20039063 38.93554688 233.14453125 C36.53125 225.8010249 36.53125 225.8010249 36.53125 222.375 C16.07125 222.375 -4.38875 222.375 -25.46875 222.375 C-26.12875 224.355 -26.78875 226.335 -27.46875 228.375 C-31.03716122 235.39482535 -35.57420306 239.67259269 -42.46875 243.375 C-43.08363281 243.7153125 -43.69851562 244.055625 -44.33203125 244.40625 C-51.33298736 247.64437959 -59.93861625 247.47641988 -67.3125 245.68359375 C-76.86092725 242.16187444 -83.73674927 236.41703961 -88.46875 227.375 C-91.81129795 219.17888928 -91.9352792 208.29891196 -88.96875 199.9375 C-84.83388082 191.31956214 -78.25316946 185.07370293 -69.46875 181.375 C-61.23503513 178.58848078 -49.48654784 179.24837511 -41.7109375 182.9921875 C-33.81049521 187.86458571 -28.706029 193.62295928 -25.46875 202.375 C-25.46875 203.035 -25.46875 203.695 -25.46875 204.375 C-6.65875 204.375 12.15125 204.375 31.53125 204.375 C30.21125 197.445 28.89125 190.515 27.53125 183.375 C26.9041485 179.41115694 26.29867515 175.47504259 25.78125 171.5 C25.65621094 170.60410156 25.53117187 169.70820313 25.40234375 168.78515625 C24.75206496 163.93307608 24.48188024 159.28130706 24.53125 154.375 C23.21930664 154.39594727 21.90736328 154.41689453 20.55566406 154.43847656 C15.68793656 154.5108797 10.82025665 154.55680113 5.95214844 154.59472656 C3.84529618 154.61484126 1.73849975 154.64213667 -0.36816406 154.67675781 C-3.39662447 154.72528168 -6.42434678 154.74797016 -9.453125 154.765625 C-10.86582672 154.79659271 -10.86582672 154.79659271 -12.30706787 154.82818604 C-18.85409212 154.83043222 -18.85409212 154.83043222 -22.03222656 152.47558594 C-24.81143265 148.41163469 -24.60388075 145.04272735 -24.58227539 140.25341797 C-24.58242142 139.41431885 -24.58256744 138.57521973 -24.5827179 137.71069336 C-24.58201968 134.92949869 -24.57423155 132.14837051 -24.56640625 129.3671875 C-24.56454175 127.44190508 -24.563118 125.51662218 -24.56211853 123.59133911 C-24.55829591 118.5179921 -24.54846779 113.44467361 -24.53741455 108.37133789 C-24.52719495 103.19678127 -24.52261973 98.02222005 -24.51757812 92.84765625 C-24.50684531 82.69009162 -24.48977193 72.53254818 -24.46875 62.375 C-25.573396 62.07335937 -26.67804199 61.77171875 -27.81616211 61.4609375 C-36.11649263 58.9931967 -41.27494626 53.2294274 -45.31640625 45.7734375 C-49.44425578 37.18191339 -49.8536035 27.848546 -47.03125 18.75 C-43.23450089 9.53122672 -36.65408066 3.23861574 -27.6328125 -0.78515625 C-18.77593044 -4.22239387 -8.7210673 -3.6936285 0 0 Z M-25.46875 19.375 C-28.6919997 23.1767817 -30.36851727 26.36336369 -30.46875 31.375 C-29.53893138 35.90786578 -27.9345153 38.85378645 -24.84375 42.3125 C-20.62697773 44.88941639 -17.39522156 45.78345534 -12.46875 45.375 C-7.90815806 44.14436408 -4.57252964 42.10832605 -1.96875 38.125 C-0.00162218 34.02388976 0.10348655 30.88136279 -0.46875 26.375 C-2.71671458 22.04558673 -5.30235586 18.93165095 -9.46875 16.375 C-15.87251231 14.69532464 -20.10183048 15.41228559 -25.46875 19.375 Z M338.53125 19.375 C335.3080003 23.1767817 333.63148273 26.36336369 333.53125 31.375 C334.46106862 35.90786578 336.0654847 38.85378645 339.15625 42.3125 C343.37302227 44.88941639 346.60477844 45.78345534 351.53125 45.375 C356.09184194 44.14436408 359.42747036 42.10832605 362.03125 38.125 C363.99837782 34.02388976 364.10348655 30.88136279 363.53125 26.375 C361.28328542 22.04558673 358.69764414 18.93165095 354.53125 16.375 C348.12748769 14.69532464 343.89816952 15.41228559 338.53125 19.375 Z M164.53125 61.375 C163.75523437 62.19742188 162.97921875 63.01984375 162.1796875 63.8671875 C136.43907485 90.66436298 101.13205627 105.65139568 63.9375 106.45239258 C60.07238381 106.47287296 56.20883 106.46258539 52.34375 106.4375 C50.99674648 106.43246963 49.64974111 106.42790947 48.30273438 106.42382812 C45.04552463 106.41215354 41.78841222 106.39577883 38.53125 106.375 C40.27774973 170.2095651 49.88739509 247.82503467 93.53125 297.375 C94.29566406 298.24898437 95.06007812 299.12296875 95.84765625 300.0234375 C109.60794567 315.52995654 125.22544272 327.63062928 143.53125 337.375 C144.75207275 338.02637939 144.75207275 338.02637939 145.99755859 338.69091797 C148.51506574 340.01269374 151.04868735 341.29469188 153.59375 342.5625 C154.36702637 342.96178711 155.14030273 343.36107422 155.93701172 343.77246094 C161.13567452 346.26989089 164.94326754 347.0281615 170.53125 345.375 C173.14215922 344.39296499 175.57232584 343.18805113 178.03125 341.875 C179.05665894 341.34205322 179.05665894 341.34205322 180.1027832 340.79833984 C182.25359847 339.67166378 184.39257801 338.5245301 186.53125 337.375 C187.21880371 337.0130957 187.90635742 336.65119141 188.61474609 336.27832031 C202.42337805 328.99471849 214.18355019 320.12545246 225.53125 309.375 C226.48773438 308.48296875 227.44421875 307.5909375 228.4296875 306.671875 C240.99830089 294.71289524 250.29062844 280.56699028 258.53125 265.375 C258.87752441 264.73997559 259.22379883 264.10495117 259.58056641 263.45068359 C284.53384811 216.69521719 289.44028807 158.4845864 292.53125 106.375 C291.56525879 106.39071045 290.59926758 106.4064209 289.60400391 106.42260742 C252.42673714 106.97289674 252.42673714 106.97289674 239.53125 103.375 C238.62439453 103.12218262 237.71753906 102.86936523 236.78320312 102.60888672 C212.40802415 95.56654839 189.96690371 83.94504684 171.609375 66.21484375 C169.39369592 64.2532181 167.10713669 62.82055879 164.53125 61.375 Z M-68.46875 202.375 C-71.54829807 206.28399655 -72.80799006 210.02706498 -72.53125 215 C-71.73351159 219.58107204 -69.93369464 222.21135489 -66.46875 225.375 C-62.34558434 227.91233272 -59.53537144 228.67756641 -54.84375 227.8125 C-49.36356436 226.26537276 -46.47115402 224.1125003 -43.59375 219.125 C-42.28108121 214.74943735 -41.93422573 211.69879767 -43.46875 207.375 C-45.71661805 203.75855613 -48.23688359 201.10148532 -51.90625 198.9375 C-58.24568875 197.54591588 -63.45677329 197.98178584 -68.46875 202.375 Z M376.71875 204.0625 C374.14439905 207.96080287 373.09495498 210.7153692 373.53125 215.375 C374.85901909 219.88285801 376.79569828 222.73752184 380.34375 225.8125 C384.54845552 227.87363016 387.97886007 229.18908309 392.61328125 227.7109375 C396.94865057 225.73227173 400.1698027 223.62560515 402.53125 219.375 C403.92246374 214.62850607 404.01084333 210.63604322 402.03125 206.0625 C399.5735018 201.83111908 397.04856515 200.21255192 392.53125 198.375 C385.70736665 197.53697924 381.62389346 199.37536291 376.71875 204.0625 Z M-26.71875 390.5625 C-29.30043734 394.71164038 -30.9551156 398.58346412 -30.09375 403.52734375 C-28.23967771 409.18437115 -25.30118565 411.76740139 -20.15625 414.6875 C-16.38267006 415.6528344 -13.13970467 415.57779386 -9.46875 414.375 C-5.37449053 411.77610483 -2.31167717 408.91277351 -0.46875 404.375 C0.04677296 399.13384992 -0.18026411 395.39651892 -3.0703125 390.91796875 C-6.44383995 387.19578064 -10.71371518 385.62070487 -15.59375 384.9375 C-20.25594135 385.6469639 -23.3441446 387.28163364 -26.71875 390.5625 Z M337.28125 390.5625 C334.69956266 394.71164038 333.0448844 398.58346412 333.90625 403.52734375 C335.76032229 409.18437115 338.69881435 411.76740139 343.84375 414.6875 C347.61957214 415.65340799 350.85725222 415.57183261 354.53125 414.375 C358.15154131 412.14060146 360.80764578 409.60198107 362.96875 405.9375 C364.20244062 400.31735385 364.09952858 395.94393861 360.9296875 390.953125 C357.59225066 387.1868555 353.2883074 385.62098804 348.40625 384.9375 C343.74405865 385.6469639 340.6558554 387.28163364 337.28125 390.5625 Z " fill="#FB6E40" transform="translate(90.46875,40.625)"/>
<path d="M0 0 C8.10994686 7.00877977 11.9253324 15.36271299 13.34375 25.90234375 C13.81556974 35.51567101 10.12954192 44.5206562 4.0625 51.8125 C-0.21884261 56.31494482 -5.1447626 59.54867159 -10.9375 61.8125 C-11.5975 61.8125 -12.2575 61.8125 -12.9375 61.8125 C-12.91131592 62.99803467 -12.88513184 64.18356934 -12.8581543 65.4050293 C-12.76750979 69.81238866 -12.71019912 74.219666 -12.6628418 78.62768555 C-12.63773001 80.53375107 -12.60363355 82.43972059 -12.56030273 84.34545898 C-12.49950256 87.08861998 -12.47125755 89.83050586 -12.44921875 92.57421875 C-12.42341232 93.42336349 -12.3976059 94.27250824 -12.37101746 95.14738464 C-12.36893181 99.56797639 -12.50268209 101.26284454 -15.33911133 104.84838867 C-17.8481086 106.74492941 -18.86077065 107.49953083 -21.9375 107.4375 C-22.8965625 107.45683594 -22.8965625 107.45683594 -23.875 107.4765625 C-27.2785704 106.38071597 -28.73115144 104.60155604 -30.9375 101.8125 C-31.61658797 98.72234516 -31.52154974 95.72542253 -31.42578125 92.57421875 C-31.41870651 91.69345169 -31.41163177 90.81268463 -31.40434265 89.90522766 C-31.37643848 87.10260715 -31.31370943 84.30201265 -31.25 81.5 C-31.2249119 79.59573206 -31.20209962 77.69143268 -31.18164062 75.78710938 C-31.12662503 71.12813016 -31.04038151 66.47065811 -30.9375 61.8125 C-31.55324387 61.61972977 -32.16898773 61.42695953 -32.8033905 61.22834778 C-33.6123024 60.96841537 -34.42121429 60.70848297 -35.25463867 60.44067383 C-36.05600754 60.18602859 -36.8573764 59.93138336 -37.68302917 59.66902161 C-44.40033607 57.11697328 -50.7298165 50.09955966 -53.9375 43.8125 C-58.13256161 33.6454293 -58.39374996 23.55015287 -54.1953125 13.34765625 C-49.44917752 3.78168854 -41.98542771 -2.65211803 -31.9375 -6.1875 C-20.78578192 -8.79747657 -9.34972222 -6.79118337 0 0 Z M-35.25 18.4375 C-38.71908934 23.31992203 -38.65754765 27.94694326 -37.9375 33.8125 C-35.91931513 38.47693557 -32.63889554 41.84447396 -27.9375 43.8125 C-21.90398761 45.17490602 -18.43285367 45.06900588 -12.9375 41.8125 C-8.83171674 37.8084366 -5.80729856 34.4326296 -5.6875 28.5625 C-5.76723849 23.58681793 -6.76083357 20.00700796 -10.3671875 16.37109375 C-15.01268523 12.31495021 -18.68735383 11.45373187 -24.65625 11.53125 C-29.43729486 12.12069389 -32.18711178 14.96070797 -35.25 18.4375 Z " fill="#FD6E3F" transform="translate(277.9375,203.1875)"/>
</svg>
