<?xml version="1.0" encoding="UTF-8"?>
<svg version="1.1" xmlns="http://www.w3.org/2000/svg" width="512" height="512">
<path d="M0 0 C1.2242101 -0.00644889 2.44842021 -0.01289778 3.70972759 -0.0195421 C5.06509238 -0.01659993 6.42045678 -0.0134645 7.77582073 -0.01015663 C9.21811702 -0.01389335 10.66041128 -0.01849496 12.10270232 -0.02388728 C16.06653471 -0.03613002 20.03028279 -0.03585531 23.99412978 -0.03349853 C28.2689584 -0.03309068 32.54375986 -0.04412642 36.81857586 -0.05361366 C45.19399785 -0.07023163 53.56939169 -0.07572357 61.94482879 -0.07683842 C68.75242596 -0.07778852 75.56001384 -0.08189691 82.36760807 -0.08823967 C101.66568168 -0.10585428 120.96373304 -0.1150782 140.26181475 -0.11357872 C141.82259422 -0.11345885 141.82259422 -0.11345885 143.41490459 -0.11333656 C144.45669377 -0.1132548 145.49848295 -0.11317304 146.5718415 -0.1130888 C163.45672454 -0.11227585 180.34151838 -0.13141535 197.22637562 -0.1596133 C214.56096913 -0.18833402 231.89551913 -0.20215404 249.23013705 -0.20042574 C258.96327651 -0.19976156 268.69632246 -0.20526627 278.4294405 -0.22678185 C286.71633837 -0.24498297 295.00310035 -0.24934978 303.29000954 -0.235763 C307.51786183 -0.22922792 311.74545334 -0.22913548 315.97328091 -0.2464695 C319.84536139 -0.26218163 323.71697392 -0.25935592 327.58904286 -0.24190123 C328.98808644 -0.23882721 330.38716478 -0.24247899 331.78616736 -0.25362138 C340.75971845 -0.32034508 347.2068317 0.10866166 354.18321514 6.22211266 C360.78036896 14.19235829 362.09274934 20.94021974 362.08629131 31.247015 C362.09132923 32.41411255 362.09132923 32.41411255 362.09646893 33.60478783 C362.10592681 36.16344383 362.10791939 38.72203404 362.10899639 41.28070641 C362.11221239 43.06900623 362.11557672 44.8573058 362.11908245 46.64560509 C362.12506069 50.38953829 362.12692368 54.13344845 362.12633038 57.87738609 C362.12622879 62.66092703 362.13988314 67.44431941 362.15710258 72.22782516 C362.1682524 75.92027012 362.17024867 79.61267948 362.16972065 83.30513954 C362.17089619 85.06808166 362.17529389 86.83102484 362.18305302 88.59395027 C362.19291395 91.06564896 362.18995106 93.5370293 362.18394756 96.00873375 C362.18956707 96.72795509 362.19518658 97.44717644 362.20097637 98.18819237 C362.16194826 104.55136735 361.10864872 110.07770955 358.06602764 115.75726891 C356.63773626 119.00216058 356.63773626 119.00216058 357.60509014 121.19086266 C358.65097621 123.18958452 358.65097621 123.18958452 359.86290264 124.97211266 C362.81808019 131.2358042 362.12373005 139.15618114 362.12852764 145.94476891 C362.14077374 146.86838219 362.15301983 147.79199547 362.16563702 148.74359703 C362.1876388 158.93042164 362.1876388 158.93042164 358.19102764 163.06976891 C355.13172839 164.68439907 353.35805046 164.81515018 349.94102764 164.25726891 C347.38164304 162.60008625 346.36901443 161.8582567 344.94102764 159.25726891 C344.21900782 154.90836766 344.24151034 150.59550464 344.25352764 146.19476891 C344.23693177 143.84964505 344.21252344 141.50456001 344.17930889 139.15961266 C344.17971172 138.12312584 344.18011456 137.08663902 344.18052959 136.01874352 C343.93765296 133.21835857 343.47279234 131.59416174 341.94102764 129.25726891 C339.29290775 127.93320896 337.31087491 128.13064396 334.34376049 128.12863445 C333.14620711 128.12541001 331.94865373 128.12218556 330.71481085 128.1188634 C329.37399727 128.12033476 328.03318379 128.12190249 326.69237041 128.12355614 C325.27726255 128.12168944 323.86215519 128.1193893 322.44704866 128.11669081 C318.54468291 128.11054905 314.6423385 128.11070918 310.73996902 128.11188519 C306.53678761 128.1120886 302.33361318 128.10657625 298.13043499 128.10182762 C289.89097282 128.09350779 281.65151781 128.09077219 273.4120518 128.09021524 C266.71827411 128.08974077 260.02449879 128.08768946 253.33072186 128.08451462 C234.37189604 128.07570486 215.41307589 128.07109581 196.45424801 128.07184509 C195.43136478 128.07188505 194.40848155 128.071925 193.35460186 128.07196617 C191.818414 128.07202749 191.818414 128.07202749 190.25119203 128.07209005 C173.64338738 128.07249674 157.03560537 128.06292222 140.42780727 128.0488278 C123.39392575 128.03448529 106.3600553 128.02755643 89.32616758 128.02842158 C79.75528826 128.02875426 70.18443268 128.02597622 60.61355877 128.01524353 C52.46661716 128.00616647 44.31971007 128.00394018 36.17276561 128.01075295 C32.01258237 128.01403221 27.85246545 128.01402457 23.6922884 128.0053997 C19.88898679 127.99759546 16.08580476 127.99890312 12.28250629 128.00768384 C10.90165081 128.00923234 9.52078667 128.00735254 8.13994139 128.00182376 C6.27273765 127.99483883 4.40549784 128.00120958 2.53829479 128.00837994 C1.49818579 128.00816257 0.45807679 128.0079452 -0.61355066 128.00772125 C-3.23824899 128.01543334 -3.23824899 128.01543334 -5.05897236 130.25726891 C-6.44156027 133.97023589 -6.20674059 137.88423815 -6.20423603 141.79218102 C-6.20759464 142.54551216 -6.21095325 143.29884331 -6.21441364 144.07500267 C-6.22390093 146.56155617 -6.22586555 149.04804219 -6.22694111 151.53461266 C-6.23015493 153.26569712 -6.2335191 154.99678132 -6.23702717 156.72786522 C-6.24301265 160.3551045 -6.24486763 163.98231996 -6.24427509 167.60956383 C-6.24417343 172.25445529 -6.25783208 176.89919401 -6.2750473 181.54404926 C-6.28617173 185.11885338 -6.28819417 188.6936206 -6.28766537 192.26844025 C-6.28884456 193.98083142 -6.29326297 195.69322358 -6.30099773 197.40559769 C-6.31080776 199.80149448 -6.30791579 202.19706001 -6.30189228 204.59296227 C-6.31032154 205.65060783 -6.31032154 205.65060783 -6.31892109 206.72961998 C-6.29383129 210.66191207 -5.92012894 213.76328539 -4.05897236 217.25726891 C-0.94397159 218.81476929 2.35982098 218.3926022 5.77862835 218.38184166 C7.00709092 218.38395688 7.00709092 218.38395688 8.26037091 218.38611484 C11.02023246 218.38978133 13.78004307 218.38642552 16.53990459 218.38324547 C18.5123578 218.38463959 20.48481071 218.38653848 22.45726299 218.38890648 C26.71285842 218.39341035 30.96844419 218.39525971 35.22404194 218.39536858 C41.95078902 218.39650657 48.67748091 218.40932753 55.40420818 218.42493248 C56.53831279 218.42750533 57.67241739 218.43007819 58.8408888 218.43272901 C61.16034289 218.43799576 63.47979695 218.44328125 65.79925096 218.44858503 C81.46525204 218.48372988 97.13118507 218.51024544 112.79722881 218.50775719 C123.35700235 218.5061701 133.91658843 218.52216962 144.47630185 218.55846381 C150.06734003 218.57695163 155.65806515 218.5862421 161.24912739 218.57398796 C166.50809209 218.56257382 171.7664959 218.57420223 177.02538586 218.60362244 C178.95673323 218.61027779 180.88813171 218.60837105 182.81945896 218.59732437 C185.45447279 218.58350208 188.08758012 218.60028866 190.72247601 218.62476158 C191.48862817 218.6134062 192.25478033 218.60205082 193.04414922 218.59035134 C196.9825435 218.66158701 198.77583409 219.12855386 201.91953087 221.57805061 C203.94102764 224.25726891 203.94102764 224.25726891 204.50352764 227.75726891 C203.85691113 231.78066053 202.84084438 233.44030407 199.94102764 236.25726891 C196.25134523 237.48716304 192.84332084 237.40396067 189.00094891 237.40202904 C188.18308629 237.40555588 187.36522368 237.40908273 186.52257735 237.41271645 C183.77265081 237.42342042 181.02275889 237.42708732 178.27281475 237.43085289 C176.30519749 237.43715668 174.33758167 237.44392228 172.36996746 237.45111656 C168.1285758 237.46579595 163.8871897 237.47751667 159.64578342 237.48706436 C152.94498245 237.50249228 146.24422904 237.52643965 139.54345989 237.5519619 C120.48778056 237.6232352 101.43207427 237.68302949 82.37633038 237.73407555 C71.85544932 237.76233394 61.33461586 237.7976878 50.81378466 237.8407293 C44.14660395 237.8675724 37.4794771 237.88543372 30.81225288 237.89676654 C26.67235108 237.90586282 22.53251503 237.92320991 18.39265156 237.94294548 C16.46649358 237.95044756 14.54031877 237.95450363 12.61414623 237.9549408 C9.99400657 237.95601608 7.37420503 237.96919794 4.75412273 237.98552513 C3.98380512 237.98290828 3.2134875 237.98029142 2.41982692 237.97759527 C-1.77750861 237.87790883 -1.77750861 237.87790883 -5.05897236 240.25726891 C-6.42518733 243.94119234 -6.20675914 247.80843545 -6.20423603 251.684515 C-6.20759464 252.42648628 -6.21095325 253.16845757 -6.21441364 253.93291283 C-6.22390116 256.38219445 -6.22586566 258.83140755 -6.22694111 261.28070641 C-6.23015526 262.986975 -6.23351946 264.69324332 -6.23702717 266.39951134 C-6.24301296 269.97547609 -6.24486764 273.55141669 -6.24427509 277.12738609 C-6.24417351 281.70267787 -6.25782395 286.27781432 -6.2750473 290.85306931 C-6.28618262 294.37730173 -6.28819383 297.90149679 -6.28766537 301.42574501 C-6.28884324 303.11218997 -6.29325418 304.79863596 -6.30099773 306.48506355 C-6.3108284 308.84722998 -6.30790753 311.20906158 -6.30189228 313.57123375 C-6.30751179 314.26338478 -6.31313129 314.95553581 -6.31892109 315.66866112 C-6.29169532 319.89002826 -5.72970718 323.37010505 -4.05897236 327.25726891 C-0.96316968 328.80517025 2.30497651 328.40004413 5.70270061 328.39529991 C6.51350856 328.39812119 7.3243165 328.40094247 8.15969437 328.40384924 C10.8919094 328.41221973 13.62408403 328.41353558 16.35631084 328.41498375 C18.30906063 328.41965016 20.26180932 328.42479344 22.21455669 328.43037987 C26.42758679 328.44167503 30.64060976 328.45010234 34.85365009 328.4564991 C41.51318927 328.46716061 48.1726773 328.48740032 54.8321867 328.50961876 C73.77200766 328.57160581 92.71182586 328.6255727 111.651721 328.65863609 C122.10598595 328.67696652 132.56016553 328.7058827 143.01436776 328.7466408 C148.54944004 328.76773752 154.08440462 328.78317184 159.61951923 328.78544807 C164.8258399 328.78759155 170.03193633 328.80343024 175.23818874 328.8298378 C177.15018319 328.83704375 179.06220477 328.83912551 180.97420979 328.83573532 C183.58254112 328.83184891 186.19015337 328.84626813 188.79840374 328.86527061 C189.556774 328.85974092 190.31514427 328.85421122 191.09649545 328.84851396 C195.55295797 328.90463797 198.3822639 329.5350573 201.94102764 332.25726891 C203.86966603 334.79956497 203.95005055 336.04071908 203.81602764 339.25726891 C202.76800074 342.85050399 201.92862235 344.01350309 198.94102764 346.25726891 C196.0901986 346.65009897 193.62578256 346.79797411 190.7759428 346.76520348 C189.53077437 346.77456342 189.53077437 346.77456342 188.26045102 346.78411245 C185.47440838 346.80008733 182.68923522 346.78742056 179.90318584 346.77484703 C177.90736664 346.78026636 175.91155143 346.78738795 173.91574383 346.79608727 C168.4898302 346.81435185 163.0642202 346.80723852 157.63830113 346.79457092 C151.95967581 346.7844525 146.2810767 346.79383404 140.60245037 346.80011559 C131.06006991 346.80739832 121.51781316 346.79779092 111.97545147 346.77875328 C100.95211538 346.75701456 89.92907558 346.76401165 78.90574676 346.7860589 C69.43976063 346.80423224 59.97386355 346.80676081 50.50786561 346.79630423 C44.85529618 346.79007594 39.20286579 346.78921483 33.55030537 346.80245018 C28.2306358 346.81403497 22.91134637 346.80593466 17.59171772 346.78287315 C15.64269421 346.77759879 13.69363853 346.77907796 11.74462795 346.78792381 C-8.56400608 346.87157281 -8.56400608 346.87157281 -16.39881611 340.29242516 C-16.92604267 339.64144859 -17.45326923 338.99047203 -17.99647236 338.31976891 C-18.5417458 337.67137047 -19.08701923 337.02297203 -19.64881611 336.35492516 C-23.19356122 331.08199406 -23.35614141 326.42369276 -23.3494997 320.26361656 C-23.35621693 319.36704842 -23.36293415 318.47048027 -23.36985493 317.54674339 C-23.38882461 314.58821608 -23.39275855 311.62991572 -23.39490986 308.67133141 C-23.40133829 306.61016306 -23.40806668 304.54899564 -23.41508198 302.48782921 C-23.42705202 298.16876676 -23.43076306 293.84978427 -23.42957783 289.53070641 C-23.42937461 284.00366253 -23.45668128 278.47713265 -23.49112225 272.95021057 C-23.51338839 268.69333109 -23.51741546 264.43657538 -23.51635838 260.17964363 C-23.51871458 258.14233567 -23.52753919 256.1050243 -23.54302311 254.06777382 C-23.56267787 251.21472243 -23.55684704 248.36278059 -23.5448122 245.50971031 C-23.55605122 244.67311378 -23.56729023 243.83651726 -23.57886982 242.97456932 C-23.51733868 237.21741892 -22.09895651 234.11631315 -19.05897236 229.25726891 C-19.56458123 226.5765296 -19.56458123 226.5765296 -21.05897236 224.25726891 C-23.4151092 219.63876529 -23.35503313 215.43676972 -23.3494997 210.37128258 C-23.35621693 209.4860743 -23.36293415 208.60086601 -23.36985493 207.68883324 C-23.38882494 204.76757732 -23.39275873 201.84655131 -23.39490986 198.92523766 C-23.40133885 196.88888518 -23.40806729 194.85253363 -23.41508198 192.81618309 C-23.42705252 188.548395 -23.43076306 184.28068783 -23.42957783 180.01288414 C-23.42937474 174.55543801 -23.4566675 169.0985132 -23.49112225 163.64119053 C-23.51340688 159.4348826 -23.51741487 155.22869978 -23.51635838 151.02233887 C-23.51871233 149.01097697 -23.52752424 146.99961151 -23.54302311 144.98830795 C-23.56271299 142.16898496 -23.55683308 139.3507815 -23.5448122 136.53143883 C-23.55605122 135.70778831 -23.56729023 134.8841378 -23.57886982 134.03552818 C-23.52316081 128.86987144 -22.51107947 125.39915561 -19.8558569 120.94977856 C-18.78965571 119.13605869 -18.78965571 119.13605869 -19.68397236 116.50726891 C-20.47453711 115.21361749 -21.28027457 113.92843693 -22.1267519 112.67066002 C-23.54917996 108.98818856 -23.35368793 105.28688023 -23.3494997 101.39301109 C-23.35621693 100.49819527 -23.36293415 99.60337944 -23.36985493 98.68144798 C-23.38885688 95.72229015 -23.39276055 92.76335896 -23.39490986 89.80414391 C-23.40133737 87.74394195 -23.4080657 85.68374091 -23.41508198 83.62354088 C-23.42706104 79.30269824 -23.43076226 74.98193558 -23.42957783 70.6610775 C-23.42937486 65.13522383 -23.45665132 59.60988575 -23.49112225 54.08415413 C-23.51340757 49.82723213 -23.51741483 45.57043375 -23.51635838 41.3134594 C-23.51871286 39.27697794 -23.52752773 37.240493 -23.54302311 35.20406914 C-23.5627113 32.34871897 -23.55683333 29.49447442 -23.5448122 26.63910484 C-23.55605122 25.80453255 -23.56729023 24.96996025 -23.57886982 24.11009789 C-23.50671479 17.3346712 -21.58180063 12.13620216 -17.09412861 7.01508141 C-16.44315205 6.47625328 -15.79217548 5.93742516 -15.12147236 5.38226891 C-14.47307392 4.82797203 -13.82467548 4.27367516 -13.15662861 3.70258141 C-8.86991394 0.74897912 -5.16097081 0.00687905 0 0 Z M-6.05897236 21.25726891 C-7.23857671 24.79608197 -7.20658391 27.99655885 -7.20423603 31.67865562 C-7.20759464 32.43184074 -7.21095325 33.18502586 -7.21441364 33.96103477 C-7.22391901 36.45302539 -7.22586659 38.94494878 -7.22694111 41.43695641 C-7.23015412 43.16947012 -7.23351823 44.90198355 -7.23702717 46.63449669 C-7.2430175 50.26771232 -7.24486718 53.90090416 -7.24427509 57.53412437 C-7.24417351 62.18689159 -7.25782229 66.83950607 -7.2750473 71.49223709 C-7.28617298 75.07133241 -7.28819412 78.65039088 -7.28766537 82.22950172 C-7.28884476 83.94468398 -7.29326424 85.6598672 -7.30099773 87.37503242 C-7.31080849 89.77582769 -7.30791529 92.1762924 -7.30189228 94.57709312 C-7.30751179 95.28376122 -7.31313129 95.99042931 -7.31892109 96.71851158 C-7.29379673 100.66487616 -6.99977514 103.78768673 -5.05897236 107.25726891 C-1.84185386 110.29078629 0.40532937 110.62991358 4.76597977 110.61917496 C5.96341515 110.6235148 7.16085054 110.62785465 8.39457184 110.63232601 C9.71157843 110.62174289 11.02858503 110.61115978 12.38550091 110.60025597 C13.79749674 110.59958186 15.20949372 110.60022119 16.62148851 110.6020633 C20.50611111 110.60326533 24.39045626 110.58561324 28.27501547 110.56489992 C32.46248289 110.54581423 36.6499622 110.5440246 40.83746624 110.54002953 C49.04229449 110.5293696 57.24699205 110.50238486 65.45175869 110.4696012 C72.11781961 110.44325984 78.78387442 110.4227869 85.44996738 110.40653419 C86.3977328 110.40421853 87.34549822 110.40190287 88.3219838 110.39951704 C90.24717443 110.394839 92.1723651 110.39017464 94.09755581 110.38552381 C112.16052383 110.3411953 130.22339183 110.27840218 148.28627979 110.20931734 C163.79625798 110.15042477 179.3062149 110.10727109 194.81627178 110.07562828 C212.81495075 110.03890049 230.81356156 109.99250551 248.81217283 109.93057835 C250.73008307 109.92400587 252.64799334 109.91744578 254.56590366 109.91089821 C255.9814891 109.9060578 255.9814891 109.9060578 257.42567222 109.90111961 C264.08680594 109.87901215 270.74793492 109.8638544 277.4090929 109.85135078 C285.52234327 109.83593162 293.63547591 109.80990736 301.7486449 109.77014284 C305.89074079 109.75011058 310.03270635 109.73493068 314.17485332 109.7326355 C317.96280567 109.73040028 321.75043855 109.71447944 325.53829246 109.68739523 C327.56590815 109.67649355 329.59358642 109.68036682 331.62122685 109.68467224 C333.4134683 109.66771228 333.4134683 109.66771228 335.24191666 109.6504097 C336.79532771 109.64512247 336.79532771 109.64512247 338.38012081 109.63972843 C340.96380683 109.4601111 340.96380683 109.4601111 342.73472208 107.92019761 C345.44720465 104.18095834 345.09530671 100.16515366 345.10216045 95.75995445 C345.10712536 94.99862206 345.11209026 94.23728966 345.11720562 93.45288658 C345.13181481 90.93324442 345.13862743 88.41366523 345.14415264 85.89398766 C345.14990546 84.14144959 345.15566318 82.38891155 345.16142559 80.63637352 C345.17193227 76.96027903 345.177777 73.28420638 345.18126202 69.60809898 C345.1867437 64.90380026 345.21076609 60.19979141 345.23923397 55.49558353 C345.25788331 51.8744123 345.26306719 48.25331054 345.26459789 44.63209534 C345.26762016 42.89819124 345.27563429 41.16428824 345.28878307 39.43043137 C345.30589055 37.00098744 345.30395199 34.57224713 345.29747295 32.14276695 C345.30668774 31.4303434 345.31590252 30.71791985 345.32539654 29.9839077 C345.28686557 25.35789257 344.38915813 22.18237473 341.94102764 18.25726891 C339.29891147 16.93621082 337.32539882 17.12815884 334.36496449 17.12304783 C332.5757096 17.11636106 332.5757096 17.11636106 330.75030816 17.10953921 C329.41480294 17.10962852 328.07929772 17.10981838 326.74379253 17.11009789 C325.33423443 17.10680018 323.92467728 17.10307481 322.51512134 17.09895641 C318.62802282 17.08891791 314.74093975 17.08521666 310.8538301 17.0825671 C306.6669672 17.07866959 302.4801166 17.06909097 298.29326153 17.06035423 C288.17608344 17.04057551 278.05890432 17.03052243 267.94171172 17.02162644 C263.18140078 17.01724638 258.42109096 17.0118789 253.66078091 17.00663757 C237.84393132 16.9896249 222.02708244 16.9751292 206.21022511 16.96788883 C202.10405381 16.96597884 197.99788251 16.96405852 193.89171124 16.96210289 C192.87110123 16.96161915 191.85049122 16.96113541 190.79895364 16.96063701 C174.25390728 16.95233102 157.70893309 16.92698469 141.16391827 16.89452221 C124.19104792 16.86149073 107.21821429 16.84344367 90.24531162 16.84024459 C80.71010322 16.838076 71.17500011 16.82927641 61.63982296 16.80378342 C53.52182628 16.78212987 45.40396044 16.77399957 37.28593816 16.7837502 C33.14163111 16.78831032 28.99759432 16.78630994 24.85332394 16.76698875 C21.0621396 16.74946577 17.27142485 16.75026532 13.48023628 16.76588605 C11.45321455 16.76941553 9.42618851 16.75315518 7.39923394 16.73628157 C5.60215581 16.74915291 5.60215581 16.74915291 3.76877308 16.76228428 C2.73246128 16.76130747 1.69614949 16.76033066 0.6284343 16.75932425 C-2.78040545 17.39094192 -3.93912537 18.56535562 -6.05897236 21.25726891 Z " fill="#FB8132" transform="translate(55.05897235870361,50.74273109436035)"/>
<path d="M0 0 C1.27617187 0.0928125 2.55234375 0.185625 3.8671875 0.28125 C20.91611065 1.78784363 36.12101247 6.59447312 51 15 C51.99644531 15.55558594 52.99289062 16.11117187 54.01953125 16.68359375 C78.82413057 31.48118733 93.41908965 56.12421135 100.4909668 83.44189453 C107.50610656 111.82449983 102.76133964 140.92967722 88.1640625 166.00830078 C72.45772303 191.88405386 47.70650541 208.05990276 19 216 C19.78761719 216.78503906 20.57523438 217.57007813 21.38671875 218.37890625 C26.79658677 223.80494727 26.79658677 223.80494727 27.5 227.9375 C26.81303325 232.14517131 25.4272611 233.52070473 22 236 C18.33658682 236.87921916 16.09623141 236.56042227 12.73828125 234.84375 C10.38202465 233.37154067 8.08946403 231.83095051 5.81054688 230.2421875 C3.68246238 228.78214248 1.5232541 227.37518395 -0.640625 225.96875 C-2.28151115 224.89623278 -3.92213549 223.82331489 -5.5625 222.75 C-6.36083252 222.23083008 -7.15916504 221.71166016 -7.98168945 221.17675781 C-8.731521 220.68014648 -9.48135254 220.18353516 -10.25390625 219.671875 C-10.92752197 219.2294043 -11.6011377 218.78693359 -12.29516602 218.33105469 C-15.13616997 216.11293159 -15.95707941 214.33841237 -16.40625 210.796875 C-15.89094812 205.98078436 -14.16409 203.20229554 -11.5 199.25 C-10.82203369 198.20827637 -10.82203369 198.20827637 -10.13037109 197.14550781 C3.27879837 176.72281918 3.27879837 176.72281918 8 175.46875 C11.44327882 175.52255123 13.49511516 175.69706909 16.5 177.5 C18.15107773 180.25179622 18.73334263 182.4077024 18.60546875 185.62890625 C17.32014849 190.66238623 14.00114774 194.83514191 11 199 C35.30714019 192.74271639 58.17024561 181.19835968 71.4453125 158.80859375 C71.95835937 157.88175781 72.47140625 156.95492187 73 156 C73.53367187 155.04222656 74.06734375 154.08445312 74.6171875 153.09765625 C86.61415743 130.38697437 88.17130527 104.47334179 81 80 C73.34189778 57.36844727 57.51988541 37.71974367 36 27 C11.98875772 16.3154327 -14.38944074 14.43912764 -39.18359375 23.47265625 C-63.11107692 32.85430559 -80.4626497 51.3532564 -90.71875 74.62890625 C-99.25467436 97.08775602 -99.68507129 121.54858179 -90.44140625 143.84375 C-85.72624893 154.16853892 -80.32585116 163.475511 -72.3828125 171.66796875 C-69.77324167 174.41760129 -68.66467037 176.39247172 -68.5 180.125 C-69.22764228 185.76422764 -69.22764228 185.76422764 -72 188 C-75.73630447 189.03786235 -77.93484541 189.53088657 -81.4609375 187.7734375 C-99.85215374 174.92788031 -109.73453457 149.10834119 -114 128 C-119.05264696 98.12909564 -110.51445627 67.57410797 -93.95703125 42.64453125 C-77.32055817 20.16370834 -52.44676614 6.02427 -25.01416016 1.59619141 C-16.67621479 0.36339503 -8.43346795 -0.61654596 0 0 Z " fill="#F74C59" transform="translate(377,225)"/>
<path d="M0 0 C1.14508026 -0.00700928 2.29016052 -0.01401855 3.46994019 -0.02124023 C7.26015373 -0.03886486 11.04962243 -0.0271808 14.83984375 -0.01367188 C17.47013492 -0.01636548 20.10042513 -0.0202468 22.73071289 -0.02526855 C28.24536225 -0.0325436 33.75979726 -0.02296125 39.27441406 -0.00390625 C45.64797042 0.01786253 52.02101495 0.01081103 58.39455891 -0.01121187 C64.52847897 -0.03155758 70.66217229 -0.02939587 76.79611206 -0.01768494 C79.40526399 -0.01501298 82.01442895 -0.01830379 84.62356567 -0.02760315 C88.26762701 -0.03774021 91.91069994 -0.02230561 95.5546875 0 C96.63740936 -0.00809692 97.72013123 -0.01619385 98.83566284 -0.02453613 C106.13084639 0.05836284 106.13084639 0.05836284 109.42407227 2.39758301 C111.02551435 4.90635485 111.63196653 6.53734512 111.77734375 9.51757812 C110.72044405 13.55301336 109.29219429 15.34047762 105.77734375 17.51757812 C103.48750401 17.89789486 103.48750401 17.89789486 100.92616272 17.90525818 C99.95184799 17.91516281 98.97753326 17.92506744 97.97369385 17.93527222 C96.91124451 17.93077057 95.84879517 17.92626892 94.75415039 17.92163086 C93.63018356 17.92849411 92.50621674 17.93535736 91.34819031 17.94242859 C87.62783219 17.96075001 83.90789361 17.9568513 80.1875 17.95117188 C77.60444501 17.9557311 75.02139123 17.96103589 72.43833923 17.96705627 C67.02206925 17.97599792 61.60596074 17.97378555 56.18969727 17.96362305 C49.93318948 17.95214325 43.67711041 17.96621496 37.42065912 17.99301952 C31.39674839 18.01785942 25.37305805 18.02035267 19.34908867 18.01390266 C16.7882052 18.01374912 14.22731362 18.01982103 11.66646004 18.03219414 C8.08729164 18.04705 4.50907014 18.03646549 0.92993164 18.01928711 C-0.66070602 18.03378906 -0.66070602 18.03378906 -2.28347778 18.04858398 C-6.78197648 18.00330992 -9.46194926 17.9735318 -13.38038635 15.62489319 C-15.49029144 13.21143857 -15.87738773 12.18600084 -15.78515625 9.01757812 C-15.78644531 8.26476562 -15.78773437 7.51195313 -15.7890625 6.73632812 C-13.77453049 -1.15508001 -6.66044755 -0.04980886 0 0 Z " fill="#FB9723" transform="translate(84.22265625,105.482421875)"/>
<path d="M0 0 C1.12411285 -0.00700928 2.24822571 -0.01401855 3.40640259 -0.02124023 C7.1214469 -0.03884243 10.83572921 -0.02718875 14.55078125 -0.01367188 C17.13240709 -0.01636613 19.71403194 -0.02024799 22.2956543 -0.02526855 C27.70599973 -0.03116666 33.11605888 -0.02297205 38.52636719 -0.00390625 C44.77552785 0.01786176 51.02416646 0.01080998 57.27331448 -0.01121187 C63.29244113 -0.03157166 69.31131299 -0.0293906 75.33047485 -0.01768494 C77.88856072 -0.01501525 80.4466599 -0.01829585 83.00473022 -0.02760315 C86.57903412 -0.03775369 90.15233348 -0.0222867 93.7265625 0 C94.78541656 -0.00809692 95.84427063 -0.01619385 96.93521118 -0.02453613 C101.39102742 0.0269746 104.10294524 0.06898877 107.99682617 2.36633301 C110.41536613 5.15390199 110.86328125 6.83685829 110.86328125 10.51757812 C109.25916277 14.04663879 108.12168763 15.3453072 104.86328125 17.51757812 C102.69648933 17.77484703 102.69648933 17.77484703 100.13235474 17.78500366 C98.67294464 17.79779861 98.67294464 17.79779861 97.18405151 17.81085205 C96.1180069 17.80994568 95.05196228 17.80903931 93.95361328 17.80810547 C92.82979248 17.81482269 91.70597168 17.82153992 90.5480957 17.82846069 C86.82238376 17.84750327 83.09685136 17.85136807 79.37109375 17.85351562 C76.78661016 17.85993919 74.2021273 17.86666721 71.61764526 17.87368774 C66.19543462 17.8856762 60.77329549 17.88945246 55.35107422 17.88818359 C49.08722059 17.88698235 42.82371164 17.90807974 36.55994523 17.93967092 C30.5312497 17.96899139 24.50274106 17.97615926 18.47396469 17.97496414 C15.91028308 17.97732728 13.34659902 17.98619064 10.7829628 18.00162888 C7.19892918 18.02119049 3.61578577 18.01548859 0.03173828 18.00341797 C-1.03025787 18.01465698 -2.09225403 18.025896 -3.18643188 18.03747559 C-10.37199084 17.97587663 -10.37199084 17.97587663 -14.29324341 15.62588501 C-16.3944693 13.22279943 -16.81580515 12.17622401 -16.76171875 9.01757812 C-16.77460937 8.26476562 -16.7875 7.51195312 -16.80078125 6.73632812 C-14.49009489 -0.98408279 -6.53745383 -0.04999109 0 0 Z " fill="#FC8C2A" transform="translate(85.13671875,324.482421875)"/>
<path d="M0 0 C1.14508026 -0.00700928 2.29016052 -0.01401855 3.46994019 -0.02124023 C7.26015373 -0.03886486 11.04962243 -0.0271808 14.83984375 -0.01367188 C17.47013492 -0.01636548 20.10042513 -0.0202468 22.73071289 -0.02526855 C28.24536225 -0.0325436 33.75979726 -0.02296125 39.27441406 -0.00390625 C45.64797042 0.01786253 52.02101495 0.01081103 58.39455891 -0.01121187 C64.52847897 -0.03155758 70.66217229 -0.02939587 76.79611206 -0.01768494 C79.40526399 -0.01501298 82.01442895 -0.01830379 84.62356567 -0.02760315 C88.26762701 -0.03774021 91.91069994 -0.02230561 95.5546875 0 C96.63740936 -0.00809692 97.72013123 -0.01619385 98.83566284 -0.02453613 C106.1331762 0.05838931 106.1331762 0.05838931 109.42016602 2.40148926 C111.05868844 4.95624607 111.70468138 6.4657584 111.77734375 9.51757812 C109.50023532 15.15613234 109.50023532 15.15613234 106.77734375 16.51757812 C105.21538744 16.61847824 103.64920762 16.65699968 102.08401489 16.66474915 C100.59925659 16.6754821 100.59925659 16.6754821 99.08450317 16.68643188 C97.99459076 16.68912079 96.90467834 16.69180969 95.78173828 16.69458008 C94.06455597 16.70443687 94.06455597 16.70443687 92.31268311 16.7144928 C88.51184022 16.73425757 84.71103687 16.7458943 80.91015625 16.75585938 C79.61514065 16.7599349 78.32012505 16.76401043 76.98586655 16.76820946 C70.84133085 16.78692793 64.69681506 16.80149208 58.5522567 16.80982143 C51.45697259 16.81959817 44.36200008 16.84592919 37.2668258 16.88632232 C31.12335351 16.92009861 24.98001248 16.93196449 18.83645248 16.93602562 C16.22169758 16.9409096 13.60694644 16.95257462 10.99225235 16.97106361 C7.33849231 16.99529793 3.68555334 16.99451858 0.03173828 16.98754883 C-1.05412567 17.00035889 -2.13998962 17.01316895 -3.25875854 17.02636719 C-10.58087649 16.97529281 -10.58087649 16.97529281 -13.89285278 14.61320496 C-15.32330718 12.35896312 -15.76407117 11.16813281 -15.72265625 8.51757812 C-15.738125 7.52757812 -15.738125 7.52757812 -15.75390625 6.51757812 C-13.70674541 -1.18938032 -6.48231806 -0.04847675 0 0 Z " fill="#FB9226" transform="translate(84.22265625,215.482421875)"/>
<path d="M0 0 C3.30609718 3.02472721 4.74961049 5.13928606 6 9.4375 C6 13.79593296 5.19982866 16.23900261 3 20 C-0.34989032 23.11061244 -3.01273493 24.26581613 -7.5 24.5 C-11.94517375 24.29010984 -14.61667727 22.97072239 -18 20 C-20.73637272 15.56518903 -20.76613897 11.05970947 -20 6 C-18.21169483 2.08808244 -15.59294341 0.26850268 -11.6875 -1.5 C-7.27256407 -2.09863538 -4.04058259 -1.92287683 0 0 Z " fill="#FD6B41" transform="translate(305,103)"/>
<path d="M0 0 C3.52846519 3.61893866 5.14904661 6.30689465 5.25 11.3125 C5.19144487 15.36581623 4.70499724 17.82862393 2 21 C-1.69321665 24.15009655 -5.08785512 24.52741985 -9.78515625 24.34765625 C-13.33943214 23.78975404 -15.3595828 22.38894889 -18 20 C-21.04640617 15.77433982 -21.53847282 12.21973235 -20.7734375 7.1875 C-19.36892815 3.21515032 -16.52827406 1.1154534 -13 -1 C-8.66635491 -2.77790568 -4.21983343 -1.8185893 0 0 Z " fill="#FD5650" transform="translate(379,103)"/>
</svg>
