<?xml version="1.0" encoding="UTF-8"?>
<svg version="1.1" xmlns="http://www.w3.org/2000/svg" width="512" height="512">
<path d="M0 0 C2.89799203 1.13378085 5.73474606 2.3620982 8.57418823 3.63549805 C9.65131577 4.10258179 10.7284433 4.56966553 11.83821106 5.05090332 C15.39103634 6.59543264 18.93348102 8.16244322 22.47653198 9.72924805 C24.9860003 10.82668173 27.49777422 11.91878379 30.00973511 13.01049805 C34.57043859 14.99424325 39.12885363 16.98307225 43.68437767 18.97868347 C55.0859352 23.97236476 66.52877341 28.86856562 77.97509766 33.75863647 C81.41561193 35.22992369 84.85443339 36.70509537 88.29269409 38.18164062 C99.2496227 42.88617255 110.21303427 47.57421665 121.19656372 52.21627808 C125.76034706 54.14523978 130.32127554 56.08091066 134.88158035 58.01807976 C137.99696135 59.34083849 141.11389489 60.65963859 144.23483276 61.96923828 C147.67618656 63.41511248 151.11196557 64.87354092 154.54684448 66.3347168 C155.5628775 66.75762497 156.57891052 67.18053314 157.62573242 67.61625671 C158.56794647 68.0198793 159.51016052 68.42350189 160.48092651 68.83935547 C161.29352936 69.18222092 162.1061322 69.52508636 162.94335938 69.87834167 C163.75868134 70.32414078 164.5740033 70.76993988 165.41403198 71.22924805 C166.49172852 71.79836914 167.56942505 72.36749023 168.67977905 72.95385742 C170.96595269 74.96138421 171.39428903 76.12102531 171.94820976 79.15739155 C172.15694261 83.12096648 172.15642984 87.05935965 172.09518433 91.02539062 C172.09349125 92.55320163 172.09444311 94.08101752 172.09783936 95.60882568 C172.09956018 99.75138807 172.06429732 103.89290708 172.02239561 108.03522706 C171.98487548 112.36601607 171.98136226 116.69682928 171.97424316 121.02775574 C171.95559801 129.22661624 171.9063657 137.42499644 171.84614623 145.62364548 C171.77907062 154.95846147 171.74608949 164.29330045 171.71597362 173.62829745 C171.65326616 192.82888657 171.54773779 212.02902869 171.41403198 231.22924805 C172.2138147 231.52710205 173.01359741 231.82495605 173.83761597 232.13183594 C176.70631676 233.35374535 177.23900666 233.89814489 178.47653198 236.66674805 C178.81297729 237.37444336 179.14942261 238.08213867 179.49606323 238.8112793 C180.41403198 241.22924805 180.41403198 241.22924805 180.98825073 243.9909668 C182.21980219 249.41575157 182.21980219 249.41575157 186.02731323 253.23950195 C190.06884373 255.10284506 194.2915176 256.36223483 198.55123901 257.6237793 C200.892741 258.38484416 202.96423173 259.45246614 205.10153198 260.66674805 C208.87954662 262.44883042 209.54541674 262.3559753 213.41403198 261.22924805 C216.92680563 259.6929286 220.38321304 258.05933093 223.84371948 256.40893555 C228.07354482 255.01133461 230.10819154 255.13790468 234.41403198 256.22924805 C236.82541012 257.85689296 238.75128628 259.8403478 240.74996948 261.9440918 C241.31479034 262.51503067 241.87961121 263.08596954 242.46154785 263.67420959 C244.2519352 265.49141847 246.02008375 267.32868898 247.78903198 269.16674805 C248.99993245 270.39918499 250.21215966 271.63031986 251.42575073 272.86010742 C261.85153198 283.48449138 261.85153198 283.48449138 261.85153198 289.6784668 C261.07708356 294.19377769 258.76995288 298.07053906 256.62887573 302.08081055 C254.17576889 308.43838006 257.35555147 313.90929787 259.91403198 319.79174805 C263.76824683 328.69978278 263.76824683 328.69978278 264.41403198 333.22924805 C265.01989136 333.38780273 265.62575073 333.54635742 266.24996948 333.7097168 C282.39891863 338.20657802 282.39891863 338.20657802 286.41403198 344.22924805 C286.6346776 347.21630759 286.7420862 350.10774251 286.74996948 353.09643555 C286.75662628 353.96817413 286.76328308 354.83991272 286.7701416 355.73806763 C286.78026588 357.58227428 286.78495869 359.42651754 286.78463745 361.27075195 C286.78900517 364.0869618 286.82531079 366.90159735 286.86325073 369.7175293 C286.86912011 371.5104927 286.87308869 373.30346353 286.87496948 375.09643555 C286.89652603 376.35603592 286.89652603 376.35603592 286.91851807 377.64108276 C286.88765423 381.6074645 286.71865262 383.72582631 284.62399292 387.1875 C282.5708814 389.08433734 281.1957338 390.10967622 278.59371948 391.0300293 C277.89375854 391.28461914 277.19379761 391.53920898 276.47262573 391.80151367 C275.75203979 392.04579102 275.03145386 392.29006836 274.28903198 392.54174805 C273.56071167 392.80536133 272.83239136 393.06897461 272.08200073 393.34057617 C266.77409692 395.22924805 266.77409692 395.22924805 264.41403198 395.22924805 C264.26707886 395.87249023 264.12012573 396.51573242 263.96871948 397.1784668 C262.27265235 404.01147288 259.77975324 409.94494897 256.52340698 416.1862793 C254.48087481 421.78885874 256.58584051 425.98351098 258.97653198 431.16674805 C262.49653999 439.53838 262.49653999 439.53838 261.41403198 444.22924805 C259.30719619 447.08357819 256.82406679 449.62899049 254.41403198 452.22924805 C253.64816772 453.05634277 252.88230347 453.8834375 252.0932312 454.7355957 C249.58257632 457.40793856 247.03449318 460.03970463 244.47653198 462.66674805 C243.62123901 463.57618164 242.76594604 464.48561523 241.88473511 465.42260742 C234.75551163 472.70409501 234.75551163 472.70409501 230.29293823 473.54956055 C225.61642179 473.16338296 222.39764701 471.82396884 218.28903198 469.66674805 C213.04577789 466.77255743 213.04577789 466.77255743 207.25387573 466.86206055 C205.84815308 467.53881836 205.84815308 467.53881836 204.41403198 468.22924805 C203.53102417 468.61983398 202.64801636 469.01041992 201.73825073 469.4128418 C199.98781956 470.24526907 198.23781543 471.07859495 196.48825073 471.9128418 C193.41403198 473.22924805 193.41403198 473.22924805 191.18942261 473.74145508 C186.4713773 474.85538868 186.4713773 474.85538868 183.08566284 478.10595703 C182.06651854 480.45286874 181.27133533 482.77795895 180.53903198 485.22924805 C180.00684481 486.85651268 179.46802138 488.48162542 178.92184448 490.10424805 C178.70157593 490.82354492 178.48130737 491.5428418 178.25436401 492.28393555 C177.27189788 494.558279 176.32773554 495.65863427 174.41403198 497.22924805 C172.44773865 497.62365723 172.44773865 497.62365723 170.18966675 497.64916992 C169.34191177 497.66508179 168.4941568 497.68099365 167.62071228 497.6973877 C166.70817184 497.69758911 165.79563141 497.69779053 164.85543823 497.69799805 C163.91473984 497.70561157 162.97404144 497.7132251 162.00483704 497.72106934 C160.01520441 497.73187544 158.02551504 497.73472137 156.03585815 497.73022461 C152.99103187 497.72925268 149.94872836 497.77085948 146.90426636 497.81518555 C144.97132891 497.82039279 143.03838269 497.82308074 141.10543823 497.82299805 C140.19492203 497.83939331 139.28440582 497.85578857 138.34629822 497.87268066 C132.04685181 497.80379066 132.04685181 497.80379066 128.87960815 494.92822266 C127.37292597 492.15354807 126.53288351 489.45304926 125.74264526 486.40405273 C124.00178768 479.90549121 124.00178768 479.90549121 119.70602417 474.96899414 C116.34597376 473.28896894 112.87944744 472.25595188 109.26168823 471.2800293 C105.97795562 470.38325359 103.79923441 469.46301323 100.97653198 467.66674805 C96.60429998 465.90251408 94.93500123 466.43509213 90.70309448 468.15112305 C89.16892726 468.8737001 87.64278668 469.61355458 86.12496948 470.36987305 C85.37473511 470.7359668 84.62450073 471.10206055 83.85153198 471.47924805 C83.19024292 471.8350293 82.52895386 472.19081055 81.84762573 472.55737305 C78.23464835 473.55485637 74.97211793 473.24386021 71.41403198 472.22924805 C68.92041184 470.64144904 66.99951613 468.66053628 64.98043823 466.5144043 C64.41703232 465.94346542 63.8536264 465.37252655 63.27314758 464.7842865 C61.49049195 462.96927951 59.7339849 461.1311335 57.97653198 459.29174805 C56.77042754 458.05908242 55.56275894 456.8279452 54.35348511 455.59838867 C44.51728365 445.53764032 44.51728365 445.53764032 44.16403198 441.0612793 C44.43880391 436.84954078 45.62624803 433.66545718 47.41403198 429.91674805 C49.57138464 425.74091033 49.57138464 425.74091033 50.41403198 421.22924805 C49.32348511 421.73713867 48.23293823 422.2450293 47.10934448 422.76831055 C33.54045397 428.998846 19.85996163 434.03562285 5.35153198 437.60424805 C4.35270996 437.85609863 4.35270996 437.85609863 3.33370972 438.11303711 C-5.0875861 440.06086274 -12.60289726 439.36010796 -20.89846802 437.16674805 C-22.19433838 436.82957764 -22.19433838 436.82957764 -23.51638794 436.4855957 C-60.75298779 426.51939873 -92.90072428 407.85544516 -120.58596802 381.22924805 C-121.07726196 380.75986816 -121.56855591 380.29048828 -122.07473755 379.80688477 C-160.1887376 343.23025614 -184.19046094 289.52870679 -185.68750954 236.64206314 C-185.73656254 232.46011748 -185.75568757 228.27910183 -185.76296997 224.09692383 C-185.76924845 222.49752154 -185.77589643 220.89812067 -185.78288269 219.29872131 C-185.80373164 214.0906777 -185.81425543 208.88263437 -185.82424927 203.67456055 C-185.82830168 201.87458151 -185.83241873 200.07460262 -185.83659935 198.27462387 C-185.85559556 189.82832089 -185.86984751 181.38202643 -185.87821132 172.93570626 C-185.88801375 163.20023743 -185.91443443 153.46499413 -185.95471221 143.72960484 C-185.98484166 136.18796411 -185.99967649 128.64638829 -186.00299233 121.10468853 C-186.00534302 116.60589521 -186.01430879 112.10734445 -186.03945351 107.60861588 C-186.06268898 103.38462344 -186.06698594 99.16103428 -186.05669212 94.93699455 C-186.05619583 93.38779167 -186.06254379 91.83856915 -186.07624817 90.2894268 C-186.09391641 88.17400282 -186.08688854 86.06003512 -186.07371521 83.9446106 C-186.07729774 82.16992747 -186.07729774 82.16992747 -186.08095264 80.35939217 C-185.48325631 76.57972796 -184.22998954 74.94325413 -181.58596802 72.22924805 C-179.35580444 70.87834167 -179.35580444 70.87834167 -176.87991333 69.83935547 C-175.93754822 69.43573288 -174.99518311 69.03211029 -174.02426147 68.61625671 C-172.99790588 68.19334854 -171.97155029 67.77044037 -170.91409302 67.3347168 C-169.82989075 66.87470779 -168.74568848 66.41469879 -167.62863159 65.94075012 C-164.65863215 64.68335771 -161.68380163 63.43833293 -158.70657349 62.19818115 C-155.54470689 60.87733222 -152.38980098 59.54007413 -149.23440552 58.20385742 C-144.63170926 56.25613426 -140.02721204 54.31279695 -135.42024994 52.37518501 C-123.92881396 47.54129737 -112.47276281 42.62565853 -101.01876831 37.70379639 C-95.27970278 35.23859922 -89.53820582 32.77907869 -83.79690552 30.3190918 C-82.65279205 29.82874451 -81.50867859 29.33839722 -80.32989502 28.83319092 C-72.78723218 25.60055549 -65.24391706 22.36944571 -57.70028687 19.1390686 C-53.10378997 17.17072237 -48.50745966 15.20198726 -43.91116714 13.23316383 C-40.76205639 11.88427771 -37.61284651 10.53562402 -34.46340942 9.1875 C-30.99621914 7.70325599 -27.52934086 6.2182855 -24.06253052 4.7331543 C-22.50751328 4.06782433 -22.50751328 4.06782433 -20.92108154 3.38905334 C-19.50730728 2.78316628 -19.50730728 2.78316628 -18.06497192 2.16503906 C-17.24348663 1.81329117 -16.42200134 1.46154327 -15.57562256 1.09913635 C-10.25383101 -1.22758124 -5.64438675 -1.68231861 0 0 Z M-14.73831177 19.2644043 C-15.79518188 19.73144775 -16.852052 20.19849121 -17.94094849 20.6796875 C-19.12317993 21.21166748 -20.30541138 21.74364746 -21.52346802 22.29174805 C-24.25174151 23.49986621 -26.98342494 24.7002056 -29.71487427 25.90112305 C-30.47139282 26.23469315 -31.22791138 26.56826324 -32.00735474 26.91194153 C-41.81274983 31.22664158 -51.6783451 35.40043041 -61.53848267 39.58807373 C-67.35103341 42.05690993 -73.16198054 44.52951171 -78.97268677 47.00268555 C-80.15911774 47.50764557 -81.34554871 48.01260559 -82.56793213 48.53286743 C-91.33545349 52.26638691 -100.09712557 56.01339109 -108.85549927 59.76831055 C-109.48378128 60.03766356 -110.11206329 60.30701656 -110.75938416 60.58453178 C-117.42225186 63.44124804 -124.08421389 66.30007053 -130.74563599 69.16015625 C-131.86500046 69.64048309 -132.98436493 70.12080994 -134.13764954 70.61569214 C-136.18339542 71.49356165 -138.22892644 72.37193222 -140.27415466 73.25100708 C-149.69125315 77.29154656 -159.13885819 81.25952908 -168.58596802 85.22924805 C-168.65645289 104.76344848 -168.70914761 124.29762264 -168.74140453 143.83192444 C-168.75678868 152.90467615 -168.7777137 161.97734826 -168.81228638 171.05004883 C-168.8424506 178.96972718 -168.86160418 186.88934782 -168.8682335 194.80908203 C-168.87210068 198.99171102 -168.88100589 203.17417507 -168.90315819 207.35675049 C-169.18552391 262.89970976 -157.38392156 315.44644634 -118.95999146 357.71557617 C-117.49839476 359.32572178 -116.06188778 360.95638311 -114.62503052 362.58862305 C-108.4440251 369.53130197 -101.94450517 375.51814459 -94.58596802 381.22924805 C-93.84604614 381.85831055 -93.10612427 382.48737305 -92.34378052 383.13549805 C-71.9870093 400.3225298 -47.02332972 411.87861074 -21.58596802 419.22924805 C-20.57590698 419.5231543 -20.57590698 419.5231543 -19.54544067 419.82299805 C-9.02831157 422.79897632 -1.09076408 421.62504321 9.22653198 418.66674805 C10.13145386 418.40861328 11.03637573 418.15047852 11.96871948 417.88452148 C20.79307451 415.27342061 29.16594406 411.79631065 37.55856323 408.04760742 C39.82127639 407.04963183 42.10930766 406.12552973 44.41403198 405.22924805 C44.36608385 401.25754408 43.68781633 398.51520222 41.41403198 395.22924805 C37.81113649 393.10628207 33.89886162 391.82687944 29.92819214 390.56298828 C29.13976929 390.31105713 28.35134644 390.05912598 27.53903198 389.79956055 C26.81973511 389.59089355 26.10043823 389.38222656 25.35934448 389.16723633 C22.7881296 387.92745124 21.9023451 386.66430943 20.41403198 384.22924805 C19.98165894 381.48022461 19.98165894 381.48022461 19.90231323 378.36987305 C19.86686401 377.25483398 19.83141479 376.13979492 19.79489136 374.9909668 C19.77233276 373.83209961 19.74977417 372.67323242 19.72653198 371.47924805 C19.69237183 370.30491211 19.65821167 369.13057617 19.62301636 367.9206543 C19.54058026 365.02361415 19.47141387 362.12687507 19.41403198 359.22924805 C18.78288829 359.22778149 18.15174459 359.22631493 17.50147533 359.22480392 C2.15344637 359.18777298 -13.19431718 359.12880805 -28.54215717 359.04534531 C-35.96423524 359.00551397 -43.38620666 358.97314241 -50.80838013 358.95825195 C-57.27659183 358.94525651 -63.74456927 358.9183463 -70.21264905 358.87463498 C-73.63839509 358.85197215 -77.06385168 358.83634021 -80.48967934 358.8373642 C-84.31148747 358.83824608 -88.13270213 358.80806569 -91.95437622 358.77514648 C-93.09373123 358.78017685 -94.23308624 358.78520721 -95.40696716 358.79039001 C-96.4460321 358.7764772 -97.48509705 358.76256439 -98.5556488 358.74822998 C-99.45992772 358.74454281 -100.36420664 358.74085564 -101.29588795 358.73705673 C-103.58596802 358.22924805 -103.58596802 358.22924805 -105.37692547 356.41946793 C-107.13795701 353.22930205 -106.97608762 350.80534441 -106.58596802 347.22924805 C-105.04333989 345.12566424 -103.90488484 344.38870646 -101.58596802 343.22924805 C-99.97391302 343.13527341 -98.35798638 343.10460011 -96.74319458 343.10467529 C-95.7199559 343.10211227 -94.69671722 343.09954926 -93.64247131 343.09690857 C-92.51523148 343.09900833 -91.38799164 343.10110809 -90.22659302 343.10327148 C-89.04267471 343.10140335 -87.85875641 343.09953522 -86.63896179 343.09761047 C-84.05966409 343.09359805 -81.48036281 343.09153087 -78.90106201 343.09114838 C-74.81511408 343.09000776 -70.72925648 343.07716507 -66.64334106 343.06158447 C-65.95341788 343.05901162 -65.2634947 343.05643877 -64.55266476 343.05378795 C-63.14149214 343.04852096 -61.73031959 343.04323548 -60.31914711 343.03793192 C-50.80667416 343.00285879 -41.29431178 342.97626263 -31.7817688 342.97875977 C-25.36656604 342.9803533 -18.95167027 342.96419359 -12.53656578 342.92805314 C-9.14463165 342.90966382 -5.75320947 342.90018725 -2.36123657 342.91252899 C1.43281637 342.92217457 5.22556533 342.90091801 9.01950073 342.87280273 C10.68606972 342.88809776 10.68606972 342.88809776 12.38630676 342.90370178 C18.99607388 342.816214 23.60912073 341.68981369 29.36701965 338.39574051 C31.75689637 337.03386636 34.14589716 336.33308589 36.78903198 335.60424805 C40.01069203 334.3872972 41.16818654 333.71813393 42.74069214 330.59106445 C43.05828491 329.59768066 43.37587769 328.60429687 43.70309448 327.58081055 C44.03261108 326.58130371 44.36212769 325.58179688 44.70162964 324.55200195 C44.93672241 323.78549316 45.17181519 323.01898438 45.41403198 322.22924805 C44.27543417 322.22704821 44.27543417 322.22704821 43.11383438 322.22480392 C24.65273283 322.18776863 6.19182101 322.1287976 -12.26913071 322.04534531 C-21.19668636 322.0055187 -30.1241534 321.97314466 -39.05178833 321.95825195 C-46.83220588 321.94525415 -54.61242875 321.91833759 -62.39273667 321.87463498 C-66.51323241 321.85197782 -70.63348765 321.8363399 -74.75405121 321.8373642 C-78.63163209 321.83810832 -82.50868051 321.82025832 -86.38612366 321.78808022 C-87.80991946 321.77955399 -89.23377481 321.77784974 -90.65758514 321.78344536 C-92.60051348 321.79006466 -94.54347818 321.76984033 -96.48629761 321.74822998 C-97.57401333 321.74454281 -98.66172905 321.74085564 -99.78240585 321.73705673 C-103.27952538 321.10362413 -104.46536258 320.03909695 -106.58596802 317.22924805 C-107.13954366 313.35421856 -107.33454092 311.2283069 -104.94781113 308.04293442 C-101.88808906 305.6933388 -100.13241021 305.72284294 -96.29647827 305.71026611 C-94.35718193 305.6893969 -94.35718193 305.6893969 -92.37870789 305.66810608 C-90.94811886 305.67281905 -89.51753104 305.67791301 -88.08694458 305.68334961 C-86.57897372 305.67461464 -85.07101214 305.66412912 -83.56306458 305.65202332 C-79.47038318 305.62413298 -75.37800376 305.62075929 -71.28524113 305.6217432 C-67.00770852 305.61861669 -62.73031244 305.59300397 -58.45285034 305.56976318 C-50.35335366 305.52917953 -42.25393753 305.50885694 -34.15435481 305.49578929 C-24.93308343 305.47992723 -15.7119493 305.44151499 -6.49075747 305.401196 C12.47746231 305.31876471 31.44566915 305.26469281 50.41403198 305.22924805 C49.95957234 303.81133397 49.50028254 302.39496758 49.03903198 300.97924805 C48.78379761 300.1903418 48.52856323 299.40143555 48.26559448 298.58862305 C47.47420936 296.23717481 47.47420936 296.23717481 46.35153198 294.16674805 C44.96326525 291.29766347 44.77644234 288.37013785 44.41403198 285.22924805 C43.66527424 285.2259379 42.91651649 285.22262775 42.14506912 285.2192173 C23.9343695 285.13803157 5.72375485 285.04595369 -12.48682785 284.94172096 C-21.29329437 284.89157824 -30.0997515 284.84513552 -38.90628052 284.80737305 C-46.58117203 284.77445369 -54.25599105 284.7346228 -61.93080258 284.68645799 C-65.99534627 284.66119242 -70.05984187 284.63941132 -74.12444305 284.62590408 C-77.94935612 284.61308423 -81.77410426 284.59103072 -85.59892654 284.56186485 C-87.00337823 284.55278847 -88.40785647 284.5470987 -89.81233597 284.54503441 C-91.72900324 284.54171249 -93.64563362 284.52506004 -95.56222534 284.50772095 C-96.63519238 284.50219019 -97.70815941 284.49665943 -98.81364059 284.49096107 C-101.60644797 284.2273147 -103.25450651 283.76085629 -105.58596802 282.22924805 C-107.13183678 279.13751053 -106.87956323 276.63495252 -106.58596802 273.22924805 C-104.41963973 270.26561636 -103.23383242 269.33253898 -99.57607841 268.74937248 C-98.39073572 268.7586735 -97.20539303 268.76797451 -95.98413086 268.77755737 C-95.32214978 268.77711178 -94.66016871 268.77666619 -93.9781276 268.77620709 C-91.76079445 268.77932268 -89.54476975 268.81085377 -87.32766724 268.84204102 C-85.73741932 268.84967855 -84.14716131 268.85541445 -82.55690002 268.85939026 C-79.13169445 268.87115919 -75.70683949 268.89469084 -72.28176498 268.92678452 C-66.8598648 268.97577508 -61.43827088 268.98800465 -56.01617432 268.99319458 C-40.59772578 269.01301929 -25.17976028 269.07213489 -9.76174927 269.19116211 C-1.24655267 269.25658301 7.26800605 269.28603125 15.78345668 269.27648461 C21.16745879 269.27247164 26.54874039 269.31239803 31.93222356 269.38517451 C35.29270083 269.41995463 38.65213043 269.41256402 42.01269341 269.39355278 C43.56309584 269.39307422 45.11361751 269.40954458 46.66361809 269.4448452 C55.56752703 269.67369349 55.56752703 269.67369349 63.48485947 265.99530411 C66.17324892 263.35584521 66.17324892 263.35584521 68.39962578 260.57115364 C70.36921484 258.28135149 71.59099262 257.2082845 74.41403198 256.22924805 C81.03907981 256.58122816 86.14370074 259.27482071 92.01168823 262.1472168 C96.1453858 263.46183703 97.51942948 262.9939898 101.41403198 261.22924805 C102.53680542 260.76647461 103.65957886 260.30370117 104.81637573 259.8269043 C105.98297729 259.32030273 107.14957886 258.81370117 108.35153198 258.29174805 C109.51555542 257.78772461 110.67957886 257.28370117 111.87887573 256.7644043 C113.04547729 256.25780273 114.21207886 255.75120117 115.41403198 255.22924805 C116.63735229 254.85799805 117.86067261 254.48674805 119.12106323 254.10424805 C123.82930141 251.42340069 124.57744987 248.16487247 126.16403198 243.16674805 C126.71270167 241.52711887 127.26964982 239.8902304 127.83590698 238.2565918 C128.06890503 237.53205811 128.30190308 236.80752441 128.54196167 236.06103516 C129.41403198 234.22924805 129.41403198 234.22924805 132.41403198 232.22924805 C139.67403198 231.89924805 146.93403198 231.56924805 154.41403198 231.22924805 C154.41403198 183.04924805 154.41403198 134.86924805 154.41403198 85.22924805 C136.59403198 77.63924805 118.77403198 70.04924805 100.41403198 62.22924805 C83.30294975 54.91103488 83.30294975 54.91103488 75.1998291 51.43334961 C71.88086558 50.009587 68.5609672 48.58801974 65.24093628 47.16674805 C54.71884734 42.66067289 44.20196391 38.14352524 33.70332336 33.58303833 C29.13252814 31.59825712 24.55899543 29.6198308 19.98522949 27.64190674 C17.83060153 26.70786671 15.67739412 25.77054219 13.5256958 24.82977295 C10.57133352 23.53817946 7.61243565 22.25757261 4.65231323 20.97924805 C3.78426056 20.59616486 2.91620789 20.21308167 2.02185059 19.81838989 C-4.40249059 17.06381035 -8.19040635 16.32441915 -14.73831177 19.2644043 Z M141.41403198 248.22924805 C139.31714675 253.68189574 139.31714675 253.68189574 137.25704956 259.1484375 C135.90854521 262.53668962 134.95936425 264.77911785 132.10934448 267.1315918 C128.93587455 268.42397593 125.75648227 269.48511157 122.47653198 270.47924805 C116.98930317 272.19074246 112.03875804 274.32897948 106.97653198 277.04174805 C97.70416336 281.76599396 97.70416336 281.76599396 92.41403198 280.22924805 C87.64636298 278.42064318 83.02417634 276.40482179 78.41403198 274.22924805 C75.86892823 276.60036574 73.357824 279.0046944 70.85153198 281.41674805 C70.12772339 282.0902832 69.40391479 282.76381836 68.65817261 283.45776367 C67.97819214 284.1184082 67.29821167 284.77905273 66.59762573 285.4597168 C65.96397095 286.06195068 65.33031616 286.66418457 64.67745972 287.28466797 C63.1472182 289.20288427 63.1472182 289.20288427 63.63839722 291.78564453 C64.88647579 295.71766166 66.69292619 299.37188055 68.45309448 303.09643555 C70.014256 308.18607593 69.04822702 312.21524253 66.74215698 316.88549805 C66.05677097 318.17067991 65.36374475 319.45180981 64.66403198 320.72924805 C61.13812653 327.39968871 58.68155015 333.96904432 56.61715698 341.2175293 C55.04166774 345.16136763 53.48079458 346.29137712 49.68649292 348.01318359 C47.69233518 348.85576782 45.68580542 349.64254931 43.66403198 350.41674805 C41.27153198 351.34487305 38.87903198 352.27299805 36.41403198 353.22924805 C36.41403198 360.48924805 36.41403198 367.74924805 36.41403198 375.22924805 C39.19840698 376.37393555 39.19840698 376.37393555 42.03903198 377.54174805 C43.68065308 378.2359082 43.68065308 378.2359082 45.35543823 378.9440918 C47.54823167 379.86545711 49.75757533 380.74780864 51.97653198 381.60424805 C56.83589119 384.84382085 58.28111071 392.52703933 60.22653198 397.91674805 C62.10960972 403.10138043 64.21782494 407.92857737 66.85153198 412.79174805 C68.57831107 416.17259973 69.39988475 417.9604506 69.60153198 421.79174805 C68.1735349 425.92542381 66.36740589 429.78716143 64.37496948 433.6784668 C63.27935252 436.58675085 63.36400172 437.37897254 64.41403198 440.22924805 C65.80280039 442.02830311 65.80280039 442.02830311 67.57418823 443.68237305 C68.51681519 444.61049805 68.51681519 444.61049805 69.47848511 445.55737305 C70.46751831 446.50870117 70.46751831 446.50870117 71.47653198 447.47924805 C72.13975464 448.12893555 72.80297729 448.77862305 73.48629761 449.44799805 C75.12232515 451.04871565 76.76494111 452.64200997 78.41403198 454.22924805 C79.41563354 453.79612305 80.41723511 453.36299805 81.44918823 452.91674805 C82.79136343 452.35359762 84.13382695 451.79113403 85.47653198 451.22924805 C86.13330933 450.94307617 86.79008667 450.6569043 87.46676636 450.36206055 C91.93273031 448.51407546 95.50804917 447.64296374 100.41403198 448.22924805 C103.01456333 449.34538024 105.3402544 450.47783524 107.78903198 451.85424805 C112.88667365 454.61061183 117.79731673 456.77205015 123.35348511 458.42944336 C132.45676081 461.16200787 132.45676081 461.16200787 135.48825073 464.54174805 C136.78836815 467.10294032 137.62451479 469.46984637 138.41403198 472.22924805 C139.89903198 476.18924805 139.89903198 476.18924805 141.41403198 480.22924805 C149.00403198 480.22924805 156.59403198 480.22924805 164.41403198 480.22924805 C165.38340698 477.50674805 166.35278198 474.78424805 167.35153198 471.97924805 C170.43804254 464.13965717 170.43804254 464.13965717 173.39059448 461.38549805 C175.71684161 460.37484386 177.94010621 459.79200221 180.41403198 459.22924805 C182.71389553 458.46171962 185.00510536 457.66797491 187.28903198 456.85424805 C188.48399292 456.44045898 189.67895386 456.02666992 190.91012573 455.6003418 C195.16703637 453.93459416 198.95369388 451.79621195 202.81637573 449.3659668 C207.52122604 447.3071526 211.67171114 447.80190649 216.37887573 449.54174805 C217.7082921 450.09185137 219.03256333 450.65454532 220.35153198 451.22924805 C221.03537964 451.51541992 221.71922729 451.8015918 222.42379761 452.09643555 C224.09188467 452.79633222 225.75365681 453.51124797 227.41403198 454.22924805 C229.95913573 451.85813036 232.47023996 449.45380169 234.97653198 447.04174805 C235.70034058 446.36821289 236.42414917 445.69467773 237.16989136 445.00073242 C237.84987183 444.34008789 238.52985229 443.67944336 239.23043823 442.9987793 C239.86409302 442.39654541 240.4977478 441.79431152 241.15060425 441.17382812 C242.68084577 439.25561182 242.68084577 439.25561182 242.18966675 436.67285156 C240.94158818 432.74083444 239.13513777 429.08661554 237.37496948 425.36206055 C235.81380797 420.27242017 236.77983694 416.24325356 239.08590698 411.57299805 C239.77116359 410.28774718 240.46419657 409.00661909 241.16403198 407.72924805 C244.69771587 401.05748298 247.11198588 394.51197151 249.11325073 387.2409668 C251.14611895 382.53423587 254.13751854 381.75255806 258.71090698 379.87768555 C259.85043823 379.45745117 260.98996948 379.0372168 262.16403198 378.60424805 C266.07429767 377.40596269 266.07429767 377.40596269 269.41403198 375.22924805 C269.5010354 373.59451923 269.52104261 371.9561075 269.51168823 370.3190918 C269.50846558 369.32973633 269.50524292 368.34038086 269.50192261 367.32104492 C269.4935437 366.28012695 269.48516479 365.23920898 269.47653198 364.16674805 C269.4697644 362.59957031 269.4697644 362.59957031 269.46286011 361.00073242 C269.45103111 358.41018145 269.43454887 355.81974246 269.41403198 353.22924805 C268.22164917 352.7703418 267.02926636 352.31143555 265.80075073 351.83862305 C264.23409383 351.21946523 262.6677012 350.59963844 261.10153198 349.97924805 C260.31584839 349.67889648 259.53016479 349.37854492 258.72067261 349.0690918 C251.3291408 346.11247907 251.3291408 346.11247907 249.41403198 342.22924805 C248.38413837 339.46972449 247.51828559 336.67237085 246.66403198 333.85424805 C244.36269129 326.50883226 241.47037113 320.00874223 237.63668823 313.3425293 C235.7384533 308.50900458 236.68899457 304.9725705 238.64059448 300.2800293 C239.57712818 298.44620215 240.51463715 296.61287277 241.45309448 294.7800293 C242.54871144 291.87174525 242.46406224 291.07952355 241.41403198 288.22924805 C240.02526358 286.43019298 240.02526358 286.43019298 238.25387573 284.77612305 C237.62545776 284.15737305 236.99703979 283.53862305 236.34957886 282.90112305 C235.69022339 282.2669043 235.03086792 281.63268555 234.35153198 280.97924805 C233.68830933 280.32956055 233.02508667 279.67987305 232.34176636 279.01049805 C230.70573881 277.40978045 229.06312286 275.81648612 227.41403198 274.22924805 C226.49621948 274.66237305 225.57840698 275.09549805 224.63278198 275.54174805 C223.39355514 276.10503298 222.15395116 276.66748874 220.91403198 277.22924805 C220.31332886 277.51541992 219.71262573 277.8015918 219.09371948 278.09643555 C213.78522986 280.46831389 208.79963209 281.44509202 203.21139526 279.43823242 C200.83890161 278.35802309 198.53452259 277.19096082 196.22653198 275.97924805 C190.52838634 273.10321064 185.15422675 270.67003185 178.97653198 269.04174805 C175.27242978 267.97406751 173.71071757 267.51851649 170.91403198 264.79174805 C168.60801683 259.31496207 166.46354882 253.80848833 164.41403198 248.22924805 C156.82403198 248.22924805 149.23403198 248.22924805 141.41403198 248.22924805 Z " fill="#FA713E" transform="translate(205.58596801757813,7.770751953125)"/>
<path d="M0 0 C10.92300894 8.35876599 18.16636667 19.25428346 20.5625 32.9609375 C22.25279371 49.49015083 18.3041963 62.56494533 8.375 75.8984375 C6.82662054 77.66038654 5.22915204 79.31306464 3.5625 80.9609375 C4.58988281 81.445625 5.61726563 81.9303125 6.67578125 82.4296875 C30.99995757 94.10446769 48.35017422 111.42876308 57.5625 136.9609375 C60.17875212 144.51098792 62.31815454 152.93609915 61.5625 160.9609375 C59.76503279 163.67027221 58.48380086 165.50028707 55.5625 166.9609375 C53.3440637 167.0619267 51.1225066 167.09607472 48.90177917 167.10137939 C48.20939425 167.10435052 47.51700933 167.10732164 46.80364305 167.1103828 C44.47219201 167.11908832 42.1407922 167.1205796 39.80932617 167.12207031 C38.14228709 167.1266972 36.47524906 167.13172168 34.80821228 167.13711548 C30.27095002 167.15025445 25.73370257 167.15668741 21.19642425 167.16112614 C18.36311311 167.1640546 15.52980605 167.16815898 12.69649696 167.17263031 C3.83582617 167.18630951 -5.02483536 167.19597396 -13.88551599 167.1998322 C-24.12136587 167.20431342 -34.35708224 167.22186248 -44.59289151 167.2508328 C-52.49952908 167.27243567 -60.40612905 167.28253574 -68.31279582 167.28387332 C-73.03747381 167.2849224 -77.76202638 167.29085194 -82.48667336 167.30869293 C-86.93128338 167.32514941 -91.37567337 167.32734095 -95.82030296 167.31855392 C-97.45173099 167.31778223 -99.08317073 167.32214364 -100.71456909 167.33201218 C-102.94191853 167.34469553 -105.16848445 167.33887516 -107.39582825 167.32843018 C-108.6422601 167.32989674 -109.88869196 167.3313633 -111.17289448 167.3328743 C-114.74840084 166.92551654 -116.59278384 166.12814422 -119.4375 163.9609375 C-122.63551333 159.1639175 -121.30034926 154.48817478 -120.4375 148.9609375 C-116.59642164 131.84722204 -108.85918505 117.19524178 -97.4375 103.9609375 C-96.85613281 103.28289062 -96.27476562 102.60484375 -95.67578125 101.90625 C-86.98947208 92.52277501 -75.24391827 85.62459544 -63.4375 80.9609375 C-64.283125 80.0328125 -65.12875 79.1046875 -66 78.1484375 C-76.21799582 66.09458427 -81.42028629 53.58634084 -80.7578125 37.7578125 C-79.48620935 22.68466297 -72.50371089 10.62108014 -61.01953125 0.91796875 C-42.8722994 -12.61311509 -18.53152848 -12.76736119 0 0 Z M-55.4375 18.9609375 C-61.87316771 27.55103474 -64.57728578 36.25560776 -63.4375 46.9609375 C-61.42551325 55.70765836 -57.26952806 63.392435 -49.97265625 68.78125 C-40.61297996 74.60817629 -31.87098742 76.39476071 -20.91015625 74.53125 C-11.70267712 71.90978845 -4.21603224 65.1242634 0.5625 56.9609375 C4.39970742 49.3301273 4.92695362 40.43416952 2.87109375 32.1875 C-1.05542464 21.50868429 -7.47862905 15.2217472 -17.37109375 9.92578125 C-30.49527126 4.0594649 -45.78017823 9.07815297 -55.4375 18.9609375 Z M-88.12646484 119.34814453 C-94.66785775 127.39515412 -102.4375 139.36195803 -102.4375 149.9609375 C-54.5875 149.9609375 -6.7375 149.9609375 42.5625 149.9609375 C38.39652804 131.21406368 28.55473597 116.07656833 12.80078125 104.9609375 C1.49494227 97.97832042 -11.06029889 92.79701257 -24.4375 91.9609375 C-25.22125 91.90808594 -26.005 91.85523438 -26.8125 91.80078125 C-50.63917089 90.98528507 -72.4560086 101.62348714 -88.12646484 119.34814453 Z " fill="#FC8430" transform="translate(228.4375,89.0390625)"/>
<path d="M0 0 C1.00804687 0.40089844 2.01609375 0.80179687 3.0546875 1.21484375 C19.30385609 8.49531539 31.18638352 21.79663073 38.00390625 38.14453125 C44.16128531 55.79568454 43.88320343 74.32841068 36.4921875 91.50390625 C27.43867582 109.3372188 13.72816107 121.11003022 -4.84765625 128.06640625 C-21.88151003 133.25934842 -39.900221 131.23628592 -56 124 C-71.9169392 115.51372552 -84.02951895 102.13879265 -90 85 C-95.87012372 65.32201442 -93.66334182 46.29928535 -84.0390625 28.3203125 C-74.14024455 12.20154763 -59.45095857 1.60708727 -41.23828125 -3.26953125 C-27.73006267 -5.98042039 -12.76002988 -5.20517843 0 0 Z M-63.30859375 28.8046875 C-72.49728099 40.73088203 -77.4241335 53.78946299 -76 69 C-73.80931116 83.18471025 -66.71163167 95.17196436 -55.3984375 104.0390625 C-43.04461032 112.40548724 -29.93483835 115.38415952 -15.3046875 112.78515625 C-1.9178353 109.60459208 8.97495392 102.18438001 17 91 C24.75915633 77.13330377 27.39453065 63.43509262 23.03125 47.94140625 C18.2382335 34.27041599 8.94974656 23.50940594 -4 17 C-24.12977283 8.14395112 -48.15314159 12.51714132 -63.30859375 28.8046875 Z " fill="#FC4F56" transform="translate(384,309)"/>
</svg>
