<?xml version="1.0" encoding="UTF-8"?>
<svg version="1.1" xmlns="http://www.w3.org/2000/svg" width="512" height="512">
<path d="M0 0 C7.7458478 2.65146329 14.45515984 8.98106138 20.89453125 13.890625 C24.508035 16.6413658 28.17017009 19.31148977 31.875 21.9375 C33.00653058 22.74085701 34.13804046 23.54424319 35.26953125 24.34765625 C35.85814941 24.76547363 36.44676758 25.18329102 37.05322266 25.61376953 C40.90009383 28.35298881 44.73149267 31.1136594 48.5625 33.875 C49.32481934 34.422771 50.08713867 34.97054199 50.87255859 35.53491211 C52.9224932 37.01339265 54.96348387 38.50311004 57 40 C57.95777344 40.70382813 58.91554688 41.40765625 59.90234375 42.1328125 C62.86546647 44.77037798 63.82724882 46.67021768 64.3359375 50.5859375 C64.34882812 51.50632813 64.36171875 52.42671875 64.375 53.375 C64.40335938 54.29023437 64.43171875 55.20546875 64.4609375 56.1484375 C63.647474 61.18088117 61.04882116 64.1385721 57.1796875 67.31640625 C56.08914063 68.05761719 54.99859375 68.79882812 53.875 69.5625 C52.61656721 70.43139398 51.35878659 71.30123305 50.1015625 72.171875 C49.43543945 72.62884766 48.76931641 73.08582031 48.08300781 73.55664062 C44.43210114 76.08642968 40.84482194 78.70394071 37.25 81.3125 C35.72803577 82.41299721 34.20589829 83.51325484 32.68359375 84.61328125 C31.91772949 85.16709473 31.15186523 85.7209082 30.36279297 86.29150391 C26.34679883 89.19540213 22.32971896 92.09779654 18.3125 95 C17.58256836 95.52762939 16.85263672 96.05525879 16.10058594 96.59887695 C14.7224569 97.59456403 13.34342852 98.58900785 11.96337891 99.58203125 C10.64864495 100.53154316 9.33843443 101.48734838 8.03271484 102.44921875 C2.33492457 106.61476744 -2.03172629 107.86954527 -9 107 C-14.11762818 104.34641502 -17.17705942 101.46882174 -19 96 C-19.08494728 93.34105893 -19.11594796 90.70914623 -19.09765625 88.05078125 C-19.09553383 86.89185616 -19.09553383 86.89185616 -19.09336853 85.70951843 C-19.08777466 83.24380611 -19.07522333 80.77818485 -19.0625 78.3125 C-19.05748421 76.63997527 -19.05292144 74.96744912 -19.04882812 73.29492188 C-19.03780724 69.19657954 -19.02054684 65.09830521 -19 61 C-48.25731854 61.08222795 -77.51459219 61.17437949 -106.77183574 61.28005161 C-110.23957318 61.29256788 -113.70731091 61.30500106 -117.17504883 61.31738281 C-117.86530431 61.31984881 -118.55555979 61.3223148 -119.2667321 61.32485552 C-130.38842194 61.36439132 -141.5101217 61.39722267 -152.63184016 61.42749982 C-164.07562734 61.45880587 -175.51936707 61.49763538 -186.96310908 61.54279006 C-193.37743664 61.56786816 -199.79173563 61.58970282 -206.20609856 61.60334396 C-212.26437433 61.61633622 -218.32255113 61.63856831 -224.38077164 61.66738319 C-226.58430079 61.67632687 -228.78784582 61.68211753 -230.99139214 61.68421364 C-242.45330645 61.69704992 -253.8368648 61.99967614 -265.26808167 62.87930298 C-266.26708872 62.95445456 -267.26609577 63.02960614 -268.29537576 63.10703504 C-299.99430911 65.78617589 -330.16084328 77.65294344 -356 96 C-356.58765137 96.41266113 -357.17530273 96.82532227 -357.78076172 97.25048828 C-397.7393895 125.72086839 -421.55558434 169.37265959 -430 217 C-430.76818864 222.3609106 -431.17893258 227.61293309 -431.23828125 233.03125 C-431.2480751 233.77633316 -431.25786896 234.52141632 -431.26795959 235.28907776 C-431.59797209 266.94050048 -426.97119387 295.35838022 -413 324 C-412.68836914 324.64775391 -412.37673828 325.29550781 -412.05566406 325.96289062 C-392.05727013 367.06011922 -355.39717443 398.66947378 -312.62792969 414.09619141 C-308.05858222 415.66770054 -303.45182765 417.08784745 -298.8125 418.4375 C-297.96389404 418.68467773 -297.11528809 418.93185547 -296.2409668 419.18652344 C-290.82480912 420.68676113 -285.5993849 421.51040554 -280 422 C-279.6596875 421.34773438 -279.319375 420.69546875 -278.96875 420.0234375 C-274.1587177 411.3500282 -268.53006416 406.17668805 -259 403 C-250.21866231 400.9928371 -241.64666143 402.24869406 -233.75 406.5625 C-226.32245946 411.43940659 -221.57202223 417.82393497 -219.4375 426.46875 C-217.81994572 435.8274569 -219.1708546 444.29990508 -224.54296875 452.296875 C-230.5655688 459.62873593 -237.94520308 464.2823759 -247.49609375 465.25390625 C-256.9052462 465.66764203 -264.66343069 463.29783504 -271.9375 457.25 C-277.40393689 451.9889212 -280.24052977 446.59470232 -281 439 C-282.258125 438.938125 -283.51625 438.87625 -284.8125 438.8125 C-328.87213888 434.33185876 -373.4597962 406.30431813 -401.375 372.875 C-402.92834429 370.92591635 -404.46932179 368.96693411 -406 367 C-406.63010986 366.20045898 -406.63010986 366.20045898 -407.27294922 365.38476562 C-425.0662533 342.66317153 -437.69501188 316.18561009 -444 288 C-444.19319824 287.195625 -444.38639648 286.39125 -444.58544922 285.5625 C-450.95240402 258.28594586 -450.7996777 226.16497744 -444 199 C-443.75330566 198.00274902 -443.50661133 197.00549805 -443.25244141 195.97802734 C-439.78813239 182.37811564 -435.24003157 169.56419189 -429 157 C-428.65211426 156.2879541 -428.30422852 155.5759082 -427.94580078 154.84228516 C-419.97779215 138.66193993 -409.91301756 124.4929452 -398 111 C-397.278125 110.15566406 -396.55625 109.31132813 -395.8125 108.44140625 C-391.53695244 103.48945371 -387.00235525 99.20265901 -382 95 C-381.07703125 94.17757812 -380.1540625 93.35515625 -379.203125 92.5078125 C-341.75136332 59.36524157 -294.40949487 45.61497009 -245.25610352 45.77294922 C-242.78101608 45.77351425 -240.30592831 45.77319497 -237.83084106 45.77206421 C-232.53049244 45.77161112 -227.23020513 45.77722465 -221.92987251 45.78853989 C-214.26676819 45.80488843 -206.60368759 45.81001239 -198.94056772 45.81251587 C-186.50357778 45.81687841 -174.06661428 45.83014812 -161.62963867 45.84912109 C-149.55802542 45.86751739 -137.48641939 45.88165548 -125.41479492 45.89013672 C-124.66899988 45.89066217 -123.92320485 45.89118761 -123.15480996 45.89172898 C-119.41286764 45.89433931 -115.67092526 45.89686667 -111.92898285 45.89935279 C-80.95263602 45.92004035 -49.97632205 45.95537639 -19 46 C-19.01571045 44.97116699 -19.0314209 43.94233398 -19.04760742 42.88232422 C-19.10211334 39.04695537 -19.13642477 35.21162043 -19.16479492 31.37597656 C-19.17983465 29.71934237 -19.20027177 28.06274769 -19.22631836 26.40625 C-19.26291515 24.0181297 -19.27977439 21.63053812 -19.29296875 19.2421875 C-19.30845261 18.50757294 -19.32393646 17.77295837 -19.33988953 17.01608276 C-19.34143207 12.24894306 -18.52441883 9.04282391 -16 5 C-10.72883627 0.24309614 -6.99442686 -0.90750475 0 0 Z M-3 18 C-3 41.43 -3 64.86 -3 89 C-0.22809419 87.61404709 2.00172296 86.39413833 4.4765625 84.63671875 C5.13833496 84.1684668 5.80010742 83.70021484 6.48193359 83.21777344 C7.18914551 82.7127832 7.89635742 82.20779297 8.625 81.6875 C9.3670166 81.1605957 10.1090332 80.63369141 10.87353516 80.09082031 C22.97753916 71.48025867 34.99722842 62.75091937 47 54 C43.12846351 49.86636723 38.97255482 46.69985773 34.3125 43.5 C32.7988419 42.44622729 31.28584381 41.39150603 29.7734375 40.3359375 C28.99194336 39.79163086 28.21044922 39.24732422 27.40527344 38.68652344 C23.38886653 35.87030958 19.41234498 32.99944535 15.4375 30.125 C14.71280518 29.60228516 13.98811035 29.07957031 13.24145508 28.54101562 C8.98588822 25.46387574 4.78997582 22.32699354 0.64868164 19.09716797 C-0.9474374 17.81532759 -0.9474374 17.81532759 -3 18 Z M-260.73828125 422.48046875 C-264.06728995 425.95248975 -265.97021727 429.09060328 -266.234375 433.94921875 C-265.6426968 439.12640299 -263.14459466 442.91123922 -259.4375 446.4375 C-255.24357694 449.12591222 -251.90877932 449.3327986 -247 449 C-242.13954867 447.25023752 -238.50176117 444.56670691 -236 440 C-234.48404683 435.24061215 -234.53290694 431.26687595 -236.5625 426.6875 C-239.43276145 421.75300943 -242.95079549 419.55887396 -248.4375 418.0625 C-253.48340834 417.97397529 -256.86809823 419.1842904 -260.73828125 422.48046875 Z " fill="#FB7A37" transform="translate(448,5)"/>
<path d="M0 0 C7.38424673 5.37036126 11.33227689 12.44100902 15 20.625 C15.95125452 22.68055414 16.90442862 24.73522088 17.859375 26.7890625 C18.33826172 27.82579102 18.81714844 28.86251953 19.31054688 29.93066406 C21.53183343 34.66709801 23.88815671 39.33249749 26.25 44 C31.50920292 54.44587161 36.58245586 64.97458099 41.58105469 75.54736328 C42.58036966 77.64408805 43.5989012 79.72880194 44.6328125 81.80859375 C52.31736865 97.58317258 53.33692737 111.69879228 53.26757812 128.96459961 C53.27300802 131.24937382 53.28013552 133.53414453 53.28881836 135.81890869 C53.30694403 141.9816727 53.30003068 148.14416677 53.28730202 154.30693507 C53.27712702 160.772059 53.28657935 167.23716087 53.29284668 173.70228577 C53.30057032 185.24156686 53.28820243 196.78071057 53.26780933 208.31997014 C53.24991193 218.77074672 53.25307188 229.22134569 53.27148438 239.67211914 C53.29291064 251.83900786 53.30085005 264.00575741 53.28903532 276.17266852 C53.2828065 282.60248521 53.28194889 289.03217966 53.29518127 295.46198845 C53.30674332 301.50078385 53.29870712 307.53924374 53.27560425 313.57800293 C53.27032078 315.79191595 53.27182469 318.00585727 53.28065491 320.21975899 C53.29160693 323.244659 53.27785063 326.26848771 53.25793457 329.2933197 C53.26685746 330.16637613 53.27578034 331.03943255 53.28497362 331.93894523 C53.19932725 338.65788604 51.42999267 343.89432617 47.00390625 349.0234375 C46.44574219 349.46945312 45.88757813 349.91546875 45.3125 350.375 C44.47912109 351.06722656 44.47912109 351.06722656 43.62890625 351.7734375 C38.17984685 355.33061973 33.08452003 355.39618791 26.75 355.4375 C25.86054688 355.47037109 24.97109375 355.50324219 24.0546875 355.53710938 C19.49061269 355.57457566 17.39685018 355.47624344 13.625 352.69921875 C11.75 350 11.75 350 11.75 346.375 C12.69543759 343.18414813 13.11371447 341.89812558 15.75 340 C19.39894317 338.17552841 23.93787258 338.62744513 27.984375 338.48242188 C32.33084921 338.4241405 32.33084921 338.4241405 35.75 336 C36.08 323.46 36.41 310.92 36.75 298 C6.39 298 -23.97 298 -55.25 298 C-57.80654406 319.95991461 -57.80654406 319.95991461 -51.25 338 C-48.37187118 338.29534647 -45.69919178 338.41712176 -42.8203125 338.40625 C-41.57929276 338.42250427 -41.57929276 338.42250427 -40.3132019 338.43908691 C-37.66705525 338.47337675 -35.02133968 338.48894354 -32.375 338.5 C-28.89802367 338.51458516 -25.42200749 338.54831901 -21.9453125 338.59375 C-21.14932648 338.59072876 -20.35334045 338.58770752 -19.53323364 338.58459473 C-14.95993881 338.64618958 -11.97334307 339.05013981 -8.25 342 C-6.70413124 345.09173752 -6.95640479 347.59429552 -7.25 351 C-8.66113281 353.19335938 -8.66113281 353.19335938 -11.25 355 C-14.49319723 355.59855617 -17.69399437 355.56031275 -20.984375 355.53125 C-22.4123642 355.53699036 -22.4123642 355.53699036 -23.86920166 355.54284668 C-25.88318946 355.545567 -27.89721252 355.53819741 -29.91113281 355.52148438 C-32.97542441 355.50017093 -36.03734609 355.52123302 -39.1015625 355.546875 C-41.06250513 355.5442299 -43.0234463 355.53910115 -44.984375 355.53125 C-45.89298279 355.53934692 -46.80159058 355.54744385 -47.73773193 355.55578613 C-55.31684072 355.44561495 -60.66049745 353.58950255 -66.0625 348.1875 C-69.89074019 342.60920715 -71.62518747 337.84086938 -71.6242218 331.07295227 C-71.62819621 330.41234163 -71.63217061 329.75173099 -71.63626546 329.07110184 C-71.64582232 326.87701035 -71.6341115 324.68357443 -71.62231445 322.48950195 C-71.62474454 320.90877035 -71.62846597 319.32804029 -71.63337708 317.74731445 C-71.64275768 313.46858862 -71.63338577 309.19009266 -71.62004495 304.91138482 C-71.6087065 300.43027744 -71.61283966 295.94918097 -71.61479187 291.46806335 C-71.61567381 283.9470139 -71.60461301 276.42605477 -71.58618164 268.9050293 C-71.56499247 260.20884369 -71.56150964 251.51279013 -71.5677436 242.81658393 C-71.57343612 234.44711902 -71.56779441 226.07770062 -71.55657005 217.70824242 C-71.55192494 214.14732186 -71.55104981 210.58642974 -71.5531559 207.02550697 C-71.55503823 202.83528604 -71.54693916 198.64519971 -71.5310955 194.45500946 C-71.52685038 192.91669713 -71.52600364 191.37837114 -71.52878571 189.84005547 C-71.53200484 187.74192114 -71.522933 185.6441897 -71.51069641 183.5460968 C-71.50864354 182.37160634 -71.50659067 181.19711588 -71.50447559 179.9870348 C-71.25438829 177.05150977 -70.93973838 175.3928964 -69.25 173 C-65.11109787 171.16933175 -63.16614805 170.66068591 -58.875 172.25 C-56.25 174 -56.25 174 -55.25 176 C-55.15816685 177.41915655 -55.12806449 178.84255526 -55.12974548 180.26467896 C-55.12837082 181.15932861 -55.12699615 182.05397827 -55.12557983 182.97573853 C-55.12917511 183.95972626 -55.13277039 184.94371399 -55.13647461 185.95751953 C-55.13632858 186.99169006 -55.13618256 188.0258606 -55.1360321 189.09136963 C-55.13673076 192.52187166 -55.14452099 195.95231991 -55.15234375 199.3828125 C-55.1542081 201.75649994 -55.15563192 204.13018777 -55.15663147 206.50387573 C-55.16045534 212.76089535 -55.17028453 219.01789187 -55.18133545 225.27490234 C-55.19155236 231.6559213 -55.19612969 238.03694398 -55.20117188 244.41796875 C-55.2119069 256.9453243 -55.22950266 269.47265662 -55.25 282 C-42.71 282 -30.17 282 -17.25 282 C-17.25 228.54 -17.25 175.08 -17.25 120 C-29.79 120 -42.33 120 -55.25 120 C-55.09199706 129.03515277 -55.09199706 129.03515277 -54.88964844 138.06933594 C-54.87466309 139.75978027 -54.87466309 139.75978027 -54.859375 141.484375 C-54.83842773 142.63647461 -54.81748047 143.78857422 -54.79589844 144.97558594 C-55.34487788 148.63190707 -56.36779188 149.76598722 -59.25 152 C-61.25 152.56640625 -61.25 152.56640625 -63.25 152.5625 C-64.24 152.59537109 -64.24 152.59537109 -65.25 152.62890625 C-68.46029279 151.61941965 -69.45868048 149.80067198 -71.25 147 C-71.62991523 144.09692997 -71.78881215 141.58700885 -71.74609375 138.69140625 C-71.74754898 137.88823471 -71.74900421 137.08506317 -71.75050354 136.2575531 C-71.74884669 134.55716326 -71.73730925 132.8567581 -71.71655273 131.15649414 C-71.68793901 128.60169714 -71.69587987 126.04902447 -71.70898438 123.49414062 C-71.68483708 99.61537724 -62.61459016 81.43594401 -52.25 60.4375 C-50.17672047 56.22868273 -48.10545029 52.01888029 -46.03515625 47.80859375 C-45.53017105 46.78228851 -45.02518585 45.75598328 -44.50489807 44.69857788 C-41.64374008 38.8733917 -38.82014328 33.0331982 -36.05859375 27.16015625 C-35.75917877 26.52589218 -35.45976379 25.89162811 -35.15127563 25.23814392 C-33.83170977 22.44124865 -32.52248461 19.64048241 -31.23242188 16.82983398 C-27.99770505 9.95722096 -24.6733377 4.08085233 -18.0625 0.0625 C-11.92654938 -1.64751902 -6.1193456 -1.88287557 0 0 Z M-11.25 15 C-16.72387468 25.28281014 -22.11843667 35.60420349 -27.375 46 C-27.86009033 46.94891113 -28.34518066 47.89782227 -28.8449707 48.87548828 C-29.2905835 49.76220215 -29.73619629 50.64891602 -30.1953125 51.5625 C-30.59250488 52.34753906 -30.98969727 53.13257813 -31.39892578 53.94140625 C-32.44103068 56.09080429 -32.44103068 56.09080429 -32.25 59 C-16.74 59 -1.23 59 14.75 59 C7.5138413 42.81542867 7.5138413 42.81542867 -0.1875 26.875 C-0.65478516 25.93269531 -1.12207031 24.99039063 -1.60351562 24.01953125 C-2.05275391 23.12363281 -2.50199219 22.22773438 -2.96484375 21.3046875 C-3.35792725 20.52077637 -3.75101074 19.73686523 -4.15600586 18.92919922 C-5.22116391 16.85130898 -5.22116391 16.85130898 -7.25 15 C-8.57 15 -9.89 15 -11.25 15 Z M-41.25 75 C-48.64691517 89.05925562 -48.64691517 89.05925562 -53.25 104 C-23.88 104 5.49 104 35.75 104 C30.96301305 89.51791783 30.96301305 89.51791783 22.75 75 C1.63 75 -19.49 75 -41.25 75 Z M-1.25 120 C-1.25 173.46 -1.25 226.92 -1.25 282 C11.29 282 23.83 282 36.75 282 C36.75 228.54 36.75 175.08 36.75 120 C24.21 120 11.67 120 -1.25 120 Z " fill="#F8455F" transform="translate(437.25,152)"/>
<path d="M0 0 C27.14275041 23.00367996 45.06340092 54.7760391 48.16748047 90.50390625 C50.39684093 123.11111786 42.97695788 155.1414156 23.3125 181.625 C22.735 182.42421875 22.1575 183.2234375 21.5625 184.046875 C0.21767379 212.19996475 -30.87835634 230.26678187 -65.6875 235.625 C-101.08860727 240.42223135 -136.71968932 231.71275625 -165.33984375 210.2578125 C-195.47905063 186.95062335 -212.56324993 155.23880688 -218.0859375 117.93359375 C-218.3834606 115.49310019 -218.56453723 113.08052934 -218.6875 110.625 C-218.74035156 109.57957031 -218.79320312 108.53414062 -218.84765625 107.45703125 C-219.59485471 77.66655337 -211.06792072 45.75771775 -191.6875 22.625 C-190.96949219 21.70976562 -190.25148438 20.79453125 -189.51171875 19.8515625 C-177.57677531 4.80405177 -163.66780965 -6.56937156 -146.6875 -15.375 C-145.79442139 -15.84099609 -145.79442139 -15.84099609 -144.88330078 -16.31640625 C-97.70132651 -40.56040915 -40.98128599 -32.56444963 0 0 Z M-173.17626953 25.265625 C-190.21417214 44.87496232 -201.70590697 70.46341189 -202.6875 96.625 C-202.72746094 97.59050781 -202.76742187 98.55601562 -202.80859375 99.55078125 C-203.47081399 131.45421534 -191.77250847 161.0214114 -170.015625 184.26171875 C-147.22720508 207.3942591 -117.8296385 220.61082162 -85.1875 220.875 C-51.72862527 220.669283 -22.44001674 206.87170533 0.89428711 183.40991211 C22.67110166 160.7329656 32.95910126 129.74837349 32.5234375 98.6640625 C31.49610668 65.59922994 15.75221159 37.01354 -7.875 14.5625 C-56.12212133 -28.19743139 -130.48528629 -21.77986654 -173.17626953 25.265625 Z " fill="#FC7D34" transform="translate(282.6875,145.375)"/>
<path d="M0 0 C4.51785714 1.25496032 4.51785714 1.25496032 6.375 3.9375 C7.4177763 7.06582889 7.49576845 9.22939087 7.48852539 12.51049805 C7.48841209 14.22193245 7.48841209 14.22193245 7.48829651 15.96794128 C7.48313522 17.19926285 7.47797394 18.43058441 7.47265625 19.69921875 C7.4712413 20.96014847 7.46982635 22.22107819 7.46836853 23.5202179 C7.46371575 26.86901709 7.45473342 30.21774811 7.44366455 33.56652832 C7.43342687 36.98510143 7.42886586 40.40368159 7.42382812 43.82226562 C7.41279099 50.52736261 7.39604686 57.23242737 7.375 63.9375 C8.32117188 64.07921631 9.26734375 64.22093262 10.2421875 64.36694336 C17.19374806 65.63298116 22.21116824 71.18732107 26.12109375 76.8125 C30.72916022 84.6218089 31.69278138 92.93703636 29.75390625 101.765625 C27.24839201 109.73872808 22.91898712 116.04650058 15.80859375 120.5703125 C7.18146935 125.07030287 -1.2166199 126.28949941 -10.6875 123.8125 C-18.82326937 121.10057688 -25.57213443 115.56642342 -29.625 107.9375 C-29.9882941 105.9427247 -30.32466092 103.94272008 -30.625 101.9375 C-31.38643311 101.95321045 -32.14786621 101.9689209 -32.93237305 101.98510742 C-36.3923394 102.04758453 -39.8521869 102.08653172 -43.3125 102.125 C-44.51068359 102.15013672 -45.70886719 102.17527344 -46.94335938 102.20117188 C-48.10029297 102.21083984 -49.25722656 102.22050781 -50.44921875 102.23046875 C-51.51229248 102.2461792 -52.57536621 102.26188965 -53.6706543 102.27807617 C-57.07064742 101.88612589 -58.9054241 100.9876511 -61.625 98.9375 C-63.29854451 95.59041097 -63.8505613 93.83974518 -62.9375 90.1875 C-61.625 87.9375 -61.625 87.9375 -58.625 85.9375 C-55.8059082 85.61865234 -55.8059082 85.61865234 -52.42578125 85.5234375 C-51.21728516 85.48476562 -50.00878906 85.44609375 -48.76367188 85.40625 C-47.50103516 85.3753125 -46.23839844 85.344375 -44.9375 85.3125 C-43.66326172 85.27382812 -42.38902344 85.23515625 -41.07617188 85.1953125 C-37.92592708 85.10092314 -34.77569009 85.0153417 -31.625 84.9375 C-31.28364014 84.2475293 -30.94228027 83.55755859 -30.59057617 82.84667969 C-30.14174072 81.94336914 -29.69290527 81.04005859 -29.23046875 80.109375 C-28.78598389 79.2131543 -28.34149902 78.31693359 -27.88354492 77.39355469 C-24.07249015 69.95626836 -17.49404786 65.56051595 -9.625 62.9375 C-9.62357498 62.20722595 -9.62214996 61.4769519 -9.62068176 60.72454834 C-9.60284345 53.83835793 -9.56120565 46.95267715 -9.49290943 40.06681442 C-9.45863505 36.52671609 -9.43352896 32.98704945 -9.42944336 29.44677734 C-9.42434166 25.37545578 -9.37924293 21.30542757 -9.33203125 17.234375 C-9.3359639 15.96446716 -9.33989655 14.69455933 -9.34394836 13.38616943 C-9.31448372 11.61478607 -9.31448372 11.61478607 -9.28442383 9.80761719 C-9.27776199 8.76837097 -9.27110016 7.72912476 -9.26423645 6.65838623 C-8.625 3.9375 -8.625 3.9375 -6.31034851 1.56671143 C-3.625 -0.0625 -3.625 -0.0625 0 0 Z M-12.4375 83.0625 C-15.33056464 86.86481352 -16.44207499 90.16554319 -16.625 94.9375 C-15.87547319 99.32648173 -14.39477294 102.16772706 -11.25 105.3125 C-6.23579645 108.41653077 -2.77713274 109.43212296 3.08984375 108.609375 C7.96933891 107.17472001 11.16520433 103.80260165 13.875 99.625 C14.88216212 94.21150359 14.1529953 89.58685003 11.8125 84.625 C8.78414652 81.28604616 5.65075818 79.35718533 1.375 77.9375 C-4.24865375 77.9375 -7.97221612 79.68872996 -12.4375 83.0625 Z " fill="#FD8132" transform="translate(198.625,155.0625)"/>
</svg>
