<?xml version="1.0" encoding="UTF-8"?>
<svg version="1.1" xmlns="http://www.w3.org/2000/svg" width="512" height="512">
<path d="M0 0 C1.73974342 -0.00361794 1.73974342 -0.00361794 3.51463318 -0.00730896 C5.96315943 -0.00633062 8.41170782 0.00705946 10.86010742 0.03198242 C14.61127666 0.0663164 18.36009395 0.05263193 22.11132812 0.03320312 C24.49089546 0.04010071 26.87045671 0.04977229 29.25 0.0625 C30.93446983 0.0550602 30.93446983 0.0550602 32.65296936 0.04747009 C34.21995827 0.07122459 34.21995827 0.07122459 35.81860352 0.09545898 C37.19496727 0.10475685 37.19496727 0.10475685 38.59913635 0.11424255 C41.82773181 0.78985534 43.01433949 2.09078044 45.05859375 4.62890625 C46.13776601 7.86642303 46.17284976 10.20642396 46.15625 13.609375 C46.15302734 14.77275391 46.14980469 15.93613281 46.14648438 17.13476562 C46.13810547 18.34970703 46.12972656 19.56464844 46.12109375 20.81640625 C46.11658203 22.04294922 46.11207031 23.26949219 46.10742188 24.53320312 C46.0956244 27.56515293 46.07916296 30.59700531 46.05859375 33.62890625 C46.63722168 33.74500244 47.21584961 33.86109863 47.81201172 33.98071289 C52.49337381 34.96272553 56.78311095 36.14194443 61.18359375 38.06640625 C62.13492187 38.47761719 63.08625 38.88882813 64.06640625 39.3125 C65.05382812 39.74691406 66.04125 40.18132812 67.05859375 40.62890625 C69.3903184 41.63269538 71.7244899 42.63065485 74.05859375 43.62890625 C74.77607788 42.872146 74.77607788 42.872146 75.50805664 42.10009766 C77.69896412 39.80476053 79.90960664 37.52941491 82.12109375 35.25390625 C82.87326172 34.45984375 83.62542969 33.66578125 84.40039062 32.84765625 C91.95221037 25.1323772 91.95221037 25.1323772 98.05859375 24.62890625 C103.7271137 26.77842438 107.39259977 30.52615735 111.57421875 34.74609375 C112.27125916 35.44026398 112.96829956 36.1344342 113.6864624 36.84963989 C115.15241201 38.31355488 116.61460746 39.7812378 118.07324219 41.25244141 C120.30469324 43.49997762 122.55172153 45.73103753 124.80078125 47.9609375 C126.2262235 49.38836182 127.65073506 50.81671627 129.07421875 52.24609375 C129.74503479 52.9108371 130.41585083 53.57558044 131.10699463 54.26046753 C137.18785235 60.43390162 137.18785235 60.43390162 138.05859375 64.62890625 C137.85914914 69.54959731 136.52280174 71.77533491 133.0234375 75.15234375 C132.21455078 75.94511719 131.40566406 76.73789063 130.57226562 77.5546875 C129.72212891 78.36292969 128.87199219 79.17117187 127.99609375 80.00390625 C127.14208984 80.83535156 126.28808594 81.66679687 125.40820312 82.5234375 C123.30249441 84.57032754 121.18601626 86.60463342 119.05859375 88.62890625 C119.76435547 90.20478516 119.76435547 90.20478516 120.484375 91.8125 C129.05859375 111.08899661 129.05859375 111.08899661 129.05859375 116.62890625 C129.81479004 116.6131958 130.57098633 116.59748535 131.35009766 116.58129883 C134.79451951 116.51872578 138.23882149 116.4798442 141.68359375 116.44140625 C142.87339844 116.41626953 144.06320312 116.39113281 145.2890625 116.36523438 C156.42545488 116.27191265 156.42545488 116.27191265 161.05859375 119.62890625 C162.30501262 122.12174399 162.2125561 123.85231438 162.25146484 126.6418457 C162.27555923 128.2090612 162.27555923 128.2090612 162.30014038 129.80793762 C162.34453181 134.58834231 162.38565255 139.36860741 162.40869141 144.14916992 C162.42525831 146.67205017 162.45255759 149.19488334 162.49072266 151.7175293 C162.54542564 155.35099695 162.56735624 158.98336378 162.58203125 162.6171875 C162.61603531 164.30803215 162.61603531 164.30803215 162.65072632 166.03303528 C162.62983516 173.76095623 162.62983516 173.76095623 159.93920898 177.84912109 C156.46906676 179.99314489 154.50518427 180.20987864 150.4453125 180.1171875 C149.19814453 180.10107422 147.95097656 180.08496094 146.66601562 180.06835938 C145.37244141 180.02646484 144.07886719 179.98457031 142.74609375 179.94140625 C140.77672852 179.90756836 140.77672852 179.90756836 138.76757812 179.87304688 C135.53009245 179.8141835 132.29492375 179.73199429 129.05859375 179.62890625 C128.91744141 181.09263672 128.91744141 181.09263672 128.7734375 182.5859375 C128.12118258 187.14025873 126.43272146 191.11387272 124.62109375 195.31640625 C124.30849609 196.06212891 123.99589844 196.80785156 123.67382812 197.57617188 C122.23507669 200.98598236 120.7366948 204.32905316 119.05859375 207.62890625 C119.815354 208.36210083 119.815354 208.36210083 120.58740234 209.11010742 C122.87737726 211.33757093 125.15551329 213.57678213 127.43359375 215.81640625 C128.6246875 216.96979492 128.6246875 216.96979492 129.83984375 218.14648438 C130.98066406 219.27280273 130.98066406 219.27280273 132.14453125 220.421875 C132.84626465 221.10789795 133.54799805 221.7939209 134.27099609 222.50073242 C136.97904144 225.72471922 138.00541399 228.21402851 138.16381836 232.4284668 C136.46475674 237.34850187 133.06174912 240.26001068 129.375 243.8359375 C128.60429672 244.60193771 127.83359344 245.36793793 127.03953552 246.15715027 C124.57819333 248.59716543 122.09974235 251.01898681 119.62109375 253.44140625 C117.955293 255.09069951 116.29056626 256.74107828 114.62695312 258.39257812 C111.58499972 261.40056901 108.54272815 264.4081294 105.48266602 267.39770508 C104.5611953 268.29988518 104.5611953 268.29988518 103.62110901 269.22029114 C101.55020684 271.08721952 100.18974373 271.6039253 97.43359375 272.12890625 C91.20318371 271.20588254 87.44344816 266.11471054 83.27734375 261.6796875 C82.79612061 261.17606689 82.31489746 260.67244629 81.8190918 260.15356445 C80.42072959 258.68116991 79.04580554 257.18662444 77.671875 255.69140625 C75.30727196 253.39377281 75.30727196 253.39377281 72.71875 253.6015625 C69.15113083 254.9793655 65.65933184 256.47146475 62.18359375 258.06640625 C57.1964133 260.35259011 52.37502421 262.24774481 47.05859375 263.62890625 C47.04401123 264.39033936 47.02942871 265.15177246 47.0144043 265.9362793 C46.93978834 269.39682513 46.84317116 272.8564207 46.74609375 276.31640625 C46.72353516 277.51458984 46.70097656 278.71277344 46.67773438 279.94726562 C46.64228516 281.10419922 46.60683594 282.26113281 46.5703125 283.453125 C46.54412842 284.51619873 46.51794434 285.57927246 46.4909668 286.67456055 C45.99668502 290.05192014 45.13085883 291.92821802 43.05859375 294.62890625 C40.01374146 296.52956689 37.65330764 296.88803783 34.09399414 296.91943359 C33.10939713 296.9321933 32.12480011 296.944953 31.11036682 296.95809937 C30.05300827 296.96032501 28.99564972 296.96255066 27.90625 296.96484375 C26.81396591 296.97150055 25.72168182 296.97815735 24.59629822 296.98501587 C22.28727909 296.99513668 19.97823074 296.99983307 17.66918945 296.99951172 C14.13769362 297.00388569 10.60744669 297.04021518 7.07617188 297.078125 C4.83203552 297.08399307 2.58789324 297.08796253 0.34375 297.08984375 C-1.23925148 297.1114003 -1.23925148 297.1114003 -2.85423279 297.13339233 C-10.18397449 297.08773115 -10.18397449 297.08773115 -14.08422852 294.72509766 C-17.17401112 291.23766852 -17.06052143 289.11955582 -17.0390625 284.52734375 C-17.03583984 283.315625 -17.03261719 282.10390625 -17.02929688 280.85546875 C-17.02091797 279.58445312 -17.01253906 278.3134375 -17.00390625 277.00390625 C-16.99939453 275.72515625 -16.99488281 274.44640625 -16.99023438 273.12890625 C-16.97841828 269.96219333 -16.9619444 266.79557269 -16.94140625 263.62890625 C-22.38640625 262.14390625 -22.38640625 262.14390625 -27.94140625 260.62890625 C-28.28751953 262.89701172 -28.28751953 262.89701172 -28.640625 265.2109375 C-31.9405225 286.26931261 -36.32430705 307.39470785 -45.94140625 326.62890625 C-27.60706712 331.56709501 -9.41750401 334.92649261 9.57958984 335.85791016 C10.62711426 335.91769043 11.67463867 335.9774707 12.75390625 336.0390625 C13.68219238 336.08168213 14.61047852 336.12430176 15.56689453 336.16821289 C18.47130152 336.7052123 19.90121756 337.64194619 22.05859375 339.62890625 C23.12238278 342.27729768 23.3073741 344.79281024 23.05859375 347.62890625 C21.29395314 350.48884103 20.06293678 352.12673474 17.05859375 353.62890625 C-5.20809486 355.23002265 -34.78907893 351.70506991 -54.94140625 341.62890625 C-55.19664062 342.33660156 -55.451875 343.04429687 -55.71484375 343.7734375 C-61.48495563 357.20640497 -72.66275506 368.67444026 -82.59179688 379.19580078 C-83.82691954 380.50733661 -85.04892382 381.83119462 -86.26953125 383.15625 C-97.45343812 394.89174411 -111.08908645 404.30458338 -124.94140625 412.62890625 C-125.50875488 412.97743652 -126.07610352 413.3259668 -126.66064453 413.68505859 C-128.34420017 414.71084852 -130.04893737 415.70161551 -131.75390625 416.69140625 C-132.72972656 417.25988281 -133.70554687 417.82835937 -134.7109375 418.4140625 C-140.30566431 420.5180045 -145.45343561 420.55793586 -150.94140625 418.08203125 C-152.28702169 417.37041091 -153.62016068 416.6348127 -154.94140625 415.87890625 C-156.02446045 415.28142578 -156.02446045 415.28142578 -157.12939453 414.671875 C-172.80460587 405.80180084 -187.47404292 394.61216048 -199.94140625 381.62890625 C-200.78703125 380.78328125 -201.63265625 379.93765625 -202.50390625 379.06640625 C-203.30828125 378.26203125 -204.11265625 377.45765625 -204.94140625 376.62890625 C-205.45638672 376.13350342 -205.97136719 375.63810059 -206.50195312 375.12768555 C-210.71895324 371.023769 -214.38869697 366.73620571 -217.87890625 362.00390625 C-218.39614258 361.306604 -218.91337891 360.60930176 -219.44628906 359.89086914 C-223.99890283 353.68024839 -228.11148841 347.31517037 -231.94140625 340.62890625 C-232.59625 339.50613281 -233.25109375 338.38335937 -233.92578125 337.2265625 C-249.47787255 309.84176786 -256.9288991 277.65164366 -257.31640625 246.31640625 C-257.35378906 245.15044922 -257.39117187 243.98449219 -257.4296875 242.78320312 C-257.44128906 241.66365234 -257.45289063 240.54410156 -257.46484375 239.390625 C-257.48466309 238.37959717 -257.50448242 237.36856934 -257.52490234 236.3269043 C-256.94140625 233.62890625 -256.94140625 233.62890625 -254.78735352 231.3347168 C-251.63641932 229.44610247 -249.52001549 228.95031733 -245.8828125 228.57421875 C-244.11333252 228.36974121 -244.11333252 228.36974121 -242.30810547 228.16113281 C-241.05271973 228.02674805 -239.79733398 227.89236328 -238.50390625 227.75390625 C-218.319511 225.26064306 -200.42416859 220.03792283 -181.94140625 211.62890625 C-182.19535156 210.57574219 -182.44929688 209.52257812 -182.7109375 208.4375 C-196.82805105 149.51060213 -191.95855687 92.1066961 -160.27856445 39.42553711 C-157.10590811 34.27164842 -153.65640846 29.40545458 -149.94140625 24.62890625 C-150.69236572 24.79084473 -151.4433252 24.9527832 -152.21704102 25.11962891 C-155.64260166 25.84822428 -159.07293649 26.55124364 -162.50390625 27.25390625 C-163.68533203 27.50914063 -164.86675781 27.764375 -166.08398438 28.02734375 C-177.36675775 30.30286107 -177.36675775 30.30286107 -182.94140625 27.62890625 C-185.08431644 24.41454096 -185.24166416 22.45464016 -185.40234375 18.6640625 C-184.73343295 15.71065126 -183.21340334 14.58352067 -180.94140625 12.62890625 C-178.58479309 11.73028564 -178.58479309 11.73028564 -175.94848633 11.16503906 C-174.46092583 10.83514984 -174.46092583 10.83514984 -172.9433136 10.49859619 C-171.34328743 10.16864655 -171.34328743 10.16864655 -169.7109375 9.83203125 C-168.60594406 9.59353455 -167.50095062 9.35503784 -166.36247253 9.10931396 C-164.02466808 8.60818586 -161.68527852 8.11440414 -159.34448242 7.62744141 C-155.78082337 6.88451772 -152.22339987 6.11609792 -148.66601562 5.34375 C-146.38964853 4.85914502 -144.11296493 4.37602396 -141.8359375 3.89453125 C-140.77937454 3.6664679 -139.72281158 3.43840454 -138.63423157 3.20343018 C-125.55331259 0.51162854 -125.55331259 0.51162854 -120.94140625 1.62890625 C-118.36796919 3.60993036 -117.11535789 4.81031769 -116.43347168 8.01916504 C-116.43028931 8.90422729 -116.42710693 9.78928955 -116.42382812 10.70117188 C-116.41121948 11.70901733 -116.39861084 12.71686279 -116.38562012 13.75524902 C-116.39371704 14.83761841 -116.40181396 15.91998779 -116.41015625 17.03515625 C-116.40632935 18.15200806 -116.40250244 19.26885986 -116.39855957 20.41955566 C-116.39583869 22.77987571 -116.40321205 25.14022582 -116.41992188 27.50048828 C-116.44132741 31.115592 -116.42012447 34.72870818 -116.39453125 38.34375 C-116.39717449 40.63672314 -116.40229939 42.92969505 -116.41015625 45.22265625 C-116.40205933 46.30502563 -116.3939624 47.38739502 -116.38562012 48.50256348 C-116.40453308 50.01433167 -116.40453308 50.01433167 -116.42382812 51.55664062 C-116.4270105 52.44170288 -116.43019287 53.32676514 -116.43347168 54.23864746 C-117.10462053 57.39696653 -118.4785242 58.611679 -120.94140625 60.62890625 C-124.68531592 61.55757134 -128.00587699 61.13265278 -131.37890625 59.31640625 C-133.99357107 56.49256825 -134.09375145 53.6405924 -134.2578125 49.9609375 C-134.29970703 49.06826172 -134.34160156 48.17558594 -134.38476562 47.25585938 C-134.42408203 46.32708984 -134.46339844 45.39832031 -134.50390625 44.44140625 C-134.54708984 43.50103516 -134.59027344 42.56066406 -134.63476562 41.59179688 C-134.7407929 39.27097771 -134.84285654 36.950053 -134.94140625 34.62890625 C-164.15591606 76.64358788 -179.49331353 126.33694301 -170.94140625 177.62890625 C-169.31036741 186.00231835 -167.64211145 194.52679065 -164.94140625 202.62890625 C-163.91660156 201.94183594 -162.89179688 201.25476563 -161.8359375 200.546875 C-160.47530192 199.63665671 -159.11462252 198.72650392 -157.75390625 197.81640625 C-157.08037109 197.36458984 -156.40683594 196.91277344 -155.71289062 196.44726562 C-154.39089279 195.56378415 -153.06428417 194.68715874 -151.73291016 193.81787109 C-150.25503039 192.83704874 -148.8166584 191.79697177 -147.390625 190.7421875 C-143.82922443 189.12336906 -141.68230755 189.62504993 -137.94140625 190.62890625 C-134.96875 192.4921875 -134.96875 192.4921875 -131.87890625 194.94140625 C-125.71212675 199.617592 -119.22584345 203.47607918 -112.44140625 207.19140625 C-111.49773193 207.71581299 -110.55405762 208.24021973 -109.58178711 208.78051758 C-103.12552318 212.37324556 -103.12552318 212.37324556 -95.94140625 213.62890625 C-92.87832994 211.64924362 -92.87832994 211.64924362 -90.94140625 208.62890625 C-91.27151741 204.00735002 -93.4718652 199.90977981 -95.37890625 195.75390625 C-97.66509011 190.7667258 -99.56024481 185.94533671 -100.94140625 180.62890625 C-101.73313232 180.61956055 -102.5248584 180.61021484 -103.34057617 180.60058594 C-106.93731333 180.54681281 -110.53275977 180.46317662 -114.12890625 180.37890625 C-115.37478516 180.36472656 -116.62066406 180.35054687 -117.90429688 180.3359375 C-119.10634766 180.30371094 -120.30839844 180.27148438 -121.546875 180.23828125 C-122.65184326 180.21733398 -123.75681152 180.19638672 -124.89526367 180.17480469 C-128.58207922 179.51409141 -130.27107969 178.20548954 -132.94140625 175.62890625 C-134.15757218 173.1965744 -134.08117204 171.60986925 -134.10253906 168.89135742 C-134.11214661 167.90660934 -134.12175415 166.92186127 -134.13165283 165.90727234 C-134.13590271 164.83959122 -134.14015259 163.7719101 -134.14453125 162.671875 C-134.15023132 161.57676102 -134.1559314 160.48164703 -134.1618042 159.35334778 C-134.17126338 157.03236866 -134.17779181 154.71137606 -134.18164062 152.39038086 C-134.19133797 148.84139505 -134.22234996 145.29299022 -134.25390625 141.74414062 C-134.26043698 139.49088886 -134.26568718 137.23763295 -134.26953125 134.984375 C-134.28187805 133.92276657 -134.29422485 132.86115814 -134.3069458 131.76737976 C-134.27805103 122.19511583 -134.27805103 122.19511583 -130.94140625 118.62890625 C-127.33074767 116.62235023 -124.07043595 116.3405687 -119.984375 116.21484375 C-118.87255859 116.17617187 -117.76074219 116.1375 -116.61523438 116.09765625 C-115.46474609 116.06671875 -114.31425781 116.03578125 -113.12890625 116.00390625 C-111.95908203 115.96523437 -110.78925781 115.9265625 -109.58398438 115.88671875 C-106.70328061 115.79265495 -103.82257971 115.70700748 -100.94140625 115.62890625 C-100.56628906 114.51773438 -100.19117188 113.4065625 -99.8046875 112.26171875 C-99.2881243 110.75898945 -98.77117631 109.25639238 -98.25390625 107.75390625 C-98.00962891 107.026875 -97.76535156 106.29984375 -97.51367188 105.55078125 C-95.46848643 99.64822073 -92.83695386 94.15959749 -89.94140625 88.62890625 C-90.48144287 88.09410645 -91.02147949 87.55930664 -91.57788086 87.00830078 C-94.01415001 84.59276919 -96.44656732 82.17339508 -98.87890625 79.75390625 C-99.72904297 78.91214844 -100.57917969 78.07039063 -101.45507812 77.203125 C-102.26396484 76.39746094 -103.07285156 75.59179688 -103.90625 74.76171875 C-104.65511475 74.01809082 -105.40397949 73.27446289 -106.17553711 72.50830078 C-108.28688754 70.26121442 -108.86378682 69.03640824 -109.44140625 66.00390625 C-108.09370593 56.90692907 -95.69104776 48.08694013 -89.3527832 41.69018555 C-88.0297049 40.35041535 -86.71203372 39.00528515 -85.3996582 37.6550293 C-83.48678225 35.68746577 -81.55803792 33.73679698 -79.625 31.7890625 C-79.04358749 31.18498062 -78.46217499 30.58089874 -77.86314392 29.95851135 C-74.3965756 26.50966299 -72.06015953 24.73483959 -66.94140625 24.62890625 C-60.86058672 26.60309013 -56.89856852 31.33148238 -52.56640625 35.81640625 C-51.46232422 36.94079102 -51.46232422 36.94079102 -50.3359375 38.08789062 C-48.53073982 39.92825449 -46.73295117 41.77526548 -44.94140625 43.62890625 C-44.34191162 43.36150635 -43.74241699 43.09410645 -43.12475586 42.81860352 C-40.38006011 41.60047434 -37.62962329 40.39587305 -34.87890625 39.19140625 C-33.93595703 38.77052734 -32.99300781 38.34964844 -32.02148438 37.91601562 C-26.93741571 35.70170001 -22.48480378 34.05177291 -16.94140625 33.62890625 C-16.96759033 32.80688721 -16.99377441 31.98486816 -17.02075195 31.13793945 C-17.12482065 27.40595687 -17.18976753 23.67427965 -17.25390625 19.94140625 C-17.31674805 18.00104492 -17.31674805 18.00104492 -17.38085938 16.02148438 C-17.39697266 14.77431641 -17.41308594 13.52714844 -17.4296875 12.2421875 C-17.45587158 11.09532471 -17.48205566 9.94846191 -17.5090332 8.7668457 C-16.94140625 5.62890625 -16.94140625 5.62890625 -15.15722656 2.75488281 C-10.26793099 -0.47742707 -5.74027447 -0.06789364 0 0 Z M0.05859375 17.62890625 C-0.15116451 25.67591325 -0.15116451 25.67591325 -0.3293457 33.72363281 C-0.37901489 35.23135254 -0.37901489 35.23135254 -0.4296875 36.76953125 C-0.45587158 37.79594727 -0.48205566 38.82236328 -0.5090332 39.87988281 C-1.00082635 43.00669864 -1.73431411 44.38560075 -3.94140625 46.62890625 C-6.51118561 47.53450355 -8.93238938 48.2418774 -11.56640625 48.87890625 C-18.09959241 50.6206176 -24.14947032 52.84348162 -30.25390625 55.75390625 C-31.31955811 56.25905762 -31.31955811 56.25905762 -32.40673828 56.77441406 C-35.16701121 58.12157116 -37.73601341 59.4731649 -40.1875 61.33203125 C-42.60315275 63.11821547 -44.85361126 63.29100418 -47.80859375 63.16015625 C-52.16593221 62.07481187 -54.89475312 58.75804999 -57.94140625 55.62890625 C-58.84117187 54.74074219 -59.7409375 53.85257813 -60.66796875 52.9375 C-63.11085186 50.51870165 -65.53288352 48.08184845 -67.94140625 45.62890625 C-75.0994185 51.45519529 -81.46732391 58.06720475 -87.94140625 64.62890625 C-86.59078338 67.65387206 -85.09111388 69.70947565 -82.71875 72.01171875 C-82.09806641 72.62144531 -81.47738281 73.23117188 -80.83789062 73.859375 C-80.19142578 74.48457031 -79.54496094 75.10976562 -78.87890625 75.75390625 C-77.59416695 77.00426699 -76.31150944 78.25677141 -75.03125 79.51171875 C-74.17841431 80.33760498 -74.17841431 80.33760498 -73.30834961 81.18017578 C-71.40760629 83.19464459 -70.96522511 84.45370533 -70.58984375 87.21484375 C-71.07820948 91.95741764 -73.19336125 95.18365947 -75.56640625 99.25390625 C-79.90594939 107.01222804 -82.81818808 114.62065134 -85.05126953 123.21728516 C-85.26122559 124.01312012 -85.47118164 124.80895508 -85.6875 125.62890625 C-85.94551392 126.68078125 -85.94551392 126.68078125 -86.20874023 127.75390625 C-87.12860075 130.1079645 -87.8677564 131.15944129 -89.94140625 132.62890625 C-92.76049805 133.0612793 -92.76049805 133.0612793 -96.140625 133.140625 C-97.77390747 133.19029419 -97.77390747 133.19029419 -99.44018555 133.2409668 C-101.51360229 133.27830933 -101.51360229 133.27830933 -103.62890625 133.31640625 C-110.21859375 133.47109375 -110.21859375 133.47109375 -116.94140625 133.62890625 C-116.94140625 143.19890625 -116.94140625 152.76890625 -116.94140625 162.62890625 C-108.56527857 162.79919761 -108.56527857 162.79919761 -100.18847656 162.92675781 C-98.61984863 162.97268066 -98.61984863 162.97268066 -97.01953125 163.01953125 C-95.9512207 163.04047852 -94.88291016 163.06142578 -93.78222656 163.08300781 C-90.27561665 163.75684588 -89.11702129 164.845794 -86.94140625 167.62890625 C-86.01147824 170.11061596 -85.25180018 172.45919899 -84.56640625 175.00390625 C-81.80426104 184.48032267 -78.60233826 193.87192291 -73.06640625 202.12890625 C-70.88866902 205.4413221 -70.1528509 207.59851225 -70.94140625 211.62890625 C-72.92621044 215.11942397 -75.12501522 217.81251522 -77.94140625 220.62890625 C-77.94140625 221.28890625 -77.94140625 221.94890625 -77.94140625 222.62890625 C-65.59482147 225.88274578 -53.50322892 228.34890089 -40.76367188 229.46411133 C-33.57338612 230.18734827 -33.57338612 230.18734827 -30.2578125 232.50390625 C-28.94140625 234.62890625 -28.94140625 234.62890625 -28.94140625 238.06640625 C-28.34327511 241.73030388 -28.34327511 241.73030388 -25.67578125 243.05078125 C-19.15933724 245.81429939 -12.38365969 247.78724045 -5.55859375 249.63671875 C-2.94140625 250.62890625 -2.94140625 250.62890625 -0.94140625 253.62890625 C-0.62255859 256.35620117 -0.62255859 256.35620117 -0.52734375 259.609375 C-0.47392822 261.18174927 -0.47392822 261.18174927 -0.41943359 262.78588867 C-0.38543457 264.11595947 -0.35143555 265.44603027 -0.31640625 266.81640625 C-0.19265625 271.04453125 -0.06890625 275.27265625 0.05859375 279.62890625 C9.62859375 279.62890625 19.19859375 279.62890625 29.05859375 279.62890625 C29.26849494 270.87862635 29.26849494 270.87862635 29.4465332 262.12768555 C29.479646 261.03883057 29.51275879 259.94997559 29.546875 258.828125 C29.57305908 257.71268311 29.59924316 256.59724121 29.6262207 255.44799805 C30.05859375 252.62890625 30.05859375 252.62890625 31.34057617 250.81982422 C33.2607992 249.48873883 34.79196992 248.93097908 37.05859375 248.375 C38.25234619 248.06006592 38.25234619 248.06006592 39.47021484 247.73876953 C40.32437988 247.51688965 41.17854492 247.29500977 42.05859375 247.06640625 C50.63788689 244.70549271 58.10863352 241.35847728 65.7890625 236.88061523 C69.99984125 234.47333662 73.05709408 232.75908022 78.05859375 233.62890625 C80.04296875 234.80859375 80.04296875 234.80859375 81.80859375 236.50390625 C82.80632812 237.44556641 82.80632812 237.44556641 83.82421875 238.40625 C84.5615625 239.13972656 85.29890625 239.87320313 86.05859375 240.62890625 C86.9609375 241.51707031 87.86328125 242.40523437 88.79296875 243.3203125 C91.23101999 245.74114587 93.65146057 248.17737922 96.05859375 250.62890625 C99.42194969 249.17145201 101.6039338 247.31772771 104.16796875 244.71484375 C104.92207031 243.95429688 105.67617188 243.19375 106.453125 242.41015625 C107.23042969 241.61609375 108.00773438 240.82203125 108.80859375 240.00390625 C109.60136719 239.20210937 110.39414062 238.4003125 111.2109375 237.57421875 C113.16473868 235.59687779 115.11371478 233.61501716 117.05859375 231.62890625 C113.45753681 227.32809936 109.7651626 223.23789528 105.74609375 219.31640625 C100.22033029 213.92279857 100.22033029 213.92279857 99.62109375 209.12890625 C99.68142309 204.31979637 101.78153314 201.39529219 104.33984375 197.44921875 C109.61769572 188.78874347 112.67297296 179.29320701 115.00390625 169.4921875 C116.23155371 166.15935198 117.04025504 165.40428655 120.05859375 163.62890625 C122.80761719 163.1965332 122.80761719 163.1965332 125.91796875 163.1171875 C126.92311523 163.08407471 127.92826172 163.05096191 128.96386719 163.0168457 C130.86700684 162.97950317 130.86700684 162.97950317 132.80859375 162.94140625 C138.87234375 162.78671875 138.87234375 162.78671875 145.05859375 162.62890625 C145.05859375 153.05890625 145.05859375 143.48890625 145.05859375 133.62890625 C136.63742806 133.41901788 136.63742806 133.41901788 128.21557617 133.2409668 C127.16732666 133.207854 126.11907715 133.17474121 125.0390625 133.140625 C123.96551514 133.11444092 122.89196777 133.08825684 121.78588867 133.0612793 C119.05859375 132.62890625 119.05859375 132.62890625 117.29492188 131.41259766 C115.76157782 129.20039156 115.06639549 127.15912397 114.296875 124.578125 C113.83087891 123.07475586 113.83087891 123.07475586 113.35546875 121.54101562 C113.030625 120.47689453 112.70578125 119.41277344 112.37109375 118.31640625 C109.63882461 109.65047338 106.62072072 102.15143224 101.52734375 94.62890625 C99.50342645 90.49494751 99.5083321 88.21745171 100.05859375 83.62890625 C101.78125 80.90625 101.78125 80.90625 104.12109375 78.56640625 C104.93578125 77.73238281 105.75046875 76.89835937 106.58984375 76.0390625 C107.40453125 75.24371094 108.21921875 74.44835937 109.05859375 73.62890625 C109.77015625 72.90574219 110.48171875 72.18257812 111.21484375 71.4375 C112.81294207 69.81647814 114.42560647 68.21463667 116.05859375 66.62890625 C114.63213595 63.37024265 112.89155213 61.22642085 110.36328125 58.73828125 C109.64785156 58.02929688 108.93242187 57.3203125 108.1953125 56.58984375 C107.44894531 55.86023438 106.70257813 55.130625 105.93359375 54.37890625 C105.17949219 53.63382813 104.42539062 52.88875 103.6484375 52.12109375 C101.78958603 50.28577205 99.9262237 48.45528715 98.05859375 46.62890625 C95.27771314 47.89555685 93.26789653 49.18231559 91.1484375 51.37890625 C90.3759668 52.1678125 90.3759668 52.1678125 89.58789062 52.97265625 C89.06259766 53.51921875 88.53730469 54.06578125 87.99609375 54.62890625 C80.36316668 62.51285528 80.36316668 62.51285528 75.23828125 62.96875 C71.05670958 62.85359976 68.6666729 61.56119352 65.18359375 59.19140625 C57.2735638 54.14762863 48.5586293 51.47416625 39.68212891 48.59985352 C38.03349854 48.06122681 38.03349854 48.06122681 36.3515625 47.51171875 C35.35664795 47.19605957 34.3617334 46.88040039 33.33666992 46.55517578 C31.05859375 45.62890625 31.05859375 45.62890625 30.05859375 43.62890625 C29.90480523 41.67116556 29.80887912 39.70873273 29.7421875 37.74609375 C29.70407959 36.69534668 29.66597168 35.64459961 29.62670898 34.56201172 C29.58360596 33.22283691 29.54050293 31.88366211 29.49609375 30.50390625 C29.27953125 24.13078125 29.27953125 24.13078125 29.05859375 17.62890625 C19.48859375 17.62890625 9.91859375 17.62890625 0.05859375 17.62890625 Z M-151.06640625 214.06640625 C-178.53902846 231.55718464 -207.78428305 241.1545554 -239.94140625 245.62890625 C-242.86506514 286.47891802 -223.31249372 329.39679081 -197.24511719 359.80566406 C-183.60971794 375.3687289 -168.08161026 388.54061215 -149.94140625 398.62890625 C-149.33917236 399.04591797 -148.73693848 399.46292969 -148.11645508 399.89257812 C-146.02393231 401.20866277 -144.35640849 402.07980464 -141.94140625 402.62890625 C-138.45847682 401.75615274 -135.7322452 399.96632809 -132.75390625 398.00390625 C-131.92383057 397.48844238 -131.09375488 396.97297852 -130.23852539 396.44189453 C-119.29335455 389.52770612 -109.33941669 381.53151769 -99.94140625 372.62890625 C-98.99652344 371.74847656 -98.05164063 370.86804688 -97.078125 369.9609375 C-66.22235818 340.62275006 -48.00136387 296.78324784 -44.94140625 254.62890625 C-44.89169727 251.62780153 -44.89913673 248.63004214 -44.94140625 245.62890625 C-45.55846436 245.53915527 -46.17552246 245.4494043 -46.8112793 245.35693359 C-78.99334306 240.58062878 -113.09274483 231.1900389 -139.19921875 210.7734375 C-143.67370169 207.83392292 -147.27834637 211.57777064 -151.06640625 214.06640625 Z " fill="#FC7838" transform="translate(274.94140625,74.37109375)"/>
<path d="M0 0 C1.58941406 0.01921509 1.58941406 0.01921509 3.2109375 0.03881836 C50.97151125 1.21951916 97.27554809 21.12002922 132.15625 53.4921875 C133.70478959 54.89350678 135.30849309 56.23517893 136.94921875 57.52734375 C139.13189704 59.30230757 140.87808247 61.04583211 142.6875 63.1875 C144.47530167 65.28921974 146.25678303 67.37395409 148.14453125 69.38671875 C178.34176616 101.74543995 198.18016797 149.00964629 198.61328125 193.37109375 C198.62797203 194.61799736 198.62797203 194.61799736 198.64295959 195.89009094 C198.81636045 214.43599784 198.68719257 232.35531755 194.375 250.5 C194.16069336 251.40508301 193.94638672 252.31016602 193.72558594 253.24267578 C187.01542081 280.54728513 174.94828604 305.83595119 158.375 328.5 C164.15182506 327.56697327 169.90662257 326.62199819 175.625 325.375 C180.06529433 324.49834478 183.85377666 323.96358367 188.375 324.5 C191.82152326 326.94128731 193.15556289 328.32966874 193.9375 332.5 C193.22832201 336.28228264 192.0714985 337.76297324 189.375 340.5 C186.17211914 341.71166992 186.17211914 341.71166992 182.34765625 342.54296875 C181.65124527 342.69984665 180.95483429 342.85672455 180.23731995 343.01835632 C178.73555695 343.35409105 177.23179942 343.68100252 175.72637939 343.99993896 C173.35267196 344.50474844 170.98663216 345.03707394 168.62060547 345.57666016 C164.52551989 346.5054058 160.42370258 347.39816637 156.31713867 348.2746582 C154.63013082 348.63692337 152.94426558 349.00454611 151.25952148 349.37719727 C148.7782393 349.92586677 146.29402731 350.45877714 143.80859375 350.98828125 C143.06371201 351.15588455 142.31883026 351.32348785 141.55137634 351.49617004 C136.88683176 352.4659904 133.10843996 352.53629313 128.375 351.5 C125.56120535 349.53034374 125.03785022 347.7800966 124.375 344.5 C124.27730109 343.0003472 124.22709932 341.49715837 124.21386719 339.99438477 C124.20425964 339.10989151 124.1946521 338.22539825 124.18475342 337.31410217 C124.1783786 335.89211769 124.1783786 335.89211769 124.171875 334.44140625 C124.16617493 333.46010239 124.16047485 332.47879852 124.15460205 331.46775818 C124.14516516 329.39412511 124.13862328 327.32047713 124.13476562 325.24682617 C124.1250466 322.07769665 124.09400518 318.90921215 124.0625 315.74023438 C124.05597086 313.72396218 124.05072004 311.70768535 124.046875 309.69140625 C124.0345282 308.74544083 124.0221814 307.7994754 124.00946045 306.82484436 C124.03054813 300.58766678 124.84190418 297.03309582 129.375 292.5 C133.15211863 292.07240166 135.6085451 292.13129721 139.0546875 293.7890625 C142.7515849 298.1083332 142.15745682 302.74208382 142.1875 308.25 C142.21263672 309.32894531 142.23777344 310.40789062 142.26367188 311.51953125 C142.32253299 314.18005377 142.3588204 316.83893151 142.375 319.5 C164.50792814 290.20918871 180.21881796 253.42711568 180.61328125 216.25 C180.62302979 215.48258484 180.63277832 214.71516968 180.64282227 213.92449951 C180.81934443 196.41570775 180.4273948 179.63194021 176.375 162.5 C176.19308105 161.69804199 176.01116211 160.89608398 175.82373047 160.06982422 C166.03893791 117.89640644 139.76883648 80.25900925 105.375 54.5 C104.11042969 53.54287109 104.11042969 53.54287109 102.8203125 52.56640625 C96.0037637 47.59744054 88.67071081 43.53539518 81.26464844 39.52392578 C79.6319206 38.63921511 78.00663738 37.74079098 76.3828125 36.83984375 C53.66029764 24.77051928 26.57044902 18.67534704 0.99560547 17.92871094 C-4.27339207 17.73703091 -8.8755541 17.14966754 -13.5 14.375 C-15.33466541 11.31722432 -15.45325079 7.89778473 -14.625 4.5 C-11.24167003 -1.01608812 -5.78880633 -0.1066019 0 0 Z " fill="#F74A5B" transform="translate(295.625,17.5)"/>
<path d="M0 0 C15.57373179 13.12101859 24.3807544 30.95972554 27 51 C28.59681149 72.06478724 22.24876194 92.91266797 8.6875 109.25 C-4.70596655 123.62565409 -23.23201207 133.43915047 -43.0078125 134.3359375 C-67.17500396 134.76595038 -86.54242136 127.8169943 -104.16796875 110.921875 C-119.27188618 95.14602313 -124.59166931 74.77903545 -124.26953125 53.46484375 C-123.60733037 34.67203943 -115.078829 17.31734867 -102 4 C-72.97058214 -22.67812544 -31.16060572 -23.68315594 0 0 Z M-95 22.375 C-105.54424117 36.55518641 -108.98978341 52.97119088 -106.53515625 70.27734375 C-103.13326109 85.59593675 -94.13547349 98.73323401 -81.22265625 107.6953125 C-66.93166479 116.08404914 -52.55217813 119.25657135 -36.17578125 116.3125 C-20.31874007 112.12582246 -7.41652705 103.35912997 1.5 89.5625 C10.02400267 74.67650781 12.11825001 59.30062093 7.76367188 42.79467773 C3.09753581 26.33073071 -7.04095834 15.36384719 -21.4296875 6.50390625 C-46.73119934 -7.4741421 -77.0365668 1.04342307 -95 22.375 Z " fill="#FD6843" transform="translate(338,164)"/>
<path d="M0 0 C3.57632467 2.51103647 4.78325846 4.04272488 5.75 8.3125 C4.98298697 12.08364738 4.51530381 12.89969888 2.05249023 15.60961914 C1.41632782 16.31055695 0.78016541 17.01149475 0.12472534 17.7336731 C-6.47344713 24.77157842 -13.24750351 31.63630882 -20.03295898 38.49291992 C-21.97705241 40.45942034 -23.91087495 42.43525713 -25.83666992 44.41967773 C-28.63052588 47.29833056 -31.45255999 50.14777943 -34.27734375 52.99609375 C-35.13279282 53.88453476 -35.98824188 54.77297577 -36.86961365 55.68833923 C-43.62781252 62.42423066 -43.62781252 62.42423066 -48.36743164 63.23901367 C-52.14031675 62.99076752 -53.27529148 62.82794424 -55.84375 60.1796875 C-56.50246094 59.52967773 -57.16117188 58.87966797 -57.83984375 58.20996094 C-58.90912109 57.11603027 -58.90912109 57.11603027 -60 56 C-61.71578053 54.41604816 -63.43469286 52.83548397 -65.15625 51.2578125 C-66.94032604 49.54982205 -68.72153915 47.83883654 -70.5 46.125 C-71.4178125 45.27808594 -72.335625 44.43117188 -73.28125 43.55859375 C-80.58767423 36.45874997 -80.58767423 36.45874997 -80.7265625 31.02734375 C-80.44921615 27.78370865 -80.05037858 27.06075064 -77.875 24.4375 C-74.33933859 22.66966929 -72.89612263 22.15965983 -69 23 C-66.00992066 25.00216767 -63.54532 27.46764428 -61 30 C-60.52739746 30.46567383 -60.05479492 30.93134766 -59.56787109 31.41113281 C-56.35151474 34.58114398 -53.16694361 37.7806621 -50 41 C-44.79939431 36.65576633 -39.96373202 32.08464611 -35.203125 27.265625 C-34.48767517 26.54638855 -33.77222534 25.8271521 -33.03509521 25.08612061 C-30.77093793 22.80984064 -28.51007335 20.53033441 -26.25 18.25 C-23.25807876 15.2315064 -20.26287632 12.21632502 -17.265625 9.203125 C-16.58123352 8.51043518 -15.89684204 7.81774536 -15.19171143 7.10406494 C-14.23491486 6.14231354 -14.23491486 6.14231354 -13.25878906 5.16113281 C-12.70032288 4.59742981 -12.14185669 4.03372681 -11.56646729 3.45294189 C-7.71474034 -0.11964178 -5.15312633 -0.62192904 0 0 Z " fill="#FC892C" transform="translate(170,342)"/>
</svg>
