<?xml version="1.0" encoding="UTF-8"?>
<svg version="1.1" xmlns="http://www.w3.org/2000/svg" width="512" height="512">
<path d="M0 0 C4.01317046 2.89703307 6.56913286 6.3803593 8.40527344 10.99145508 C9.3965404 13.02525547 9.3965404 13.02525547 11.43847656 13.6237793 C13.89426584 13.97668649 16.34578176 14.29518001 18.8125 14.5625 C19.65941406 14.69849609 20.50632813 14.83449219 21.37890625 14.97460938 C23.95682445 15.26928587 26.01482063 15.3854838 28.5625 14.875 C30.5322335 13.2847492 31.83957185 11.69355514 33.26318359 9.60644531 C35.47904896 6.65362359 38.10648607 5.8879696 41.5625 4.875 C48.01500363 4.36612747 52.07127259 5.5111961 57.75 8.5 C58.43513672 8.83128906 59.12027344 9.16257812 59.82617188 9.50390625 C65.29530098 12.29374111 69.12315074 15.49471007 71.59375 21.296875 C72.58884092 26.2391599 72.65110595 29.18006246 70.6875 33.875 C69.67467463 36.31288452 69.67467463 36.31288452 69.5625 38.875 C71.19526221 41.84958009 73.09087032 44.08493692 75.4140625 46.55078125 C77.5625 48.875 77.5625 48.875 79.078125 51.66015625 C79.81289063 52.75650391 79.81289063 52.75650391 80.5625 53.875 C82.53859289 54.36725864 82.53859289 54.36725864 84.6875 54 C90.53391879 53.70530247 95.53311412 54.63325445 100.3203125 58.17578125 C105.68748546 63.610381 108.5625 72.31800314 108.5625 79.875 C109.49707031 80.0709375 110.43164062 80.266875 111.39453125 80.46875 C147.62919266 88.53233026 177.14295118 111.22752814 197.2109375 142.0859375 C200.07466558 146.6045722 202.50333572 151.31405897 204.96484375 156.0625 C206.75261193 159.20967136 208.7593706 161.75020104 211.30078125 164.3125 C212.93048702 166.33071148 213.68933749 168.44818212 214.5625 170.875 C226.19739799 173.58304906 226.19739799 173.58304906 237.23828125 171.296875 C238.85474915 169.2307689 240.18834929 167.10525099 241.5625 164.875 C245.98619536 162.61609173 250.68038802 161.87393603 255.5625 162.875 C264.76937702 166.43555427 271.89581661 170.54163779 276.9375 179.25 C278.19523105 184.5324704 278.29511762 189.29254594 276 194.25 C275.15776963 197.91505134 275.15776963 197.91505134 277.3984375 200.61328125 C279.02937422 202.55548507 280.70500685 204.46114448 282.42578125 206.32421875 C284.40278769 208.68433796 285.1911654 209.88330422 285.5625 212.875 C286.1915625 212.76800781 286.820625 212.66101563 287.46875 212.55078125 C295.11807635 211.47941476 299.69474143 212.6774099 306.3125 216.4375 C309.68345031 220.08936283 311.02193634 224.20384137 312.5625 228.875 C312.80226563 229.57238281 313.04203125 230.26976562 313.2890625 230.98828125 C315.22710389 237.43549895 314.94327878 243.67932231 311.875 249.6875 C308.21082544 254.73811899 304.6154697 256.83032503 298.5625 257.875 C298.50191406 258.81601562 298.44132812 259.75703125 298.37890625 260.7265625 C298.29511719 261.97179687 298.21132813 263.21703125 298.125 264.5 C298.04378906 265.72976563 297.96257812 266.95953125 297.87890625 268.2265625 C297.5625 271.875 297.5625 271.875 296.82421875 275.1484375 C296.24596338 277.87253589 296.24596338 277.87253589 297.890625 279.5625 C298.52484375 279.995625 299.1590625 280.42875 299.8125 280.875 C304.04538147 284.16160856 306.08971411 286.86460818 306.9453125 292.3125 C307.56312265 301.76768136 303.27628393 308.56659025 297.6875 315.875 C294.50881587 319.30963012 291.18345263 321.10063271 286.5625 321.875 C282.44812412 321.84705857 278.60088416 321.16552515 274.64453125 320.05859375 C271.43304298 319.56892436 271.43304298 319.56892436 268.67578125 321.67578125 C267.75152344 322.50464844 266.82726562 323.33351563 265.875 324.1875 C264.94300781 325.00863281 264.01101563 325.82976562 263.05078125 326.67578125 C262.22964844 327.40152344 261.40851563 328.12726563 260.5625 328.875 C259.5725 329.535 258.5825 330.195 257.5625 330.875 C257.34984108 333.27670331 257.34984108 333.27670331 257.625 336 C257.80362039 342.81436779 256.05774219 347.06785253 251.5625 352.125 C243.24080766 356.97932053 234.162173 359.25035112 224.5625 357.875 C219.709587 356.23987436 216.24926793 353.21516358 213.5625 348.875 C213.18379186 346.88309356 212.8445971 344.88286761 212.5625 342.875 C211.63308594 342.81441406 210.70367187 342.75382812 209.74609375 342.69140625 C208.50988281 342.60761719 207.27367187 342.52382813 206 342.4375 C204.71867187 342.35757812 203.43734375 342.27765625 202.1171875 342.1953125 C199.39885502 341.95036386 197.20829048 341.56248756 194.625 340.8125 C191.53247725 340.53775387 191.53247725 340.53775387 189.76953125 342.5234375 C188.54450118 343.97048794 187.34379743 345.43847477 186.16796875 346.92578125 C183.55539073 350.09774337 181.39439808 350.60360769 177.453125 351.1875 C168.49384423 351.87228579 160.83553274 347.60810794 153.875 342.25 C151.54219561 339.85414684 151.16256702 339.00062383 150.5625 335.875 C150.00602783 336.14650879 149.44955566 336.41801758 148.8762207 336.69775391 C131.95290384 344.87479056 114.43164232 351.95898169 95.5625 353.875 C94.27085937 354.00777344 92.97921875 354.14054687 91.6484375 354.27734375 C67.05202153 356.39979216 43.43185649 351.77284565 20.5625 342.875 C20.30726563 343.62265625 20.05203125 344.3703125 19.7890625 345.140625 C18.50153926 348.01089975 17.14449007 349.4270922 14.9375 351.625 C10.7808795 356.70152831 11.03141861 361.2457134 11.64599609 367.49511719 C12.36425477 376.99381195 5.95162286 384.02859017 0.5625 391.3125 C-0.59521841 392.89571172 -1.75276571 394.47904858 -2.91015625 396.0625 C-3.49684082 396.86171875 -4.08352539 397.6609375 -4.68798828 398.484375 C-6.90182318 401.50947565 -9.09144912 404.55157576 -11.2800293 407.5949707 C-16.92965027 415.44978584 -22.64724133 423.25237906 -28.40454102 431.02856445 C-31.50769068 435.22719953 -34.56615668 439.45044763 -37.56469727 443.72436523 C-50.72064439 462.44539898 -50.72064439 462.44539898 -59.75 464.3671875 C-68.58634169 465.68725074 -74.71937429 462.72485684 -81.72998047 457.59790039 C-82.45846191 457.04996826 -83.18694336 456.50203613 -83.9375 455.9375 C-84.70852051 455.36700928 -85.47954102 454.79651855 -86.27392578 454.20874023 C-87.8719752 453.02448605 -89.4671827 451.83638762 -91.05957031 450.64453125 C-93.36566347 448.928457 -95.69056689 447.2419252 -98.0234375 445.5625 C-99.45350908 444.52136069 -100.883213 443.47971613 -102.3125 442.4375 C-103.3015332 441.73089233 -103.3015332 441.73089233 -104.31054688 441.01000977 C-108.83108645 437.66979394 -112.05831479 434.32296303 -114.1875 429 C-115.57570337 417.20027133 -111.10783653 409.03858723 -104 399.875 C-102.74130311 398.21030375 -101.48351161 396.54492258 -100.2265625 394.87890625 C-99.59266602 394.04504395 -98.95876953 393.21118164 -98.30566406 392.35205078 C-95.4365042 388.54775177 -92.65412681 384.68280468 -89.875 380.8125 C-88.8008884 379.32153739 -87.72666963 377.83065197 -86.65234375 376.33984375 C-85.85739502 375.23552002 -85.85739502 375.23552002 -85.04638672 374.10888672 C-81.81280524 369.61916433 -78.57136034 365.13511145 -75.32983398 360.65112305 C-72.51523846 356.75658271 -69.70645586 352.85802745 -66.90625 348.953125 C-66.03516602 347.74076172 -66.03516602 347.74076172 -65.14648438 346.50390625 C-64.04178285 344.96616173 -62.93879768 343.4271821 -61.83789062 341.88671875 C-52.06409888 328.29601729 -52.06409888 328.29601729 -45.4375 325.875 C-43.6674734 325.73905326 -41.896515 325.61493609 -40.125 325.5 C-36.00898611 324.92991497 -34.07794465 323.78400162 -31.5078125 320.640625 C-28.95013014 317.17319881 -26.65845427 313.56534918 -24.4375 309.875 C-24.76621094 309.43671875 -25.09492188 308.9984375 -25.43359375 308.546875 C-26.47359714 307.16020381 -27.50955992 305.77049894 -28.54296875 304.37890625 C-29.83013922 302.67771806 -31.14661855 300.9983944 -32.48828125 299.33984375 C-55.38219097 270.42764159 -63.37360199 233.37641497 -59.29638672 197.20141602 C-58.84112668 193.45937123 -58.27196698 189.88597775 -57.25 186.25 C-55.98333955 181.39607979 -56.63893781 176.47421279 -57.15551758 171.54443359 C-57.55374954 167.31831957 -57.0860896 164.73057245 -55.4375 160.875 C-55.62953147 156.75049803 -58.53125443 153.85767054 -61 150.75 C-65.4375 145.1341047 -65.4375 145.1341047 -65.4375 142.875 C-65.953125 143.04 -66.46875 143.205 -67 143.375 C-73.31276544 144.66992624 -78.8255497 143.96512453 -84.4375 140.875 C-90.64024067 135.37711622 -92.92017711 127.49955313 -93.82421875 119.41796875 C-93.98958529 114.42846105 -93.90488442 110.86170044 -91.75 106.3125 C-85.92538281 100.17303864 -85.92538281 100.17303864 -81.921875 99.37109375 C-78.91632258 97.5611463 -78.85383184 96.85283043 -78.01171875 93.55078125 C-77.67887944 91.76958259 -77.38490898 89.9807925 -77.125 88.1875 C-76.98747314 87.27154053 -76.84994629 86.35558105 -76.70825195 85.41186523 C-76.08452762 80.06837037 -76.08452762 80.06837037 -77.96875 75.171875 C-80.0423326 73.50399334 -82.12816647 72.18823802 -84.4375 70.875 C-87.30408173 66.45568649 -87.24119218 60.96505047 -86.4375 55.875 C-83.72019644 48.51017034 -79.55086239 39.83052346 -72.484375 35.74609375 C-69.20223993 34.34930726 -65.98173752 33.73347663 -62.4375 33.875 C-60.8861238 34.56180717 -59.34481071 35.27164836 -57.8125 36 C-55.29920508 37.0683748 -55.29920508 37.0683748 -52.4375 36.875 C-48.2722825 34.6918594 -44.83155925 31.50058943 -41.34375 28.38671875 C-38.4375 25.875 -38.4375 25.875 -36.4375 25.875 C-36.6025 25.359375 -36.7675 24.84375 -36.9375 24.3125 C-38.21614294 18.07911568 -37.44193287 13.46946121 -34.4375 7.875 C-30.94580609 3.60737411 -27.59166221 1.74116218 -22.4375 -0.125 C-21.365 -0.516875 -20.2925 -0.90875 -19.1875 -1.3125 C-12.52306921 -2.75646 -6.10044097 -3.53962153 0 0 Z M-16.625 16.375 C-17.34042969 16.6534375 -18.05585938 16.931875 -18.79296875 17.21875 C-19.33566406 17.4353125 -19.87835938 17.651875 -20.4375 17.875 C-20.38529297 19.06996094 -20.38529297 19.06996094 -20.33203125 20.2890625 C-20.0459788 31.48597257 -20.0459788 31.48597257 -23.4375 35.875 C-26.63483826 38.72912116 -30.02401617 41.28712541 -33.4375 43.875 C-35.96918211 45.9804106 -38.49718639 48.08970229 -41.015625 50.2109375 C-45.37527394 53.20643822 -49.27434305 54.2498685 -54.5 53.5625 C-55.35464844 53.45421875 -56.20929688 53.3459375 -57.08984375 53.234375 C-59.55858806 52.85646406 -62.00465284 52.44266434 -64.4375 51.875 C-65.27628455 53.16313342 -66.10836783 54.45563256 -66.9375 55.75 C-67.4015625 56.46929687 -67.865625 57.18859375 -68.34375 57.9296875 C-69.60086501 59.79360466 -69.60086501 59.79360466 -69.4375 61.875 C-68.509375 62.473125 -67.58125 63.07125 -66.625 63.6875 C-62.87570073 66.26054852 -61.29625357 68.53294482 -59.75 72.75 C-58.78948024 79.28153439 -59.76248368 85.82287187 -60.625 92.3125 C-60.72619141 93.21548828 -60.82738281 94.11847656 -60.93164062 95.04882812 C-61.759486 101.22858197 -63.31542381 106.09083253 -67.4375 110.875 C-69.89453125 112.53125 -69.89453125 112.53125 -72.25 113.375 C-73.04019531 113.6740625 -73.83039063 113.973125 -74.64453125 114.28125 C-75.53205078 114.57515625 -75.53205078 114.57515625 -76.4375 114.875 C-76.32291307 116.31336751 -76.19540884 117.75070966 -76.0625 119.1875 C-75.95808594 120.38826172 -75.95808594 120.38826172 -75.8515625 121.61328125 C-75.54185574 124.14724441 -75.54185574 124.14724441 -73.4375 126.875 C-70.77284281 127.08765937 -70.77284281 127.08765937 -67.75 126.8125 C-59.87802153 126.69067176 -59.87802153 126.69067176 -56.15625 129.19921875 C-52.81905976 132.45297923 -50.20429516 136.28470287 -47.55078125 140.09765625 C-45.39820934 143.18918803 -45.39820934 143.18918803 -41.4375 145.875 C-39.4575 142.905 -37.4775 139.935 -35.4375 136.875 C-35.89640625 136.18535156 -36.3553125 135.49570313 -36.828125 134.78515625 C-46.76504897 119.56663193 -51.41854012 104.11638527 -47.75 85.9140625 C-43.61597666 70.30812441 -35.45477172 58.06172565 -21.4375 49.875 C-6.86477208 42.68375828 8.90084071 40.19629497 24.703125 44.8515625 C41.85000409 50.98883343 52.49234663 61.73469327 60.5625 77.875 C70.4625 77.545 80.3625 77.215 90.5625 76.875 C89.5725 73.905 89.5725 73.905 88.5625 70.875 C87.69367188 70.92140625 86.82484375 70.9678125 85.9296875 71.015625 C76.60486006 71.30767776 76.60486006 71.30767776 72.25 69.5 C68.2542909 65.59721436 64.9242287 61.32600392 61.5625 56.875 C60.81871094 55.96878906 60.07492188 55.06257813 59.30859375 54.12890625 C54.58202961 48.16785487 51.95594431 43.59930106 52.5625 35.875 C53.04634167 32.77841331 53.73115181 29.90697574 54.5625 26.875 C51.5925 25.225 48.6225 23.575 45.5625 21.875 C44.716875 22.968125 43.87125 24.06125 43 25.1875 C39.53263132 29.18955638 36.07993138 31.60899425 30.609375 32.02270508 C24.6214046 32.0136954 18.80268452 31.44935183 12.875 30.625 C11.96427734 30.51542969 11.05355469 30.40585937 10.11523438 30.29296875 C4.66123412 29.5404197 0.91007064 28.49457368 -3.4375 24.875 C-5.81835117 21.70053177 -7.77548357 18.4760356 -9.4375 14.875 C-12.39024099 14.875 -13.92808403 15.31391831 -16.625 16.375 Z M-24.9375 74.80078125 C-31.922632 84.4599091 -33.59970481 95.13673146 -32.4375 106.875 C-30.85503643 112.73011522 -29.18011507 118.81387507 -24.4375 122.875 C-23.29087891 121.65876953 -23.29087891 121.65876953 -22.12109375 120.41796875 C-4.02437906 101.55862318 17.44828919 89.14248225 42.5625 81.875 C41.75243581 75.56093804 38.08369316 72.09825622 33.5625 67.875 C14.57790053 53.58252918 -9.81129296 56.41823797 -24.9375 74.80078125 Z M49.5625 96.875 C48.89992188 97.04128906 48.23734375 97.20757812 47.5546875 97.37890625 C16.81705361 105.38967956 -9.90835556 125.75938149 -26.28076172 152.87890625 C-43.03490154 181.790229 -47.60211265 214.63141576 -39.44140625 247.0390625 C-33.86934367 267.15790313 -23.50233203 284.74361597 -9.25 299.88671875 C-6.07920751 303.36502344 -4.83875814 305.84978187 -4.9609375 310.61914062 C-5.92446098 315.18008169 -9.07905822 318.55937615 -11.9375 322.125 C-13.16454236 323.68622645 -14.3836814 325.25370607 -15.59375 326.828125 C-16.13837891 327.51036133 -16.68300781 328.19259766 -17.24414062 328.89550781 C-18.78169764 331.06070929 -18.78169764 331.06070929 -18.4375 334.875 C-17.10330352 336.42763687 -17.10330352 336.42763687 -15.2265625 337.671875 C-14.55882812 338.15527344 -13.89109375 338.63867188 -13.203125 339.13671875 C-12.49671875 339.62785156 -11.7903125 340.11898437 -11.0625 340.625 C-10.36382812 341.13160156 -9.66515625 341.63820313 -8.9453125 342.16015625 C-5.51137095 344.90888932 -5.51137095 344.90888932 -1.4375 345.875 C0.02797861 344.21405934 0.02797861 344.21405934 1.49609375 342.04296875 C2.06263672 341.24439453 2.62917969 340.44582031 3.21289062 339.62304688 C3.80263672 338.77806641 4.39238281 337.93308594 5 337.0625 C6.1628629 335.40839469 7.32813948 333.75598301 8.49609375 332.10546875 C9.01228271 331.36707764 9.52847168 330.62868652 10.06030273 329.86791992 C12.47297655 326.66709815 13.77218233 325.10686598 17.69140625 323.95703125 C22.74586577 323.84992363 26.00382297 325.42185859 30.5 327.5625 C59.59414504 340.55146074 92.71405427 341.10323346 122.5625 329.875 C133.45763789 325.5419292 143.31399803 320.1151441 152.5625 312.875 C153.13597168 312.42640625 153.70944336 311.9778125 154.30029297 311.515625 C167.36447872 301.135568 177.40770842 289.48422237 185.5625 274.875 C186.16835938 273.81023437 186.77421875 272.74546875 187.3984375 271.6484375 C202.51580404 243.46016015 204.76583238 209.54463223 195.66308594 179.08569336 C189.61724381 160.14463143 179.14761152 144.28052678 165.5625 129.875 C164.95019531 129.19824219 164.33789062 128.52148438 163.70703125 127.82421875 C144.076875 106.93840218 113.90691093 94.65885576 85.53515625 93.59375 C73.27460484 93.32604015 61.4705566 93.85035362 49.5625 96.875 Z M250.5625 179.875 C249.510625 181.15375 248.45875 182.4325 247.375 183.75 C243.94618757 187.62366833 241.73587902 189.67157827 236.4296875 190.01171875 C232.29537947 190.10040853 228.6112058 189.68474116 224.5625 188.875 C221.5568631 188.78824987 218.57043262 188.83010548 215.5625 188.875 C216.0575 194.32 216.0575 194.32 216.5625 199.875 C217.63886719 200.08253906 218.71523438 200.29007813 219.82421875 200.50390625 C235.90311867 203.80991741 249.86502202 210.01460371 259.3125 224.125 C268.26544496 239.2681482 271.74041848 254.60360493 267.5625 271.875 C263.28367145 286.72201954 254.72793751 298.28296249 241.375 306.0625 C226.8089812 313.49495556 211.55164728 315.44316932 195.75 311 C193.67840621 310.31872068 191.61491645 309.61204077 189.5625 308.875 C187.56319288 308.20625829 185.56339545 307.53897428 183.5625 306.875 C182.67046875 307.76703125 181.7784375 308.6590625 180.859375 309.578125 C178.50520833 311.93229167 176.15104167 314.28645833 173.796875 316.640625 C173.23967773 317.20040039 172.68248047 317.76017578 172.10839844 318.33691406 C170.8201259 319.61867606 169.50676995 320.87516531 168.1875 322.125 C166.17347242 324.29395278 165.8847335 325.97489853 165.5625 328.875 C166.82489712 329.74158615 168.09777501 330.59292059 169.375 331.4375 C170.08269531 331.91316406 170.79039062 332.38882813 171.51953125 332.87890625 C173.67686427 334.22577091 173.67686427 334.22577091 176.5625 332.875 C178.00865636 331.30226026 178.00865636 331.30226026 179.375 329.4375 C182.16039609 326.08953623 184.16854185 324.68205354 188.5625 323.875 C194.52568313 323.64446457 200.23771635 324.35474559 206.125 325.1875 C207.04474609 325.30544922 207.96449219 325.42339844 208.91210938 325.54492188 C215.12799102 326.41630715 220.27547422 327.45728703 224.75 332.1875 C226.63709171 334.98560151 228.1401808 337.81701372 229.5625 340.875 C231.4496875 340.6584375 231.4496875 340.6584375 233.375 340.4375 C234.08269531 340.35628906 234.79039062 340.27507812 235.51953125 340.19140625 C237.75646393 339.90329265 237.75646393 339.90329265 240.5625 338.875 C240.51609375 338.1015625 240.4696875 337.328125 240.421875 336.53125 C240.18865517 329.80119211 240.02962929 324.16691274 244.5625 318.875 C248.38129512 315.60094477 252.43125112 312.73834641 256.5625 309.875 C258.10976288 308.71576543 259.65236593 307.55024916 261.1875 306.375 C266.77763561 302.12932739 271.6423896 302.4875459 278.5625 302.875 C282.3125 303.875 282.3125 303.875 284.5625 304.875 C285.40408536 303.60961631 286.23549748 302.33746221 287.0625 301.0625 C287.5265625 300.35480469 287.990625 299.64710938 288.46875 298.91796875 C289.79849375 296.82041876 289.79849375 296.82041876 289.5625 293.875 C288.634375 293.276875 287.70625 292.67875 286.75 292.0625 C282.32402599 289.02506686 281.04241482 286.06479095 279.91015625 280.8984375 C279.2231754 275.65597965 280.10297603 270.51457061 280.8125 265.3125 C280.93496094 264.29736328 281.05742187 263.28222656 281.18359375 262.23632812 C282.09583767 255.32224181 283.16683219 250.16419368 288.375 245.1875 C291.34788906 243.03069813 294.22240832 241.38599385 297.5625 239.875 C296.5725 236.575 295.5825 233.275 294.5625 229.875 C293.70527344 229.84921875 292.84804688 229.8234375 291.96484375 229.796875 C278.98481315 229.15299524 278.98481315 229.15299524 274.5625 224.875 C271.35204072 221.01676664 268.45466616 216.97442245 265.5625 212.875 C263.93714149 210.74065657 262.29854662 208.61739356 260.65625 206.49609375 C257.69761669 202.11097652 258.23367669 196.93734961 258.5625 191.875 C259.0593049 189.42985588 259.74033884 187.23871332 260.5625 184.875 C255.6125 182.4 255.6125 182.4 250.5625 179.875 Z M217.5625 216.875 C217.45760254 217.93859741 217.45760254 217.93859741 217.35058594 219.02368164 C214.66327307 245.66998726 214.66327307 245.66998726 210.5625 257.875 C210.35254395 258.51018555 210.14258789 259.14537109 209.92626953 259.79980469 C206.47736718 270.08389549 201.83655795 279.41970693 196.5625 288.875 C195.88557069 290.20315245 195.21318394 291.53379433 194.5625 292.875 C204.84995817 297.66583291 215.59316965 298.85031293 226.5 295.25 C237.20579478 290.70478831 245.78212079 282.5308996 250.5 271.875 C254.36702991 261.52808215 254.27979852 252.20068994 250.40625 241.7578125 C245.80209633 231.70541032 239.2771016 224.67426015 229.3125 219.84765625 C225.47270478 218.48954686 221.54880284 217.68648186 217.5625 216.875 Z M-39.4375 341.875 C-44.16993898 347.109657 -48.48616834 352.49275982 -52.5625 358.25 C-53.70041064 359.84122464 -54.83843469 361.43236818 -55.9765625 363.0234375 C-56.55051758 363.8287793 -57.12447266 364.63412109 -57.71582031 365.46386719 C-60.44022085 369.2792642 -63.18953325 373.07656051 -65.9375 376.875 C-67.01837811 378.37098615 -68.09910688 379.8670802 -69.1796875 381.36328125 C-69.71561523 382.10529785 -70.25154297 382.84731445 -70.80371094 383.61181641 C-72.45603654 385.90067748 -74.10707112 388.19046492 -75.7578125 390.48046875 C-76.3053418 391.23948486 -76.85287109 391.99850098 -77.41699219 392.78051758 C-78.50456583 394.28875954 -79.59117208 395.79769961 -80.67675781 397.30737305 C-83.30407299 400.95387761 -85.95498037 404.57778518 -88.6640625 408.1640625 C-89.42855713 409.18270386 -89.42855713 409.18270386 -90.20849609 410.22192383 C-91.16493091 411.49301276 -92.12836054 412.75888147 -93.10009766 414.01831055 C-95.53106618 417.25822225 -97.04063906 419.8071754 -97.4375 423.875 C-89.06550102 431.03550021 -80.24887965 437.42042843 -71.16455078 443.63964844 C-69.4375 444.875 -69.4375 444.875 -67.24609375 446.8515625 C-65.43897349 448.11002503 -65.43897349 448.11002503 -63.09375 447.59375 C-59.02763598 444.96273505 -56.6951795 441.30323588 -53.9375 437.375 C-53.02109741 436.09991577 -53.02109741 436.09991577 -52.08618164 434.79907227 C-50.81582895 433.02981028 -49.55033016 431.25705368 -48.28955078 429.48095703 C-46.03778054 426.31256848 -43.75706513 423.16584269 -41.47460938 420.01953125 C-39.32528785 417.05404489 -37.18609248 414.08131469 -35.04638672 411.10888672 C-32.34737866 407.36140208 -29.64206778 403.61847298 -26.9375 399.875 C-25.8684779 398.39453969 -24.79946752 396.91407091 -23.73046875 395.43359375 C-21.42207371 392.23719386 -19.11187949 389.04210213 -16.80078125 385.84765625 C-16.20652344 385.02587891 -15.61226563 384.20410156 -15 383.35742188 C-13.85852209 381.77897195 -12.71661518 380.20083215 -11.57421875 378.62304688 C-11.06117188 377.91341797 -10.548125 377.20378906 -10.01953125 376.47265625 C-9.56811768 375.84883057 -9.1167041 375.22500488 -8.65161133 374.58227539 C-6.24637712 371.28990767 -6.24637712 371.28990767 -4.97265625 367.47265625 C-5.66974331 363.57716974 -7.71263585 362.60008533 -10.875 360.3125 C-11.72952759 359.68710327 -11.72952759 359.68710327 -12.60131836 359.04907227 C-13.85323487 358.13817721 -15.11113889 357.23547056 -16.37402344 356.33984375 C-18.57766498 354.77549812 -20.76153114 353.1856828 -22.9453125 351.59375 C-24.46247244 350.49851733 -25.9806884 349.40474591 -27.5 348.3125 C-28.58849243 347.52540649 -28.58849243 347.52540649 -29.69897461 346.72241211 C-30.38741455 346.23522705 -31.07585449 345.74804199 -31.78515625 345.24609375 C-32.69793335 344.5953186 -32.69793335 344.5953186 -33.62915039 343.93139648 C-35.55419575 342.80682901 -37.25995882 342.3073876 -39.4375 341.875 Z " fill="#FB743C" transform="translate(165.4375,22.125)"/>
<path d="M0 0 C21.71224811 18.30749969 35.42012511 42.16166217 39.0390625 70.5625 C40.11264937 85.55626355 39.53306642 100.17824378 35.0390625 114.5625 C34.72557861 115.58561279 34.72557861 115.58561279 34.40576172 116.62939453 C25.9265142 143.45176327 7.1947605 164.3951559 -17.328125 177.78125 C-43.5851605 191.03166005 -73.77759079 193.16694636 -101.71875 184.10546875 C-128.22742511 174.85244065 -150.45616631 154.70684103 -162.91943359 129.63427734 C-168.30512745 117.98501848 -172.47790886 104.44326385 -172.9609375 91.5625 C-173.0125 90.345625 -173.0640625 89.12875 -173.1171875 87.875 C-173.99476465 56.89761909 -162.65316811 29.21640457 -141.5234375 6.75 C-102.70223408 -29.86336246 -42.07040588 -32.85709799 0 0 Z M-135.57666016 25.92822266 C-151.10665957 44.26293448 -157.39102106 67.87642073 -155.9609375 91.5625 C-154.0924857 109.84155976 -146.7483369 126.53825934 -134.9609375 140.5625 C-134.36667969 141.30242187 -133.77242187 142.04234375 -133.16015625 142.8046875 C-118.73833021 160.06310458 -96.12618526 170.46017556 -73.9609375 172.5625 C-49.29717131 174.20867643 -26.22518621 166.32598578 -7.6484375 150.125 C-6.06838986 148.62240567 -4.50536927 147.1016786 -2.9609375 145.5625 C-1.82398438 144.46035156 -1.82398438 144.46035156 -0.6640625 143.3359375 C15.70822162 126.45554801 22.47207714 103.86848819 22.40478516 80.82275391 C21.99998936 56.53129257 11.68159016 34.9816213 -5.51220703 17.93798828 C-24.1614365 0.23159144 -47.40556786 -6.02405156 -72.5078125 -5.70703125 C-97.3605633 -4.97159271 -119.13949539 7.70743879 -135.57666016 25.92822266 Z " fill="#FD743B" transform="translate(310.9609375,154.4375)"/>
<path d="M0 0 C7.46714215 5.64588797 11.27223664 13.48812635 15.5 21.625 C16.15529955 22.8696415 16.81156962 24.11377244 17.46875 25.35742188 C18.83040983 27.93603659 20.18791014 30.51677563 21.54248047 33.09912109 C24.67691198 39.06605812 27.87322725 44.99973804 31.0625 50.9375 C32.3010111 53.24987691 33.53929119 55.56237756 34.77734375 57.875 C37.04982775 62.11744468 39.3253958 66.35819446 41.60525513 70.59667969 C42.95516339 73.10662449 44.30379709 75.61725312 45.65234375 78.12792969 C46.58861242 79.86980303 47.52669167 81.61070281 48.46484375 83.3515625 C50.17709956 86.54016331 51.87385539 89.73633929 53.5625 92.9375 C54.13774414 94.01805664 54.71298828 95.09861328 55.30566406 96.21191406 C55.85061523 97.26088867 56.39556641 98.30986328 56.95703125 99.390625 C57.68756714 100.78522949 57.68756714 100.78522949 58.43286133 102.20800781 C60.64514909 107.55345351 60.56281173 112.78837049 58.82421875 118.26171875 C56.22681181 124.04442309 52.83021154 126.9209542 47.03514099 129.51870728 C42.10061807 131.31596275 37.45616112 131.35969261 32.25024414 131.32568359 C31.24916122 131.33094055 30.24807831 131.33619751 29.21665955 131.34161377 C25.92683028 131.3547538 22.63748994 131.34609606 19.34765625 131.3359375 C17.04894417 131.33796011 14.75023272 131.34087311 12.45152283 131.34463501 C7.64087802 131.34905039 2.83040068 131.34265306 -1.98022461 131.32861328 C-8.13130769 131.31153174 -14.28199773 131.32136134 -20.43306637 131.33933067 C-25.17813551 131.35019787 -29.92311228 131.3467085 -34.66818428 131.3389473 C-36.93548187 131.33695291 -39.20278797 131.33937766 -41.47007561 131.34638596 C-44.64555788 131.35404759 -47.8204137 131.34232953 -50.99584961 131.32568359 C-51.92340057 131.33175629 -52.85095154 131.33782898 -53.80661011 131.34408569 C-60.63047977 131.27817922 -67.16757622 130.35036529 -72.77734375 126.2109375 C-76.85951775 121.36023685 -79.046857 117.31495894 -79.4375 110.9375 C-78.27349756 102.51313699 -74.5292587 95.68070926 -70.5625 88.25 C-69.87726425 86.94790251 -69.19278557 85.64540635 -68.5090332 84.3425293 C-64.16215456 76.08305687 -59.72494508 67.87208019 -55.21826172 59.69873047 C-52.07620476 53.98883658 -49.00524252 48.2450865 -45.97265625 42.4765625 C-45.57914474 41.72890121 -45.18563324 40.98123993 -44.78019714 40.21092224 C-42.8244506 36.49363949 -40.87373446 32.77384515 -38.93041992 29.05004883 C-25.2545602 2.95309943 -25.2545602 2.95309943 -18.77734375 -0.39453125 C-12.57764141 -2.16439619 -6.11817419 -1.89107202 0 0 Z M-11.4375 15.9375 C-13.38469076 18.56809634 -14.88554721 21.06731922 -16.4375 23.9375 C-17.06156738 25.09024414 -17.68563477 26.24298828 -18.32861328 27.43066406 C-20.17938685 30.88043792 -22.00290535 34.34410398 -23.82012939 37.81164551 C-25.83020886 41.64630023 -27.85069921 45.47546018 -29.87109375 49.3046875 C-30.46851379 50.43753174 -30.46851379 50.43753174 -31.07800293 51.59326172 C-34.18937146 57.48576524 -37.35514214 63.34665532 -40.5625 69.1875 C-41.97161019 71.76407961 -43.37971949 74.34120404 -44.78759766 76.91845703 C-45.67037514 78.53379091 -46.55338429 80.1489989 -47.43792725 81.7633667 C-49.68166919 85.85895673 -51.91436002 89.96028964 -54.13494873 94.06848145 C-54.87401081 95.4315532 -55.61668993 96.79267043 -56.36309814 98.1517334 C-57.40388974 100.04801105 -58.43181203 101.95073824 -59.45703125 103.85546875 C-60.35578979 105.50712036 -60.35578979 105.50712036 -61.27270508 107.19213867 C-62.8005301 109.95114953 -62.8005301 109.95114953 -61.4375 112.9375 C-59.16880688 114.07184656 -57.93250797 114.06545484 -55.4140625 114.07121277 C-54.57278809 114.07547775 -53.73151367 114.07974274 -52.86474609 114.08413696 C-51.94000488 114.08368378 -51.01526367 114.08323059 -50.0625 114.08276367 C-49.09006348 114.08612228 -48.11762695 114.0894809 -47.11572266 114.09294128 C-43.88963558 114.10246863 -40.66360028 114.10439518 -37.4375 114.10546875 C-35.20312478 114.10867969 -32.96874977 114.11204364 -30.734375 114.11555481 C-26.04687004 114.12155027 -21.35938353 114.12339424 -16.671875 114.12280273 C-10.65229523 114.122701 -4.6328331 114.13636331 1.38671875 114.15357494 C6.0019587 114.16466784 10.61716995 114.16672279 15.23242188 114.16619301 C17.45247809 114.16737684 19.67253496 114.17182099 21.89257812 114.17952538 C24.99097046 114.18927226 28.0891039 114.18646847 31.1875 114.18041992 C32.11224121 114.18603943 33.03698242 114.19165894 33.98974609 114.19744873 C34.83102051 114.19325424 35.67229492 114.18905975 36.5390625 114.18473816 C37.27205566 114.18528293 38.00504883 114.18582769 38.76025391 114.18638897 C40.81506011 114.08742392 40.81506011 114.08742392 42.5625 111.9375 C42.19878592 108.2746265 40.96740502 105.4210173 39.26171875 102.19140625 C38.78589355 101.28414795 38.31006836 100.37688965 37.81982422 99.44213867 C37.30178223 98.47123291 36.78374023 97.50032715 36.25 96.5 C35.70875488 95.47430908 35.16750977 94.44861816 34.60986328 93.3918457 C30.63985134 85.893254 26.58544944 78.44169907 22.49804688 71.0065918 C19.29839227 65.16989881 16.15733554 59.3045661 13.05078125 53.41796875 C12.45807434 52.29514748 12.45807434 52.29514748 11.85339355 51.14964294 C9.88752308 47.42314091 7.9256364 43.69459403 5.96826172 39.96362305 C4.18840433 36.57641805 2.3923503 33.198395 0.57904053 29.82897949 C-0.09473376 28.575286 -0.76466703 27.31952007 -1.43060303 26.06164551 C-2.34802041 24.33724652 -3.28863875 22.62525004 -4.23046875 20.9140625 C-4.75535889 19.94807129 -5.28024902 18.98208008 -5.82104492 17.98681641 C-6.62119019 16.97240479 -6.62119019 16.97240479 -7.4375 15.9375 C-8.7575 15.9375 -10.0775 15.9375 -11.4375 15.9375 Z " fill="#FD743B" transform="translate(253.4375,165.0625)"/>
<path d="M0 0 C2.91535318 2.35109128 3.0175846 4.09751462 3.6875 7.8125 C3.58156628 10.53136104 3.28278174 11.67146203 1.49267578 13.7512207 C-3.35253264 17.83895558 -8.28956506 21.26824019 -13.8125 24.375 C-14.6372583 24.84268799 -15.4620166 25.31037598 -16.31176758 25.79223633 C-46.98502583 42.95073641 -89.18635103 59.69452383 -125 53 C-127.5 51.4375 -127.5 51.4375 -129 49 C-129.54787926 46.22065417 -129.72978005 43.74740723 -129 41 C-126.78903193 38.18111543 -125.53049426 37.11455613 -121.98925781 36.34985352 C-120.82233398 36.27694092 -119.65541016 36.20402832 -118.453125 36.12890625 C-116.49101074 35.98437012 -116.49101074 35.98437012 -114.48925781 35.83691406 C-113.7978772 35.79280396 -113.10649658 35.74869385 -112.39416504 35.70324707 C-78.09534005 33.45180698 -46.42572316 24.12303882 -17.515625 5.26171875 C-6.36712673 -1.95911592 -6.36712673 -1.95911592 0 0 Z " fill="#FD5650" transform="translate(359,420)"/>
<path d="M0 0 C2.9375 2.0625 2.9375 2.0625 5 5 C5.66774251 11.19036587 3.84346227 15.98842422 1.75 21.6875 C-9.34183532 53.55522831 -10.67059186 87.88138849 -3.6171875 120.78515625 C-2.76709613 125.21316381 -2.06014905 129.54014125 -3 134 C-5.54127833 137.13922618 -7.04772399 137.84128733 -11 138.5 C-14.84314776 137.85947537 -16.25061495 136.75815502 -19 134 C-19.97495332 131.2989964 -20.64228056 128.97002071 -21.1875 126.1875 C-21.42883667 125.05852295 -21.42883667 125.05852295 -21.67504883 123.90673828 C-29.33188943 86.91615674 -26.53938828 49.48923204 -14.9375 13.6875 C-14.60927246 12.66084229 -14.28104492 11.63418457 -13.94287109 10.57641602 C-13.62012207 9.62694092 -13.29737305 8.67746582 -12.96484375 7.69921875 C-12.6824585 6.86221436 -12.40007324 6.02520996 -12.10913086 5.1628418 C-9.42708439 -0.06723737 -5.5626918 -0.78072867 0 0 Z " fill="#FA9E1E" transform="translate(57,186)"/>
<path d="M0 0 C2.8984979 1.98318277 3.81090698 3.26726454 4.6875 6.6640625 C5.05311133 10.56696345 4.45842455 13.96303579 3.625 17.75 C1.48819377 27.7613329 0.83153889 37.51859911 0.875 47.75 C0.8747583 48.79969971 0.8745166 49.84939941 0.87426758 50.9309082 C0.90121685 57.78500579 1.22670228 64.48715468 2.07421875 71.29296875 C1.9811076 74.68907532 1.03022818 76.3100638 -1 79 C-4 81 -4 81 -7.4375 80.875 C-11.42144038 79.89648833 -12.48859073 79.15115773 -15 76 C-21.29770701 55.02744741 -18.58190403 24.71690137 -12 4 C-8.4306493 -0.1812394 -5.37955249 -0.78248036 0 0 Z " fill="#FA9D1E" transform="translate(79,219)"/>
<path d="M0 0 C2.98792348 2.40961571 3.01420136 4.09940954 3.5625 7.9375 C3.69140625 9.90234375 3.69140625 9.90234375 3 12 C-1.86212549 17.16396885 -7.72134182 19.18136922 -14.3125 21.5 C-15.94312378 22.07983643 -15.94312378 22.07983643 -17.60668945 22.67138672 C-25.52895649 25.38398551 -33.48219077 27.46605954 -41.6875 29.125 C-43.25334839 29.44307617 -43.25334839 29.44307617 -44.85083008 29.76757812 C-56.2442149 31.88553717 -56.2442149 31.88553717 -61.375 28.375 C-63.67917484 25.00735985 -63.63127485 22.99807408 -63 19 C-58.79197178 13.12480805 -53.63080543 12.7318624 -46.9375 11.625 C-34.17263874 9.25570181 -22.01909733 5.63703276 -10.17578125 0.28515625 C-6.24944956 -1.30372828 -4.04634525 -1.16721498 0 0 Z " fill="#FD5B4C" transform="translate(314,411)"/>
<path d="M0 0 C2.42728522 1.66757111 3.79565433 2.96890493 4.38015747 5.91821289 C4.54756003 8.36016402 4.5804635 10.77104736 4.56640625 13.21875 C4.57570412 14.56108704 4.57570412 14.56108704 4.58518982 15.93054199 C4.59228467 17.8200573 4.58911979 19.70963517 4.57641602 21.59912109 C4.56254592 24.4904269 4.5966286 27.37849861 4.63476562 30.26953125 C4.63571681 32.10677163 4.63385806 33.94401605 4.62890625 35.78125 C4.64216446 36.64488159 4.65542267 37.50851318 4.66908264 38.39831543 C4.57646334 44.36673477 4.57646334 44.36673477 1.68334961 47.54492188 C-1.84196931 49.45656783 -4.04606115 49.57511838 -8 49 C-10.36497439 47.13291495 -11.66030715 45.67938569 -13 43 C-13.12334212 40.28703395 -13.1884001 37.60075785 -13.203125 34.88671875 C-13.20882507 34.08015335 -13.21452515 33.27358795 -13.22039795 32.44258118 C-13.22985195 30.73362542 -13.23638352 29.0246514 -13.24023438 27.31567383 C-13.2499232 24.70816959 -13.280935 22.10145922 -13.3125 19.49414062 C-13.31903185 17.83333801 -13.32428161 16.17252976 -13.328125 14.51171875 C-13.3466452 13.3458448 -13.3466452 13.3458448 -13.36553955 12.15641785 C-13.3468226 7.57908601 -12.82643163 4.64481442 -10 1 C-6.62055069 -1.56372016 -3.97046734 -1.15805297 0 0 Z " fill="#FD753A" transform="translate(248,202)"/>
<path d="M0 0 C2.44609595 1.83457196 2.87528543 3.14120599 3.30859375 6.125 C3.51501661 9.92818485 3.48127389 12.25957863 1.375 15.5 C-1.56874992 17.35921047 -3.51270927 17.9288308 -7 18 C-9.79750754 16.79198538 -11.45520247 15.66861515 -13.375 13.3125 C-14.34752611 9.7141534 -14.10454812 6.55344756 -13 3 C-9.25714545 -1.65021322 -5.37856357 -1.7695707 0 0 Z " fill="#FD723C" transform="translate(249,255)"/>
</svg>
