<?xml version="1.0" encoding="UTF-8"?>
<svg version="1.1" xmlns="http://www.w3.org/2000/svg" width="512" height="512">
<path d="M0 0 C5.68023433 0.7212996 7.95249428 3.58152192 11.9375 7.5 C13.41371874 8.85972801 14.89025452 10.21912767 16.37207031 11.57275391 C23.6263321 18.21125202 30.78943573 24.95043289 37.97314453 31.66503906 C40.03163022 33.58792974 42.09178 35.50902394 44.15234375 37.4296875 C44.83828613 38.06922363 45.52422852 38.70875977 46.23095703 39.36767578 C47.55071394 40.59806584 48.87069162 41.82821914 50.19091797 43.05810547 C51.08061279 43.88785889 51.08061279 43.88785889 51.98828125 44.734375 C52.51075439 45.22131836 53.03322754 45.70826172 53.5715332 46.20996094 C54.71218851 47.28721252 55.82809351 48.39059351 56.9375 49.5 C58.97894366 49.79930872 58.97894366 49.79930872 61.35835266 49.74482727 C62.7525946 49.7507338 62.7525946 49.7507338 64.17500305 49.75675964 C65.70933235 49.74821709 65.70933235 49.74821709 67.2746582 49.73950195 C68.34956512 49.74151611 69.42447205 49.74353027 70.5319519 49.74560547 C72.87225906 49.74915816 75.2125758 49.74837508 77.55288124 49.74382973 C81.25527194 49.73825567 84.9573471 49.74736417 88.65971375 49.7610321 C99.18845808 49.79824046 109.71705567 49.81669272 120.24584961 49.80541992 C126.68033975 49.79957404 133.114388 49.81780758 139.54878807 49.85130882 C142.00359042 49.85927467 144.45844078 49.85796994 146.9132328 49.84728432 C150.34669752 49.83298439 153.77877064 49.84920262 157.2121582 49.87231445 C158.73737846 49.85466286 158.73737846 49.85466286 160.29341125 49.83665466 C164.9707981 49.89847676 167.19836452 49.93513376 171.00415039 52.84361267 C173.20319577 55.86506118 174.64515611 58.74768788 176.07421875 62.203125 C176.35141251 62.86207764 176.62860626 63.52103027 176.91419983 64.19995117 C177.51423713 65.62982023 178.10877601 67.06200663 178.69836426 68.49621582 C179.9689875 71.58665409 181.26611316 74.6657277 182.56222534 77.74554443 C183.25468161 79.39104575 183.94583761 81.03709478 184.63577271 82.68365479 C188.86517952 92.75867631 193.27928853 102.75227187 197.6875 112.75 C198.84500467 115.37835692 200.00214672 118.006873 201.15904236 120.63549805 C201.85095354 122.20717999 202.54334816 123.77864925 203.23634338 125.34985352 C204.13930233 127.39878334 205.03869269 129.44924637 205.9375 131.5 C206.22818863 132.1567572 206.51887726 132.8135144 206.81837463 133.49017334 C209.99497795 140.74596924 209.79641847 146.62127978 207.3125 154.125 C203.06543541 164.6464736 194.62713011 174.03936534 184.14453125 178.69140625 C170.4003857 183.72687196 156.51572955 184.54615504 142.9375 178.5 C133.61955734 173.25488053 126.80462205 166.10372954 123.0625 156 C120.41514129 146.08766254 120.90978758 139.7812332 125.25 130.4375 C125.72767822 129.35984375 126.20535645 128.2821875 126.69750977 127.171875 C127.79179648 124.706297 128.89388516 122.24565192 130.00683594 119.78857422 C133.46290022 112.13940778 136.80098216 104.43745071 140.16854858 96.74905396 C141.35552244 94.04438211 142.54758064 91.34201294 143.74145508 88.64038086 C144.12083221 87.78057114 144.50020935 86.92076141 144.89108276 86.03489685 C145.59973124 84.42929695 146.30960331 82.82423622 147.02102661 81.21986389 C149.4599199 75.6872432 151.6881774 70.12330649 153.9375 64.5 C114.8325 64.995 114.8325 64.995 74.9375 65.5 C79.2275 69.79 83.5175 74.08 87.9375 78.5 C89.5197363 87.86631292 89.5197363 87.86631292 89.27539062 91.17773438 C89.08877031 94.14078759 88.96299153 97.0837596 88.92382812 100.05273438 C88.62688936 110.45575797 88.62688936 110.45575797 86.32202148 113.94702148 C83.9375 115.5 83.9375 115.5 76.9375 115.5 C76.9375 137.61 76.9375 159.72 76.9375 182.5 C78.5875 183.16 80.2375 183.82 81.9375 184.5 C85.2046563 186.07253106 88.41114708 187.75912768 91.625 189.4375 C92.49189453 189.88029297 93.35878906 190.32308594 94.25195312 190.77929688 C95.49428711 191.42801758 95.49428711 191.42801758 96.76171875 192.08984375 C97.51541748 192.48034912 98.26911621 192.87085449 99.0456543 193.27319336 C100.9375 194.5 100.9375 194.5 102.9375 197.5 C103.17800903 199.79692078 103.17800903 199.79692078 103.16455078 202.5222168 C103.16439972 203.54304855 103.16424866 204.56388031 103.16409302 205.61564636 C103.15377045 206.71572525 103.14344788 207.81580414 103.1328125 208.94921875 C103.12856766 210.64084892 103.12856766 210.64084892 103.12423706 212.36665344 C103.11302916 215.97370958 103.08792323 219.58051873 103.0625 223.1875 C103.052471 225.63085579 103.04334501 228.07421547 103.03515625 230.51757812 C103.01308783 236.51180323 102.97960417 242.50588397 102.9375 248.5 C104.76124146 248.46072388 104.76124146 248.46072388 106.62182617 248.4206543 C111.14100681 248.3300224 115.66010744 248.27270352 120.17993164 248.2253418 C122.13449623 248.20022719 124.08896717 248.16612869 126.04321289 248.12280273 C128.85586668 248.06201566 131.66727702 248.03376017 134.48046875 248.01171875 C135.35148727 247.98591232 136.2225058 247.9601059 137.11991882 247.93351746 C141.39508287 247.93154964 143.32903809 248.04221706 146.83300781 250.6784668 C148.88301627 253.42695262 150.52413736 256.07292227 152.06640625 259.1328125 C152.90848633 260.71255859 152.90848633 260.71255859 153.76757812 262.32421875 C154.91990794 264.51975132 156.04776469 266.72830828 157.15039062 268.94921875 C160.39351581 275.07028204 160.39351581 275.07028204 165.9699707 278.84326172 C169.16308693 279.66475201 169.16308693 279.66475201 172.27490234 280.078125 C175.78123327 280.63368523 177.56336844 281.89611377 179.9375 284.5 C183.67876841 289.84466915 184.78700557 294.98712395 183.9375 301.5 C181.88310314 307.66319057 178.71328523 311.26848667 173.11328125 314.578125 C168.44111861 316.55771276 162.58168562 316.3959237 157.8046875 314.77734375 C152.61073027 312.00048783 149.20370766 307.85914345 146.9375 302.5 C146.33059911 297.01111698 146.76405857 292.57136334 148.9375 287.5 C147.71022249 279.48478637 144.99488954 271.500536 139.61132812 265.33154297 C130.23056483 258.9058229 113.78967883 261.72760613 102.9375 262.5 C102.94797363 263.69488037 102.95844727 264.88976074 102.96923828 266.12084961 C103.00565882 270.58810384 103.0284802 275.05534515 103.04736328 279.52270508 C103.05737087 281.44981092 103.0709811 283.37690178 103.08837891 285.30395508 C103.11285921 288.08678913 103.12403578 290.86942101 103.1328125 293.65234375 C103.14313507 294.50271713 103.15345764 295.35309052 103.16409302 296.22923279 C103.1651366 301.89523588 102.39059804 307.02500957 100.9375 312.5 C101.97156982 312.47381592 103.00563965 312.44763184 104.07104492 312.4206543 C107.91929359 312.32993577 111.7674484 312.27267341 115.61645508 312.2253418 C117.28002839 312.20024653 118.94349196 312.16616204 120.60668945 312.12280273 C123.00239153 312.0619254 125.39663251 312.03374231 127.79296875 312.01171875 C128.90263252 311.97300911 128.90263252 311.97300911 130.03471375 311.93351746 C133.85575622 311.931457 135.69619544 312.31305503 138.74658203 314.67626953 C140.88301925 317.42978334 142.5452917 320.07107495 144.13671875 323.16796875 C144.70712891 324.22564453 145.27753906 325.28332031 145.86523438 326.37304688 C147.03901861 328.58382584 148.19273707 330.80537494 149.32617188 333.03710938 C152.32719128 338.90049071 152.32719128 338.90049071 157.48510742 342.60083008 C160.10422665 343.140139 160.10422665 343.140139 162.62255859 343.25195312 C166.51542034 343.66907478 169.1858617 345.83267373 171.9375 348.5 C175.72106814 353.67087645 176.36816883 358.14763469 175.9375 364.5 C173.76427908 371.1340428 170.75163161 374.96019214 164.625 378.3125 C158.76329775 380.20016682 154.32342269 380.37884967 148.75 377.875 C143.94626102 375.21781367 140.69983553 371.78700659 138.9375 366.5 C138.81787885 364.75297481 138.76222816 363.00107302 138.75 361.25 C138.73582031 360.33734375 138.72164063 359.4246875 138.70703125 358.484375 C138.9375 355.5 138.9375 355.5 140.19140625 352.3203125 C141.65595261 344.82122172 137.81829392 338.20833829 133.8046875 331.99609375 C130.0940327 327.66361239 126.54939388 326.45713636 121.0078125 325.91015625 C112.98938503 325.3628318 104.93254804 325.79727137 96.9375 326.5 C96.63730957 327.42651367 96.33711914 328.35302734 96.02783203 329.30761719 C90.92985752 344.23397517 79.16716224 359.68022517 65.9375 368.5 C67.15332764 368.50410889 68.36915527 368.50821777 69.62182617 368.51245117 C74.1416233 368.5342567 78.66055163 368.58856113 83.17993164 368.65258789 C85.13427389 368.67575551 87.08874077 368.69016071 89.04321289 368.69555664 C91.85642043 368.70485532 94.66767112 368.74586475 97.48046875 368.79296875 C98.35148727 368.7890361 99.2225058 368.78510345 100.11991882 368.78105164 C104.37540375 368.88293297 106.35570663 369.05953434 109.83300781 371.69213867 C111.88861225 374.43477285 113.52475882 377.07415526 115.06640625 380.1328125 C115.90848633 381.71255859 115.90848633 381.71255859 116.76757812 383.32421875 C117.91990794 385.51975132 119.04776469 387.72830828 120.15039062 389.94921875 C123.396122 396.07065116 123.396122 396.07065116 128.97216797 399.84985352 C132.16702684 400.67611374 132.16702684 400.67611374 135.28100586 401.09643555 C138.88035915 401.64323556 140.56521363 402.75704389 142.9375 405.5 C146.61963762 410.88252676 148.05668654 416.02228394 146.9375 422.5 C144.89085453 428.68371493 141.72333131 432.24962388 136.1171875 435.58203125 C130.95007909 437.75814321 124.76386787 437.10878929 119.5625 435.375 C115.23000291 432.28035922 112.0031938 428.45766511 109.9375 423.5 C109.63671875 421.16796875 109.63671875 421.16796875 109.625 418.6875 C109.60824219 417.87667969 109.59148437 417.06585938 109.57421875 416.23046875 C109.9375 413.5 109.9375 413.5 111.74389648 410.53613281 C113.31165923 406.91328524 112.72650613 404.73304467 111.38427734 401.07641602 C108.10135343 394.04167908 104.46133702 386.41047808 96.98498535 383.25311279 C89.83527113 381.66478217 82.70616271 381.8439193 75.42773438 382.23608398 C71.57128096 382.43704243 67.74395263 382.46169516 63.8828125 382.45898438 C48.51109729 382.70373074 39.05229328 384.8572307 27.9375 395.5 C26.39112667 396.63852375 24.82188427 397.74758424 23.21875 398.8046875 C22.25582031 399.46210937 22.25582031 399.46210937 21.2734375 400.1328125 C20.66757812 400.54273438 20.06171875 400.95265625 19.4375 401.375 C18.15581348 402.24675439 16.87455989 403.11914565 15.59375 403.9921875 C14.67722656 404.60658691 14.67722656 404.60658691 13.7421875 405.23339844 C11.91394805 406.48263644 11.91394805 406.48263644 10.1953125 407.93066406 C6.52186833 410.88728797 3.74296476 412.32758325 -1.04882812 411.98925781 C-4.90729767 411.05177321 -7.72153102 408.77896219 -10.8125 406.375 C-12.28557849 405.28136598 -13.75957921 404.18897335 -15.234375 403.09765625 C-16.00845703 402.5164502 -16.78253906 401.93524414 -17.58007812 401.33642578 C-22.00464873 398.06325308 -26.54068666 394.94917289 -31.0625 391.8125 C-32.77181301 390.62249972 -34.48022643 389.43120564 -36.1875 388.23828125 C-36.91195312 387.73337158 -37.63640625 387.22846191 -38.3828125 386.70825195 C-40.0625 385.5 -40.0625 385.5 -41.0625 384.5 C-48.24252108 383.62307028 -55.54232358 383.49549113 -62.76670456 383.27800083 C-66.11523612 383.17482653 -69.44020895 383.01870007 -72.78369141 382.78540039 C-87.51303431 381.31251083 -87.51303431 381.31251083 -100.65014648 386.62078857 C-105.48102372 392.28240763 -109.64253357 399.11747913 -111.0625 406.5 C-110.54661678 409.40657538 -109.64336787 410.92935467 -108.0625 413.5 C-107.04247336 419.0779835 -108.02956153 423.79403141 -110.78515625 428.70703125 C-113.48125711 432.49146641 -116.61325142 435.01691714 -121.0625 436.5 C-128.244988 437.19766205 -133.24161514 436.89536204 -139.0625 432.5 C-143.87287749 427.4296021 -145.55145107 422.74554268 -145.37890625 415.84375 C-144.69606701 410.78568155 -142.35510828 406.99457832 -139.0625 403.1875 C-136.0625 401.5 -136.0625 401.5 -133.42578125 401.13598633 C-128.45474498 400.43703381 -125.13993537 399.72129748 -121.7421875 395.86987305 C-119.66792914 392.49132306 -117.81918108 389.04934808 -116.0625 385.5 C-114.82712227 383.11698623 -113.57003557 380.74650472 -112.3125 378.375 C-111.78140625 377.32054687 -111.2503125 376.26609375 -110.703125 375.1796875 C-108.94028079 372.3003753 -108.08887428 370.97999505 -105.0625 369.5 C-101.94385407 369.04256386 -98.85133782 369.01124096 -95.703125 368.98828125 C-94.34655792 368.96135445 -94.34655792 368.96135445 -92.96258545 368.93388367 C-90.0792708 368.87978143 -87.19612168 368.84588526 -84.3125 368.8125 C-82.35544572 368.77932685 -80.39841328 368.74483719 -78.44140625 368.70898438 C-73.64855693 368.62405496 -68.85575671 368.5572433 -64.0625 368.5 C-65.65488905 367.06634086 -67.24735112 365.63276283 -68.83984375 364.19921875 C-69.72663818 363.40088623 -70.61343262 362.60255371 -71.52709961 361.7800293 C-73.03704836 360.4221659 -74.54942698 359.06698491 -76.06689453 357.7175293 C-84.3039651 350.28971026 -90.86859843 338.70024301 -95.0625 328.5 C-95.0625 327.84 -95.0625 327.18 -95.0625 326.5 C-113.17031748 324.28542348 -113.17031748 324.28542348 -129.78808594 329.49560547 C-134.39324819 334.87249463 -137.81799601 341.49642772 -139.0625 348.5 C-138.46308021 352.28939665 -138.46308021 352.28939665 -137.0625 355.5 C-136.21872935 362.64261667 -136.69420283 367.7149578 -141.0625 373.5 C-145.39575276 377.61103467 -148.99065147 379.33291544 -154.9375 379.8125 C-160.46365029 379.645987 -164.54556692 377.74112706 -168.8125 374.25 C-172.21941505 370.08599271 -173.86355936 366.35677931 -174.4375 361 C-173.71817338 354.28628487 -171.21608473 349.81462908 -166.0625 345.5 C-162.70072745 343.45370367 -160.55227553 342.53162074 -156.60620117 342.27685547 C-152.93010882 341.84310876 -152.93010882 341.84310876 -150.9543457 339.04736328 C-150.1048938 337.44997314 -150.1048938 337.44997314 -149.23828125 335.8203125 C-148.60212891 334.66402344 -147.96597656 333.50773437 -147.31054688 332.31640625 C-146.66395088 331.08667979 -146.01878169 329.85620212 -145.375 328.625 C-144.40113963 326.80356058 -143.42035934 324.98641795 -142.42973328 323.17404175 C-141.53305226 321.5275227 -140.65718676 319.86971817 -139.7824707 318.21142578 C-137.99894674 315.39981228 -137.0284299 313.98597043 -134.0625 312.5 C-131.29984836 312.24341551 -128.77174441 312.14974406 -126.015625 312.20703125 C-125.24442322 312.21127609 -124.47322144 312.21552094 -123.6786499 312.21989441 C-121.22290685 312.23664617 -118.76799371 312.27429061 -116.3125 312.3125 C-114.64454313 312.32755143 -112.97657335 312.34123903 -111.30859375 312.35351562 C-107.22624422 312.38653806 -103.14451268 312.43829516 -99.0625 312.5 C-99.2756636 311.69684105 -99.2756636 311.69684105 -99.49313354 310.87745667 C-100.92963088 305.04550724 -101.33084462 299.64241494 -101.2578125 293.65234375 C-101.25579834 292.85542114 -101.25378418 292.05849854 -101.25170898 291.23742676 C-101.24136595 288.30405799 -101.21344495 285.37077226 -101.1875 282.4375 C-101.14625 275.858125 -101.105 269.27875 -101.0625 262.5 C-114.5925 262.5 -128.1225 262.5 -142.0625 262.5 C-142.7225 264.15 -143.3825 265.8 -144.0625 267.5 C-144.85436215 268.79713018 -145.68423108 270.07184017 -146.55078125 271.3203125 C-152.02596919 278.91136349 -152.02596919 278.91136349 -153.98046875 287.70703125 C-153.10261706 290.43749761 -153.10261706 290.43749761 -151.96484375 293.0078125 C-150.38271191 297.37750996 -151.55617016 301.23581254 -153.0625 305.5 C-155.36356111 310.27912693 -158.02796879 312.68912694 -162.78125 314.80859375 C-168.09285794 316.41844753 -173.07785824 316.14882519 -178.3125 314.4375 C-182.36773038 311.58040587 -185.82835617 307.96828766 -188.0625 303.5 C-188.55578755 297.64524289 -188.91994288 292.31015719 -186.375 286.9375 C-181.5033519 281.80251957 -177.47976497 278.61204147 -170.25 278.375 C-169.198125 278.41625 -168.14625 278.4575 -167.0625 278.5 C-166.78704346 277.7769165 -166.51158691 277.05383301 -166.2277832 276.30883789 C-164.29139645 271.64130602 -161.73636424 267.32997661 -159.25 262.9375 C-158.72857422 261.99197266 -158.20714844 261.04644531 -157.66992188 260.07226562 C-157.15365234 259.16025391 -156.63738281 258.24824219 -156.10546875 257.30859375 C-155.64164795 256.48157959 -155.17782715 255.65456543 -154.69995117 254.80249023 C-152.63388499 251.89730608 -151.18216318 250.30290896 -148.0625 248.5 C-144.4658541 247.96076665 -140.92260207 248.03460977 -137.29296875 248.109375 C-136.25682938 248.11503479 -135.22069 248.12069458 -134.15315247 248.12652588 C-130.85162692 248.14887334 -127.55119619 248.19906822 -124.25 248.25 C-122.00847924 248.27006704 -119.76694143 248.28831745 -117.52539062 248.3046875 C-112.0373884 248.34873267 -106.55002243 248.41562882 -101.0625 248.5 C-101.07360306 247.87217117 -101.08470612 247.24434235 -101.09614563 246.5974884 C-101.20680481 240.06017286 -101.28219472 233.52312354 -101.3371582 226.98510742 C-101.36229496 224.54554436 -101.39640946 222.10605655 -101.43969727 219.66674805 C-101.50038229 216.15915354 -101.528719 212.6525551 -101.55078125 209.14453125 C-101.57658768 208.05477493 -101.6023941 206.96501862 -101.62898254 205.84223938 C-101.631782 198.27621483 -101.631782 198.27621483 -98.81787109 194.43945312 C-96.40868211 192.74367098 -94.10151262 191.17991769 -91.48828125 189.82421875 C-90.65619141 189.38916016 -89.82410156 188.95410156 -88.96679688 188.50585938 C-88.11150391 188.07080078 -87.25621094 187.63574219 -86.375 187.1875 C-85.50810547 186.73310547 -84.64121094 186.27871094 -83.74804688 185.81054688 C-77.35097509 182.5 -77.35097509 182.5 -75.0625 182.5 C-75.0625 160.39 -75.0625 138.28 -75.0625 115.5 C-77.3725 115.5 -79.6825 115.5 -82.0625 115.5 C-84.44702148 113.94702148 -84.44702148 113.94702148 -86.0625 111.5 C-86.97541407 106.96985376 -87.01757111 102.42232593 -87.07836914 97.81323242 C-87.1375733 94.95562455 -87.33155502 92.11060822 -87.54187012 89.26037598 C-87.1528296 75.69884896 -84.34912969 76.78662969 -73.0625 65.5 C-112.1675 65.005 -112.1675 65.005 -152.0625 64.5 C-139.45499938 93.96363626 -139.45499938 93.96363626 -126.57714844 123.30737305 C-125.49577161 125.73999786 -124.42296731 128.1762514 -123.3515625 130.61328125 C-123.03192535 131.32559402 -122.71228821 132.0379068 -122.38296509 132.77180481 C-118.78521568 140.99861046 -118.98702822 145.85904743 -121.7578125 154.23828125 C-125.98870384 164.8155096 -134.33145456 173.77589884 -144.625 178.734375 C-156.68361696 183.68702125 -168.71708135 183.92223952 -181.0625 179.5 C-193.26714535 173.90844442 -201.06777854 164.82625903 -206.0625 152.5 C-209.23251204 141.29929078 -205.06240118 132.76764033 -200.375 122.75 C-199.68850989 121.24614749 -199.00413296 119.7413287 -198.32177734 118.2355957 C-196.92483608 115.15541144 -195.52033371 112.07885302 -194.11083984 109.00439453 C-191.32028112 102.8945999 -188.65199204 96.73302125 -185.99615479 90.56375122 C-185.19312322 88.70054707 -184.38599034 86.8391721 -183.57763672 84.97827148 C-181.14092894 79.3591033 -178.73286849 73.73118004 -176.39453125 68.0703125 C-175.98638184 67.0903833 -175.57823242 66.1104541 -175.15771484 65.10083008 C-174.41223546 63.30535981 -173.67611669 61.50595965 -172.95166016 59.7019043 C-172.62601074 58.91984619 -172.30036133 58.13778809 -171.96484375 57.33203125 C-171.55480103 56.32233276 -171.55480103 56.32233276 -171.13647461 55.29223633 C-169.75495395 52.98677073 -168.3310103 51.9376443 -166.0625 50.5 C-163.87309361 50.1515522 -163.87309361 50.1515522 -161.45497131 50.18875122 C-160.53428864 50.19500015 -159.61360596 50.20124908 -158.6650238 50.20768738 C-157.66189651 50.22954605 -156.65876923 50.25140472 -155.62524414 50.27392578 C-154.56289551 50.28461594 -153.50054687 50.29530609 -152.40600586 50.30632019 C-150.09733009 50.33002404 -147.78871077 50.35982281 -145.48018074 50.39496231 C-141.81738827 50.44573204 -138.15539931 50.46955497 -134.49229431 50.48434448 C-124.07674206 50.5265192 -113.66225337 50.57930089 -103.24780273 50.74316406 C-96.8754413 50.84144608 -90.50543223 50.87562291 -84.13235283 50.8687706 C-81.71185278 50.87805782 -79.29131818 50.91075459 -76.87147713 50.96799088 C-61.75596282 51.71492301 -61.75596282 51.71492301 -48.90716457 44.94175529 C-46.41757975 42.2621815 -44.25609807 39.42786632 -42.0625 36.5 C-40.64399074 35.16472087 -39.19505384 33.85886397 -37.6875 32.625 C-34.57151077 29.9783648 -31.70722334 27.16553649 -28.84375 24.25 C-26.34353815 21.79365151 -23.68569484 19.53690632 -21.03125 17.25 C-18.53164539 15.02812924 -16.209339 12.6587623 -13.8671875 10.2734375 C-11.23683436 7.6886316 -8.45788237 5.28830219 -5.6640625 2.8828125 C-2.86741966 0.46815015 -2.86741966 0.46815015 0 0 Z M-0.0625 17.5 C-0.5471875 17.99628906 -1.031875 18.49257813 -1.53125 19.00390625 C-5.59105576 23.11836324 -9.74673069 27.01802288 -14.12890625 30.78515625 C-16.62681556 33.0004738 -18.94274989 35.3689817 -21.28125 37.75 C-23.78146185 40.20634849 -26.43930516 42.46309368 -29.09375 44.75 C-31.56920818 46.95040727 -33.87059833 49.29480651 -36.18920898 51.65795898 C-37.98805616 53.42679802 -39.84048989 55.07924173 -41.75390625 56.72265625 C-46.89540604 61.19265181 -51.83251739 65.86944835 -56.73999023 70.59399414 C-60.5414769 74.23083469 -64.30470258 77.42014942 -68.625 80.4375 C-73.89266968 85.7759806 -73.89266968 85.7759806 -72.0625 101.5 C-23.8825 101.5 24.2975 101.5 73.9375 101.5 C75.8317239 85.22034969 75.8317239 85.22034969 68.375 78.3125 C66.54233932 76.70199505 66.54233932 76.70199505 64.77734375 75.45703125 C60.72999849 72.40057706 57.10272626 68.99873318 53.4375 65.5 C52.16821448 64.31084573 50.89738952 63.12333241 49.625 61.9375 C49.00625 61.36 48.3875 60.7825 47.75 60.1875 C44.98771197 57.61571459 42.21334934 55.05713053 39.4375 52.5 C34.79729221 48.22451226 30.17444771 43.93095584 25.5625 39.625 C24.9447168 39.04919189 24.32693359 38.47338379 23.69042969 37.88012695 C20.36605596 34.77912842 17.05443949 31.66565039 13.7578125 28.53515625 C13.07638184 27.8911084 12.39495117 27.24706055 11.69287109 26.58349609 C10.38216427 25.34427657 9.07503292 24.10126144 7.77197266 22.85400391 C7.18206543 22.2976123 6.5921582 21.7412207 5.984375 21.16796875 C5.46713867 20.67578857 4.94990234 20.1836084 4.41699219 19.67651367 C2.82386109 18.27158735 2.82386109 18.27158735 -0.0625 17.5 Z M-164.0625 76.5 C-170.49988444 90.73495625 -176.90028896 104.98518539 -183.07751465 119.33532715 C-183.86752236 121.17013305 -184.66079679 123.00353128 -185.45410156 124.83691406 C-185.92944336 125.94647461 -186.40478516 127.05603516 -186.89453125 128.19921875 C-187.52452026 129.66621216 -187.52452026 129.66621216 -188.16723633 131.1628418 C-189.18173687 133.3941509 -189.18173687 133.3941509 -189.0625 135.5 C-172.2325 135.5 -155.4025 135.5 -138.0625 135.5 C-140.28023902 128.67197796 -140.28023902 128.67197796 -142.88427734 122.07275391 C-143.20826508 121.32812897 -143.53225281 120.58350403 -143.86605835 119.8163147 C-144.20674347 119.04419647 -144.54742859 118.27207825 -144.8984375 117.4765625 C-145.44028183 116.23632828 -145.44028183 116.23632828 -145.99307251 114.97103882 C-147.13756699 112.35407725 -148.28752147 109.73955556 -149.4375 107.125 C-150.20086211 105.38035762 -150.96388559 103.63556703 -151.7265625 101.890625 C-155.44304814 93.39847645 -159.18435019 84.91982495 -163.0625 76.5 C-163.3925 76.5 -163.7225 76.5 -164.0625 76.5 Z M164.9375 76.5 C158.50011556 90.73495625 152.09971104 104.98518539 145.92248535 119.33532715 C145.13247764 121.17013305 144.33920321 123.00353128 143.54589844 124.83691406 C143.07055664 125.94647461 142.59521484 127.05603516 142.10546875 128.19921875 C141.47547974 129.66621216 141.47547974 129.66621216 140.83276367 131.1628418 C139.81826313 133.3941509 139.81826313 133.3941509 139.9375 135.5 C156.7675 135.5 173.5975 135.5 190.9375 135.5 C188.67563375 128.55592545 188.67563375 128.55592545 186.00805664 121.85742188 C185.66082047 121.06630005 185.31358429 120.27517822 184.95582581 119.46008301 C184.59012985 118.63794312 184.2244339 117.81580322 183.84765625 116.96875 C183.46185898 116.09279175 183.07606171 115.2168335 182.67857361 114.31433105 C181.45615074 111.54120597 180.22817378 108.77058214 179 106 C178.17997114 104.1420892 177.36030662 102.28401755 176.54101562 100.42578125 C173.01988279 92.44457646 169.48234115 84.47069983 165.9375 76.5 C165.6075 76.5 165.2775 76.5 164.9375 76.5 Z M-61.0625 115.5 C-61.0625 134.97 -61.0625 154.44 -61.0625 174.5 C-57.68629231 173.14951692 -54.63956952 171.83064098 -51.453125 170.15234375 C-50.19822266 169.49202148 -50.19822266 169.49202148 -48.91796875 168.81835938 C-48.05816406 168.36267578 -47.19835937 167.90699219 -46.3125 167.4375 C-45.43722656 166.97794922 -44.56195313 166.51839844 -43.66015625 166.04492188 C-39.61240215 164.12949855 -39.61240215 164.12949855 -36.0625 161.5 C-35.96954185 160.05710213 -35.94503487 158.60970215 -35.94897461 157.16381836 C-35.94908791 155.78249977 -35.94908791 155.78249977 -35.94920349 154.37327576 C-35.95436478 153.37224319 -35.95952606 152.37121063 -35.96484375 151.33984375 C-35.96696617 149.81043907 -35.96696617 149.81043907 -35.96913147 148.25013733 C-35.97474903 144.97922893 -35.9873045 141.70838787 -36 138.4375 C-36.00501274 136.22591244 -36.00957604 134.01432382 -36.01367188 131.80273438 C-36.0238752 126.36844248 -36.04344715 120.93429702 -36.0625 115.5 C-44.3125 115.5 -52.5625 115.5 -61.0625 115.5 Z M-22.0625 115.5 C-22.0625 128.37 -22.0625 141.24 -22.0625 154.5 C-16.7825 151.86 -11.5025 149.22 -6.0625 146.5 C-1.8576849 144.39759245 -0.60364698 143.90928169 3.9375 144.5 C7.34058433 145.93318931 10.53089237 147.69671488 13.75 149.5 C15.464089 150.43887925 17.17889323 151.37645432 18.89453125 152.3125 C19.64710205 152.73144531 20.39967285 153.15039062 21.17504883 153.58203125 C22.75412079 154.57699075 22.75412079 154.57699075 23.9375 154.5 C23.9375 141.63 23.9375 128.76 23.9375 115.5 C8.7575 115.5 -6.4225 115.5 -22.0625 115.5 Z M37.9375 115.5 C37.75366242 121.96240172 37.5945158 128.4157268 37.49804688 134.87866211 C37.45784037 137.07591494 37.40326415 139.27295406 37.33398438 141.46948242 C37.23680579 144.62993015 37.19154663 147.78754866 37.15625 150.94921875 C37.11495972 151.92960617 37.07366943 152.90999359 37.03112793 153.92008972 C37.0293248 156.66717704 37.11271831 158.87785199 37.9375 161.5 C40.31978655 163.87033327 42.89296024 165.14317655 45.9375 166.5 C47.27367685 167.23629303 48.60526658 167.981046 49.9296875 168.73828125 C51.22237365 169.4326458 52.51664102 170.12407492 53.8125 170.8125 C54.47507812 171.17150391 55.13765625 171.53050781 55.8203125 171.90039062 C59.19031255 173.84377914 59.19031255 173.84377914 62.9375 174.5 C62.9375 155.03 62.9375 135.56 62.9375 115.5 C54.6875 115.5 46.4375 115.5 37.9375 115.5 Z M-191.0625 149.5 C-187.64721622 158.03820945 -182.76537163 162.69113877 -174.4921875 166.58984375 C-166.14342792 169.71727298 -158.17690544 168.87569457 -150.0625 165.5 C-144.10330497 162.11433345 -139.5632203 157.38757505 -136.0625 151.5 C-136.0625 150.84 -136.0625 150.18 -136.0625 149.5 C-154.2125 149.5 -172.3625 149.5 -191.0625 149.5 Z M136.9375 149.5 C139.20679441 156.30788323 141.94941266 161.15683084 148.2578125 164.86328125 C157.4490592 169.03422653 165.78789609 169.76190193 175.453125 166.53515625 C183.03639909 163.37545871 188.82098747 158.66757476 192.9375 151.5 C192.9375 150.84 192.9375 150.18 192.9375 149.5 C174.4575 149.5 155.9775 149.5 136.9375 149.5 Z M-4.81640625 160.67578125 C-5.74283936 161.16860596 -6.66927246 161.66143066 -7.6237793 162.16918945 C-9.10938354 162.98262817 -9.10938354 162.98262817 -10.625 163.8125 C-12.17537964 164.64237427 -12.17537964 164.64237427 -13.75708008 165.48901367 C-15.87141675 166.62094443 -17.98332599 167.75742116 -20.09277344 168.8984375 C-23.39634292 170.68004024 -26.71777154 172.42459291 -30.04516602 174.16113281 C-39.93124722 179.32365733 -49.75368495 184.60683128 -59.57885742 189.8840332 C-66.04459949 193.35534284 -72.52030655 196.8066765 -79.00732422 200.23803711 C-79.78603378 200.65011162 -80.56474335 201.06218613 -81.36705017 201.48674774 C-83.26545577 202.49131198 -85.16396685 203.49567685 -87.0625 204.5 C-87.13236501 216.74047702 -87.18549524 228.98090569 -87.21793652 241.22154236 C-87.23351572 246.90688173 -87.25461065 252.59208352 -87.28881836 258.27734375 C-87.32169035 263.77573985 -87.33941107 269.27400458 -87.34713173 274.77249146 C-87.3526257 276.85818547 -87.36335223 278.94387324 -87.37969017 281.0295105 C-87.55626239 304.52926799 -84.38285152 324.81517912 -69.0625 343.5 C-68.52882812 344.21929687 -67.99515625 344.93859375 -67.4453125 345.6796875 C-57.83017747 357.7761477 -42.81613579 366.07930261 -30.15063477 374.65283203 C-23.64789211 379.06186046 -17.27194471 383.63151158 -10.93530273 388.27563477 C-5.04288314 393.38138302 -5.04288314 393.38138302 1.8581543 395.21069336 C4.0514868 394.46104079 5.57381768 393.55374706 7.44921875 392.19921875 C8.11566406 391.72291016 8.78210938 391.24660156 9.46875 390.75585938 C10.1803125 390.23830078 10.891875 389.72074219 11.625 389.1875 C13.16004112 388.08707896 14.69520064 386.98682307 16.23046875 385.88671875 C17.01341309 385.32259277 17.79635742 384.7584668 18.60302734 384.17724609 C22.19785791 381.59447199 25.81824458 379.04836747 29.4375 376.5 C30.84639773 375.50396787 32.25525171 374.50787384 33.6640625 373.51171875 C36.56770842 371.46126101 39.4800334 369.42392302 42.3984375 367.39453125 C64.6701448 351.87902411 82.54038976 335.22586948 87.99560547 307.62011719 C89.56459538 297.93072995 89.18338649 288.11338477 89.1328125 278.328125 C89.12907605 276.19293348 89.12623207 274.05774024 89.12423706 271.92254639 C89.11665034 266.33967237 89.09704515 260.75690467 89.0748291 255.17407227 C89.05426307 249.46241697 89.04521247 243.75074426 89.03515625 238.0390625 C89.01379401 226.85932864 88.97971888 215.67967321 88.9375 204.5 C74.39180265 196.66845553 59.84648024 188.84676923 45.11990356 181.3588562 C33.41632943 175.40664168 21.78143828 169.36792342 10.33056641 162.9387207 C9.13246338 162.27102661 9.13246338 162.27102661 7.91015625 161.58984375 C7.23218994 161.20691162 6.55422363 160.82397949 5.85571289 160.42944336 C1.45411556 158.29671063 -0.45888541 158.31949853 -4.81640625 160.67578125 Z M-171.0625 292.5 C-172.0525 293.16 -173.0425 293.82 -174.0625 294.5 C-174.47916667 297 -174.47916667 297 -174.0625 299.5 C-173.4025 300.16 -172.7425 300.82 -172.0625 301.5 C-168.75566534 301.21016731 -168.75566534 301.21016731 -166.0625 299.5 C-166.02186168 297.83382885 -166.019779 296.16611905 -166.0625 294.5 C-168.39104463 293.30161791 -168.39104463 293.30161791 -171.0625 292.5 Z M164.9375 292.5 C162.74711577 293.87168238 162.74711577 293.87168238 160.9375 295.5 C161.2675 297.15 161.5975 298.8 161.9375 300.5 C164.28283951 301.26956136 164.28283951 301.26956136 166.9375 301.5 C168.7729799 300.16621425 168.7729799 300.16621425 169.9375 298.5 C169.15619929 296.00447516 169.15619929 296.00447516 167.9375 293.5 C166.9475 293.17 165.9575 292.84 164.9375 292.5 Z M-157.0625 356.5 C-158.77961243 358.94496043 -158.77961243 358.94496043 -160.0625 361.5 C-158.33394074 363.64567913 -158.33394074 363.64567913 -156.0625 365.5 C-153.84391747 365.36358623 -153.84391747 365.36358623 -152.0625 364.5 C-151.29293864 362.15466049 -151.29293864 362.15466049 -151.0625 359.5 C-152.20896548 357.60338257 -152.20896548 357.60338257 -154.0625 356.5 C-155.0525 356.5 -156.0425 356.5 -157.0625 356.5 Z M154.1875 357.6875 C152.63910577 359.50671447 152.63910577 359.50671447 153.25 362.1875 C153.476875 362.950625 153.70375 363.71375 153.9375 364.5 C155.71891747 365.36358623 155.71891747 365.36358623 157.9375 365.5 C160.20894074 363.64567913 160.20894074 363.64567913 161.9375 361.5 C160.65461243 358.94496043 160.65461243 358.94496043 158.9375 356.5 C155.9987603 356.21924929 155.9987603 356.21924929 154.1875 357.6875 Z M-127.0625 413.5 C-128.3825 414.82 -129.7025 416.14 -131.0625 417.5 C-130.08867818 420.01570636 -129.60098865 421.23944098 -127.125 422.4375 C-124.9891867 422.69940925 -124.9891867 422.69940925 -123.25 421.3125 C-121.86309075 419.5733133 -121.86309075 419.5733133 -122.125 417.4375 C-123.32305902 414.96151135 -124.54679364 414.47382182 -127.0625 413.5 Z M127.9375 413.5 C125.74711577 414.87168238 125.74711577 414.87168238 123.9375 416.5 C124.2675 418.15 124.5975 419.8 124.9375 421.5 C127.28283951 422.26956136 127.28283951 422.26956136 129.9375 422.5 C131.7729799 421.16621425 131.7729799 421.16621425 132.9375 419.5 C132.15619929 417.00447516 132.15619929 417.00447516 130.9375 414.5 C129.9475 414.17 128.9575 413.84 127.9375 413.5 Z " fill="#FB703E" transform="translate(255.0625,37.5)"/>
<path d="M0 0 C7.43022635 4.29638939 13.50170186 10.27161122 16.046875 18.625 C17.96932804 26.84514405 17.59828328 35.17565979 17.5 43.5625 C18.39460938 43.67464844 19.28921875 43.78679687 20.2109375 43.90234375 C23.44640164 44.55174213 25.38212226 45.34649093 28.125 47.125 C28.85976563 47.58003906 29.59453125 48.03507812 30.3515625 48.50390625 C34.96065684 52.92025665 36.71287465 57.82103925 37.00170898 64.05712891 C37.02117411 66.13434975 37.01820295 68.21186812 36.99609375 70.2890625 C36.99754898 71.39551117 36.99900421 72.50195984 37.00050354 73.64193726 C36.99885041 75.96997728 36.98735526 78.2980289 36.96655273 80.62597656 C36.93753332 84.18341534 36.9459703 87.73936801 36.95898438 91.296875 C36.95274817 93.56511138 36.94435816 95.83334309 36.93359375 98.1015625 C36.93652939 99.1610611 36.93946503 100.22055969 36.94248962 101.31216431 C36.85251033 108.36898393 35.92251287 112.82123543 31.125 118.25 C25.18980436 123.47862473 20.70642681 124.67844736 12.93066406 124.72363281 C11.95419922 124.73108017 11.95419922 124.73108017 10.95800781 124.73867798 C8.81053598 124.75324729 6.66313808 124.76009363 4.515625 124.765625 C3.01593017 124.77138176 1.51623535 124.77713942 0.01654053 124.78289795 C-3.12732281 124.79339377 -6.27116068 124.79924538 -9.41503906 124.80273438 C-13.42747544 124.8082092 -17.43957079 124.83222128 -21.45190048 124.86070633 C-24.55072994 124.87940816 -27.64947858 124.88454235 -30.74835968 124.88607025 C-32.22662465 124.88908147 -33.70488872 124.89705782 -35.18309784 124.91025543 C-52.47184752 125.05356548 -52.47184752 125.05356548 -59.3125 119.125 C-63.45321797 114.27444466 -65.60377229 111.17785919 -65.67700195 104.66723633 C-65.68983719 103.6722261 -65.70267242 102.67721588 -65.71589661 101.65205383 C-65.72328354 100.57707138 -65.73067047 99.50208893 -65.73828125 98.39453125 C-65.746353 97.28575119 -65.75442474 96.17697113 -65.76274109 95.03459167 C-65.77657951 92.685105 -65.78730274 90.33559825 -65.79516602 87.98608398 C-65.81234953 84.40634625 -65.85623591 80.82753906 -65.90039062 77.24804688 C-65.91052035 74.96354845 -65.91903558 72.67904218 -65.92578125 70.39453125 C-65.95204338 68.7972393 -65.95204338 68.7972393 -65.97883606 67.16767883 C-65.95953125 60.49795106 -65.03944814 56.25398837 -61.5 50.5625 C-59.3515625 48.50390625 -59.3515625 48.50390625 -57.125 47.125 C-56.39539063 46.65191406 -55.66578125 46.17882812 -54.9140625 45.69140625 C-52.11935114 44.3844943 -49.54935572 43.94476794 -46.5 43.5625 C-46.52320313 42.60730469 -46.54640625 41.65210938 -46.5703125 40.66796875 C-46.74837666 27.91094382 -46.38790753 15.83179306 -37.4375 5.875 C-27.1524284 -3.58553 -12.71675473 -5.75549708 0 0 Z M-29.7109375 19.59375 C-32.23749035 24.24860245 -31.9419567 28.83203308 -31.75 34 C-31.6675 37.155625 -31.585 40.31125 -31.5 43.5625 C-20.28 43.5625 -9.06 43.5625 2.5 43.5625 C2.603125 40.4275 2.70625 37.2925 2.8125 34.0625 C2.85802002 33.09119141 2.90354004 32.11988281 2.95043945 31.11914062 C3.05128064 24.72255627 1.69580562 20.4534426 -2.5 15.5625 C-6.90830415 11.78143604 -11.23543602 10.85378703 -17.00390625 11.1171875 C-22.7996428 12.15116867 -26.29682655 14.91291944 -29.7109375 19.59375 Z M-51.5 61.5625 C-52.23032118 63.68683449 -52.23032118 63.68683449 -52.11523438 65.9921875 C-52.12453979 66.8598877 -52.13384521 67.72758789 -52.14343262 68.62158203 C-52.12703735 69.55083496 -52.11064209 70.48008789 -52.09375 71.4375 C-52.09379028 72.39897949 -52.09383057 73.36045898 -52.09387207 74.35107422 C-52.08851564 76.3819025 -52.07092769 78.41273017 -52.04199219 80.44335938 C-52.00014909 83.55142579 -52.00092266 86.65732452 -52.0078125 89.765625 C-51.99731946 91.73959839 -51.98438074 93.71356061 -51.96875 95.6875 C-51.96854858 96.61675293 -51.96834717 97.54600586 -51.96813965 98.50341797 C-51.89484907 103.50516689 -51.89484907 103.50516689 -50.15820312 108.1171875 C-46.92995988 110.93096842 -43.63281584 110.69779602 -39.54736328 110.72363281 C-38.32244171 110.73324036 -37.09752014 110.7428479 -35.83547974 110.75274658 C-34.49709255 110.75759455 -33.15870321 110.76187338 -31.8203125 110.765625 C-30.44652302 110.77137917 -29.07273355 110.77713687 -27.69894409 110.78289795 C-24.81898627 110.79339807 -21.93905629 110.79924723 -19.05908203 110.80273438 C-15.37476244 110.8082179 -11.69081263 110.8322466 -8.00660896 110.86070633 C-5.16868017 110.87936026 -2.33083999 110.88453975 0.50714493 110.88607025 C1.86508328 110.88909098 3.22302029 110.89709997 4.58089828 110.91025543 C6.48338214 110.92737194 8.38601902 110.92358277 10.28857422 110.91894531 C11.36984589 110.92259094 12.45111755 110.92623657 13.56515503 110.92999268 C16.91673802 110.51031729 18.79645049 109.55535602 21.5 107.5625 C22.64694123 105.26861753 22.64997077 103.9122811 22.69287109 101.35986328 C22.71696548 100.0580864 22.71696548 100.0580864 22.74154663 98.73001099 C22.78596697 94.76418825 22.8270503 90.79853271 22.85009766 86.83251953 C22.86667176 84.73930759 22.89398078 82.64615258 22.93212891 80.55322266 C22.98681667 77.53778685 23.00875786 74.523677 23.0234375 71.5078125 C23.05744156 70.10452194 23.05744156 70.10452194 23.09213257 68.67288208 C23.08928253 67.7987265 23.0864325 66.92457092 23.08349609 66.02392578 C23.09158295 65.25718536 23.0996698 64.49044495 23.10800171 63.70046997 C22.16293967 60.37726507 20.39306451 59.33551528 17.5 57.5625 C14.4562472 56.9622851 14.4562472 56.9622851 11.13671875 57.04492188 C9.87190674 57.03231323 8.60709473 57.01970459 7.30395508 57.00671387 C5.93179769 57.01387393 4.55964541 57.02207799 3.1875 57.03125 C1.77172581 57.02855327 0.35595342 57.02466934 -1.05981445 57.01965332 C-4.02215263 57.01376664 -6.98400725 57.02229358 -9.94628906 57.04101562 C-13.7361551 57.06380569 -17.52488802 57.05067801 -21.31471252 57.02672577 C-24.23678058 57.01224471 -27.15858169 57.01688413 -30.08065796 57.02723694 C-31.47765234 57.0298979 -32.87467126 57.02665665 -34.27163696 57.01731873 C-36.22665926 57.00711721 -38.18176697 57.02543338 -40.13671875 57.04492188 C-41.24748779 57.04810425 -42.35825684 57.05128662 -43.50268555 57.05456543 C-47.23385098 57.68686075 -48.90134318 58.83788901 -51.5 61.5625 Z " fill="#FD6B41" transform="translate(270.5,254.4375)"/>
</svg>
