<?xml version="1.0" encoding="UTF-8"?>
<svg version="1.1" xmlns="http://www.w3.org/2000/svg" width="512" height="512">
<path d="M0 0 C1.1758667 -0.00574036 1.1758667 -0.00574036 2.37548828 -0.01159668 C4.02963549 -0.01431353 5.68382583 -0.0069681 7.33789062 0.00976562 C9.86686162 0.03118108 12.39299214 0.00995903 14.921875 -0.015625 C16.53125626 -0.01298168 18.14063575 -0.00785661 19.75 0 C20.5042627 -0.00809692 21.25852539 -0.01619385 22.03564453 -0.02453613 C25.36068624 0.03471791 27.49497107 0.2739307 30.27636719 2.15722656 C32.25990608 5.10284846 32.88181287 7.56531436 33.578125 11.046875 C33.8359375 12.29726562 34.09375 13.54765625 34.359375 14.8359375 C34.61491343 16.15097757 34.87011759 17.46608263 35.125 18.78125 C35.39444083 20.11226181 35.66526 21.4429954 35.9375 22.7734375 C36.59694522 26.02356036 37.24218289 29.27585615 37.875 32.53125 C41.505 33.52125 45.135 34.51125 48.875 35.53125 C54.85199512 29.67623437 60.39920972 23.57617035 65.6875 17.09375 C67.875 14.53125 67.875 14.53125 69.875 13.53125 C75.14117343 13.13754329 78.30589512 13.8389377 82.88671875 16.41796875 C83.97404297 17.02705078 85.06136719 17.63613281 86.18164062 18.26367188 C87.29732422 18.90884766 88.41300781 19.55402344 89.5625 20.21875 C90.68978516 20.84458984 91.81707031 21.47042969 92.97851562 22.11523438 C102.69386911 27.63466482 102.69386911 27.63466482 105.875 32.53125 C106.95863593 39.99561505 102.68902096 48.32012122 100.13867188 55.15429688 C99.66204102 56.49524414 99.66204102 56.49524414 99.17578125 57.86328125 C98.72972534 59.06561401 98.72972534 59.06561401 98.2746582 60.29223633 C97.76880471 63.12619017 98.30419491 64.15979931 99.875 66.53125 C101.50246694 68.23621537 103.16391311 69.91022032 104.875 71.53125 C109.88125108 70.25106521 114.84982689 68.91011591 119.734375 67.21875 C120.38978271 66.9921167 121.04519043 66.7654834 121.72045898 66.53198242 C123.61465937 65.86923563 125.50469282 65.19461579 127.39453125 64.51953125 C130.87562905 63.53107138 133.29463805 63.03791227 136.875 63.53125 C142.96164238 67.67771464 145.68780405 73.53997223 149.1875 79.84375 C149.83267578 80.95943359 150.47785156 82.07511719 151.14257812 83.22460938 C151.75166016 84.31193359 152.36074219 85.39925781 152.98828125 86.51953125 C153.54298096 87.50477783 154.09768066 88.49002441 154.66918945 89.50512695 C156.09174956 93.07520844 156.19359615 95.71916049 155.875 99.53125 C153.42635091 103.61233182 149.76748861 106.48422671 146.1796875 109.55078125 C143.54169401 111.81766718 140.95737457 114.13876048 138.375 116.46875 C137.5190625 117.24089844 136.663125 118.01304688 135.78125 118.80859375 C135.1521875 119.37707031 134.523125 119.94554688 133.875 120.53125 C134.865 124.16125 135.855 127.79125 136.875 131.53125 C137.70225586 131.69206055 138.52951172 131.85287109 139.38183594 132.01855469 C142.46320817 132.62513765 145.54141424 133.24542404 148.61816406 133.875 C149.94779382 134.14416106 151.27853235 134.40790605 152.61035156 134.66601562 C154.52955327 135.03895467 156.44455261 135.43331626 158.359375 135.828125 C159.51147461 136.05854492 160.66357422 136.28896484 161.85058594 136.52636719 C165.2157673 137.64447233 166.68415577 138.77686117 168.875 141.53125 C170.0327506 145.00450181 169.94366652 147.89192448 169.875 151.53125 C170.78789795 151.50506592 171.7007959 151.47888184 172.64135742 151.4519043 C176.04272344 151.36646458 179.44294258 151.30390001 182.8449707 151.2565918 C184.31455525 151.23151356 185.78401587 151.19744144 187.25317383 151.15405273 C189.37091681 151.09309501 191.48700576 151.06497684 193.60546875 151.04296875 C195.51428833 151.00369263 195.51428833 151.00369263 197.46166992 150.96362305 C201.90804216 151.70304193 203.11758515 153.00265701 205.875 156.53125 C206.35722713 159.44942881 206.53206833 161.77677534 206.47627258 164.68733215 C206.48054471 165.5042312 206.48481683 166.32113024 206.48921841 167.1627838 C206.49744915 169.89790014 206.46996295 172.63148024 206.44262695 175.36645508 C206.4412165 177.32775842 206.44200841 179.2890644 206.44483948 181.25036621 C206.44627513 186.57451151 206.4168609 191.89809455 206.38196969 197.22210908 C206.3507312 202.78612057 206.34777742 208.35014469 206.34184265 213.91423035 C206.32629688 224.45043854 206.2852583 234.98638759 206.2350952 245.52248162 C206.17922472 257.51749599 206.15172098 269.51252268 206.12661803 281.50763476 C206.07434324 306.18231689 205.98638651 330.85676893 205.875 355.53125 C206.43896484 355.51030273 207.00292969 355.48935547 207.58398438 355.46777344 C210.18080249 355.38376499 212.77733362 355.33232771 215.375 355.28125 C216.261875 355.24773437 217.14875 355.21421875 218.0625 355.1796875 C225.27537346 355.07361583 230.23767644 356.75551955 235.9624939 361.12426758 C236.47164337 361.63626709 236.98079285 362.1482666 237.50537109 362.67578125 C238.09893402 363.26319092 238.69249695 363.85060059 239.30404663 364.45581055 C239.91269562 365.07883057 240.5213446 365.70185059 241.1484375 366.34375 C241.79825592 366.99448486 242.44807434 367.64521973 243.11758423 368.31567383 C244.47850806 369.68260122 245.8346074 371.05434753 247.18603516 372.43066406 C249.25447813 374.53580759 251.33867036 376.62431666 253.42578125 378.7109375 C254.75095043 380.04593224 256.07520212 381.38183847 257.3984375 382.71875 C258.01923187 383.34177002 258.64002625 383.96479004 259.27963257 384.60668945 C259.85428253 385.19409912 260.4289325 385.78150879 261.02099609 386.38671875 C261.52537201 386.89871826 262.02974792 387.41071777 262.54940796 387.93823242 C265.22931274 391.1587824 266.12464529 393.90794377 266.14242554 398.07199097 C266.15095551 398.9775473 266.15948547 399.88310364 266.16827393 400.81610107 C266.16736755 401.80217346 266.16646118 402.78824585 266.16552734 403.80419922 C266.17560318 405.37069717 266.17560318 405.37069717 266.18588257 406.96884155 C266.20489596 410.42458847 266.20878845 413.88014152 266.2109375 417.3359375 C266.21736299 419.7372343 266.22409116 422.1385303 266.23110962 424.53982544 C266.24309068 429.57523412 266.24678957 434.61057416 266.24560547 439.64599609 C266.24540221 446.09796426 266.27270814 452.54949229 266.30714989 459.00135612 C266.32938807 463.96161928 266.33344395 468.92177599 266.33238602 473.88208389 C266.33474647 476.26072838 266.34359487 478.6393756 266.35905075 481.01797104 C266.37864802 484.34546478 266.37289662 487.67200256 266.36083984 490.99951172 C266.37207886 491.98153564 266.38331787 492.96355957 266.39489746 493.9753418 C266.34240558 499.67691824 265.73398126 503.03456018 261.875 507.53125 C257.907386 511.026529 255.60222282 512.65139681 250.34698486 512.67842102 C248.91704697 512.68915398 248.91704697 512.68915398 247.45822144 512.70010376 C245.88417038 512.70413712 245.88417038 512.70413712 244.27832031 512.70825195 C243.17575897 512.71482315 242.07319763 512.72139435 240.93722534 512.72816467 C237.27585793 512.74793128 233.6145316 512.75956782 229.953125 512.76953125 C228.70473595 512.77360678 227.45634689 512.7776823 226.17012787 512.78188133 C220.24450397 512.80060225 214.31889319 512.81516456 208.39324689 512.8234933 C201.55719947 512.83326056 194.7214763 512.8595654 187.88554311 512.89999419 C181.96208045 512.93382171 176.038697 512.94564076 170.11513519 512.94969749 C167.59692944 512.95457414 165.07872742 512.96621857 162.56058502 512.98473549 C159.0365458 513.00903809 155.51335488 513.00817761 151.98925781 513.0012207 C150.94798737 513.01403076 149.90671692 513.02684082 148.83389282 513.04003906 C142.84056193 512.99689389 139.45282743 512.49722495 134.875 508.53125 C130.08727117 503.47753624 128.63140767 498.38903627 128.6003418 491.51342773 C128.59080978 490.34879501 128.58127777 489.18416229 128.57145691 487.98423767 C128.57282402 486.11838768 128.57282402 486.11838768 128.57421875 484.21484375 C128.56993362 482.92562515 128.5656485 481.63640656 128.56123352 480.30812073 C128.55379682 477.58728913 128.55404484 474.86658738 128.55932617 472.14575195 C128.56513084 468.6666179 128.54815415 465.18801448 128.5249815 461.70896816 C128.50667913 458.37757124 128.51042962 455.04629065 128.51171875 451.71484375 C128.502509 450.46891953 128.49329926 449.2229953 128.48381042 447.9393158 C128.49315361 446.19709496 128.49315361 446.19709496 128.50268555 444.41967773 C128.50205612 443.40074936 128.5014267 442.38182098 128.5007782 441.33201599 C128.93720572 438.06568744 129.94274041 436.17856951 131.875 433.53125 C134.72824437 432.10462781 136.70954549 432.22091132 139.875 432.53125 C143.04603317 434.50288099 144.6449539 435.55206733 145.51423645 439.25213623 C145.5242292 440.81100555 145.5242292 440.81100555 145.53442383 442.40136719 C145.55406693 443.58228943 145.57371002 444.76321167 145.59394836 445.97991943 C145.58804939 447.88478119 145.58804939 447.88478119 145.58203125 449.828125 C145.59715256 451.13203186 145.61227386 452.43593872 145.62785339 453.77935791 C145.66768921 457.23836894 145.67789271 460.69685354 145.68188477 464.15606689 C145.69121919 467.68884232 145.72863443 471.22130878 145.76367188 474.75390625 C145.82823233 481.6796436 145.86148493 488.60523009 145.875 495.53125 C148.1689161 496.67820805 149.43837149 496.65463652 151.98782349 496.65150452 C152.84881653 496.65287918 153.70980957 496.65425385 154.59689331 496.65567017 C155.54347809 496.65207489 156.49006287 496.64847961 157.46533203 496.64477539 C158.95806641 496.64499443 158.95806641 496.64499443 160.48095703 496.6452179 C163.78159743 496.64451931 167.08218192 496.63672944 170.3828125 496.62890625 C172.66681894 496.62704188 174.95082578 496.62561807 177.23483276 496.62461853 C183.25511778 496.62079487 189.27537879 496.61096586 195.2956543 496.59991455 C202.51429244 496.58790172 209.73293859 496.58329747 216.95158386 496.57746124 C227.92607262 496.56775405 238.90050867 496.5485964 249.875 496.53125 C250.205 465.84125 250.535 435.15125 250.875 403.53125 C243.945 403.53125 237.015 403.53125 229.875 403.53125 C223.16807904 399.05996936 220.81243733 396.87484334 217.875 389.53125 C217.875 383.59125 217.875 377.65125 217.875 371.53125 C194.115 371.53125 170.355 371.53125 145.875 371.53125 C145.74414123 383.8567524 145.74414123 383.8567524 145.66723633 396.18261719 C145.64078518 397.73115434 145.61250686 399.27966182 145.58203125 400.828125 C145.58801331 402.02816162 145.58801331 402.02816162 145.59411621 403.25244141 C145.49299752 407.21033845 145.27419335 409.10492459 142.5222168 412.04394531 C139.28144269 413.86473253 137.53634861 414.15445827 133.875 413.53125 C131.57224444 411.6641509 130.19676129 410.17477259 128.875 407.53125 C128.75161479 404.84163948 128.68659112 402.17897729 128.671875 399.48828125 C128.66617493 398.6864592 128.66047485 397.88463715 128.65460205 397.05851746 C128.64514593 395.35795411 128.63861564 393.65737239 128.63476562 391.95678711 C128.62510277 389.37124948 128.59410393 386.7865214 128.5625 384.20117188 C128.55596546 382.54687971 128.55071676 380.89258186 128.546875 379.23828125 C128.5345282 378.47135452 128.5221814 377.7044278 128.50946045 376.91426086 C128.53588516 370.45328622 129.93790099 365.8348272 134.1875 360.78125 C149.89102658 347.63411147 168.12007861 355.53125 189.875 355.53125 C189.875 293.49125 189.875 231.45125 189.875 167.53125 C183.275 167.53125 176.675 167.53125 169.875 167.53125 C169.875 169.84125 169.875 172.15125 169.875 174.53125 C168.83203125 177.83203125 168.83203125 177.83203125 166.875 180.53125 C164.27777568 181.59780247 162.26688525 182.20928366 159.5625 182.71875 C158.86060547 182.87182617 158.15871094 183.02490234 157.43554688 183.18261719 C155.97940485 183.49726423 154.52080295 183.80072409 153.06005859 184.09326172 C150.93650729 184.51892105 148.82181442 184.97430975 146.70703125 185.44140625 C143.43358361 186.15882852 140.15701646 186.85433411 136.875 187.53125 C135.39 192.97625 135.39 192.97625 133.875 198.53125 C139.73001563 204.50824512 145.83007965 210.05545972 152.3125 215.34375 C154.875 217.53125 154.875 217.53125 155.875 219.53125 C156.26870671 224.79742343 155.5673123 227.96214512 152.98828125 232.54296875 C152.0746582 234.17395508 152.0746582 234.17395508 151.14257812 235.83789062 C150.49740234 236.95357422 149.85222656 238.06925781 149.1875 239.21875 C148.56166016 240.34603516 147.93582031 241.47332031 147.29101562 242.63476562 C141.77158518 252.35011911 141.77158518 252.35011911 136.875 255.53125 C129.41063495 256.61488593 121.08612878 252.34527096 114.25195312 249.79492188 C113.35798828 249.47716797 112.46402344 249.15941406 111.54296875 248.83203125 C110.74141357 248.53466064 109.9398584 248.23729004 109.11401367 247.9309082 C106.28005983 247.42505471 105.24645069 247.96044491 102.875 249.53125 C101.17003463 251.15871694 99.49602968 252.82016311 97.875 254.53125 C99.15518479 259.53750108 100.49613409 264.50607689 102.1875 269.390625 C102.4141333 270.04603271 102.6407666 270.70144043 102.87426758 271.37670898 C103.53701437 273.27090937 104.21163421 275.16094282 104.88671875 277.05078125 C105.87517862 280.53187905 106.36833773 282.95088805 105.875 286.53125 C101.72853536 292.61789238 95.86627777 295.34405405 89.5625 298.84375 C88.44681641 299.48892578 87.33113281 300.13410156 86.18164062 300.79882812 C85.09431641 301.40791016 84.00699219 302.01699219 82.88671875 302.64453125 C81.40884888 303.47658081 81.40884888 303.47658081 79.90112305 304.32543945 C76.33104156 305.74799956 73.68708951 305.84984615 69.875 305.53125 C65.79391818 303.08260091 62.92202329 299.42373861 59.85546875 295.8359375 C57.58858282 293.19794401 55.26748952 290.61362457 52.9375 288.03125 C52.16535156 287.1753125 51.39320313 286.319375 50.59765625 285.4375 C50.02917969 284.8084375 49.46070313 284.179375 48.875 283.53125 C45.245 284.52125 41.615 285.51125 37.875 286.53125 C37.71418945 287.35850586 37.55337891 288.18576172 37.38769531 289.03808594 C36.78111235 292.11945817 36.16082596 295.19766424 35.53125 298.27441406 C35.26208894 299.60404382 34.99834395 300.93478235 34.74023438 302.26660156 C34.36729533 304.18580327 33.97293374 306.10080261 33.578125 308.015625 C33.23249512 309.74377441 33.23249512 309.74377441 32.87988281 311.50683594 C31.76177767 314.8720173 30.62938883 316.34040577 27.875 318.53125 C24.875 319.53125 24.875 319.53125 17.875 319.53125 C17.875 331.41125 17.875 343.29125 17.875 355.53125 C24.09741829 355.37422588 24.09741829 355.37422588 30.31835938 355.17089844 C31.11048828 355.1609082 31.90261719 355.15091797 32.71875 355.140625 C33.51474609 355.11967773 34.31074219 355.09873047 35.13085938 355.07714844 C42.66870755 356.32451477 47.89058228 360.93764585 53.11328125 366.203125 C53.760728 366.84437317 54.40817474 367.48562134 55.07524109 368.14630127 C56.43218409 369.49618353 57.7840834 370.85115325 59.13110352 372.2109375 C61.18377117 374.27749594 63.25934739 376.31888234 65.33789062 378.359375 C66.66030657 379.68083981 67.98131912 381.00371084 69.30078125 382.328125 C69.91641434 382.93049988 70.53204742 383.53287476 71.16633606 384.15350342 C71.74091049 384.74061096 72.31548492 385.32771851 72.9074707 385.93261719 C73.40962601 386.43573425 73.91178131 386.93885132 74.42915344 387.45721436 C78.83769588 393.78117322 79.31380159 400.04252868 79.26318359 407.4921875 C79.27106903 408.93769989 79.27106903 408.93769989 79.27911377 410.41241455 C79.29224707 413.57719444 79.28359921 416.74146557 79.2734375 419.90625 C79.27546015 422.11767676 79.27837317 424.32910286 79.28213501 426.54052734 C79.28654934 431.16705702 79.28015589 435.7934125 79.26611328 440.41992188 C79.24902212 446.33794014 79.25886806 452.25555017 79.27683067 458.17355347 C79.2876925 462.73757988 79.28421113 467.30151017 79.2764473 471.86553955 C79.27445193 474.04713998 79.27688116 476.22874926 79.28388596 478.41033936 C79.29153982 481.46389754 79.27984084 484.51680271 79.26318359 487.5703125 C79.26925629 488.46405579 79.27532898 489.35779907 79.28158569 490.27862549 C79.21748076 496.65050372 78.40655477 502.55991511 74.12109375 507.58984375 C73.52425781 508.04488281 72.92742187 508.49992187 72.3125 508.96875 C71.71308594 509.44183594 71.11367188 509.91492188 70.49609375 510.40234375 C67.61647071 512.4076716 65.81733902 512.66057529 62.34698486 512.67842102 C60.91704697 512.68915398 60.91704697 512.68915398 59.45822144 512.70010376 C57.88417038 512.70413712 57.88417038 512.70413712 56.27832031 512.70825195 C55.17575897 512.71482315 54.07319763 512.72139435 52.93722534 512.72816467 C49.27585793 512.74793128 45.6145316 512.75956782 41.953125 512.76953125 C40.70473595 512.77360678 39.45634689 512.7776823 38.17012787 512.78188133 C32.24450397 512.80060225 26.31889319 512.81516456 20.39324689 512.8234933 C13.55719947 512.83326056 6.7214763 512.8595654 -0.11445689 512.89999419 C-6.03791955 512.93382171 -11.961303 512.94564076 -17.88486481 512.94969749 C-20.40307056 512.95457414 -22.92127258 512.96621857 -25.43941498 512.98473549 C-28.9634542 513.00903809 -32.48664512 513.00817761 -36.01074219 513.0012207 C-37.05201263 513.01403076 -38.09328308 513.02684082 -39.16610718 513.04003906 C-45.15943807 512.99689389 -48.54717257 512.49722495 -53.125 508.53125 C-59.64751902 501.64636881 -59.41911915 494.39756877 -59.3996582 485.41064453 C-59.40476913 484.19366882 -59.40988007 482.97669312 -59.41514587 481.72283936 C-59.42664157 478.39623488 -59.42911904 475.06988008 -59.42658257 471.74327326 C-59.42550996 468.9601494 -59.43040371 466.17704832 -59.435188 463.39392936 C-59.44626948 456.82428832 -59.44672846 450.25470445 -59.44067383 443.68505859 C-59.43463644 436.92196007 -59.44694206 430.15906972 -59.4682439 423.3960067 C-59.48589494 417.57668714 -59.49185569 411.75743363 -59.48860615 405.9380883 C-59.4867985 402.46812963 -59.48937731 398.99831943 -59.50332069 395.52838516 C-59.51830105 391.65572279 -59.5088983 387.78332277 -59.49731445 383.91064453 C-59.50495819 382.77063995 -59.51260193 381.63063538 -59.52047729 380.45608521 C-59.47005412 372.81811391 -58.82479101 366.81477961 -53.8125 360.71875 C-47.391094 355.49202418 -42.24865949 355.11419226 -34.2578125 355.23828125 C-33.22308807 355.24252609 -32.18836365 355.24677094 -31.12228394 355.25114441 C-27.83125319 355.26788004 -24.54084434 355.30552351 -21.25 355.34375 C-19.0130297 355.35880342 -16.77604977 355.37249067 -14.5390625 355.38476562 C-9.06727845 355.41520953 -3.59683187 355.47394222 1.875 355.53125 C1.875 343.65125 1.875 331.77125 1.875 319.53125 C-0.435 319.53125 -2.745 319.53125 -5.125 319.53125 C-8.42578125 318.48828125 -8.42578125 318.48828125 -11.125 316.53125 C-12.19155247 313.93402568 -12.80303366 311.92313525 -13.3125 309.21875 C-13.46557617 308.51685547 -13.61865234 307.81496094 -13.77636719 307.09179688 C-14.09101423 305.63565485 -14.39447409 304.17705295 -14.68701172 302.71630859 C-15.11267105 300.59275729 -15.56805975 298.47806442 -16.03515625 296.36328125 C-16.75257852 293.08983361 -17.44808411 289.81326646 -18.125 286.53125 C-23.57 285.04625 -23.57 285.04625 -29.125 283.53125 C-31.54396054 286.09161744 -33.96022178 288.654443 -36.375 291.21875 C-37.05691406 291.93998047 -37.73882812 292.66121094 -38.44140625 293.40429688 C-41.22963568 296.36848253 -43.94484976 299.30546568 -46.484375 302.48828125 C-48.125 304.53125 -48.125 304.53125 -50.125 305.53125 C-55.39117343 305.92495671 -58.55589512 305.2235623 -63.13671875 302.64453125 C-64.76770508 301.7309082 -64.76770508 301.7309082 -66.43164062 300.79882812 C-67.54732422 300.15365234 -68.66300781 299.50847656 -69.8125 298.84375 C-70.93978516 298.21791016 -72.06707031 297.59207031 -73.22851562 296.94726562 C-82.94386911 291.42783518 -82.94386911 291.42783518 -86.125 286.53125 C-87.20863593 279.06688495 -82.93902096 270.74237878 -80.38867188 263.90820312 C-80.07091797 263.01423828 -79.75316406 262.12027344 -79.42578125 261.19921875 C-79.12841064 260.39766357 -78.83104004 259.5961084 -78.5246582 258.77026367 C-78.01880471 255.93630983 -78.55419491 254.90270069 -80.125 252.53125 C-81.75246694 250.82628463 -83.41391311 249.15227968 -85.125 247.53125 C-90.13125108 248.81143479 -95.09982689 250.15238409 -99.984375 251.84375 C-100.63978271 252.0703833 -101.29519043 252.2970166 -101.97045898 252.53051758 C-103.86465937 253.19326437 -105.75469282 253.86788421 -107.64453125 254.54296875 C-111.12562905 255.53142862 -113.54463805 256.02458773 -117.125 255.53125 C-122.31140144 252.59360888 -124.5062104 247.82024536 -127.1875 242.71875 C-128.0322425 241.14957289 -128.87729055 239.58056021 -129.72265625 238.01171875 C-130.12436035 237.2547168 -130.52606445 236.49771484 -130.93994141 235.71777344 C-132.04729018 233.67463053 -133.21349471 231.68001285 -134.40234375 229.68359375 C-136.46591279 225.90740279 -136.75354434 223.77392433 -136.125 219.53125 C-133.67635091 215.45016818 -130.01748861 212.57827329 -126.4296875 209.51171875 C-123.79169401 207.24483282 -121.20737457 204.92373952 -118.625 202.59375 C-117.7690625 201.82160156 -116.913125 201.04945313 -116.03125 200.25390625 C-115.08765625 199.40119141 -115.08765625 199.40119141 -114.125 198.53125 C-115.115 194.90125 -116.105 191.27125 -117.125 187.53125 C-117.95225586 187.37043945 -118.77951172 187.20962891 -119.63183594 187.04394531 C-122.71320817 186.43736235 -125.79141424 185.81707596 -128.86816406 185.1875 C-130.19779382 184.91833894 -131.52853235 184.65459395 -132.86035156 184.39648438 C-134.77955327 184.02354533 -136.69455261 183.62918374 -138.609375 183.234375 C-139.76147461 183.00395508 -140.91357422 182.77353516 -142.10058594 182.53613281 C-145.4657673 181.41802767 -146.93415577 180.28563883 -149.125 177.53125 C-150.125 174.53125 -150.125 174.53125 -150.125 167.53125 C-156.725 167.53125 -163.325 167.53125 -170.125 167.53125 C-170.125 229.57125 -170.125 291.61125 -170.125 355.53125 C-163.525 355.53125 -156.925 355.53125 -150.125 355.53125 C-142.24744973 358.90734297 -142.24744973 358.90734297 -139.53222656 361.59057617 C-138.61657928 362.48246895 -138.61657928 362.48246895 -137.68243408 363.39237976 C-137.04988708 364.02988663 -136.41734009 364.66739349 -135.765625 365.32421875 C-134.75903839 366.32150749 -134.75903839 366.32150749 -133.7321167 367.33894348 C-132.3221119 368.74187382 -130.91717753 370.14991665 -129.51708984 371.56274414 C-127.38312316 373.71057407 -125.22626429 375.83332366 -123.06640625 377.95507812 C-121.69386 379.32667303 -120.32271797 380.69967487 -118.953125 382.07421875 C-118.31248108 382.70160446 -117.67183716 383.32899017 -117.01177979 383.97538757 C-108.83137731 392.32728884 -108.61360459 400.65359439 -108.67895508 411.95922852 C-108.68752129 414.22437857 -108.65854962 416.48704768 -108.62695312 418.75195312 C-108.62534206 420.20312425 -108.62591684 421.65429981 -108.62890625 423.10546875 C-108.62705322 424.41088623 -108.6252002 425.71630371 -108.62329102 427.0612793 C-109.20427743 431.07955663 -110.24297952 432.72179485 -113.125 435.53125 C-116.8147942 436.78735015 -118.38886829 436.87477813 -121.9375 435.21875 C-124.125 433.53125 -124.125 433.53125 -125.125 431.53125 C-125.21043895 429.42596067 -125.23214725 427.31793843 -125.22265625 425.2109375 C-125.21782227 423.32568359 -125.21782227 423.32568359 -125.21289062 421.40234375 C-125.20032227 419.42427734 -125.20032227 419.42427734 -125.1875 417.40625 C-125.18248489 416.06640789 -125.17792201 414.726564 -125.17382812 413.38671875 C-125.16201086 410.10151794 -125.14553617 406.81640603 -125.125 403.53125 C-125.69943848 403.54696045 -126.27387695 403.5626709 -126.86572266 403.57885742 C-129.49371309 403.64160513 -132.12154537 403.68036506 -134.75 403.71875 C-136.10544922 403.75645508 -136.10544922 403.75645508 -137.48828125 403.79492188 C-142.81517102 403.85324549 -146.53695999 403.5567996 -151.125 400.53125 C-159.83794218 391.62028641 -158.125 384.56958899 -158.125 371.53125 C-193.27 372.02625 -193.27 372.02625 -229.125 372.53125 C-230.36271218 375.00667436 -230.24809772 376.63407236 -230.24525452 379.40335083 C-230.24662918 380.43262695 -230.24800385 381.46190308 -230.24942017 382.52236938 C-230.24582489 383.65596893 -230.24222961 384.78956848 -230.23852539 385.95751953 C-230.23867142 387.14774719 -230.23881744 388.33797485 -230.2389679 389.56427002 C-230.23838958 392.8326594 -230.23336573 396.10100627 -230.22639394 399.36938715 C-230.22015317 402.78335543 -230.21955603 406.1973245 -230.21836853 409.61129761 C-230.21525735 416.07819473 -230.20704683 422.54507499 -230.19701904 429.01196468 C-230.18585129 436.37341642 -230.18034578 443.73486896 -230.17532361 451.09632707 C-230.16486405 466.24131078 -230.14726873 481.38627871 -230.125 496.53125 C-216.86039664 496.554381 -203.59579805 496.57216897 -190.33117867 496.58306217 C-184.17243871 496.58828933 -178.01371251 496.59538398 -171.85498047 496.60668945 C-165.91575866 496.61752422 -159.97655011 496.6235281 -154.03731918 496.62612724 C-151.76702541 496.62798042 -149.4967324 496.631599 -147.22644424 496.63698006 C-144.05605732 496.64419828 -140.8857258 496.64524061 -137.71533203 496.64477539 C-136.29545486 496.6501683 -136.29545486 496.6501683 -134.84689331 496.65567017 C-133.98590027 496.6542955 -133.12490723 496.65292084 -132.23782349 496.65150452 C-131.11231425 496.65288721 -131.11231425 496.65288721 -129.96406746 496.65429783 C-128.02791833 496.64375306 -128.02791833 496.64375306 -126.125 495.53125 C-126.1156543 494.46165039 -126.10630859 493.39205078 -126.09667969 492.29003906 C-126.05676488 488.3163103 -125.99100279 484.34335456 -125.91748047 480.37011719 C-125.88927933 478.65146831 -125.86806046 476.93268995 -125.85400391 475.21386719 C-125.83256167 472.74086253 -125.78590844 470.26941325 -125.734375 467.796875 C-125.73314636 467.03006409 -125.73191772 466.26325317 -125.73065186 465.47320557 C-125.63492945 461.97586682 -125.39492535 459.90056815 -123.30566406 457.04199219 C-120.12616941 454.83927019 -117.90149203 455.0591885 -114.125 455.53125 C-110.9399643 457.29140131 -110.29203028 458.03015916 -109.125 461.53125 C-109.00419702 464.16896469 -108.93688886 466.77942558 -108.921875 469.41796875 C-108.91617493 470.19380814 -108.91047485 470.96964752 -108.90460205 471.76899719 C-108.89515838 473.41230917 -108.88862058 475.05564002 -108.88476562 476.69897461 C-108.87510274 479.19223943 -108.84409221 481.68466446 -108.8125 484.17773438 C-108.80596507 485.77864097 -108.80071653 487.37955343 -108.796875 488.98046875 C-108.7845282 489.71722336 -108.7721814 490.45397797 -108.75946045 491.21305847 C-108.7848202 497.21655282 -109.86923499 502.8836149 -113.87890625 507.58984375 C-114.47574219 508.04488281 -115.07257813 508.49992187 -115.6875 508.96875 C-116.28691406 509.44183594 -116.88632813 509.91492188 -117.50390625 510.40234375 C-120.38352929 512.4076716 -122.18266098 512.66057529 -125.65301514 512.67842102 C-127.08295303 512.68915398 -127.08295303 512.68915398 -128.54177856 512.70010376 C-130.11582962 512.70413712 -130.11582962 512.70413712 -131.72167969 512.70825195 C-132.82424103 512.71482315 -133.92680237 512.72139435 -135.06277466 512.72816467 C-138.72414207 512.74793128 -142.3854684 512.75956782 -146.046875 512.76953125 C-147.29526405 512.77360678 -148.54365311 512.7776823 -149.82987213 512.78188133 C-155.75549603 512.80060225 -161.68110681 512.81516456 -167.60675311 512.8234933 C-174.44280053 512.83326056 -181.2785237 512.8595654 -188.11445689 512.89999419 C-194.03791955 512.93382171 -199.961303 512.94564076 -205.88486481 512.94969749 C-208.40307056 512.95457414 -210.92127258 512.96621857 -213.43941498 512.98473549 C-216.9634542 513.00903809 -220.48664512 513.00817761 -224.01074219 513.0012207 C-225.05201263 513.01403076 -226.09328308 513.02684082 -227.16610718 513.04003906 C-233.1556337 512.99692128 -236.55874238 512.51001676 -241.125 508.53125 C-244.91329181 504.23102687 -246.2473218 501.93301504 -246.27217102 496.25068665 C-246.27932632 495.13055679 -246.28648163 494.01042694 -246.29385376 492.85635376 C-246.29654266 491.62154266 -246.29923157 490.38673157 -246.30200195 489.11450195 C-246.30857315 487.81847549 -246.31514435 486.52244904 -246.32191467 485.18714905 C-246.3429672 480.88128907 -246.35332007 476.5754287 -246.36328125 472.26953125 C-246.36732875 470.78691273 -246.37144567 469.30429439 -246.37563133 467.82167625 C-246.39468783 460.85434159 -246.40891631 453.88701754 -246.4172433 446.91966182 C-246.42700947 438.88092545 -246.4533106 430.84246489 -246.49374419 422.80382568 C-246.52393005 416.58886303 -246.53871462 410.37397931 -246.54202431 404.15894479 C-246.54437258 400.44799996 -246.5533029 396.73734962 -246.57848549 393.02648354 C-246.60615203 388.88247026 -246.60192757 384.73907053 -246.5949707 380.5949707 C-246.60778076 379.37028076 -246.62059082 378.14559082 -246.63378906 376.88378906 C-246.59296752 370.21584693 -246.22192975 365.89764361 -242.125 360.53125 C-237.610944 357.03055351 -234.15146803 355.40249271 -228.4699707 355.41772461 C-227.52922195 355.41780014 -226.58847321 355.41787567 -225.61921692 355.41795349 C-224.60663315 355.42311478 -223.59404938 355.42827606 -222.55078125 355.43359375 C-220.99232735 355.43571617 -220.99232735 355.43571617 -219.40238953 355.43788147 C-216.08073052 355.44348344 -212.75913867 355.45603628 -209.4375 355.46875 C-207.18684993 355.47376475 -204.93619881 355.4783277 -202.68554688 355.48242188 C-197.16534163 355.49345351 -191.64517561 355.51019357 -186.125 355.53125 C-186.12960896 354.51026624 -186.13421793 353.48928247 -186.13896656 352.43735981 C-186.24990369 327.60868652 -186.33209987 302.78004532 -186.38406086 277.95117664 C-186.40985593 265.9441682 -186.44503154 253.93732336 -186.50219727 241.93041992 C-186.55199211 231.46669571 -186.58428153 221.00308996 -186.59544247 210.53925055 C-186.60196782 204.99731419 -186.61733163 199.45571678 -186.65365028 193.91388893 C-186.68754763 188.69935805 -186.69806553 183.48530625 -186.69053841 178.27067566 C-186.69191575 176.35541876 -186.70188539 174.4401461 -186.72102737 172.52498436 C-186.74586797 169.91184265 -186.7399387 167.30051492 -186.72627258 164.68733215 C-186.74083679 163.92759765 -186.755401 163.16786315 -186.77040654 162.38510638 C-186.7147414 158.45340898 -186.250935 156.69240579 -183.80075359 153.55697155 C-180.29672743 150.90419316 -178.21689674 150.95322743 -173.85546875 151.04296875 C-172.83396477 151.05358086 -172.83396477 151.05358086 -171.79182434 151.06440735 C-169.63090005 151.09224931 -167.47263178 151.15495473 -165.3125 151.21875 C-163.84183448 151.24384668 -162.37112807 151.26665747 -160.90039062 151.28710938 C-157.30774043 151.34203812 -153.71662972 151.42823353 -150.125 151.53125 C-150.15726685 149.90086792 -150.15726685 149.90086792 -150.19018555 148.23754883 C-150.11573007 144.00418334 -149.60887634 141.95711537 -147.125 138.53125 C-144.52777568 137.46469753 -142.51688525 136.85321634 -139.8125 136.34375 C-139.11060547 136.19067383 -138.40871094 136.03759766 -137.68554688 135.87988281 C-136.22940485 135.56523577 -134.77080295 135.26177591 -133.31005859 134.96923828 C-131.18650729 134.54357895 -129.07181442 134.08819025 -126.95703125 133.62109375 C-123.68358361 132.90367148 -120.40701646 132.20816589 -117.125 131.53125 C-116.135 127.90125 -115.145 124.27125 -114.125 120.53125 C-116.68536744 118.11228946 -119.248193 115.69602822 -121.8125 113.28125 C-122.53373047 112.59933594 -123.25496094 111.91742188 -123.99804688 111.21484375 C-126.96223253 108.42661432 -129.89921568 105.71140024 -133.08203125 103.171875 C-135.125 101.53125 -135.125 101.53125 -136.125 99.53125 C-136.51870671 94.26507657 -135.8173123 91.10035488 -133.23828125 86.51953125 C-132.62919922 85.43220703 -132.02011719 84.34488281 -131.39257812 83.22460938 C-130.74740234 82.10892578 -130.10222656 80.99324219 -129.4375 79.84375 C-128.49874023 78.15282227 -128.49874023 78.15282227 -127.54101562 76.42773438 C-122.02158518 66.71238089 -122.02158518 66.71238089 -117.125 63.53125 C-109.66063495 62.44761407 -101.33612878 66.71722904 -94.50195312 69.26757812 C-93.16100586 69.74420898 -93.16100586 69.74420898 -91.79296875 70.23046875 C-90.99141357 70.52783936 -90.1898584 70.82520996 -89.36401367 71.1315918 C-86.53005983 71.63744529 -85.49645069 71.10205509 -83.125 69.53125 C-81.42003463 67.90378306 -79.74602968 66.24233689 -78.125 64.53125 C-79.40518479 59.52499892 -80.74613409 54.55642311 -82.4375 49.671875 C-82.6641333 49.01646729 -82.8907666 48.36105957 -83.12426758 47.68579102 C-83.78701437 45.79159063 -84.46163421 43.90155718 -85.13671875 42.01171875 C-86.13220491 38.50587619 -86.69951598 36.13056808 -86.125 32.53125 C-82.55222215 27.90640911 -77.75608727 25.29998991 -72.75 22.46875 C-72.02039063 22.04787109 -71.29078125 21.62699219 -70.5390625 21.19335938 C-69.09625479 20.36245672 -67.65049959 19.53664852 -66.20166016 18.71630859 C-64.84422684 17.94168112 -63.49445743 17.15342427 -62.15380859 16.35009766 C-57.85347836 13.78997001 -55.17169156 12.78359199 -50.125 13.53125 C-46.04391818 15.97989909 -43.17202329 19.63876139 -40.10546875 23.2265625 C-37.83858282 25.86455599 -35.51748952 28.44887543 -33.1875 31.03125 C-32.02927734 32.31515625 -32.02927734 32.31515625 -30.84765625 33.625 C-30.27917969 34.2540625 -29.71070313 34.883125 -29.125 35.53125 C-25.495 34.54125 -21.865 33.55125 -18.125 32.53125 C-17.96418945 31.70399414 -17.80337891 30.87673828 -17.63769531 30.02441406 C-17.03111235 26.94304183 -16.41082596 23.86483576 -15.78125 20.78808594 C-15.51208894 19.45845618 -15.24834395 18.12771765 -14.99023438 16.79589844 C-14.61729533 14.87669673 -14.22293374 12.96169739 -13.828125 11.046875 C-13.59770508 9.89477539 -13.36728516 8.74267578 -13.12988281 7.55566406 C-10.7972631 0.53513611 -6.85714832 -0.0736107 0 0 Z M1.875 15.53125 C1.27751953 18.51091797 1.27751953 18.51091797 0.66796875 21.55078125 C0.27157043 23.47713801 -0.12490896 25.40347906 -0.52368164 27.3293457 C-0.79828564 28.66607587 -1.0688342 30.00364592 -1.33520508 31.34204102 C-1.71924457 33.26795971 -2.11919605 35.19068382 -2.51953125 37.11328125 C-2.75518799 38.27061768 -2.99084473 39.4279541 -3.23364258 40.62036133 C-4.14228809 43.58770736 -4.62996314 44.76046239 -7.125 46.53125 C-9.28222656 47.42260742 -9.28222656 47.42260742 -11.765625 48.13671875 C-12.67183594 48.39775391 -13.57804687 48.65878906 -14.51171875 48.92773438 C-15.45660156 49.18876953 -16.40148437 49.44980469 -17.375 49.71875 C-18.30441406 49.99138672 -19.23382813 50.26402344 -20.19140625 50.54492188 C-25.31389738 51.99037729 -29.80037998 53.01213846 -35.125 52.53125 C-39.22868607 50.06903836 -42.12618206 46.37747208 -45.2109375 42.76953125 C-47.29796749 40.32898394 -49.42582185 37.92840659 -51.5625 35.53125 C-52.24183594 34.768125 -52.92117187 34.005 -53.62109375 33.21875 C-54.11738281 32.661875 -54.61367187 32.105 -55.125 31.53125 C-56.28128906 32.16353516 -56.28128906 32.16353516 -57.4609375 32.80859375 C-58.46382813 33.35644531 -59.46671875 33.90429688 -60.5 34.46875 C-61.49773437 35.01402344 -62.49546875 35.55929688 -63.5234375 36.12109375 C-65.04570346 36.9462259 -66.57628783 37.75689391 -68.125 38.53125 C-66.77134272 45.54565589 -64.59955028 52.09064301 -62.1484375 58.78515625 C-60.00246589 66.64006761 -60.00246589 66.64006761 -61.125 70.53125 C-63.55602566 74.12630616 -66.50633395 77.02990054 -69.625 80.03125 C-70.81222656 81.26488281 -70.81222656 81.26488281 -72.0234375 82.5234375 C-75.65884203 86.11116459 -77.95290596 88.30688105 -83.04296875 89.28125 C-88.18508809 88.67040677 -93.09443032 86.78682039 -97.9375 85.03125 C-99.79680627 84.37112618 -101.65743103 83.71470093 -103.51953125 83.0625 C-104.73926636 82.62260742 -104.73926636 82.62260742 -105.98364258 82.17382812 C-108.23128731 81.38754099 -108.23128731 81.38754099 -111.125 81.53125 C-113.05839429 84.21747162 -113.05839429 84.21747162 -114.8125 87.53125 C-115.43511719 88.645 -116.05773437 89.75875 -116.69921875 90.90625 C-117.16972656 91.7725 -117.64023438 92.63875 -118.125 93.53125 C-112.8964719 99.93619692 -107.07129027 105.1234323 -100.6875 110.34375 C-98.125 112.53125 -98.125 112.53125 -97.125 114.53125 C-96.77435889 120.90512614 -98.195348 126.04941595 -100.09375 132.078125 C-101.17102224 135.383392 -101.17102224 135.383392 -101.53125 138.296875 C-101.99371292 140.98271737 -102.37676777 142.42404742 -104.125 144.53125 C-108.96681036 146.67755446 -113.9518684 147.58680731 -119.125 148.53125 C-120.5672485 148.82664638 -122.00867113 149.12610506 -123.44921875 149.4296875 C-127.00124037 150.17800539 -130.55640316 150.85151727 -134.125 151.53125 C-134.125 156.81125 -134.125 162.09125 -134.125 167.53125 C-131.14533203 168.12873047 -131.14533203 168.12873047 -128.10546875 168.73828125 C-126.17911199 169.13467957 -124.25277094 169.53115896 -122.3269043 169.92993164 C-120.99017413 170.20453564 -119.65260408 170.4750842 -118.31420898 170.74145508 C-116.38829029 171.12549457 -114.46556618 171.52544605 -112.54296875 171.92578125 C-111.38563232 172.16143799 -110.2282959 172.39709473 -109.03588867 172.63989258 C-106.06854264 173.54853809 -104.89578761 174.03621314 -103.125 176.53125 C-102.23364258 178.68847656 -102.23364258 178.68847656 -101.51953125 181.171875 C-101.25849609 182.07808594 -100.99746094 182.98429688 -100.72851562 183.91796875 C-100.46748047 184.86285156 -100.20644531 185.80773437 -99.9375 186.78125 C-99.66486328 187.71066406 -99.39222656 188.64007813 -99.11132812 189.59765625 C-97.66587271 194.72014738 -96.64411154 199.20662998 -97.125 204.53125 C-99.58721164 208.63493607 -103.27877792 211.53243206 -106.88671875 214.6171875 C-109.32726606 216.70421749 -111.72784341 218.83207185 -114.125 220.96875 C-114.888125 221.64808594 -115.65125 222.32742187 -116.4375 223.02734375 C-116.994375 223.52363281 -117.55125 224.01992187 -118.125 224.53125 C-117.70347656 225.30210937 -117.28195313 226.07296875 -116.84765625 226.8671875 C-116.29980469 227.87007812 -115.75195312 228.87296875 -115.1875 229.90625 C-114.64222656 230.90398437 -114.09695312 231.90171875 -113.53515625 232.9296875 C-112.7100241 234.45195346 -111.89935609 235.98253783 -111.125 237.53125 C-104.11059411 236.17759272 -97.56560699 234.00580028 -90.87109375 231.5546875 C-83.01618239 229.40871589 -83.01618239 229.40871589 -79.125 230.53125 C-75.52994384 232.96227566 -72.62634946 235.91258395 -69.625 239.03125 C-68.80257812 239.82273438 -67.98015625 240.61421875 -67.1328125 241.4296875 C-63.54508541 245.06509203 -61.34936895 247.35915596 -60.375 252.44921875 C-60.98584323 257.59133809 -62.86942961 262.50068032 -64.625 267.34375 C-65.28512382 269.20305627 -65.94154907 271.06368103 -66.59375 272.92578125 C-67.03364258 274.14551636 -67.03364258 274.14551636 -67.48242188 275.38989258 C-68.26870901 277.63753731 -68.26870901 277.63753731 -68.125 280.53125 C-65.43877838 282.46464429 -65.43877838 282.46464429 -62.125 284.21875 C-60.454375 285.15267578 -60.454375 285.15267578 -58.75 286.10546875 C-57.450625 286.81123047 -57.450625 286.81123047 -56.125 287.53125 C-49.72005308 282.3027219 -44.5328177 276.47754027 -39.3125 270.09375 C-37.125 267.53125 -37.125 267.53125 -35.125 266.53125 C-28.75112386 266.18060889 -23.60683405 267.601598 -17.578125 269.5 C-14.272858 270.57727224 -14.272858 270.57727224 -11.359375 270.9375 C-8.67353263 271.39996292 -7.23220258 271.78301777 -5.125 273.53125 C-2.97869554 278.37306036 -2.06944269 283.3581184 -1.125 288.53125 C-0.82960362 289.9734985 -0.53014494 291.41492113 -0.2265625 292.85546875 C0.52175539 296.40749037 1.19526727 299.96265316 1.875 303.53125 C7.155 303.53125 12.435 303.53125 17.875 303.53125 C18.47248047 300.55158203 18.47248047 300.55158203 19.08203125 297.51171875 C19.47842957 295.58536199 19.87490896 293.65902094 20.27368164 291.7331543 C20.54828564 290.39642413 20.8188342 289.05885408 21.08520508 287.72045898 C21.46924457 285.79454029 21.86919605 283.87181618 22.26953125 281.94921875 C22.62301636 280.21321411 22.62301636 280.21321411 22.98364258 278.44213867 C23.89228809 275.47479264 24.37996314 274.30203761 26.875 272.53125 C29.03222656 271.63989258 29.03222656 271.63989258 31.515625 270.92578125 C32.42183594 270.66474609 33.32804688 270.40371094 34.26171875 270.13476562 C35.20660156 269.87373047 36.15148437 269.61269531 37.125 269.34375 C38.51912109 268.93479492 38.51912109 268.93479492 39.94140625 268.51757812 C45.06389738 267.07212271 49.55037998 266.05036154 54.875 266.53125 C58.97868607 268.99346164 61.87618206 272.68502792 64.9609375 276.29296875 C67.04796749 278.73351606 69.17582185 281.13409341 71.3125 283.53125 C71.99183594 284.294375 72.67117188 285.0575 73.37109375 285.84375 C73.86738281 286.400625 74.36367188 286.9575 74.875 287.53125 C75.64585937 287.10972656 76.41671875 286.68820312 77.2109375 286.25390625 C78.21382812 285.70605469 79.21671875 285.15820312 80.25 284.59375 C81.74660156 283.77583984 81.74660156 283.77583984 83.2734375 282.94140625 C84.79570346 282.1162741 86.32628783 281.30560609 87.875 280.53125 C86.52134272 273.51684411 84.34955028 266.97185699 81.8984375 260.27734375 C79.75246589 252.42243239 79.75246589 252.42243239 80.875 248.53125 C83.30602566 244.93619384 86.25633395 242.03259946 89.375 239.03125 C90.16648437 238.20882812 90.95796875 237.38640625 91.7734375 236.5390625 C95.40884203 232.95133541 97.70290596 230.75561895 102.79296875 229.78125 C107.93508809 230.39209323 112.84443032 232.27567961 117.6875 234.03125 C119.54680627 234.69137382 121.40743103 235.34779907 123.26953125 236 C124.08268799 236.29326172 124.89584473 236.58652344 125.73364258 236.88867188 C127.98128731 237.67495901 127.98128731 237.67495901 130.875 237.53125 C132.80839429 234.84502838 132.80839429 234.84502838 134.5625 231.53125 C135.18511719 230.4175 135.80773437 229.30375 136.44921875 228.15625 C136.91972656 227.29 137.39023437 226.42375 137.875 225.53125 C132.6464719 219.12630308 126.82129027 213.9390677 120.4375 208.71875 C117.875 206.53125 117.875 206.53125 116.875 204.53125 C116.52432362 198.15673263 117.94311727 193.01220882 119.84765625 186.984375 C120.92776494 183.68060894 120.92776494 183.68060894 121.24609375 180.765625 C121.68752467 178.01692114 122.0374148 176.64470677 123.875 174.53125 C128.3878411 172.68927404 132.90118312 171.75566535 137.68994141 170.92089844 C141.10867106 170.31125681 144.48514842 169.53455035 147.875 168.78125 C149.855 168.36875 151.835 167.95625 153.875 167.53125 C153.875 162.25125 153.875 156.97125 153.875 151.53125 C150.89533203 150.93376953 150.89533203 150.93376953 147.85546875 150.32421875 C145.92911199 149.92782043 144.00277094 149.53134104 142.0769043 149.13256836 C140.74017413 148.85796436 139.40260408 148.5874158 138.06420898 148.32104492 C136.13829029 147.93700543 134.21556618 147.53705395 132.29296875 147.13671875 C130.55696411 146.78323364 130.55696411 146.78323364 128.78588867 146.42260742 C125.81854264 145.51396191 124.64578761 145.02628686 122.875 142.53125 C121.98364258 140.37402344 121.98364258 140.37402344 121.26953125 137.890625 C121.00849609 136.98441406 120.74746094 136.07820313 120.47851562 135.14453125 C120.21748047 134.19964844 119.95644531 133.25476563 119.6875 132.28125 C119.27854492 130.88712891 119.27854492 130.88712891 118.86132812 129.46484375 C117.41945964 124.3550642 116.33888983 119.84361441 116.875 114.53125 C118.875 112.09375 118.875 112.09375 121.875 109.53125 C123.1535633 108.24723441 124.42377435 106.95487143 125.6875 105.65625 C129.58591546 101.75040898 133.67375286 98.10677948 137.875 94.53125 C137.45347656 93.76039062 137.03195312 92.98953125 136.59765625 92.1953125 C136.04980469 91.19242187 135.50195312 90.18953125 134.9375 89.15625 C134.11958984 87.65964844 134.11958984 87.65964844 133.28515625 86.1328125 C132.4600241 84.61054654 131.64935609 83.07996217 130.875 81.53125 C123.86059411 82.88490728 117.31560699 85.05669972 110.62109375 87.5078125 C102.76618239 89.65378411 102.76618239 89.65378411 98.875 88.53125 C95.27994384 86.10022434 92.37634946 83.14991605 89.375 80.03125 C88.14136719 78.84402344 88.14136719 78.84402344 86.8828125 77.6328125 C83.29508541 73.99740797 81.09936895 71.70334404 80.125 66.61328125 C80.73584323 61.47116191 82.61942961 56.56181968 84.375 51.71875 C85.03512382 49.85944373 85.69154907 47.99881897 86.34375 46.13671875 C86.63701172 45.32356201 86.93027344 44.51040527 87.23242188 43.67260742 C88.01870901 41.42496269 88.01870901 41.42496269 87.875 38.53125 C85.18877838 36.59785571 85.18877838 36.59785571 81.875 34.84375 C80.76125 34.22113281 79.6475 33.59851563 78.5 32.95703125 C77.63375 32.48652344 76.7675 32.01601563 75.875 31.53125 C69.47005308 36.7597781 64.2828177 42.58495973 59.0625 48.96875 C56.4755051 51.99922974 55.84702001 52.45281981 51.921875 52.76953125 C46.79011207 52.69109239 42.0159506 51.15347407 37.125 49.71875 C36.18011719 49.45771484 35.23523438 49.19667969 34.26171875 48.92773438 C33.35550781 48.66669922 32.44929687 48.40566406 31.515625 48.13671875 C30.69610352 47.90106201 29.87658203 47.66540527 29.03222656 47.42260742 C26.56446718 46.40293907 25.44802547 45.69309756 23.875 43.53125 C22.98364258 40.62036133 22.98364258 40.62036133 22.26953125 37.11328125 C22.00849609 35.85966797 21.74746094 34.60605469 21.47851562 33.31445312 C21.21459822 31.99093435 20.95092949 30.66736597 20.6875 29.34375 C20.41314863 28.00824963 20.13776947 26.67295995 19.86132812 25.33789062 C19.18909575 22.07107715 18.53073083 18.8014157 17.875 15.53125 C12.595 15.53125 7.315 15.53125 1.875 15.53125 Z M-43.125 373.53125 C-43.43189593 375.76592574 -43.43189593 375.76592574 -43.38569641 378.38989258 C-43.39278122 379.41627838 -43.39986603 380.44266418 -43.40716553 381.50015259 C-43.40468811 382.63061005 -43.40221069 383.7610675 -43.3996582 384.92578125 C-43.40476913 386.11279633 -43.40988007 387.2998114 -43.41514587 388.52279663 C-43.42668714 391.78308644 -43.42911187 395.04321909 -43.42658257 398.30352402 C-43.4255147 401.02239451 -43.43039142 403.7412414 -43.435188 406.46010685 C-43.44629154 412.87218546 -43.44671564 419.28420549 -43.44067383 425.69628906 C-43.43463011 432.31855187 -43.44695305 438.94060243 -43.4682439 445.56282902 C-43.48583578 451.24269755 -43.49186515 456.92249837 -43.48860615 462.60239315 C-43.48678951 465.99732672 -43.48946723 469.39210884 -43.50332069 472.78701782 C-43.51559056 476.57042022 -43.50895028 480.35332494 -43.49731445 484.13671875 C-43.50495819 485.26717621 -43.51260193 486.39763367 -43.52047729 487.56234741 C-43.51346298 488.58873322 -43.50644867 489.61511902 -43.4992218 490.67260742 C-43.49938954 491.56783615 -43.49955729 492.46306488 -43.49973011 493.38542175 C-43.37606917 494.09354507 -43.25240824 494.8016684 -43.125 495.53125 C-40.05544857 497.57761762 -39.44487042 497.78165033 -35.98803711 497.78521729 C-35.14683319 497.79085693 -34.30562927 497.79649658 -33.43893433 497.80230713 C-32.51935944 497.79825867 -31.59978455 497.79421021 -30.65234375 497.79003906 C-29.19587936 497.79529602 -29.19587936 497.79529602 -27.70999146 497.80065918 C-24.49408867 497.80947587 -21.2784051 497.8036275 -18.0625 497.796875 C-15.83194944 497.79822167 -13.60139916 497.80016221 -11.37084961 497.80267334 C-6.69349374 497.80562452 -2.0162142 497.80132711 2.66113281 497.79199219 C8.66378352 497.78059771 14.66625539 497.78715721 20.66889954 497.79913712 C25.27560784 497.80635584 29.88227358 497.80406772 34.48898315 497.79888153 C36.70262676 497.79754507 38.9162742 497.79919262 41.12991333 497.80384064 C44.22082798 497.80890601 47.31145089 497.80119532 50.40234375 497.79003906 C51.32191864 497.79408752 52.24149353 497.79813599 53.18893433 497.80230713 C54.4507402 497.79384766 54.4507402 497.79384766 55.73803711 497.78521729 C56.46880966 497.78446323 57.19958221 497.78370918 57.95249939 497.78293228 C60.20196325 497.63249789 60.20196325 497.63249789 62.875 495.53125 C63.16108931 492.57079501 63.25302086 489.8204787 63.21557617 486.85888672 C63.21601425 485.96126617 63.21645233 485.06364563 63.21690369 484.13882446 C63.21480845 481.16264324 63.19144287 478.18702069 63.16796875 475.2109375 C63.16237541 473.15113635 63.15810408 471.09133122 63.15510559 469.03152466 C63.14363623 463.60297682 63.11415105 458.17466875 63.08099365 452.74621582 C63.05033781 447.2097498 63.03660986 441.67324513 63.02148438 436.13671875 C62.98928336 425.26812367 62.93806178 414.39970675 62.875 403.53125 C62.27026855 403.5219043 61.66553711 403.51255859 61.04248047 403.50292969 C58.2775212 403.44893278 55.51420094 403.36534606 52.75 403.28125 C51.79867187 403.26707031 50.84734375 403.25289063 49.8671875 403.23828125 C44.07148988 403.03704175 40.42246921 402.48055765 35.875 398.53125 C32.26939467 393.85370795 30.86617137 390.22191004 30.55859375 384.421875 C30.51669922 383.66777344 30.47480469 382.91367187 30.43164062 382.13671875 C30.39232422 381.35941406 30.35300781 380.58210938 30.3125 379.78125 C30.26931641 378.98847656 30.22613281 378.19570313 30.18164062 377.37890625 C30.07597009 375.42987185 29.97502034 373.48058252 29.875 371.53125 C20.65230794 371.48497021 11.42965566 371.44940306 2.20687294 371.42762566 C-2.07534248 371.41717517 -6.35747864 371.40299303 -10.63964844 371.38037109 C-14.76988126 371.35868762 -18.90003769 371.34669091 -23.03032303 371.34149551 C-24.60843738 371.33779165 -26.18654741 371.3305592 -27.76462936 371.31978989 C-29.96996951 371.30533451 -32.17499142 371.30326952 -34.38037109 371.30419922 C-36.26567032 371.29753738 -36.26567032 371.29753738 -38.1890564 371.29074097 C-41.24766742 371.22257468 -41.24766742 371.22257468 -43.125 373.53125 Z " fill="#FA6E40" transform="translate(246.125,-0.53125)"/>
<path d="M0 0 C1.75873526 2.32684905 1.60516521 4.74124253 1.48046875 7.5625 C1.13671875 9.50390625 1.13671875 9.50390625 -0.42578125 12.00390625 C-3.97326152 14.18697103 -5.72588782 14.17122777 -9.86328125 13.50390625 C-12.36035378 12.18063366 -14.70037255 10.68097445 -17.08203125 9.16015625 C-34.34798663 -1.12181718 -55.96947527 -2.79141555 -75.23046875 1.53125 C-85.46717445 4.2720454 -94.26187502 8.31890672 -102.86328125 14.50390625 C-103.77980469 15.16132812 -104.69632813 15.81875 -105.640625 16.49609375 C-122.13562928 29.12761176 -132.01401813 47.59827838 -135.44921875 67.98046875 C-137.67827136 86.94844469 -134.08655326 106.22239898 -123.86328125 122.50390625 C-123.43917969 121.79105469 -123.01507813 121.07820312 -122.578125 120.34375 C-116.07608923 109.72613995 -110.22400957 104.22130109 -98.97265625 98.984375 C-95.79829101 97.56395745 -95.79829101 97.56395745 -92.86328125 95.50390625 C-93.44335938 94.68599609 -93.44335938 94.68599609 -94.03515625 93.8515625 C-103.0521899 80.79471922 -106.35064859 67.21142871 -103.48095703 51.39697266 C-100.23158865 38.52609789 -91.63280428 27.79516517 -80.3125 20.96484375 C-66.93390739 14.02178051 -53.5823879 13.15079991 -39.1328125 17.28515625 C-26.44389447 21.84923219 -16.64960207 31.94770147 -10.87109375 43.94921875 C-8.34378199 50.35566018 -7.50391059 56.0031787 -7.55078125 62.81640625 C-7.55815308 64.07880127 -7.55815308 64.07880127 -7.56567383 65.36669922 C-7.75675222 75.49679383 -10.63248691 82.90818018 -15.86328125 91.50390625 C-16.40984375 92.41527344 -16.95640625 93.32664062 -17.51953125 94.265625 C-17.96296875 95.00425781 -18.40640625 95.74289063 -18.86328125 96.50390625 C-18.08984375 96.79523438 -17.31640625 97.0865625 -16.51953125 97.38671875 C-3.41557392 102.54396928 5.58177773 109.91841949 12.13671875 122.50390625 C23.55847841 101.68165338 27.25599379 79.73229554 21.13671875 56.50390625 C19.08096983 49.87739644 16.5312013 43.93288099 12.82421875 38.06640625 C11.03045274 35.2019427 10.1471663 33.55927826 9.51171875 30.19140625 C10.35331486 26.57254297 11.28948624 24.92405388 14.13671875 22.50390625 C19.53909342 21.56063448 19.53909342 21.56063448 22.13671875 22.50390625 C26.10509344 26.58389148 28.71262467 30.97872831 31.19921875 36.06640625 C31.54355957 36.76677002 31.88790039 37.46713379 32.24267578 38.1887207 C43.18965704 61.03425644 44.34796646 87.74061942 36.1875 111.671875 C27.16897557 136.34159526 9.89196985 155.83753258 -13.69091797 167.50634766 C-37.73043181 178.54539616 -65.17543736 179.91010063 -90.05078125 170.81640625 C-114.5245578 161.25633728 -133.86167442 143.46188412 -144.86328125 119.50390625 C-155.0277523 95.01508963 -156.08796806 68.13160448 -146.39453125 43.31640625 C-136.37349609 19.10290024 -117.93150993 -0.27061468 -93.6171875 -10.43505859 C-63.92388227 -21.93804201 -25.77699041 -20.69724807 0 0 Z M-80.17578125 41.69140625 C-86.67708429 49.58121114 -88.58480853 56.91525607 -88.2421875 67.10546875 C-87.25894629 75.92423011 -83.38544932 82.56383838 -76.86328125 88.50390625 C-68.1542251 95.12413655 -59.66996241 96.43531081 -48.86328125 95.50390625 C-41.10460915 93.8036702 -35.01750825 89.47142351 -29.86328125 83.50390625 C-24.02367554 74.09642689 -22.16778768 64.69497316 -24.44140625 53.7109375 C-27.55416947 44.81126446 -33.90210296 37.57112581 -42.36328125 33.44140625 C-56.19795644 28.01528886 -69.83822296 30.87614194 -80.17578125 41.69140625 Z M-104.86328125 122.50390625 C-108.44494835 128.05950958 -110.09748937 132.92615709 -110.86328125 139.50390625 C-92.30486054 154.4933999 -71.89309914 162.01100284 -47.86328125 160.50390625 C-31.38340931 158.52966778 -11.7372214 151.90544508 -0.86328125 138.50390625 C-0.32703648 131.82638212 -4.73292343 125.36692177 -8.86328125 120.50390625 C-17.73006475 111.93579335 -27.5862041 111.04195831 -39.48046875 111.0703125 C-40.77340851 111.06507065 -42.06634827 111.0598288 -43.39846802 111.0544281 C-46.12333001 111.0455438 -48.84789821 111.04786526 -51.57275391 111.05786133 C-55.03457484 111.0693344 -58.49537308 111.04914275 -61.95705986 111.01994419 C-65.29824666 110.99699652 -68.63920548 111.0040574 -71.98046875 111.0078125 C-73.82159744 110.99096153 -73.82159744 110.99096153 -75.69992065 110.97377014 C-87.06474918 111.06478609 -97.30032537 113.48323778 -104.86328125 122.50390625 Z " fill="#FD753A" transform="translate(311.86328125,79.49609375)"/>
<path d="M0 0 C1.26811523 -0.01260864 2.53623047 -0.02521729 3.84277344 -0.03820801 C5.22331295 -0.03104817 6.60384739 -0.02284418 7.984375 -0.01367188 C9.40397406 -0.0163675 10.82357131 -0.02025051 12.24316406 -0.02526855 C15.21567394 -0.03116045 18.18770241 -0.02261142 21.16015625 -0.00390625 C24.96696287 0.01888413 28.77264149 0.00575925 32.57940674 -0.01819611 C35.51001456 -0.03266301 38.44035574 -0.02804423 41.37097168 -0.01768494 C42.77437474 -0.01502007 44.17780215 -0.01827905 45.58117676 -0.02760315 C47.54369635 -0.03778128 49.50630102 -0.01951228 51.46875 0 C52.58475586 0.00318237 53.70076172 0.00636475 54.85058594 0.00964355 C58.40459148 0.63562633 59.5927073 1.65493557 61.734375 4.51757812 C62.20356183 8.27107274 62.26573881 10.55606266 60.421875 13.89257812 C57.30626565 16.89279454 54.0728223 16.65185087 49.96533203 16.67871094 C48.78045197 16.68831848 47.5955719 16.69792603 46.37478638 16.70782471 C45.09352875 16.71207458 43.81227112 16.71632446 42.4921875 16.72070312 C41.17652802 16.7264032 39.86086853 16.73210327 38.50534058 16.73797607 C35.71953953 16.74847531 32.93376726 16.75432504 30.14794922 16.7578125 C26.58469242 16.76329568 23.02181803 16.78732395 19.45868111 16.81578445 C16.05319058 16.83892856 12.6477526 16.8408615 9.2421875 16.84570312 C7.32637375 16.86422333 7.32637375 16.86422333 5.37185669 16.88311768 C4.1806723 16.88011658 2.98948792 16.87711548 1.76220703 16.87402344 C0.71646515 16.87766907 -0.32927673 16.8813147 -1.40670776 16.8850708 C-4.71221259 16.46017259 -6.59292023 15.47735514 -9.265625 13.51757812 C-10.81149376 10.42584061 -10.55922021 7.9232826 -10.265625 4.51757812 C-7.24175528 0.44183891 -4.95486505 0.01412916 0 0 Z " fill="#FD6545" transform="translate(230.265625,419.482421875)"/>
<path d="M0 0 C1.26811523 -0.01260864 2.53623047 -0.02521729 3.84277344 -0.03820801 C5.22331295 -0.03104817 6.60384739 -0.02284418 7.984375 -0.01367188 C9.40397406 -0.0163675 10.82357131 -0.02025051 12.24316406 -0.02526855 C15.21567394 -0.03116045 18.18770241 -0.02261142 21.16015625 -0.00390625 C24.96696287 0.01888413 28.77264149 0.00575925 32.57940674 -0.01819611 C35.51001456 -0.03266301 38.44035574 -0.02804423 41.37097168 -0.01768494 C42.77437474 -0.01502007 44.17780215 -0.01827905 45.58117676 -0.02760315 C47.54369635 -0.03778128 49.50630102 -0.01951228 51.46875 0 C52.58475586 0.00318237 53.70076172 0.00636475 54.85058594 0.00964355 C58.40459148 0.63562633 59.5927073 1.65493557 61.734375 4.51757812 C62.20356183 8.27107274 62.26573881 10.55606266 60.421875 13.89257812 C57.30626565 16.89279454 54.0728223 16.65185087 49.96533203 16.67871094 C48.78045197 16.68831848 47.5955719 16.69792603 46.37478638 16.70782471 C45.09352875 16.71207458 43.81227112 16.71632446 42.4921875 16.72070312 C41.17652802 16.7264032 39.86086853 16.73210327 38.50534058 16.73797607 C35.71953953 16.74847531 32.93376726 16.75432504 30.14794922 16.7578125 C26.58469242 16.76329568 23.02181803 16.78732395 19.45868111 16.81578445 C16.05319058 16.83892856 12.6477526 16.8408615 9.2421875 16.84570312 C7.32637375 16.86422333 7.32637375 16.86422333 5.37185669 16.88311768 C4.1806723 16.88011658 2.98948792 16.87711548 1.76220703 16.87402344 C0.71646515 16.87766907 -0.32927673 16.8813147 -1.40670776 16.8850708 C-4.99992214 16.42318966 -7.68630083 15.0969023 -10.265625 12.51757812 C-10.8589237 5.27933397 -10.8589237 5.27933397 -8.63061523 2.41833496 C-5.57893558 -0.03431828 -3.88624334 0.01108191 0 0 Z " fill="#F44064" transform="translate(418.265625,419.482421875)"/>
<path d="M0 0 C1.26811523 -0.01260864 2.53623047 -0.02521729 3.84277344 -0.03820801 C5.22331295 -0.03104817 6.60384739 -0.02284418 7.984375 -0.01367188 C9.40397406 -0.0163675 10.82357131 -0.02025051 12.24316406 -0.02526855 C15.21567394 -0.03116045 18.18770241 -0.02261142 21.16015625 -0.00390625 C24.96696287 0.01888413 28.77264149 0.00575925 32.57940674 -0.01819611 C35.51001456 -0.03266301 38.44035574 -0.02804423 41.37097168 -0.01768494 C42.77437474 -0.01502007 44.17780215 -0.01827905 45.58117676 -0.02760315 C47.54369635 -0.03778128 49.50630102 -0.01951228 51.46875 0 C52.58475586 0.00318237 53.70076172 0.00636475 54.85058594 0.00964355 C58.37671974 0.63071716 59.55544837 1.73332199 61.734375 4.51757812 C62.44319803 7.42542694 62.07409289 9.46011713 61.734375 12.51757812 C59.92274233 15.19189302 58.85676423 15.47678171 55.734375 16.51757812 C53.81340052 16.62114453 51.88905517 16.66613116 49.96533203 16.67871094 C48.78045197 16.68831848 47.5955719 16.69792603 46.37478638 16.70782471 C45.09352875 16.71207458 43.81227112 16.71632446 42.4921875 16.72070312 C41.17652802 16.7264032 39.86086853 16.73210327 38.50534058 16.73797607 C35.71953953 16.74847531 32.93376726 16.75432504 30.14794922 16.7578125 C26.58469242 16.76329568 23.02181803 16.78732395 19.45868111 16.81578445 C16.05319058 16.83892856 12.6477526 16.8408615 9.2421875 16.84570312 C7.32637375 16.86422333 7.32637375 16.86422333 5.37185669 16.88311768 C4.1806723 16.88011658 2.98948792 16.87711548 1.76220703 16.87402344 C0.71646515 16.87766907 -0.32927673 16.8813147 -1.40670776 16.8850708 C-4.71221259 16.46017259 -6.59292023 15.47735514 -9.265625 13.51757812 C-10.81149376 10.42584061 -10.55922021 7.9232826 -10.265625 4.51757812 C-7.24175528 0.44183891 -4.95486505 0.01412916 0 0 Z " fill="#FC9326" transform="translate(42.265625,419.482421875)"/>
<path d="M0 0 C1.22477051 -0.01583633 2.44954102 -0.03167267 3.71142578 -0.04798889 C5.0261084 -0.04302902 6.34079102 -0.03806915 7.6953125 -0.03295898 C9.06624778 -0.03819772 10.43717944 -0.04447511 11.80810547 -0.05174255 C14.67627976 -0.06213229 17.54395747 -0.05760608 20.41210938 -0.04296875 C24.08109542 -0.02577356 27.74851642 -0.0492894 31.41732788 -0.08445835 C34.24676822 -0.10645603 37.07583529 -0.1049856 39.90533447 -0.09669304 C41.91333098 -0.09547833 43.92130445 -0.11538631 45.92919922 -0.13563538 C56.05183254 -0.03205018 56.05183254 -0.03205018 59.1484375 2.85009766 C61.36631214 6.40977349 61.56874726 8.41705609 60.8203125 12.53344727 C58.21754336 15.18035247 56.53862963 16.41043705 52.85423279 17.04138184 C51.21020226 17.0461554 51.21020226 17.0461554 49.53295898 17.05102539 C48.28494003 17.06363403 47.03692108 17.07624268 45.75108337 17.0892334 C44.39785189 17.0820741 43.04462558 17.07387025 41.69140625 17.06469727 C40.29565664 17.0673938 38.89990885 17.07127758 37.50416565 17.07629395 C34.58470707 17.0821796 31.66573926 17.07365576 28.74633789 17.05493164 C25.00793457 17.03212035 21.2706786 17.04528321 17.53231716 17.0692215 C14.65232217 17.08368729 11.77259853 17.07907051 8.89259529 17.06871033 C7.51431199 17.06604625 6.13600388 17.06930166 4.75774956 17.07862854 C2.83126178 17.08880719 0.90468734 17.07053711 -1.02172852 17.05102539 C-2.66456566 17.04625183 -2.66456566 17.04625183 -4.34059143 17.04138184 C-7.83412811 16.41636317 -9.00996938 15.28436317 -11.1796875 12.53344727 C-11.74609375 10.53344727 -11.74609375 10.53344727 -11.7421875 8.53344727 C-11.76410156 7.87344727 -11.78601563 7.21344727 -11.80859375 6.53344727 C-10.0898922 1.06776285 -5.1092643 0.02945407 0 0 Z " fill="#F23F65" transform="translate(419.1796875,451.466552734375)"/>
<path d="M0 0 C1.22477051 -0.01260864 2.44954102 -0.02521729 3.71142578 -0.03820801 C5.0261084 -0.03011108 6.34079102 -0.02201416 7.6953125 -0.01367188 C9.06624629 -0.01636879 10.4371782 -0.02025287 11.80810547 -0.02526855 C14.67629269 -0.03115441 17.54398039 -0.02263109 20.41210938 -0.00390625 C24.08092002 0.01888392 27.74856014 0.00575577 31.41732788 -0.01819611 C34.24675245 -0.03267948 37.07590141 -0.02803672 39.90533447 -0.01768494 C41.91329716 -0.01373486 43.92127073 -0.02584149 45.92919922 -0.03820801 C47.76635498 -0.01929504 47.76635498 -0.01929504 49.640625 0 C51.25348389 0.00477356 51.25348389 0.00477356 52.89892578 0.00964355 C56.5201109 0.63925041 58.2082962 1.98145469 60.8203125 4.51757812 C61.484375 6.51757812 61.484375 6.51757812 61.4453125 8.51757812 C61.46464844 9.50757813 61.46464844 9.50757813 61.484375 10.51757812 C60.44866807 13.63688372 58.50803017 14.71550172 55.8203125 16.51757812 C52.89892578 17.0255127 52.89892578 17.0255127 49.640625 17.03515625 C48.41585449 17.04776489 47.19108398 17.06037354 45.92919922 17.07336426 C44.6145166 17.06526733 43.29983398 17.05717041 41.9453125 17.04882812 C40.57437871 17.05152504 39.2034468 17.05540912 37.83251953 17.0604248 C34.96433231 17.06631066 32.09664461 17.05778734 29.22851562 17.0390625 C25.55970498 17.01627233 21.89206486 17.02940048 18.22329712 17.05335236 C15.39387255 17.06783573 12.56472359 17.06319297 9.73529053 17.05284119 C7.72732784 17.04889111 5.71935427 17.06099774 3.71142578 17.07336426 C1.87427002 17.05445129 1.87427002 17.05445129 0 17.03515625 C-1.07523926 17.03197388 -2.15047852 17.0287915 -3.25830078 17.0255127 C-6.8794859 16.39590584 -8.5676712 15.05370156 -11.1796875 12.51757812 C-11.84375 10.51757812 -11.84375 10.51757812 -11.8046875 8.51757812 C-11.81757813 7.85757812 -11.83046875 7.19757813 -11.84375 6.51757812 C-10.03435027 1.06809188 -5.15105613 0.01524552 0 0 Z " fill="#FD6346" transform="translate(231.1796875,451.482421875)"/>
<path d="M0 0 C1.3709329 -0.00082933 2.7418657 -0.00329111 4.11279297 -0.00730896 C6.98110002 -0.01016247 9.84862426 0.00448834 12.71679688 0.03198242 C16.38564706 0.0660663 20.05309819 0.0600438 23.72201538 0.04131985 C26.55146865 0.0307297 29.38059872 0.03970556 32.21002197 0.05470467 C34.21796368 0.06237758 36.22594464 0.0550454 38.23388672 0.04747009 C39.45865723 0.06330643 40.68342773 0.07914276 41.9453125 0.09545898 C43.02055176 0.10165756 44.09579102 0.10785614 45.20361328 0.11424255 C48.82089771 0.75150326 50.51512956 2.09348252 53.125 4.62890625 C53.75390625 6.62890625 53.75390625 6.62890625 53.6875 8.62890625 C53.68878906 9.28890625 53.69007812 9.94890625 53.69140625 10.62890625 C52.86414645 13.54998914 51.46934631 14.72571879 49.125 16.62890625 C46.28590393 17.13684082 46.28590393 17.13684082 42.96704102 17.14648438 C41.09974083 17.16539734 41.09974083 17.16539734 39.19471741 17.18469238 C37.83944126 17.17753174 36.48417028 17.16932755 35.12890625 17.16015625 C33.73412302 17.16285222 32.33934163 17.16673552 30.94456482 17.17175293 C28.02332643 17.17764514 25.10257785 17.16909616 22.18139648 17.15039062 C18.44418282 17.12762133 14.70811952 17.14071145 10.97094822 17.16468048 C8.09091087 17.17916468 5.21114426 17.17452034 2.33109856 17.16416931 C0.95364177 17.16150811 -0.42383991 17.16475044 -1.80126762 17.17408752 C-3.73005553 17.18429181 -5.65893001 17.16597005 -7.58764648 17.14648438 C-8.68366684 17.143302 -9.77968719 17.14011963 -10.90892029 17.13684082 C-14.59331713 16.50589604 -16.27223086 15.27581145 -18.875 12.62890625 C-19.62343476 8.51251508 -19.42099964 6.50523248 -17.203125 2.94555664 C-12.700971 -1.24479815 -5.722212 -0.05770692 0 0 Z " fill="#FC9126" transform="translate(50.875,451.37109375)"/>
<path d="M0 0 C1.17626953 -0.020625 2.35253906 -0.04125 3.56445312 -0.0625 C14.51169894 -0.11200705 14.51169894 -0.11200705 19.1875 3.25 C20.73336876 6.34173752 20.48109521 8.84429552 20.1875 12.25 C18.62109375 14.44335938 18.62109375 14.44335938 16.1875 16.25 C12.859375 16.76757812 12.859375 16.76757812 8.9375 16.78125 C8.24237305 16.7850769 7.54724609 16.78890381 6.83105469 16.79284668 C5.36521959 16.7955618 3.89933572 16.78822835 2.43359375 16.77148438 C0.19421025 16.75006419 -2.04196587 16.77129443 -4.28125 16.796875 C-5.70834039 16.79423165 -7.13542879 16.7891065 -8.5625 16.78125 C-9.85671875 16.77673828 -11.1509375 16.77222656 -12.484375 16.76757812 C-15.8125 16.25 -15.8125 16.25 -18.234375 14.43554688 C-20.54220045 11.23943713 -20.36126203 9.09133421 -19.8125 5.25 C-14.78731864 -1.3347204 -7.54392883 0.0327463 0 0 Z " fill="#FB9722" transform="translate(51.8125,386.75)"/>
<path d="M0 0 C1.23234375 -0.020625 2.4646875 -0.04125 3.734375 -0.0625 C4.92289062 -0.06765625 6.11140625 -0.0728125 7.3359375 -0.078125 C8.96474854 -0.09214355 8.96474854 -0.09214355 10.62646484 -0.10644531 C14.05024515 0.30055023 15.87700717 1.19757219 18.625 3.25 C20.625 6.25 20.625 6.25 20.4375 9.75 C19.36790759 14.35747499 19.36790759 14.35747499 16.625 16.25 C13.41040039 16.65405273 13.41040039 16.65405273 9.47265625 16.68359375 C8.4278434 16.69145653 8.4278434 16.69145653 7.36192322 16.69947815 C5.89014009 16.70589525 4.41830566 16.70456529 2.9465332 16.69604492 C0.69844844 16.68754141 -1.54708866 16.71628321 -3.79492188 16.74804688 C-5.22656174 16.74965925 -6.65820609 16.74908066 -8.08984375 16.74609375 C-9.39042725 16.74794678 -10.69101074 16.7497998 -12.03100586 16.75170898 C-15.88675942 16.17321927 -17.06369817 15.32481213 -19.375 12.25 C-20.08382303 9.34215119 -19.71471789 7.307461 -19.375 4.25 C-15.30852111 -1.75289741 -6.35611741 0.02642876 0 0 Z " fill="#FA4360" transform="translate(427.375,386.75)"/>
<path d="M0 0 C1.77020508 -0.01836914 1.77020508 -0.01836914 3.57617188 -0.03710938 C5.28450195 -0.04000977 5.28450195 -0.04000977 7.02734375 -0.04296875 C8.58376587 -0.04913208 8.58376587 -0.04913208 10.17163086 -0.05541992 C13.19722322 0.1988208 15.34892891 0.84706127 18.0625 2.1875 C20.22969206 4.8472357 20.05784863 6.27587596 19.875 9.75 C18.80141579 14.29208705 18.80141579 14.29208705 16.0625 16.1875 C12.84790039 16.59155273 12.84790039 16.59155273 8.91015625 16.62109375 C7.8653434 16.62895653 7.8653434 16.62895653 6.79942322 16.63697815 C5.32764009 16.64339525 3.85580566 16.64206529 2.3840332 16.63354492 C0.13594844 16.62504141 -2.10958866 16.65378321 -4.35742188 16.68554688 C-5.78906174 16.68715925 -7.22070609 16.68658066 -8.65234375 16.68359375 C-9.95292725 16.68544678 -11.25351074 16.6872998 -12.59350586 16.68920898 C-15.9375 16.1875 -15.9375 16.1875 -18.36547852 14.37524414 C-20.6467575 11.20044356 -20.41427075 9.00166599 -19.9375 5.1875 C-18.63165829 2.70640074 -17.8728105 1.50513034 -15.19702148 0.59643555 C-10.20672048 -0.30672536 -5.05533016 0.00275195 0 0 Z " fill="#FD6B41" transform="translate(239.9375,386.8125)"/>
</svg>
