<?xml version="1.0" encoding="UTF-8"?>
<svg version="1.1" xmlns="http://www.w3.org/2000/svg" width="512" height="512">
<path d="M0 0 C6.82805837 5.8402915 11.86627121 12.52304856 16.86035156 19.89697266 C19.33033079 23.5007274 21.90481471 27.02920327 24.46875 30.56640625 C25.0138623 31.32115234 25.55897461 32.07589844 26.12060547 32.85351562 C30.70151277 39.18912526 35.33974423 45.48160391 39.98510742 51.77001953 C45.58260515 59.35492773 51.10259856 66.99445933 56.60986328 74.64501953 C58.76812826 77.64170005 60.93040544 80.63547068 63.09350586 83.62866211 C64.17221237 85.12219342 65.24985919 86.61649069 66.32641602 88.11157227 C69.11210068 91.97792865 71.91574001 95.8292334 74.75 99.66015625 C86.22976975 115.22773478 93.87617761 128.80813897 92.21875 148.87890625 C89.71444895 164.79771912 80.61044227 176.28667016 71.21875 188.87890625 C72.16959473 188.8929248 72.16959473 188.8929248 73.13964844 188.90722656 C89.78576934 189.21560003 102.86979372 189.9993904 116.21875 200.87890625 C116.84394531 201.36746094 117.46914063 201.85601562 118.11328125 202.359375 C130.09196479 212.87790298 135.19260859 231.79112548 141.30969238 246.11849976 C143.81579385 251.97256249 146.3781159 257.80096335 148.953125 263.625 C149.35794098 264.54162415 149.76275696 265.45824829 150.17984009 266.40264893 C151.79805698 270.0660669 153.41652985 273.72935026 155.04193115 277.3895874 C156.18003377 279.95344364 157.31308036 282.51948449 158.4453125 285.0859375 C158.78230164 285.84112167 159.11929077 286.59630585 159.4664917 287.37437439 C165.73014127 301.61367573 168.43869424 313.75293147 163.21875 328.87890625 C157.72727797 341.07631047 147.70254089 347.59543004 136.34375 353.87890625 C134.62337704 354.85042838 132.90302882 355.82199698 131.18403625 356.79595947 C129.99678528 357.46848277 128.80886184 358.13982024 127.62028503 358.80999756 C120.06356703 363.07729956 112.62330857 367.53907379 105.17041016 371.984375 C95.56836508 377.69998591 85.89738734 383.29422325 76.21875 388.87890625 C77.11553467 388.88255188 78.01231934 388.88619751 78.9362793 388.88995361 C87.41050581 388.92790712 95.88435034 388.98484324 104.35830688 389.06280899 C108.71430919 389.1022253 113.07011111 389.13444227 117.42626953 389.14990234 C121.63459393 389.16510772 125.84236724 389.19962127 130.05044556 389.24721527 C131.65145055 389.26198926 133.25253424 389.26994497 134.85360718 389.2707901 C151.98086634 389.28891412 151.98086634 389.28891412 159.4609375 395.84375 C159.99976563 396.49472656 160.53859375 397.14570313 161.09375 397.81640625 C161.64804687 398.46480469 162.20234375 399.11320312 162.7734375 399.78125 C167.25287097 406.28248182 166.89338728 413.25031542 166.21875 420.87890625 C164.54825306 427.49745742 159.7736362 432.13586769 154.21875 435.87890625 C151.96875 436.5703125 151.96875 436.5703125 150.21875 436.87890625 C150.26515625 437.94109375 150.3115625 439.00328125 150.359375 440.09765625 C150.83586313 455.36152036 150.83586313 455.36152036 146.21875 460.87890625 C141.65455408 465.65273121 137.27087265 469.50657247 130.46534508 470.13190591 C129.45696755 470.13331476 128.44859001 470.13472361 127.40965557 470.13617516 C126.2411798 470.14262405 125.07270402 470.14907294 123.86881989 470.15571725 C122.58926433 470.15262005 121.30970876 470.14952285 119.99137878 470.14633179 C118.61507919 470.15006878 117.23878172 470.1546705 115.86248761 470.16006243 C112.08107927 470.17230187 108.29975934 470.17203086 104.5183357 470.16967368 C100.4398273 470.16926575 96.36134734 470.18030238 92.28285217 470.18978882 C84.29244546 470.20640499 76.30206825 470.21189864 68.31164571 470.21301357 C61.81678676 470.21396376 55.32193755 470.21807259 48.82708168 470.22441483 C30.4144083 470.24202897 12.00175823 470.25125343 -6.41092364 470.24975388 C-7.40365136 470.24967397 -8.39637908 470.24959405 -9.41918945 470.24951172 C-10.4131288 470.24942996 -11.40706814 470.2493482 -12.43112686 470.24926396 C-28.54002857 470.24845102 -44.64883678 470.2675901 -60.75771145 470.29578845 C-77.29677654 470.32451147 -93.83579602 470.33832907 -110.37488669 470.3366009 C-119.66089716 470.33593679 -128.94680961 470.34143811 -138.23279762 470.362957 C-146.13908035 470.38116115 -154.04522063 470.38552246 -161.95151524 470.37193815 C-165.98494653 470.36540458 -170.0181045 470.36530515 -174.05150986 470.38264465 C-177.74595737 470.39836355 -181.43991456 470.39552428 -185.13435002 470.37807639 C-187.09961119 470.37355138 -189.06488748 470.38867315 -191.03008968 470.40455568 C-199.16778814 470.34092626 -204.73011679 469.4289411 -211.0234375 463.9140625 C-211.56226563 463.26308594 -212.10109375 462.61210937 -212.65625 461.94140625 C-213.21054688 461.29300781 -213.76484375 460.64460938 -214.3359375 459.9765625 C-217.78518048 454.97049904 -218.04458797 450.52025947 -217.90625 444.56640625 C-217.89722656 443.82583984 -217.88820313 443.08527344 -217.87890625 442.32226562 C-217.85549213 440.50767158 -217.81962615 438.69324554 -217.78125 436.87890625 C-218.69519531 436.61464844 -219.60914063 436.35039062 -220.55078125 436.078125 C-226.24500334 433.96430858 -229.52607032 429.86289994 -232.71875 424.81640625 C-235.14791915 418.10582648 -235.15716485 408.98571027 -232.28125 402.44140625 C-228.72025995 396.5486647 -223.30140859 392.02580364 -216.78125 389.87890625 C-214.36421224 389.67933543 -211.93758384 389.5851895 -209.51245117 389.56005859 C-208.79971039 389.55001297 -208.0869696 389.53996735 -207.35263062 389.52961731 C-205.00983444 389.49886384 -202.66715214 389.48177229 -200.32421875 389.46484375 C-198.69467698 389.44612577 -197.06514483 389.42655188 -195.43562317 389.40615845 C-191.15644006 389.35489774 -186.87722555 389.31523968 -182.59790039 389.27801514 C-178.22729767 389.23793741 -173.8568249 389.18686228 -169.48632812 389.13671875 C-160.91805762 389.04003126 -152.34972265 388.95560363 -143.78125 388.87890625 C-144.49587906 388.46771545 -145.21050812 388.05652466 -145.9467926 387.63287354 C-171.58701159 372.87455018 -171.58701159 372.87455018 -183.71875 365.62890625 C-190.75976677 361.42824731 -197.8166738 357.27513853 -204.96435547 353.25854492 C-217.04375727 346.4338399 -227.08853314 339.5793926 -231.8125 325.890625 C-235.33761584 313.04680016 -233.68295234 302.39339782 -228.24609375 290.40234375 C-227.71995232 289.21430145 -227.71995232 289.21430145 -227.18318176 288.0022583 C-226.03597666 285.41601481 -224.8774712 282.83500797 -223.71875 280.25390625 C-222.50109072 277.51860354 -221.28610479 274.78212266 -220.07113647 272.04562378 C-219.23557478 270.16441876 -218.39899608 268.28366514 -217.56143188 266.40335083 C-214.67461488 259.91720836 -211.83280189 253.41288297 -209.01953125 246.89453125 C-208.63921249 246.01475616 -208.25889374 245.13498108 -207.86705017 244.22854614 C-206.39931225 240.8327475 -204.93161016 237.43696787 -203.47286987 234.03729248 C-189.5261581 201.55313304 -189.5261581 201.55313304 -173.78125 193.87890625 C-172.61335938 193.30849609 -172.61335938 193.30849609 -171.421875 192.7265625 C-161.10607182 188.53763086 -149.75206712 189.0406519 -138.78125 188.87890625 C-139.14887451 188.38600098 -139.51649902 187.8930957 -139.89526367 187.38525391 C-152.28098943 170.70879361 -161.57142064 156.55713702 -159.78125 134.87890625 C-157.4214874 119.87886491 -149.33862007 109.15769453 -140.53076172 97.25341797 C-138.3102382 94.239629 -136.12387302 91.20211602 -133.93945312 88.16210938 C-128.35687594 80.39296585 -122.69851944 72.68167026 -117.01416016 64.98681641 C-110.31694997 55.91167861 -103.72590635 46.76041636 -97.14453125 37.60107422 C-93.89958612 33.08532071 -90.64565123 28.57636623 -87.37646484 24.078125 C-86.31095899 22.60918151 -85.24879177 21.13781065 -84.18994141 19.6640625 C-74.0405539 5.55738826 -62.50329011 -7.8607658 -44.30859375 -10.91015625 C-27.79132887 -12.28872241 -13.54604549 -10.33076222 0 0 Z M-63.78125 20.87890625 C-66.73821536 24.80237088 -69.55114186 28.81734013 -72.35839844 32.84863281 C-74.88018424 36.44698057 -77.45666625 40.00573757 -80.03125 43.56640625 C-80.57604004 44.32091064 -81.12083008 45.07541504 -81.68212891 45.8527832 C-86.26406581 52.18812798 -90.90201115 58.48128838 -95.54760742 64.77001953 C-101.14196337 72.35067044 -106.65922327 79.98569465 -112.16357422 87.63183594 C-120.64994391 99.42002589 -129.17139153 111.18054144 -137.78125 122.87890625 C-135.80429321 124.16078059 -135.80429321 124.16078059 -133.671875 123.18554688 C-132.80046875 122.80591797 -131.9290625 122.42628906 -131.03125 122.03515625 C-130.04398926 121.61637207 -129.05672852 121.19758789 -128.03955078 120.76611328 C-126.42669189 120.0794458 -126.42669189 120.0794458 -124.78125 119.37890625 C-111.69562214 114.00468775 -98.58609246 109.94874447 -84.78125 106.87890625 C-83.79189453 106.65444824 -82.80253906 106.42999023 -81.78320312 106.19873047 C-50.61933974 99.48912802 -13.83647305 99.79419813 17.21875 106.87890625 C18.30687988 107.12560059 19.39500977 107.37229492 20.51611328 107.62646484 C33.81746603 110.7437003 46.51579631 114.80817499 59.07421875 120.1796875 C62.73383212 121.73479038 66.37270148 122.87536776 70.21875 123.87890625 C66.21241866 117.25917334 61.88054313 111.0084489 57.11694336 104.91796875 C54.11725501 101.07333731 51.22657307 97.16935436 48.40625 93.19140625 C47.99882568 92.61696777 47.59140137 92.0425293 47.17163086 91.45068359 C46.31201847 90.23806631 45.45256687 89.02533502 44.59326172 87.8125 C36.99653068 77.12580198 29.25435806 66.54487687 21.46118164 56.00097656 C17.40551548 50.50762331 13.39528093 44.98328901 9.40625 39.44140625 C7.34582534 36.58573538 5.28308752 33.73174959 3.21875 30.87890625 C2.78159668 30.27369141 2.34444336 29.66847656 1.89404297 29.04492188 C-6.18662561 17.89785723 -13.50962832 8.61706622 -27.78125 5.87890625 C-42.45784262 4.5486356 -54.22693979 9.78296431 -63.78125 20.87890625 Z M-103.78125 128.87890625 C-106.11254639 129.55297792 -108.44663767 130.21638113 -110.78125 130.87890625 C-110.22647314 136.57971671 -109.14953651 141.61772978 -107.21875 147.00390625 C-106.95626465 147.73746338 -106.6937793 148.47102051 -106.42333984 149.22680664 C-99.03079116 169.06397951 -85.26616281 186.4162773 -66.78125 196.87890625 C-66.12769531 197.26691406 -65.47414062 197.65492188 -64.80078125 198.0546875 C-49.14700028 206.69931281 -31.06468808 207.50294403 -14.1015625 202.875 C-1.65549769 198.74900696 7.92766718 192.01891455 17.21875 182.87890625 C17.98058594 182.12996094 18.74242187 181.38101563 19.52734375 180.609375 C31.21897927 168.39090668 43.21875 148.23444103 43.21875 130.87890625 C-6.27059363 116.15008277 -53.92753382 113.88746547 -103.78125 128.87890625 Z M59.21875 137.87890625 C58.2596875 141.49859375 58.2596875 141.49859375 57.28125 145.19140625 C52.78652963 160.92909315 45.49314054 175.15688814 35.21875 187.87890625 C34.06632812 189.32330078 34.06632812 189.32330078 32.890625 190.796875 C19.54498917 206.46253031 -0.13440665 218.41294673 -20.78125 220.87890625 C-47.11032577 222.84659024 -69.10763298 217.72645729 -89.78125 200.87890625 C-91.04001953 199.86570312 -91.04001953 199.86570312 -92.32421875 198.83203125 C-110.77289625 183.15780602 -120.02630366 161.58057 -126.78125 138.87890625 C-130.67257055 140.08577958 -134.12646158 141.47160383 -137.65625 143.50390625 C-138.82800781 144.17292969 -138.82800781 144.17292969 -140.0234375 144.85546875 C-140.60351562 145.19320312 -141.18359375 145.5309375 -141.78125 145.87890625 C-141.20002698 163.8968198 -123.31954354 180.81897073 -113.01586914 194.76904297 C-106.87263727 203.09224114 -100.82474248 211.48316699 -94.78125 219.87890625 C-92.46991505 223.08808089 -90.15711948 226.29619804 -87.84375 229.50390625 C-87.32417725 230.22586182 -86.80460449 230.94781738 -86.26928711 231.69165039 C-85.51917358 232.73180298 -85.51917358 232.73180298 -84.75390625 233.79296875 C-84.32343994 234.39061035 -83.89297363 234.98825195 -83.44946289 235.60400391 C-82.89895264 236.35472168 -82.34844238 237.10543945 -81.78125 237.87890625 C-81.34962051 238.86142113 -81.34962051 238.86142113 -80.90927124 239.86378479 C-79.46230114 242.58412286 -78.28521247 244.04642454 -75.78125 245.87890625 C-69.66174355 247.25495555 -63.56461048 247.27581665 -57.3125 247.328125 C-55.47130036 247.36149194 -53.63011378 247.39558689 -51.78894043 247.43037415 C-47.92864269 247.49176161 -44.06974115 247.51861344 -40.20898438 247.52612305 C-36.26746871 247.53887062 -32.33562969 247.61501501 -28.39648438 247.75170898 C-6.00991195 249.70659511 -6.00991195 249.70659511 13.76757812 241.84619141 C16.9669714 238.00692427 19.13410558 233.94743683 21.06726074 229.35818481 C23.0324796 225.12686007 25.89962136 221.57093953 28.71875 217.87890625 C29.79571084 216.3922442 30.86911132 214.90299057 31.9375 213.41015625 C35.3325485 208.70931986 38.77272156 204.04243942 42.21875 199.37890625 C48.45520132 190.93376587 54.6457425 182.45735998 60.75537109 173.91992188 C61.70282916 172.59847552 62.65347506 171.27930656 63.60791016 169.96289062 C71.71764075 159.00484338 71.71764075 159.00484338 74.21875 145.87890625 C69.26875 143.23890625 64.31875 140.59890625 59.21875 137.87890625 Z M-168.03125 210.44140625 C-168.77890625 210.87582031 -169.5265625 211.31023437 -170.296875 211.7578125 C-179.53901042 219.64850359 -183.4730872 230.47266336 -188.09375 241.37890625 C-189.26580551 244.11102091 -190.4414985 246.84155371 -191.61717224 249.57211304 C-192.42903228 251.45911142 -193.2392051 253.34683653 -194.04774475 255.23526001 C-196.93241982 261.96046189 -199.90577131 268.64143611 -202.921875 275.30859375 C-204.16243332 278.06752926 -205.40174458 280.8270217 -206.64071655 283.58666992 C-207.43544429 285.34865475 -208.23534201 287.10831787 -209.04067993 288.86547852 C-216.49292681 304.41572183 -216.49292681 304.41572183 -215.28125 321.12890625 C-211.63586977 330.24235682 -203.01400805 334.84536416 -194.82644653 339.33242798 C-191.71901273 341.0356662 -188.6330337 342.77723597 -185.54296875 344.51171875 C-184.90640854 344.86750504 -184.26984833 345.22329132 -183.61399841 345.58985901 C-176.62101448 349.50639847 -169.72926537 353.58975837 -162.84375 357.69140625 C-161.69631589 358.37366166 -160.54885566 359.05587315 -159.40136719 359.73803711 C-150.97387539 364.75363822 -150.97387539 364.75363822 -148.06811523 366.64331055 C-146.93611694 367.25493042 -146.93611694 367.25493042 -145.78125 367.87890625 C-145.12125 367.54890625 -144.46125 367.21890625 -143.78125 366.87890625 C-144.08195404 365.73595093 -144.38265808 364.59299561 -144.69247437 363.41540527 C-145.77661887 359.07019049 -146.52996925 354.72013265 -147.20166016 350.29492188 C-147.32874863 349.47755051 -147.4558371 348.66017914 -147.58677673 347.81803894 C-148.00185979 345.14099757 -148.41137276 342.46314244 -148.8203125 339.78515625 C-149.10876004 337.91000999 -149.39736739 336.03488831 -149.68612671 334.15979004 C-150.28879314 330.23989532 -150.88851021 326.31956274 -151.48632812 322.39892578 C-152.2507814 317.38800734 -153.02413572 312.37850857 -153.79990578 307.36933136 C-154.39773467 303.50082375 -154.99002852 299.6314836 -155.58076096 295.7618866 C-155.86354442 293.91492404 -156.14820954 292.06824851 -156.43483353 290.22187805 C-156.83550641 287.63638828 -157.22849111 285.04983771 -157.61962891 282.46289062 C-157.73804642 281.70940842 -157.85646393 280.95592621 -157.97846985 280.17961121 C-159.31204947 271.230459 -159.07962494 264.03877213 -154.78125 255.87890625 C-150.90930007 250.93141467 -145.59607583 247.48285701 -139.33007812 246.49084473 C-136.59948534 246.32430433 -133.89188647 246.27309541 -131.15625 246.26953125 C-130.16874756 246.252995 -129.18124512 246.23645874 -128.16381836 246.21942139 C-125.03623087 246.17116838 -121.90912881 246.14962068 -118.78125 246.12890625 C-116.64971546 246.10072763 -114.51820331 246.07079757 -112.38671875 246.0390625 C-107.18498331 245.96541601 -101.9833831 245.91364087 -96.78125 245.87890625 C-101.32797878 238.98967912 -101.32797878 238.98967912 -106.11328125 232.265625 C-106.67821289 231.49774658 -107.24314453 230.72986816 -107.82519531 229.9387207 C-109.03800708 228.31187201 -110.26054679 226.69224356 -111.49121094 225.07885742 C-114.21714833 221.48458276 -116.81700505 218.05514983 -118.77734375 213.98046875 C-120.82952052 210.13206598 -122.06512742 208.21851888 -125.78125 205.87890625 C-138.10997881 203.55161145 -157.00430567 203.67487223 -168.03125 210.44140625 Z M52.21875 211.50390625 C51.13710918 213.30265701 50.15340262 215.11508024 49.21533203 216.99267578 C47.51958614 220.20221344 45.31248869 223.0307687 43.15625 225.94140625 C42.33238742 227.10127108 41.5107553 228.26272359 40.69140625 229.42578125 C37.50492255 233.907924 34.17303404 238.27788027 30.8359375 242.6484375 C29.1209182 244.55466395 29.1209182 244.55466395 29.21875 245.87890625 C30.0377478 245.88437469 30.0377478 245.88437469 30.87329102 245.88995361 C36.58440886 245.93194276 42.2947353 246.00140173 48.00537109 246.08642578 C50.13322005 246.11455568 52.26117194 246.13580971 54.38916016 246.14990234 C57.4578898 246.17144233 60.52539211 246.21814996 63.59375 246.26953125 C64.53677979 246.27075989 65.47980957 246.27198853 66.45141602 246.27325439 C74.03792185 246.43941075 79.23084643 248.35578768 85.03125 253.25390625 C90.45883844 259.76701238 91.52023488 265.64613152 91.21875 273.87890625 C90.93554565 276.75264062 90.50628946 279.59500384 90.05712891 282.44702148 C89.93354507 283.26278656 89.80996124 284.07855164 89.68263245 284.91903687 C89.27601641 287.5927853 88.86085592 290.2651257 88.4453125 292.9375 C88.15820528 294.81015976 87.87154055 296.68288741 87.58529663 298.55567932 C86.98537468 302.47235198 86.38145178 306.38837909 85.77441406 310.30395508 C84.99941126 315.3038158 84.23232008 320.30484892 83.46798134 325.30634975 C82.8767424 329.17162992 82.28232872 333.03641642 81.68687057 336.90104866 C81.40309472 338.74398708 81.12004499 340.58703747 80.83775711 342.43020439 C80.44127239 345.01441696 80.0407699 347.59797606 79.63916016 350.18139648 C79.46760658 351.30622688 79.46760658 351.30622688 79.29258728 352.45378113 C78.47912255 357.64806155 77.41197249 362.75896614 76.21875 367.87890625 C79.87584179 366.50590007 83.17465808 364.85584397 86.55078125 362.89453125 C87.58533447 362.29568115 88.6198877 361.69683105 89.68579102 361.07983398 C90.78979248 360.43602783 91.89379395 359.79222168 93.03125 359.12890625 C94.18597925 358.45817831 95.34084783 357.78769017 96.49584961 357.11743164 C98.88180899 355.73204584 101.26651653 354.3445371 103.65039062 352.95556641 C107.08040449 350.95783399 110.51641085 348.97056086 113.953125 346.984375 C116.06264705 345.76197248 118.17202806 344.53932652 120.28125 343.31640625 C121.24844971 342.75791992 122.21564941 342.19943359 123.2121582 341.62402344 C139.20565435 332.96480209 139.20565435 332.96480209 148.73583984 318.16748047 C151.20691635 306.4567266 144.45511542 295.41053374 139.71875 285.12890625 C138.42133329 282.26928002 137.12903934 279.40737254 135.83685303 276.54537964 C134.95264998 274.58836507 134.06644414 272.63225421 133.17828369 270.67703247 C130.1746154 264.05262497 127.26749425 257.3929117 124.421875 250.69921875 C123.85351929 249.36812073 123.85351929 249.36812073 123.27368164 248.01013184 C120.31676996 241.08473342 120.31676996 241.08473342 118.92895508 237.77160645 C112.59849676 221.93015327 112.59849676 221.93015327 100.46875 210.44140625 C99.73140625 209.98894531 98.9940625 209.53648437 98.234375 209.0703125 C86.57859002 204.46537154 60.28941662 199.46084913 52.21875 211.50390625 Z M-141.60305786 265.7144165 C-143.03212022 268.33978695 -143.00916943 269.5645111 -142.63232422 272.51074219 C-142.51290466 273.48587769 -142.39348511 274.46101318 -142.27044678 275.46569824 C-142.10901184 276.59205688 -141.9475769 277.71841553 -141.78125 278.87890625 C-141.60096252 280.18154419 -141.42067505 281.48418213 -141.23492432 282.82629395 C-140.57745875 287.47907271 -139.87268385 292.12431157 -139.1640625 296.76953125 C-138.90361825 298.48581686 -138.64319173 300.20210515 -138.38278198 301.918396 C-137.83895021 305.49579531 -137.29211622 309.07272219 -136.74365234 312.64941406 C-136.0434859 317.21967298 -135.3551967 321.79163776 -134.66964912 326.36410904 C-134.13721603 329.90136 -133.59632477 333.43728038 -133.05312729 336.97289276 C-132.79567938 338.65802791 -132.54133054 340.3436397 -132.29022598 342.02973175 C-131.93823918 344.38749653 -131.57431325 346.74313239 -131.20751953 349.09863281 C-131.10766754 349.78554199 -131.00781555 350.47245117 -130.90493774 351.18017578 C-130.15510859 355.88270904 -129.06234276 359.72437755 -126.78125 363.87890625 C-122.7354184 366.09397414 -119.0914766 366.13233206 -114.53871155 366.13960266 C-113.46059563 366.14534098 -113.46059563 366.14534098 -112.36069959 366.15119523 C-109.9579208 366.16149481 -107.55538232 366.15753892 -105.15258789 366.15356445 C-103.42761515 366.1579126 -101.70264433 366.16309609 -99.97767639 366.16905212 C-95.29587897 366.18244197 -90.61416228 366.18302083 -85.93234944 366.18048882 C-82.02323616 366.17941915 -78.11413921 366.18430236 -74.20502943 366.18909425 C-64.98278388 366.20018928 -55.76057907 366.20062678 -46.53833008 366.19458008 C-37.02536792 366.18853867 -27.51255361 366.20085556 -17.99961668 366.22215015 C-9.830478 366.23976405 -1.66138638 366.24576786 6.5077706 366.2425124 C11.3861258 366.24069915 16.26437554 366.24334003 21.14271355 366.25722694 C25.73019266 366.2697973 30.31744121 366.26786869 34.90491676 366.25481606 C36.58752393 366.25244904 38.27014729 366.25518945 39.9527359 366.26343918 C42.25183412 366.27389794 44.55015742 366.26581359 46.84922791 366.25312805 C48.13508758 366.25329579 49.42094725 366.25346354 50.74577236 366.25363636 C54.55268666 365.84287489 56.97744442 364.88965355 60.21875 362.87890625 C61.48458947 360.5882407 61.48458947 360.5882407 61.90917969 357.81567383 C62.13005249 356.74016266 62.35092529 355.66465149 62.57849121 354.55654907 C62.78977661 353.34292694 63.00106201 352.12930481 63.21875 350.87890625 C63.33505264 350.2264883 63.45135529 349.57407036 63.57118225 348.90188217 C64.51307395 343.57620113 65.34907077 338.23579173 66.171875 332.890625 C66.43883313 331.17573597 66.70598764 329.46087751 66.97332764 327.74604797 C67.52845243 324.17561156 68.07911772 320.60452076 68.62695312 317.03295898 C69.3279131 312.46752555 70.04335642 307.90449079 70.76250076 303.34189129 C71.3168252 299.81100048 71.86184594 296.27871962 72.40425873 292.74598122 C72.66416471 291.06264918 72.92730766 289.37981347 73.19382477 287.69751549 C73.56503644 285.34748942 73.92322892 282.99581892 74.27832031 280.64331055 C74.38941132 279.95797241 74.50050232 279.27263428 74.61495972 278.56652832 C75.33752859 273.6468495 75.87690054 268.24769274 72.90625 264.00390625 C68.75169753 261.2342046 63.91817021 261.73552012 59.10267639 261.74519348 C58.27790894 261.74292792 57.4531415 261.74066237 56.6033811 261.73832816 C53.83591501 261.73199104 51.06849794 261.73281734 48.30102539 261.73364258 C46.31842485 261.73065094 44.33582489 261.7272484 42.35322571 261.72346497 C36.96486584 261.71462198 31.57652184 261.71228675 26.18815541 261.71164918 C21.69246548 261.71070027 17.19677926 261.70702223 12.70109075 261.70347708 C2.09670508 261.69533163 -8.5076721 261.69289296 -19.11206055 261.69360352 C-30.05814255 261.69420457 -41.00417531 261.68364751 -51.95024484 261.66785985 C-61.34310957 261.6547942 -70.73595818 261.6494192 -80.12883192 261.65005893 C-85.74100033 261.65031417 -91.35312498 261.64744832 -96.96528435 261.63688087 C-102.24214833 261.62721613 -107.51892656 261.62710956 -112.79579353 261.63439751 C-114.73360443 261.63544532 -116.67142062 261.63306883 -118.60922241 261.62703705 C-121.25231406 261.61934207 -123.89510771 261.62394536 -126.53819275 261.63166809 C-127.30687162 261.62652453 -128.07555049 261.62138096 -128.86752266 261.61608154 C-133.95709659 261.64899502 -137.92369223 262.00737721 -141.60305786 265.7144165 Z M-113.78125 381.87890625 C-113.78125 384.51890625 -113.78125 387.15890625 -113.78125 389.87890625 C-60.98125 389.87890625 -8.18125 389.87890625 46.21875 389.87890625 C46.21875 387.23890625 46.21875 384.59890625 46.21875 381.87890625 C-6.58125 381.87890625 -59.38125 381.87890625 -113.78125 381.87890625 Z M-215.78125 408.87890625 C-217.20166821 411.71974266 -217.09577272 413.73367903 -216.78125 416.87890625 C-214.54918569 419.72671244 -213.23132001 420.72888291 -209.78125 421.87890625 C-207.83316457 421.97372138 -205.88194203 422.00805103 -203.93155193 422.01033401 C-202.08890964 422.01609573 -202.08890964 422.01609573 -200.20904225 422.02197385 C-198.83855476 422.02119356 -197.46806733 422.02031477 -196.09757996 422.01934814 C-194.64733641 422.02193108 -193.19709358 422.02494404 -191.74685174 422.02835155 C-187.75185592 422.03643317 -183.75687806 422.03821176 -179.76187503 422.03894901 C-175.4570644 422.04079754 -171.15226312 422.04834384 -166.84745789 422.05508423 C-157.43017892 422.06867612 -148.0129042 422.07469354 -138.59561706 422.07909489 C-132.71780478 422.08185574 -126.83999416 422.0860928 -120.962183 422.09059906 C-104.69493176 422.10279262 -88.42768185 422.11309191 -72.16042614 422.11647415 C-71.11894171 422.11669372 -70.07745729 422.11691328 -69.00441273 422.1171395 C-67.43840578 422.11746692 -67.43840578 422.11746692 -65.84076232 422.11780095 C-63.72514037 422.11824442 -61.60951843 422.11869098 -59.49389648 422.11914062 C-57.91975744 422.11947277 -57.91975744 422.11947277 -56.3138176 422.11981162 C-39.30461082 422.12376069 -22.29544686 422.14121762 -5.28625663 422.16450015 C12.16804056 422.18819953 29.62231626 422.20067535 47.07662982 422.20184207 C56.88014379 422.2027596 66.68360197 422.20853161 76.4871006 422.22666168 C84.83410353 422.24204357 93.18103343 422.24719444 101.52804784 422.23892358 C105.78800257 422.23501034 110.04781016 422.23597942 114.30774689 422.24998093 C118.20686851 422.26267951 122.1057318 422.26155813 126.00485285 422.24939021 C127.41603398 422.24742618 128.82723314 422.25054415 130.23838887 422.25923458 C132.15607222 422.27029746 134.0738405 422.26106529 135.99152851 422.25084305 C137.05691642 422.25144014 138.12230433 422.25203722 139.21997672 422.25265241 C142.75784978 421.81171662 145.17223252 420.70428083 148.21875 418.87890625 C149.63916821 416.03806984 149.53327272 414.02413347 149.21875 410.87890625 C146.98668569 408.03110006 145.66882001 407.02892959 142.21875 405.87890625 C140.27066457 405.78409112 138.31944203 405.74976147 136.36905193 405.74747849 C135.14062374 405.74363734 133.91219554 405.7397962 132.64654225 405.73583865 C131.27605476 405.73661894 129.90556733 405.73749773 128.53507996 405.73846436 C127.08483641 405.73588142 125.63459358 405.73286846 124.18435174 405.72946095 C120.18935592 405.72137933 116.19437806 405.71960074 112.19937503 405.71886349 C107.8945644 405.71701496 103.58976312 405.70946866 99.28495789 405.70272827 C89.86767892 405.68913638 80.4504042 405.68311896 71.03311706 405.67871761 C65.15530478 405.67595676 59.27749416 405.6717197 53.399683 405.66721344 C37.13243176 405.65501988 20.86518185 405.64472059 4.59792614 405.64133835 C3.55644171 405.64111878 2.51495729 405.64089922 1.44191273 405.640673 C-0.12409422 405.64034558 -0.12409422 405.64034558 -1.72173768 405.64001155 C-3.83735963 405.63956808 -5.95298157 405.63912152 -8.06860352 405.63867188 C-9.64274256 405.63833973 -9.64274256 405.63833973 -11.2486824 405.63800088 C-28.25788918 405.63405181 -45.26705314 405.61659488 -62.27624337 405.59331235 C-79.73054056 405.56961297 -97.18481626 405.55713715 -114.63912982 405.55597043 C-124.44264379 405.5550529 -134.24610197 405.54928089 -144.0496006 405.53115082 C-152.39660353 405.51576893 -160.74353343 405.51061806 -169.09054784 405.51888892 C-173.35050257 405.52280216 -177.61031016 405.52183308 -181.87024689 405.50783157 C-185.76936851 405.49513299 -189.6682318 405.49625437 -193.56735285 405.50842229 C-194.97853398 405.51038632 -196.38973314 405.50726835 -197.80088887 405.49857792 C-199.71857222 405.48751504 -201.6363405 405.49674721 -203.55402851 405.50696945 C-204.61941642 405.50637236 -205.68480433 405.50577528 -206.78247672 405.50516009 C-210.32034978 405.94609588 -212.73473252 407.05353167 -215.78125 408.87890625 Z M-201.78125 437.87890625 C-202.03438245 445.68608536 -202.03438245 445.68608536 -198.78125 451.87890625 C-195.16972338 453.71082561 -192.20468761 454.12977871 -188.18521214 454.13338184 C-186.50379968 454.14213013 -186.50379968 454.14213013 -184.78841931 454.15105516 C-183.56197278 454.14727583 -182.33552625 454.14349651 -181.07191467 454.13960266 C-179.11175145 454.14534098 -179.11175145 454.14534098 -177.11198896 454.15119523 C-173.48633561 454.16149059 -169.86078097 454.15928952 -166.23511946 454.15501463 C-162.32434304 454.15255021 -158.41359056 454.16155802 -154.50282288 454.16905212 C-146.84195053 454.18180887 -139.18111321 454.18359162 -131.52023203 454.18125186 C-125.29423496 454.1794697 -119.06824853 454.18121615 -112.84225273 454.1854763 C-111.95654692 454.18607149 -111.07084111 454.18666668 -110.15829573 454.18727991 C-108.35905779 454.18849164 -106.55981984 454.18970578 -104.7605819 454.19092228 C-87.88312831 454.2018015 -71.0056947 454.19963347 -54.12823998 454.19353744 C-38.68405437 454.18836745 -23.23993181 454.1996252 -7.79575867 454.21863566 C8.05850855 454.23800146 23.91274592 454.2462723 39.76702505 454.2425124 C48.66953803 454.24059851 57.57199732 454.24310626 66.47450066 454.25722694 C74.05290926 454.26912567 81.63123115 454.27056259 89.20964091 454.25843678 C93.07670921 454.25253757 96.94361875 454.2514773 100.81067657 454.26343918 C105.00138793 454.27625166 109.19171954 454.26585842 113.38243103 454.25312805 C115.21875474 454.26418948 115.21875474 454.26418948 117.0921759 454.27547437 C125.0899475 454.27151334 125.0899475 454.27151334 132.21875 450.87890625 C134.99935181 446.45522155 134.21875 443.51765994 134.21875 437.87890625 C23.33875 437.87890625 -87.54125 437.87890625 -201.78125 437.87890625 Z " fill="#FB6E3F" transform="translate(289.78125,26.12109375)"/>
<path d="M0 0 C5.82485779 3.51996782 10.54466582 8.98962934 12.5625 15.5 C13.36764105 23.33608208 13.68710392 31.11922577 8.5625 37.5 C3.75801361 42.54521222 -0.59927055 46.10562995 -7.70703125 46.8359375 C-16.22326573 46.92983204 -22.11345494 46.6177288 -28.40234375 40.62890625 C-34.7841668 33.72505269 -35.91792252 28.29832071 -35.7421875 18.9453125 C-35.04689797 11.08319245 -31.38995981 6.95041296 -25.53515625 1.9453125 C-18.47077988 -2.92213491 -7.84396301 -3.47595223 0 0 Z M-16.8125 17.125 C-18.92456506 20.21186432 -19.04945145 21.8282913 -18.4375 25.5 C-16.9375 28 -16.9375 28 -14.4375 29.5 C-10.7657913 30.11195145 -9.14936432 29.98706506 -6.0625 27.875 C-3.95043494 24.78813568 -3.82554855 23.1717087 -4.4375 19.5 C-5.9375 17 -5.9375 17 -8.4375 15.5 C-12.1092087 14.88804855 -13.72563568 15.01293494 -16.8125 17.125 Z " fill="#FD6C40" transform="translate(267.4375,313.5)"/>
</svg>
