<?xml version="1.0" encoding="UTF-8"?>
<svg version="1.1" xmlns="http://www.w3.org/2000/svg" width="512" height="512">
<path d="M0 0 C8.84727744 8.19793598 15.61123378 17.48622224 16.3671875 29.87890625 C16.59155185 39.35700748 15.89679313 47.12039189 12.12890625 55.97265625 C11.63390625 57.45765625 11.63390625 57.45765625 11.12890625 58.97265625 C20.54752146 67.72903917 20.54752146 67.72903917 30.16796875 76.26171875 C32.53386535 78.3259871 34.8621096 80.42969591 37.19140625 82.53515625 C41.11823588 86.0796207 45.09409177 89.55183528 49.12890625 92.97265625 C53.19572462 91.48626809 56.72938883 89.50538759 60.44140625 87.28515625 C91.21486331 69.43973419 126.03447725 64.83723161 160.58251953 73.27783203 C170.0709295 75.86690344 179.41080346 79.41986924 188.12890625 83.97265625 C193.76532942 77.85055489 199.12978034 71.62744122 204.12890625 64.97265625 C203.07543092 62.85107399 202.00733225 60.74002909 200.91015625 58.640625 C200.48734375 57.82207031 200.06453125 57.00351563 199.62890625 56.16015625 C199.20609375 55.34933594 198.78328125 54.53851563 198.34765625 53.703125 C193.82078546 43.56119332 193.16103604 30.49415307 196.75390625 19.91015625 C201.88504822 8.15353973 209.53823641 -0.51569655 221.12890625 -6.02734375 C222.04929687 -6.49140625 222.04929687 -6.49140625 222.98828125 -6.96484375 C232.42474319 -11.15882683 244.38329041 -11.08506562 254.12890625 -8.02734375 C266.74474854 -2.8952064 275.42123163 4.2586328 281.421875 16.640625 C286.47977419 29.29450276 285.98835249 42.12850383 281.00390625 54.72265625 C280.39126075 56.14470932 279.77105115 57.56367812 279.12890625 58.97265625 C285.07746148 64.45524132 291.02454632 69.92987108 297.13671875 75.23046875 C299.4891126 77.28766024 301.80925591 79.3786254 304.12890625 81.47265625 C307.10953346 84.16249056 310.10135858 86.83575989 313.12890625 89.47265625 C317.02403436 92.86518718 320.85673388 96.32459826 324.69140625 99.78515625 C326.82308106 101.69819774 328.96909735 103.59153237 331.12890625 105.47265625 C334.15645392 108.10955261 337.14827904 110.78282194 340.12890625 113.47265625 C348.94774061 121.43552985 348.94774061 121.43552985 358.12890625 128.97265625 C358.1546875 128.38097656 358.18046875 127.78929687 358.20703125 127.1796875 C358.48702736 123.2788326 358.89618419 120.42879149 360.69140625 116.91015625 C363.67632462 114.53752883 365.47550332 114.21809856 369.22265625 114.51171875 C371.12890625 114.97265625 371.12890625 114.97265625 373.62890625 116.72265625 C375.92666451 121.70113249 375.43868458 126.57735031 375.12890625 131.97265625 C375.70898438 131.76769531 376.2890625 131.56273437 376.88671875 131.3515625 C389.67304885 126.94175559 402.43979821 126.34104966 414.97265625 132.33203125 C417.44801958 133.7784785 419.79373519 135.31076444 422.12890625 136.97265625 C423.70671875 138.08640625 423.70671875 138.08640625 425.31640625 139.22265625 C435.23656663 148.92236862 439.46817185 159.81111755 439.62890625 173.53515625 C439.47610596 186.56138067 435.20615572 196.42457105 426.25 205.9765625 C416.02509207 215.54046628 404.50157662 218.43988118 390.81640625 218.22265625 C378.99799291 217.42140789 368.14102432 211.63749269 360.12890625 202.97265625 C350.90385679 190.93757169 348.61997545 178.85133551 350.12890625 163.97265625 C350.66248359 161.56570394 351.34953762 159.31697226 352.12890625 156.97265625 C351.32066406 156.99585938 350.51242187 157.0190625 349.6796875 157.04296875 C348.61105469 157.06101563 347.54242188 157.0790625 346.44140625 157.09765625 C345.38566406 157.12085938 344.32992188 157.1440625 343.2421875 157.16796875 C340.07568937 156.96931768 337.95188988 156.3866641 335.12890625 154.97265625 C332.96171419 152.31292055 333.13355762 150.88428029 333.31640625 147.41015625 C334.12890625 143.97265625 334.12890625 143.97265625 335.25390625 142.09765625 C338.07294309 140.40623414 340.89867808 140.27739476 344.12890625 139.97265625 C340.00801976 135.73586983 335.77180327 131.71585175 331.296875 127.85546875 C328.88047674 125.75690305 326.50361601 123.61825925 324.12890625 121.47265625 C321.14827904 118.78282194 318.15645392 116.10955261 315.12890625 113.47265625 C309.53910636 108.60122422 304.05355727 103.61370475 298.55078125 98.64453125 C294.13178671 94.65930305 289.69207612 90.70308196 285.203125 86.796875 C281.94338676 83.93002423 278.73479841 81.00677141 275.5234375 78.0859375 C273.11902016 75.96393133 270.64879528 73.95544637 268.12890625 71.97265625 C264.38495746 73.37663705 260.90482583 75.08848175 257.38671875 76.97265625 C245.75255426 82.12550419 233.33934978 81.08620923 221.703125 76.75 C219.04953472 75.67857358 219.04953472 75.67857358 216.12890625 76.97265625 C214.17763089 79.08625073 214.17763089 79.08625073 212.25390625 81.66015625 C209.28312275 85.49887454 206.25141639 89.25719558 203.12890625 92.97265625 C204.09570312 93.78347656 205.0625 94.59429687 206.05859375 95.4296875 C231.98958228 117.38285438 252.12654858 146.6369764 255.91796875 181.24804688 C259.03033797 221.44948264 249.09606923 253.01643895 225.12890625 284.97265625 C232.71890625 292.56265625 240.30890625 300.15265625 248.12890625 307.97265625 C251.31234779 306.38093548 253.10038535 305.27131161 255.62890625 302.97265625 C260.0766376 298.92926412 263.30061204 297.65758635 269.37890625 297.53515625 C270.4565625 297.49519531 271.53421875 297.45523437 272.64453125 297.4140625 C282.4100182 298.97960581 289.17474067 307.60935835 295.8125 314.328125 C296.91909676 315.43778466 298.0262899 316.54684988 299.13404846 317.65534973 C301.44057991 319.96645847 303.74214442 322.28235725 306.03979492 324.60229492 C308.98749992 327.57844655 311.94396711 330.54569818 314.90370083 333.50988293 C317.18352458 335.79385557 319.46050365 338.08064503 321.73643684 340.36849403 C322.82645221 341.46420893 323.9169388 342.55945527 325.00790215 343.6542263 C326.52541108 345.17858884 328.03947978 346.70628147 329.55249023 348.23510742 C330.8453318 349.53819099 330.8453318 349.53819099 332.16429138 350.86759949 C334.53381161 353.40650656 335.06533901 354.38783765 335.44140625 357.84765625 C335.12890625 360.97265625 335.12890625 360.97265625 333.44140625 363.28515625 C330.79321785 365.21761806 329.40886296 365.89456204 326.12890625 365.97265625 C321.58728523 364.06203355 318.54374759 361.73901396 315.12084961 358.22583008 C314.65983353 357.75722061 314.19881744 357.28861115 313.72383118 356.80580139 C312.73185908 355.79582876 311.74332349 354.78247133 310.75794792 353.76606178 C309.19716221 352.15743804 307.62612527 350.55949778 306.05189514 348.96403503 C301.58105643 344.42920576 297.12907884 339.87606234 292.68432617 335.31567383 C289.95824141 332.52012468 287.22011073 329.73684311 284.47439766 326.96057701 C283.43255938 325.90196867 282.39556049 324.83857481 281.36356926 323.77036476 C279.92276682 322.27918432 278.467247 320.80397274 277.00756836 319.33129883 C275.77229652 318.06579948 275.77229652 318.06579948 274.5120697 316.7747345 C272.26691919 314.7807934 272.26691919 314.7807934 269.49617004 314.56651306 C265.86914487 315.18878911 263.8902685 317.53608493 261.42578125 320.08203125 C260.90252258 320.60524963 260.37926392 321.12846802 259.84014893 321.6675415 C258.73834341 322.77470019 257.64264842 323.88796904 256.55273438 325.00683594 C254.88472161 326.716695 253.19639392 328.40424412 251.50390625 330.08984375 C250.43492716 331.16931599 249.36717601 332.25000591 248.30078125 333.33203125 C247.7966571 333.83635681 247.29253296 334.34068237 246.77313232 334.86029053 C243.35427335 338.38643323 243.35427335 338.38643323 242.12890625 342.97265625 C243.253905 344.92413695 243.253905 344.92413695 245.0559845 346.7021637 C245.7081576 347.40058947 246.3603307 348.09901524 247.03226662 348.81860542 C248.07010324 349.88486058 248.07010324 349.88486058 249.12890625 350.97265625 C250.08535821 351.9693398 250.08535821 351.9693398 251.06113243 352.98615837 C253.12173345 355.10903485 255.20529908 357.20696308 257.2956543 359.30053711 C258.08029053 360.09013824 258.86492676 360.87973938 259.67333984 361.69326782 C262.24301908 364.27743227 264.81647005 366.85779434 267.390625 369.4375 C269.18707801 371.23971032 270.98353084 373.04192082 272.77998352 374.84413147 C276.05495462 378.12823705 279.33132853 381.41093073 282.609348 384.6919927 C287.42753233 389.51467565 292.23906832 394.34386643 297.045057 399.17870229 C301.22196064 403.37980147 305.40707128 407.57265845 309.59522438 411.76254463 C311.37235983 413.54271124 313.14698853 415.32538393 314.9190731 417.11057854 C317.38917418 419.59766363 319.86848517 422.07519059 322.3503418 424.55053711 C323.0823732 425.29178329 323.8144046 426.03302948 324.56861877 426.79673767 C325.24554779 427.46809753 325.92247681 428.1394574 326.61991882 428.8311615 C327.20446177 429.41717101 327.78900473 430.00318052 328.3912611 430.6069479 C330.33212646 432.13237789 331.68812947 432.67090194 334.12890625 432.97265625 C336.04073266 431.88040668 336.04073266 431.88040668 337.78515625 430.10546875 C338.47996094 429.45610352 339.17476563 428.80673828 339.890625 428.13769531 C340.62925781 427.42323242 341.36789062 426.70876953 342.12890625 425.97265625 C342.89847656 425.25045898 343.66804688 424.52826172 344.4609375 423.78417969 C346.87779794 421.49884234 349.2557565 419.17829029 351.62890625 416.84765625 C352.45132812 416.06261719 353.27375 415.27757812 354.12109375 414.46875 C355.28511719 413.32212891 355.28511719 413.32212891 356.47265625 412.15234375 C357.17583984 411.46897949 357.87902344 410.78561523 358.60351562 410.08154297 C360.30668997 408.0536793 360.30668997 408.0536793 360.56030273 405.44262695 C360.02666795 402.38728846 359.11812869 401.39179116 356.8828125 399.2734375 C355.87444336 398.29600586 355.87444336 398.29600586 354.84570312 397.29882812 C354.13478516 396.63431641 353.42386719 395.96980469 352.69140625 395.28515625 C351.295012 393.9498622 349.90039048 392.61271106 348.5078125 391.2734375 C347.88463135 390.68731689 347.2614502 390.10119629 346.61938477 389.49731445 C344.29175466 387.11630708 344.13155843 386.00846071 343.87890625 382.59765625 C344.12890625 378.97265625 344.12890625 378.97265625 345.25390625 376.59765625 C347.87825223 374.32322307 349.67738187 374.04168674 353.12890625 373.97265625 C358.39372019 376.39823124 362.22150184 380.73438934 366.25390625 384.78515625 C366.96933594 385.48447266 367.68476563 386.18378906 368.421875 386.90429688 C374.07327159 392.55041179 377.54869341 397.06568081 377.62890625 405.34765625 C377.6753125 406.93707031 377.6753125 406.93707031 377.72265625 408.55859375 C376.44821235 415.88664616 371.1556933 421.41801228 366.05078125 426.5546875 C365.47990784 427.13554611 364.90903442 427.71640472 364.32086182 428.31486511 C363.12131774 429.52947457 361.91779229 430.74016407 360.71044922 431.94702148 C358.88122442 433.78282973 357.07738441 435.64134158 355.2734375 437.50195312 C354.09652731 438.68766401 352.918188 439.87195846 351.73828125 441.0546875 C351.20982605 441.60469925 350.68137085 442.154711 350.13690186 442.72138977 C345.37363 447.40071864 339.9812656 449.67919397 333.30859375 450.1875 C332.54804688 450.09597656 331.7875 450.00445312 331.00390625 449.91015625 C330.23820312 449.83667969 329.4725 449.76320313 328.68359375 449.6875 C320.83429148 447.4911356 315.70036136 441.97404397 310.12011719 436.35205078 C308.8090802 435.04889923 308.8090802 435.04889923 307.47155762 433.71942139 C305.090105 431.34886744 302.7155461 428.97181451 300.34432507 426.59105158 C297.85451892 424.09361482 295.35736111 421.60354583 292.86138916 419.11227417 C288.67334272 414.9296744 284.49163599 410.74081452 280.31347656 406.54833984 C275.4901458 401.70867401 270.65608856 396.87992447 265.81633925 392.05668175 C261.65183045 387.90580615 257.4932204 383.74908878 253.33944535 379.58747184 C250.8626394 377.10600083 248.38387962 374.62657277 245.89977264 372.1524086 C243.13124469 369.39419091 240.37513154 366.62376956 237.62011719 363.85205078 C236.80033386 363.03834015 235.98055054 362.22462952 235.13592529 361.38626099 C229.13047297 355.31318695 225.66267374 350.21899879 225.078125 341.5546875 C225.21387823 334.65215807 227.49194621 330.27738632 232.31640625 325.41015625 C233.57296586 324.24868764 234.8390674 323.09705259 236.12890625 321.97265625 C234.56607643 318.20661756 232.22255875 315.83626474 229.33984375 312.98828125 C228.8765567 312.5278241 228.41326965 312.06736694 227.9359436 311.59295654 C226.46324727 310.13140547 224.98373222 308.67698457 223.50390625 307.22265625 C222.50084303 306.22963014 221.49823368 305.23614536 220.49609375 304.2421875 C218.0455979 301.81367684 215.58893955 299.3915095 213.12890625 296.97265625 C212.60433838 297.36662598 212.07977051 297.7605957 211.53930664 298.16650391 C210.09063758 299.2538794 208.64147981 300.34060404 207.19189453 301.42675781 C205.6893938 302.5526554 204.18808965 303.68015034 202.6875 304.80859375 C190.49203077 313.65760825 177.45557625 319.53664604 163.12890625 323.97265625 C162.1028125 324.29105469 161.07671875 324.60945313 160.01953125 324.9375 C128.01902985 333.8216171 92.11917736 328.64017278 63.12109375 312.83984375 C55.14267261 308.30338765 48.05565604 303.00489199 41.12890625 296.97265625 C40.4740625 296.43898438 39.81921875 295.9053125 39.14453125 295.35546875 C14.94669208 275.54750306 0.45269137 242.99806599 -2.68579102 212.32788086 C-5.29883567 179.1157046 2.66357836 144.06296335 24.61474609 118.22363281 C26.97743598 115.57288377 29.40122757 113.00548535 31.87890625 110.4609375 C33.82011617 108.31414806 35.03695479 106.6218794 36.12890625 103.97265625 C30.51796666 98.84648534 24.89745 93.73876803 19.16015625 88.75390625 C16.77467908 86.66202627 14.42046455 84.53731737 12.06640625 82.41015625 C8.13957662 78.8656918 4.16372073 75.39347722 0.12890625 71.97265625 C-3.61504254 73.37663705 -7.09517417 75.08848175 -10.61328125 76.97265625 C-21.73517514 81.89861618 -34.60255565 81.28908319 -45.90625 77.29296875 C-57.7271448 72.02885486 -65.93098443 63.26925204 -70.9609375 51.453125 C-74.86907959 40.80217982 -74.26880703 26.93272765 -70.140625 16.48828125 C-64.40331784 5.11958644 -54.57286122 -3.26616615 -42.87109375 -8.02734375 C-28.13594799 -12.54081182 -11.82416236 -9.96275576 0 0 Z M-49.1484375 15.03515625 C-55.66812986 22.36796217 -57.23855215 28.6682556 -57.1484375 38.390625 C-56.54166811 46.22735076 -52.7394182 52.78789487 -46.87109375 57.97265625 C-39.04589471 63.22574639 -32.27151948 64.85784223 -22.87109375 63.97265625 C-14.89164653 61.9488834 -8.73559054 58.19635995 -4.109375 51.375 C0.59902458 43.04475459 1.6340503 35.54140218 -0.50390625 26.2109375 C-3.22131593 18.21783606 -8.6449877 12.30445928 -16.18359375 8.53515625 C-28.35420054 3.87984696 -39.67542644 6.00953585 -49.1484375 15.03515625 Z M215.67578125 18.8515625 C210.61239054 25.79454522 209.94529641 33.56126499 211.12890625 41.97265625 C214.0460469 50.6930448 218.36581369 56.78541549 226.375 61.21484375 C233.88883293 64.70126223 241.39351696 65.5646767 249.3125 62.90234375 C257.52216808 59.15110964 262.70308287 54.41999911 267.00390625 46.53515625 C269.60441431 38.30021406 269.83506089 30.832354 266.16015625 22.875 C261.38030696 14.4941156 254.79406058 9.53696119 245.65625 6.62890625 C233.89666376 3.57541245 223.01081198 10.00733297 215.67578125 18.8515625 Z M47.12890625 117.97265625 C46.36964844 118.66875 45.61039063 119.36484375 44.828125 120.08203125 C24.55848507 139.26642276 14.11492858 167.65077211 13 195.15234375 C12.47319133 226.12869372 22.57765006 254.51891865 44.12890625 276.97265625 C45.26779297 278.20628906 45.26779297 278.20628906 46.4296875 279.46484375 C67.22472069 301.31494409 94.99979271 311.0513979 124.58203125 313.2265625 C127.46030659 313.28554355 130.25795967 313.18403786 133.12890625 312.97265625 C134.30839844 312.89144531 135.48789063 312.81023437 136.703125 312.7265625 C166.56905832 309.84397988 195.05871366 295.44627964 214.296875 272.24609375 C224.87054963 258.93183427 232.62356132 244.3862462 237.12890625 227.97265625 C237.44730469 226.88855469 237.76570312 225.80445313 238.09375 224.6875 C245.21859249 196.08962991 239.15461343 166.39111079 225.03515625 141.09375 C221.76912464 135.74629251 218.08177946 130.82866936 214.12890625 125.97265625 C213.3915625 125.05742187 212.65421875 124.1421875 211.89453125 123.19921875 C196.84244758 105.57110734 175.46282651 93.57456364 153.12890625 87.97265625 C152.21496094 87.740625 151.30101562 87.50859375 150.359375 87.26953125 C112.57884419 79.14468592 74.64337106 91.61038846 47.12890625 117.97265625 Z M372.44140625 154.72265625 C366.80193914 161.52245619 365.42685418 167.76109564 365.65234375 176.5859375 C366.66899949 183.81085987 370.06691949 190.4382555 375.37890625 195.47265625 C382.82168712 200.98945435 390.93977319 203.25913488 400.12890625 201.97265625 C408.39232901 199.82223337 414.2699816 195.68153147 419.44140625 188.97265625 C423.6141712 181.55440745 424.013568 174.33086676 423.12890625 165.97265625 C420.79587848 158.27574768 415.89475085 151.9501744 409.078125 147.69140625 C395.90957568 140.74753844 382.44725924 144.04835379 372.44140625 154.72265625 Z " fill="#FB6C41" transform="translate(72.87109375,36.02734375)"/>
<path d="M0 0 C0.63502441 0.20898926 1.27004883 0.41797852 1.92431641 0.63330078 C27.15820809 9.11661617 47.08921351 28.12457858 58.91796875 51.7578125 C69.92875805 74.77747893 71.77697801 101.63213558 64 126 C63.68651611 126.98250732 63.68651611 126.98250732 63.36669922 127.98486328 C58.58372272 142.34095829 50.50207904 154.17507223 40 165 C39.40058594 165.67289063 38.80117188 166.34578125 38.18359375 167.0390625 C25.51996823 180.7693865 4.6234575 192.01386593 -14.15625 193.19921875 C-17 193 -17 193 -19.875 190.875 C-22 188 -22 188 -22.625 185 C-21.77534771 180.921669 -20.18770864 179.65220732 -17 177 C-14.32626962 176.0548278 -11.86383835 175.32709036 -9.125 174.6875 C3.89927377 171.23305838 14.95315763 165.04573352 25 156 C26.02480469 155.11441406 26.02480469 155.11441406 27.0703125 154.2109375 C41.61914672 140.80318832 50.33358726 120.3256722 51.31640625 100.7890625 C52.05787394 76.6239563 44.69221536 55.40648951 28.56640625 37.26171875 C24.73099084 33.30988263 20.90114001 29.56726381 16 27 C12.06527452 28.31157516 10.87316576 30.33383447 8.3125 33.5625 C7.50425781 34.57441406 6.69601563 35.58632812 5.86328125 36.62890625 C5.24839844 37.41136719 4.63351563 38.19382813 4 39 C5.87143015 43.90911386 8.25448043 48.4958508 10.66015625 53.16015625 C14.89817212 62.14277297 14.30117418 75.04677953 11.5 84.4375 C6.706401 96.58128414 -2.21246806 105.82996593 -14.0625 111.22265625 C-25.27332883 115.72054927 -37.67882128 115.28827465 -49 111.3203125 C-60.27173751 106.35957385 -69.30333872 97.5700237 -74.02734375 86.15234375 C-77.64493057 74.42787561 -77.85910663 63.0342621 -73.3125 51.5625 C-71.85904302 47.66369298 -71.85904302 47.66369298 -73 44 C-74.97893575 41.96711909 -76.93144054 40.10584835 -79.0625 38.25 C-79.63033203 37.74339844 -80.19816406 37.23679688 -80.78320312 36.71484375 C-82.1819865 35.46886864 -83.59010733 34.23339027 -85 33 C-96.99721987 38.07990391 -104.08974473 53.99809402 -108.8125 65.375 C-116.13272359 85.75291972 -116.42558473 108.32085994 -107.37109375 128.203125 C-106.91863281 129.12609375 -106.46617188 130.0490625 -106 131 C-105.33677734 132.38445312 -105.33677734 132.38445312 -104.66015625 133.796875 C-95.08145822 152.582798 -78.76492701 166.47705098 -58.8737793 173.25488281 C-57.05731916 173.83662644 -55.23007761 174.38439674 -53.40234375 174.9296875 C-43.67312349 177.99031477 -43.67312349 177.99031477 -41 182 C-40.40027568 185.94104552 -40.71284788 187.55012835 -42.875 190.9375 C-46.75277341 193.49683045 -48.53419211 193.42225638 -53.01171875 192.69921875 C-78.87843825 186.64674451 -101.69650955 171.47180564 -115.90478516 148.80517578 C-129.78921907 125.92031078 -134.52325947 99.31500586 -129 73 C-122.28041412 46.06724686 -106.94105512 23.56894274 -83 9 C-72.81640496 3.26430049 -62.40183634 -0.51462434 -51 -3 C-50.23816406 -3.1743457 -49.47632813 -3.34869141 -48.69140625 -3.52832031 C-32.9897705 -6.28009465 -15.0977733 -5.10683375 0 0 Z M-57.5625 15.375 C-58.20413086 15.57182373 -58.84576172 15.76864746 -59.50683594 15.97143555 C-64.0653982 17.46777113 -67.91896731 19.53142167 -72 22 C-70.83462887 23.16537113 -69.66747614 24.32900651 -68.4921875 25.484375 C-67.46568856 26.52699696 -66.47200745 27.60263024 -65.5078125 28.703125 C-63.83742923 30.62128448 -63.83742923 30.62128448 -61 33 C-57.27802953 32.71462869 -54.53748473 31.35889645 -51.3125 29.5625 C-40.27019491 23.89389828 -29.62920344 23.99431712 -17.89453125 27.24609375 C-16.93933594 27.49488281 -15.98414063 27.74367187 -15 28 C-13.9790625 28.28488281 -12.958125 28.56976563 -11.90625 28.86328125 C-8.90186265 29.31792689 -8.90186265 29.31792689 -6.69921875 27.234375 C-5.70341797 26.00460938 -5.70341797 26.00460938 -4.6875 24.75 C-4.01074219 23.94046875 -3.33398438 23.1309375 -2.63671875 22.296875 C-0.84279064 20.01671936 -0.84279064 20.01671936 0 17 C-18.99128621 10.3010189 -38.20501513 9.36411197 -57.5625 15.375 Z M-53 49 C-58.55398633 56.03504935 -61.30719016 63.60660486 -60.875 72.6015625 C-59.65610454 80.80371319 -55.56934258 87.22460022 -49.125 92.375 C-41.77455989 97.37718987 -34.90249803 99.10351299 -26 98 C-18.01564747 95.93989738 -11.87717728 92.24240109 -7.23828125 85.40234375 C-2.58666009 77.17255247 -1.83049395 70.00485393 -3.375 60.75390625 C-5.41362652 53.71781334 -11.29214782 47.25309678 -17.44921875 43.51171875 C-29.77922814 37.90716903 -43.20265274 39.03445793 -53 49 Z " fill="#FC7E34" transform="translate(231,140)"/>
<path d="M0 0 C2.42160142 3.63240213 2.36032436 5.61112462 2.4375 9.9375 C2.47746094 11.16339844 2.51742188 12.38929687 2.55859375 13.65234375 C2 17 2 17 -0.3359375 19.41015625 C-3.58656712 21.35004812 -5.27597201 21.6338771 -9 21 C-11.30275556 19.1329009 -12.67823871 17.64352259 -14 15 C-14.50837553 9.82457047 -14.83827129 5.44529532 -12.1875 0.875 C-7.87022464 -2.82552174 -5.07475197 -1.84536435 0 0 Z " fill="#FD485B" transform="translate(463,71)"/>
<path d="M0 0 C3.25 2.0625 3.25 2.0625 5 5 C5.5625 8.5625 5.5625 8.5625 5 12 C2.72500735 15.10934203 1.53301688 15.91451616 -2.3125 16.53125 C-3.529375 16.5209375 -4.74625 16.510625 -6 16.5 C-7.8253125 16.51546875 -7.8253125 16.51546875 -9.6875 16.53125 C-13 16 -13 16 -15.40234375 14.21875 C-17.54289745 11.24604951 -17.6586416 9.47233992 -17.42578125 5.90625 C-17 4 -17 4 -15.25 1.5 C-10.2170953 -0.82287909 -5.44033414 -0.8566272 0 0 Z " fill="#FC465D" transform="translate(485,51)"/>
<path d="M0 0 C3.25 2.125 3.25 2.125 5 5 C5.81252952 8.9001417 5.32483711 10.44657382 3.3125 13.875 C-1.73359979 17.11212062 -7.16166336 17.08117345 -13 16 C-15.55009373 13.9514247 -16.76462168 12.61198363 -17.9375 9.5625 C-18.01997067 6.18120249 -17.0198841 4.66913256 -15 2 C-10.32724314 -1.11517124 -5.46639968 -0.7146102 0 0 Z " fill="#FD4D57" transform="translate(442,51)"/>
<path d="M0 0 C2.50544419 2.38971928 2.97943068 3.85464349 3.46875 7.3125 C3.4790625 8.529375 3.489375 9.74625 3.5 11 C3.5309375 12.216875 3.561875 13.43375 3.59375 14.6875 C3 18 3 18 0.6953125 20.44140625 C-2 22 -2 22 -5.625 21.9375 C-8.84839166 21.04211343 -10.09276958 20.64893115 -12 18 C-13.96752105 14.0649579 -13.46422595 9.2894478 -13 5 C-9.40193507 -0.99677489 -6.68593134 -1.52486153 0 0 Z " fill="#FD4A5A" transform="translate(462,27)"/>
</svg>
